<svg xmlns="http://www.w3.org/2000/svg" viewBox="-3.4 -2.8 172.8 129.6" xmlns:xlink="http://www.w3.org/1999/xlink"><defs><path id="a" d="M77.985 75.76h6.02a1 1 0 011 1v5.975a1 1 0 01-1 1h-6.02a1 1 0 01-1-1V76.76a1 1 0 011-1"/></defs><path fill="#fafafa" stroke="#8392aa" stroke-width="1.68" d="M28.864 0h134.74a2.4 2.4 0 012.4 2.4v102.86a2.4 2.4 0 01-2.4 2.4H28.864a2.4 2.4 0 01-2.4-2.4V2.4a2.4 2.4 0 012.4-2.4z"/><path fill="#eeeff7" d="M29.27 1.595H163.2a1.2 1.2 0 011.2 1.2v7.967a1.2 1.2 0 01-1.2 1.2H29.27a1.2 1.2 0 01-1.2-1.2V2.795a1.199 1.199 0 011.2-1.2"/><g fill="#8392aa"><ellipse cx="34.814" cy="5.888" rx="1.687" ry="1.671"/><ellipse cx="39.31" cy="5.888" rx="1.687" ry="1.671"/><ellipse cx="43.81" cy="5.888" rx="1.687" ry="1.671"/></g><path fill="none" stroke="#8392aa" stroke-width="1.68" stroke-linecap="square" d="M28.378 11.204h136.06"/><path fill="#cdd1e6" d="M91.42 26.08h62.55v4.705H91.42z"/><path d="M91.42 39.08h62.55v4.705H91.42zm0 12.755h62.55v4.705H91.42z" fill="#8392aa"/><path fill="#cdd1e6" d="M91.42 64.59h62.55v4.705H91.42z"/><path fill="#8392aa" d="M91.42 77.35h62.55v4.705H91.42z"/><path fill="#cdd1e6" d="M91.42 90.11h62.55v4.705H91.42z"/><path fill="#5ae8b7" d="M77.985 37.481h6.02a1 1 0 011 1v5.975a1 1 0 01-1 1h-6.02a1 1 0 01-1-1v-5.975a1 1 0 011-1"/><path fill="#8392aa" d="M77.985 37.481h6.02a1 1 0 011 1v5.975a1 1 0 01-1 1h-6.02a1 1 0 01-1-1v-5.975a1 1 0 011-1"/><path fill="#fff" d="M80.56 42.05l2.148-2.457a.457.457 0 01.709 0 .633.633 0 010 .811l-2.434 2.784a.538.538 0 01-.177.163.457.457 0 01-.581-.107.61.61 0 01-.077-.113l-1.264-1.484c-.184-.215-.175-.553.021-.755s.503-.192.687.023l.968 1.135"/><path fill="#3acf92" d="M77.985 50.24h6.02a1 1 0 011 1v5.975a1 1 0 01-1 1h-6.02a1 1 0 01-1-1V51.24a1 1 0 011-1"/><path fill="#8392aa" d="M77.985 50.24h6.02a1 1 0 011 1v5.975a1 1 0 01-1 1h-6.02a1 1 0 01-1-1V51.24a1 1 0 011-1"/><path fill="#fff" d="M80.56 54.81l2.148-2.458c.196-.224.514-.224.709 0s.196.587 0 .811l-2.434 2.784a.494.494 0 01-.177.162.455.455 0 01-.581-.106.571.571 0 01-.077-.112l-1.264-1.484a.571.571 0 01.021-.755.456.456 0 01.687.023l.968 1.135"/><use fill="#5ae8b7" xlink:href="#a"/><use fill="#71e3bd" xlink:href="#a"/><use fill="#808f95" xlink:href="#a"/><path fill="#fff" d="M80.56 80.33l2.148-2.457a.457.457 0 01.709 0 .634.634 0 010 .812l-2.434 2.784a.487.487 0 01-.177.162.458.458 0 01-.581-.106.61.61 0 01-.077-.113l-1.264-1.484c-.184-.215-.175-.553.021-.755s.503-.191.687.023l.968 1.134"/><path fill="#fafafa" stroke="#8392aa" stroke-width="1.68" d="M5.453 37.874C1.443 37.874 0 39.298 0 43.24v80.5l27.27-16.604 27.27 16.604v-80.5c0-3.942-1.448-5.366-5.453-5.366H5.461z"/><path fill="#8392aa" d="M15.841 49.04h22.15v4.704H21.226v8.146h15.516v4.443H21.226v9.104h17.07v4.704H15.842v-31.1"/></svg>