<svg width="74" height="16" xmlns="http://www.w3.org/2000/svg"><path d="M11.228 3.727V1.076H.327v2.651h7.229L.168 12.928v2.674h11.22v-2.674h-7.57zm5.644.702c-3.127 0-5.484 2.583-5.484 5.756 0 3.152 2.449 5.735 5.826 5.735 1.835 0 3.376-.748 4.192-1.7l-1.428-1.882a3.686 3.686 0 01-2.651 1.134c-1.678 0-2.833-1.088-3.106-2.607h8.046c.045-.18.068-.566.068-.906 0-3.127-2.358-5.53-5.463-5.53zm-2.605 4.69c.318-1.382 1.269-2.334 2.652-2.334 1.292 0 2.266.793 2.583 2.334h-5.235zm42.975 1.497c0 1.586-.929 2.651-2.312 2.651-1.383 0-2.312-1.065-2.312-2.651v-5.87h-2.766v6.074c0 3.037 2.017 5.055 5.077 5.055s5.078-2.017 5.078-5.055V4.746h-2.765v5.87zM67.894 4.43v-.002c-1.405 0-2.516.566-3.308 1.496V.008H61.82v15.594h2.765v-1.087c.77.884 1.88 1.405 3.308 1.405 3.015 0 5.213-2.47 5.213-5.757 0-3.377-2.334-5.734-5.213-5.734zm-.43 8.884c-1.654 0-2.878-1.383-2.878-3.128s1.224-3.15 2.878-3.15c1.677 0 2.878 1.405 2.878 3.15 0 1.746-1.2 3.128-2.878 3.128zm-38.749-8.9c-2.976 0-4.938 2.018-4.938 5.054v6.075h2.69v-5.87c0-1.587.904-2.652 2.248-2.652 1.344 0 2.247 1.065 2.247 2.651v5.871h2.69V9.468c0-3.037-1.962-5.054-4.937-5.054zm16.376 2.44H38.18v-5.78h-2.834v14.527h2.834V9.505h6.912V15.6h2.855V1.075h-2.855z" fill="#323F48"/></svg>