<svg width="128" height="128" fill="none" xmlns="http://www.w3.org/2000/svg"><path fill="#1D2229" d="M0 0h128v128H0z"/><path fill-rule="evenodd" clip-rule="evenodd" d="m85.956 73.037.01 25.033H110.2V26.667H85.963v23.425H75.616V26.667H51.479v7.223h16.914v23.425h24.794V33.89h9.789v56.957h-9.79l-.01-25.033H68.392v16.543h.127v8.49H51.48v7.223h24.137V73.037h10.34Zm-27.254 9.32V54.8l-7.223 9.814v17.742h7.224Zm-7.223-34.84 3.788-5.136H51.48v5.136Z" fill="#fff"/><path fill-rule="evenodd" clip-rule="evenodd" d="M18.567 98.07V79.973l22.398-30.37H18.567V26.668h56.551v18.015l-22.41 30.45h23.036V98.07H18.567Zm19.855-15.714 29.473-40.045v-8.42H25.79v8.49h29.478L25.79 82.347v8.499h42.73v-8.49H38.422Z" fill="#fff"/></svg>