<svg height="16" width="12" xmlns="http://www.w3.org/2000/svg"><path d="M11 11.28V5c-.03-.78-.34-1.47-.94-2.06S8.78 2.03 8 2H7V0L4 3l3 3V4h1c.27.02.48.11.69.31s.3.42.31.69v6.28A1.993 1.993 0 0010 15a1.993 1.993 0 001-3.72zm-1 2.92c-.66 0-1.2-.55-1.2-1.2s.55-1.2 1.2-1.2 1.2.55 1.2 1.2-.55 1.2-1.2 1.2zM4 3c0-1.11-.89-2-2-2a1.993 1.993 0 00-1 3.72v6.56A1.993 1.993 0 002 15a1.993 1.993 0 001-3.72V4.72c.59-.34 1-.98 1-1.72zm-.8 10c0 .66-.55 1.2-1.2 1.2S.8 13.65.8 13s.55-1.2 1.2-1.2 1.2.55 1.2 1.2zM2 4.2C1.34 4.2.8 3.65.8 3S1.35 1.8 2 1.8s1.2.55 1.2 1.2S2.65 4.2 2 4.2z"/></svg>