<svg width="16" height="16" xmlns="http://www.w3.org/2000/svg"><g fill="none" fill-rule="evenodd"><path d="M0 0h16v16H0z"/><g fill="#767676"><path d="M14.89 6.005c-.032-.754-.34-1.416-.928-1.989-.586-.572-1.267-.874-2.039-.903h-4.11V5.04h4.11a1 1 0 01.68.301c.2.196.293.407.309.663v6.056a1.909 1.909 0 00-.989 1.657c0 1.07.88 1.928 1.978 1.928 1.097 0 1.977-.858 1.977-1.928a1.91 1.91 0 00-.989-1.657V6.005zm-2.179 7.713c0-.633.54-1.16 1.19-1.16.648 0 1.19.527 1.19 1.16 0 .632-.542 1.16-1.19 1.16-.65 0-1.19-.528-1.19-1.16z"/><path d="M4.176.935c1.774 0 3.222 1.412 3.222 3.142S5.95 7.218 4.176 7.218C2.4 7.218.953 5.807.953 4.077S2.401.935 4.176.935zm0-.715C1.995.22.22 1.95.22 4.077c0 2.126 1.775 3.856 3.956 3.856 2.18 0 3.955-1.73 3.955-3.856C8.13 1.95 6.356.22 4.176.22zm.565 1.653H3.61v2.755h1.13V1.873zm0 3.305H3.61V6.28h1.13V5.178z"/></g></g></svg>