<svg width="90" height="33" xmlns="http://www.w3.org/2000/svg" xmlns:xlink="http://www.w3.org/1999/xlink"><defs><rect id="a" x="0" y="0" width="46" height="15" rx="3"/><mask id="b" maskContentUnits="userSpaceOnUse" maskUnits="objectBoundingBox" x="0" y="0" width="46" height="15" fill="#fff"><use xlink:href="#a"/></mask></defs><g fill="none" fill-rule="evenodd"><path d="M75 22.27v7.47c0 .45.3.84.75.97l6.5 1.73c.16.05.34.05.5 0l6.5-1.73c.45-.13.75-.52.75-.97v-7.47c0-.45-.3-.84-.75-.97l-6.5-1.74a1.4 1.4 0 00-.5 0l-6.5 1.74c-.45.13-.75.52-.75.97zm7 9.09l-6-1.59V23l6 1.61v6.75zM76 22l2.5-.67 6.5 1.73-2.5.67L76 22zm13 7.77l-6 1.59v-6.75l2-.55v2.44l2-.53v-2.44l2-.53v6.77zm-2-7.24l-6.5-1.73 2-.53L89 22l-2 .53z" fill="#545E6D"/><path d="M23 13.324C23 5.306 38.649 1 50.958 1c12.31 0 27.959 4.306 27.959 12.324" stroke="#545E6D"/><g transform="translate(0 18)"><use stroke="#545E6D" mask="url(#b)" stroke-width="2" xlink:href="#a"/><path d="M7.248 8.872h1.083v1.083H7.248V8.872zm1.083-3.248H7.248v2.707h1.083V5.624zm.812.812l-.542.541 1.354 1.354 2.165-2.436-.541-.542-1.624 1.895-.812-.812zm-1.354 4.44A3.094 3.094 0 014.702 7.79c0-1.7 1.387-3.087 3.087-3.087.99 0 1.87.474 2.436 1.193l.5-.5A3.768 3.768 0 007.788 4 3.794 3.794 0 004 7.79c0 2.089 1.7 3.789 3.79 3.789 2.089 0 3.789-1.7 3.789-3.79l-.82.82a3.08 3.08 0 01-2.97 2.268zm7.377-5.68c.516-.525 1.171-.787 1.967-.787 1.065 0 1.843.352 2.336 1.056.272.395.418.792.438 1.19h-1.323c-.086-.306-.196-.537-.33-.693-.24-.277-.597-.415-1.07-.415-.48 0-.86.195-1.137.586-.278.391-.417.944-.417 1.66s.147 1.251.44 1.608c.294.356.666.534 1.119.534.463 0 .817-.153 1.06-.458.135-.165.247-.412.335-.74h1.31c-.115.695-.407 1.26-.878 1.696-.471.436-1.074.654-1.81.654-.91 0-1.626-.295-2.147-.883-.521-.592-.782-1.403-.782-2.433 0-1.113.297-1.972.89-2.575zm6.55 5.713h-1.224V4.53h1.224v6.38zm3.78-1.255c.191-.257.287-.622.287-1.095s-.096-.837-.288-1.093c-.191-.255-.466-.383-.824-.383-.358 0-.633.128-.827.383-.193.256-.29.62-.29 1.093s.097.838.29 1.095c.194.257.469.385.827.385s.633-.128.824-.385zm.978.682c-.395.492-.994.738-1.799.738-.804 0-1.404-.246-1.799-.738s-.593-1.085-.593-1.777c0-.68.198-1.271.593-1.77.395-.5.995-.749 1.8-.749.804 0 1.403.25 1.798.749s.593 1.09.593 1.77c0 .692-.198 1.285-.593 1.777zm2.084-.933c.026.22.082.375.167.467.152.165.433.247.842.247.24 0 .432-.036.573-.108.142-.072.213-.18.213-.325a.35.35 0 00-.172-.316c-.114-.072-.54-.196-1.275-.372-.53-.133-.903-.298-1.121-.498-.218-.196-.326-.479-.326-.848 0-.436.17-.81.509-1.123.339-.313.816-.47 1.432-.47.584 0 1.06.118 1.427.353.368.235.58.641.634 1.219h-1.224a.733.733 0 00-.133-.377c-.135-.167-.364-.251-.687-.251-.266 0-.456.042-.57.125-.112.084-.169.182-.169.295 0 .141.06.244.18.307.12.066.546.18 1.276.342.486.115.851.29 1.095.524.24.236.36.532.36.887 0 .467-.172.849-.517 1.145-.345.295-.878.443-1.6.443-.735 0-1.278-.156-1.629-.47a1.533 1.533 0 01-.526-1.196h1.24zm4.787-2.051c-.156.178-.254.42-.295.727h1.903c-.02-.326-.118-.574-.294-.743a.91.91 0 00-.655-.253c-.284 0-.503.09-.66.269zm1.71-1.065c.313.147.57.38.774.697.183.28.302.604.356.973.032.217.044.528.039.935H33.02c.018.473.165.805.443.996.169.118.372.177.61.177.251 0 .456-.072.613-.216.086-.078.162-.186.228-.325h1.25c-.032.28-.176.564-.434.853-.4.459-.962.688-1.683.688a2.36 2.36 0 01-1.576-.58c-.455-.387-.683-1.016-.683-1.887 0-.817.205-1.443.616-1.878.411-.436.944-.654 1.6-.654.389 0 .74.074 1.052.22zm4.137-.02c.22.126.4.3.537.522v-2.25h1.24v6.37H39.78v-.653c-.174.28-.373.483-.597.61-.223.127-.5.19-.833.19-.547 0-1.007-.223-1.38-.668-.374-.446-.56-1.018-.56-1.716 0-.805.183-1.439.551-1.9.368-.462.86-.693 1.475-.693a1.5 1.5 0 01.756.188zm.3 3.361c.18-.26.271-.596.271-1.008 0-.577-.145-.99-.434-1.238a.929.929 0 00-.618-.225c-.358 0-.62.136-.788.409-.167.272-.251.61-.251 1.015 0 .435.085.784.255 1.045.17.261.429.392.775.392.347 0 .61-.13.79-.39z" fill="#545E6D"/></g><path fill="#545E6D" d="M83.257 12.879l-3.878 4.878L75.5 12.88z"/></g></svg>