<svg viewBox="0 0 16 16" xmlns="http://www.w3.org/2000/svg"><path d="M10.424 12.731l-2.244-2.13 2.078-1.964 2.426 2.306V.952c0-.7-.257-.954-.968-.954H3.969c-.711 0-.968.253-.968.954v14.299l4.842-2.949 1.845 1.124.737-.698M5.672 7.953V1.695h4.371v.947H6.735v1.639H9.37v.894H6.735v1.832h3.367v.947h-4.43m10.251 2.867L16 10.75l-.884-.837-2.335 2.207-2.335-2.207-.884.837 2.335 2.205-2.335 2.208.882.837 2.337-2.208 2.258 2.135.076.073.884-.837-2.335-2.208 2.257-2.134" fill="#fff" fill-rule="evenodd"/></svg>