<svg width="24" height="24" fill="none" xmlns="http://www.w3.org/2000/svg"><path fill-rule="evenodd" clip-rule="evenodd" d="M8.988 3.144a.218.218 0 01.261-.156l5.569 1.616H8.59l.394-1.449.003-.01zm-2.15 1.46l.512-1.917A1.918 1.918 0 019.7 1.348l.007.002 10.076 2.925a1.918 1.918 0 011.343 2.35L17.5 21.644a1.917 1.917 0 01-.5.862v-.016a1.936 1.936 0 01-1.47.673H4.744c-1.045 0-1.922-.83-1.922-1.896V6.5c0-1.066.877-1.896 1.922-1.896h2.095zm10.617 9.982l2.029-8.407a.218.218 0 00-.155-.265l-.008-.002-2.364-.687c.308.334.498.78.498 1.275v8.086zM4.421 6.5c0-.146.125-.296.322-.296h10.79c.197 0 .322.15.322.296v14.766a.314.314 0 01-.324.298H4.743c-.197 0-.322-.15-.322-.296V6.5z" fill="#666"/></svg>