<svg width="16" height="16" xmlns="http://www.w3.org/2000/svg" xmlns:xlink="http://www.w3.org/1999/xlink"><defs><path d="M8 .667c1.013 0 1.833.82 1.833 1.833v.053a.4.4 0 00.247.366.395.395 0 00.433-.075l.037-.036A1.833 1.833 0 1113.144 5.4l-.032.032a.397.397 0 00-.08.438c.018.04.03.08.04.122a.396.396 0 00.324.174h.104a1.833 1.833 0 010 3.666h-.053a.397.397 0 00-.363.241.398.398 0 00.072.44l.036.036a1.833 1.833 0 11-2.593 2.594l-.032-.032a.4.4 0 00-.444-.077.396.396 0 00-.24.361v.104a1.833 1.833 0 01-3.667 0 .427.427 0 00-.296-.419.395.395 0 00-.433.075l-.037.036A1.833 1.833 0 112.856 10.6l.032-.032a.4.4 0 00.077-.444.396.396 0 00-.361-.24H2.5a1.833 1.833 0 110-3.667.427.427 0 00.419-.296.395.395 0 00-.075-.433l-.036-.037A1.833 1.833 0 115.4 2.856l.032.032c.116.114.29.145.438.08a.67.67 0 01.122-.04.396.396 0 00.174-.324V2.5c0-1.013.82-1.833 1.833-1.833zm0 1.222a.611.611 0 00-.611.611v.106a1.62 1.62 0 01-.982 1.482.611.611 0 01-.161.045 1.622 1.622 0 01-1.673-.376l-.036-.037a.611.611 0 10-.865.866l.041.041c.463.473.591 1.18.338 1.75a1.624 1.624 0 01-1.496 1.06H2.5a.611.611 0 100 1.223h.106a1.617 1.617 0 011.48.975 1.622 1.622 0 01-.329 1.792l-.037.036a.611.611 0 10.866.865l.041-.041c.473-.463 1.18-.591 1.75-.338.625.23 1.045.817 1.06 1.496v.055a.611.611 0 001.223 0v-.106a1.617 1.617 0 01.975-1.48 1.622 1.622 0 011.792.329l.036.037a.611.611 0 10.865-.866l-.041-.041a1.62 1.62 0 01-.324-1.786 1.618 1.618 0 011.482-.976h.055a.611.611 0 000-1.222h-.106a1.62 1.62 0 01-1.482-.982.611.611 0 01-.045-.161 1.622 1.622 0 01.376-1.673l.037-.036a.611.611 0 10-.866-.865l-.041.041a1.617 1.617 0 01-1.78.326 1.62 1.62 0 01-.982-1.484V2.5A.611.611 0 008 1.889zm0 3.667a2.444 2.444 0 110 4.888 2.444 2.444 0 010-4.888zm0 3.666a1.222 1.222 0 100-2.444 1.222 1.222 0 000 2.444z" id="a"/></defs><g fill="none" fill-rule="evenodd"><mask id="b" fill="#fff"><use xlink:href="#a"/></mask><use fill="#000" fill-rule="nonzero" xlink:href="#a"/><g mask="url(#b)" fill="#666"><path d="M0 0h16v16H0z"/></g></g></svg>