<svg width="16" height="16" xmlns="http://www.w3.org/2000/svg" xmlns:xlink="http://www.w3.org/1999/xlink"><defs><path d="M2.977 12.26H1.072c-.552 0-1-.45-1-1.003V1.003C.072.45.523 0 1.076 0h7.89a.998.998 0 011.003 1.008v1.97" id="a"/><path d="M0 1.002A1 1 0 011.005 0h7.727c.555 0 1.006.45 1.006.99v8.602L7.242 12H1.007A1.01 1.01 0 010 10.998V1.002z" id="b"/><mask id="c" x="0" y="0" width="9.896" height="12.261" fill="#fff"><use xlink:href="#a"/></mask><mask id="d" x="0" y="0" width="9.738" height="12" fill="#fff"><use xlink:href="#b"/></mask></defs><g fill="none" fill-rule="evenodd"><use mask="url(#c)" xlink:href="#a" stroke="#545E6D" stroke-width="2" transform="translate(2 1)"/><g transform="translate(4 3)"><use stroke="#545E6D" mask="url(#d)" stroke-width="2" xlink:href="#b"/><path fill="#666" fill-rule="nonzero" d="M2 3h6V2H2zm0 2.5h6v-1H2zM2 8h4V7H2z"/></g></g></svg>