<svg viewBox="0 0 16 16" xmlns="http://www.w3.org/2000/svg"><path d="M4.563 10.048L2.281 7.766a.667.667 0 01.095-1.021c.943-.646 1.788-1.051 2.612-1.235L2.372 2.895a.667.667 0 01.943-.943l10.37 10.37a.667.667 0 01-.942.943l-2.475-2.475c-.18.907-.635 1.78-1.357 2.602a.667.667 0 01-.973.031l-2.432-2.432-3.118 3.118a.667.667 0 11-.943-.943l3.118-3.118zm4.465-.498L6.159 6.682a.239.239 0 01-.031.007c-.057.014-.057.014-.076.017l-.086.012-.266.026c-.58.056-1.189.27-1.886.669l4.534 4.534c.43-.64.651-1.286.67-1.94.005-.144.008-.296.01-.457zm.36-5.475a.667.667 0 01-.194.522l-.674.674a.667.667 0 01-.943-.943l.466-.466c-.018-1.109.342-2.048 1.276-3.13a.667.667 0 01.976-.037L15.01 5.41a.667.667 0 01-.057.994c-1.257.997-2.07 1.34-3.124 1.274l-.451.45a.667.667 0 01-.943-.942l.674-.674a.667.667 0 01.56-.19c.663.09 1.118-.01 1.854-.513L9.888 2.174c-.431.646-.553 1.203-.5 1.901z" fill="#767676"/></svg>