<svg viewBox="0 0 16 16" xmlns="http://www.w3.org/2000/svg"><path d="M5.487 11.066L2.4 14.153c-.628.628-1.571-.314-.943-.943l3.087-3.087-2.357-2.357a.667.667 0 01.095-1.021C3.79 5.712 5.068 5.284 6.39 5.42l1.557-1.558c-.017-1.109.342-2.048 1.277-3.13A.667.667 0 0110.2.694l4.714 4.714a.667.667 0 01-.057.994c-1.257.997-2.07 1.34-3.125 1.274l-1.528 1.528c.224 1.465-.248 2.889-1.389 4.187a.667.667 0 01-.972.031l-2.357-2.357zm3.348-1.932a.667.667 0 01.177-.622l2.001-2.001a.667.667 0 01.56-.19c.664.09 1.119-.01 1.855-.513L9.794 2.174c-.432.646-.554 1.203-.501 1.901a.667.667 0 01-.194.522l-2 2a.667.667 0 01-.588.185c-.88-.156-1.741.028-2.792.63l4.534 4.535c.62-.917.805-1.852.582-2.813z" fill="#767676"/></svg>