<svg width="16" height="16" xmlns="http://www.w3.org/2000/svg" xmlns:xlink="http://www.w3.org/1999/xlink"><defs><path d="M7.389 3.458l.082.07 3.334 3.334a.667.667 0 01-.86 1.013l-.083-.07-2.196-2.196v7.724a.667.667 0 01-.567.66L7 14a.667.667 0 01-.667-.667V5.608L4.138 7.805a.667.667 0 01-1.013-.86l.07-.083L6.53 3.529a.667.667 0 01.86-.07zM2.333 0h9.334a2 2 0 011.994 1.85l.006.15v2a.667.667 0 01-1.326.099L12.333 4V2a.667.667 0 00-.568-.66l-.098-.007H2.333a.667.667 0 00-.66.568L1.668 2v2a.667.667 0 01-1.326.099L.333 4V2A2 2 0 012.184.005L2.334 0h9.333z" id="a"/></defs><g transform="rotate(90 7 7)" fill="none" fill-rule="evenodd"><mask id="b" fill="#fff"><use xlink:href="#a"/></mask><use fill="#000" fill-rule="nonzero" xlink:href="#a"/><g mask="url(#b)" fill="#666"><path d="M-1-1h16v16H-1z"/></g></g></svg>