<svg width="16" height="16" xmlns="http://www.w3.org/2000/svg" xmlns:xlink="http://www.w3.org/1999/xlink"><defs><path d="M14 10c.335 0 .612.247.66.568l.007.099v2a2 2 0 01-1.851 1.994l-.15.006H3.334a2 2 0 01-1.994-1.851l-.006-.15v-2a.667.667 0 011.326-.098l.008.099v2c0 .334.246.611.568.66l.098.006h9.334a.667.667 0 00.66-.568l.006-.098v-2c0-.369.299-.667.667-.667zM8.389 1.458l.082.07 3.334 3.334a.667.667 0 01-.86 1.013l-.083-.07-2.196-2.196v7.724a.667.667 0 01-.567.66L8 12a.667.667 0 01-.667-.667V3.608L5.138 5.805a.667.667 0 01-1.013-.86l.07-.083L7.53 1.529a.667.667 0 01.86-.07z" id="a"/></defs><g transform="rotate(90 8 8)" fill="none" fill-rule="evenodd"><mask id="b" fill="#fff"><use xlink:href="#a"/></mask><use fill="#000" fill-rule="nonzero" xlink:href="#a"/><g mask="url(#b)" fill="#666"><path d="M0 0h16v16H0z"/></g></g></svg>