<svg height="16" viewBox="0 0 16 16" width="16" xmlns="http://www.w3.org/2000/svg"><g fill="none" fill-rule="evenodd"><path d="m2.66666667 7.33333333c1.1045695 0 2-.8954305 2-2s-.8954305-2-2-2-2 .8954305-2 2 .8954305 2 2 2z" fill="#eeeff8" class="color-1" fill-rule="nonzero"/><path d="m13.3333333 3.33333333c1.1045695 0 2 .8954305 2 2s-.8954305 2-2 2-2-.8954305-2-2 .8954305-2 2-2z" fill="#eeeff8" class="color-1" fill-rule="nonzero"/><path d="m13.3333333 8.66666667c1.1045695 0 2 .8954305 2 2.00000003 0 1.1045695-.8954305 2-2 2s-2-.8954305-2-2c0-1.10456953.8954305-2.00000003 2-2.00000003z" fill="#eeeff8" class="color-1" fill-rule="nonzero"/><path d="m0 0h16v16h-16z"/><path d="m3.33333333 4.66666667h9.33333337v1.33333333h-9.33333337z" fill="#686abe" class="color-2"/><g fill-rule="nonzero"><path d="m6.66666667 5.66666667v2.33333333c0 1.84094917 1.49238416 3.3333333 3.33333333 3.3333333h2.6666667v-1.3333333h-2.6666667c-1.1045695 0-2-.8954305-2-2v-2.33333333z" fill="#686abe" class="color-2"/><path d="m2.66666667 7.33333333c1.1045695 0 2-.8954305 2-2s-.8954305-2-2-2-2 .8954305-2 2 .8954305 2 2 2zm0-1.33333333c-.36818984 0-.66666667-.29847683-.66666667-.66666667 0-.36818983.29847683-.66666666.66666667-.66666666.36818983 0 .66666666.29847683.66666666.66666666 0 .36818984-.29847683.66666667-.66666666.66666667z" fill="#5a5e73" class="color-3"/><path d="m13.3333333 3.33333333c1.1045695 0 2 .8954305 2 2s-.8954305 2-2 2-2-.8954305-2-2 .8954305-2 2-2zm0 1.33333334c-.3681898 0-.6666666.29847683-.6666666.66666666 0 .36818984.2984768.66666667.6666666.66666667.3681899 0 .6666667-.29847683.6666667-.66666667 0-.36818983-.2984768-.66666666-.6666667-.66666666z" fill="#5a5e73" class="color-3"/><path d="m13.3333333 8.66666667c1.1045695 0 2 .8954305 2 2.00000003 0 1.1045695-.8954305 2-2 2s-2-.8954305-2-2c0-1.10456953.8954305-2.00000003 2-2.00000003zm0 1.33333333c-.3681898 0-.6666666.2984768-.6666666.6666667 0 .3681898.2984768.6666666.6666666.6666666.3681899 0 .6666667-.2984768.6666667-.6666666 0-.3681899-.2984768-.6666667-.6666667-.6666667z" fill="#5a5e73" class="color-3"/></g></g></svg>