<svg width="36" height="36" xmlns="http://www.w3.org/2000/svg" xmlns:xlink="http://www.w3.org/1999/xlink"><defs><circle id="a" cx="18" cy="18" r="18"/></defs><g fill="none" fill-rule="evenodd"><mask id="b" fill="#fff"><use xlink:href="#a"/></mask><use fill="#BFC2E3" opacity=".2" xlink:href="#a"/><g mask="url(#b)"><path d="m12.354 26.232-7.132 4.32L-6.66 16.37a6 6 0 0 1 .157-8.484c2.386-2.299 6.379-2.953 8.678-.567l3.63 3.766 7.249-4.125 10.817 1.522 9.883-3.287 7.977 11.098a6 6 0 0 1-.157 8.484c-2.386 2.3-6.573 3.678-8.872 1.292l-4.902-.551-6.678 5.035-8.768-4.321z" fill="#BFC2E3" fill-rule="nonzero" opacity=".4"/><path stroke="#00D090" stroke-width="1.5" stroke-linecap="round" d="m-1.446 13.476 7.95 8.25 7.432-6.318 8.468 6.318 7.432-6.318 8.468 6.318"/></g></g></svg>