<svg width="300" height="250" fill="none" xmlns="http://www.w3.org/2000/svg"><path fill-rule="evenodd" clip-rule="evenodd" d="m276.539 88.092-59.289 37.981-1.079-1.684 59.289-37.981 1.079 1.684zm-81.13 43.325-69.664 8.143-.232-1.987 69.664-8.142.232 1.986zm-84.355 11.743-86.737 49.63-.993-1.736 86.737-49.63.993 1.736zm165.45 1.27-62.906 36.706-1.008-1.727 62.906-36.707 1.008 1.728zm-79.368 39.427-69.919 2.487-.071-1.998 69.919-2.488.071 1.999zm-88.349 6.985-46.002 20.86-.826-1.822 46.002-20.859.826 1.821zM276.55 49.776l-50.662 33.322-1.099-1.671 50.662-33.322 1.099 1.671zm-86.705 41.277h-60.236v-2h60.236v2zm-83.378 4.12-82.139 48.405-1.015-1.723L105.45 93.45l1.016 1.723z" fill="#4660F9"/><path d="m207.221 77.044.935 5.643a.925.925 0 0 0 .764.764l5.643.934a.924.924 0 0 1 .554 1.508.923.923 0 0 1-.554.313l-5.643.922a.949.949 0 0 0-.764.764l-.935 5.643a.919.919 0 0 1-.91.773.924.924 0 0 1-.91-.773l-.946-5.643a.963.963 0 0 0-.765-.764l-5.642-.922a.923.923 0 0 1 0-1.82l5.642-.935a.944.944 0 0 0 .765-.764l.922-5.643a.922.922 0 1 1 1.844 0zM83.073 46.26a3.094 3.094 0 1 0 0-6.19 3.094 3.094 0 0 0 0 6.19zm165.709 180.403a1.833 1.833 0 1 0-.001-3.665 1.833 1.833 0 0 0 .001 3.665zM66.243 54.207a1.553 1.553 0 1 0 0-3.106 1.553 1.553 0 0 0 0 3.106zM136.271 166.5a2.306 2.306 0 1 0 0-4.612 2.306 2.306 0 0 0 0 4.612z" fill="#4660F9"/><g opacity=".3" fill="#4660F9"><path fill-rule="evenodd" clip-rule="evenodd" d="M119.117 84.939a5.214 5.214 0 0 0-6.224 5.124v.002a5.2 5.2 0 0 0 5.211 5.2h.002a5.21 5.21 0 0 0 4.817-3.22 5.215 5.215 0 0 0-3.806-7.106zm-3.781-1.546a7.215 7.215 0 0 1 9.843 5.247 7.212 7.212 0 0 1-7.073 8.625v-1l.002 1h-.002a7.202 7.202 0 0 1-7.213-7.2 7.215 7.215 0 0 1 4.443-6.672zm91.699 41.9a3.667 3.667 0 0 0-3.758 1.563 3.653 3.653 0 0 0-.613 2.037l-1 .002h1a3.648 3.648 0 0 0 3.647 3.648h.003a3.656 3.656 0 0 0 3.389-2.255 3.659 3.659 0 0 0-2.668-4.995zm-6.371 3.604a5.656 5.656 0 0 1 3.487-5.24 5.66 5.66 0 1 1 2.159 10.886 5.646 5.646 0 0 1-5.646-5.646zm5.646 5.646h-.001l.002-1v1h-.001z"/><path d="M114.247 139.889a3.857 3.857 0 0 1 4.604-3.798 3.854 3.854 0 0 1 3.039 3.029 3.856 3.856 0 0 1-1.639 3.964 3.855 3.855 0 0 1-4.869-.474 3.865 3.865 0 0 1-1.135-2.721zm88.376 42.082a3.64 3.64 0 1 1 7.003 1.394 3.639 3.639 0 0 1-5.937 1.181 3.64 3.64 0 0 1-1.066-2.575z"/><path fill-rule="evenodd" clip-rule="evenodd" d="M118.664 183.281a2.865 2.865 0 0 0-2.935 1.216 2.86 2.86 0 1 0 2.935-1.216zm-2.417-1.685a4.86 4.86 0 1 1 3.717 8.98 4.86 4.86 0 0 1-3.717-8.98z"/><path d="M226.722 227.136a4.138 4.138 0 1 0 0-8.277 4.138 4.138 0 0 0 0 8.277z"/></g><path d="M206.311 99.141c7.654 0 13.858-6.204 13.858-13.857 0-7.654-6.204-13.858-13.858-13.858-7.653 0-13.857 6.204-13.857 13.858 0 7.653 6.204 13.857 13.857 13.857zm43.855 111.055 2.026-.327a.321.321 0 0 0 .181-.094.312.312 0 0 0 .086-.186l.34-2.026a.327.327 0 1 1 .655 0l.34 2.026a.33.33 0 0 0 .267.28l2.039.327a.329.329 0 0 1 .327.328c0 .087-.034.17-.096.231a.325.325 0 0 1-.231.096l-2.039.34a.336.336 0 0 0-.176.091.333.333 0 0 0-.091.176l-.34 2.039c0 .087-.034.17-.096.231a.325.325 0 0 1-.463 0 .323.323 0 0 1-.096-.231l-.34-2.039a.303.303 0 0 0-.267-.267l-2.026-.34a.327.327 0 1 1 0-.655zM66.243 34.137a6.092 6.092 0 1 0 0-12.183 6.092 6.092 0 0 0 0 12.183z" opacity=".2" fill="#4660F9"/></svg>