<svg width="300" height="250" fill="none" xmlns="http://www.w3.org/2000/svg"><path d="m151.77 34.173 1.285 7.781a1.263 1.263 0 0 0 1.072 1.07l7.8 1.282a1.274 1.274 0 0 1 .768 2.08 1.272 1.272 0 0 1-.768.432l-7.822 1.25a1.279 1.279 0 0 0-1.071 1.07l-1.286 7.791A1.27 1.27 0 0 1 150.489 58a1.277 1.277 0 0 1-1.259-1.07l-1.285-7.793a1.274 1.274 0 0 0-1.072-1.069l-7.8-1.282a1.274 1.274 0 0 1-.768-2.082 1.27 1.27 0 0 1 .768-.43l7.8-1.283a1.263 1.263 0 0 0 1.072-1.069l1.285-7.781a1.27 1.27 0 0 1 1.285-1.14 1.275 1.275 0 0 1 1.255 1.172z" fill="#4660F9"/><path fill-rule="evenodd" clip-rule="evenodd" d="M149 80V67h2v13h-2zm0 136v-60h2v60h-2zm0-90v-16h2v16h-2z" fill="#4660F9"/><g opacity=".3" fill="#4660F9"><path d="M82.5 51a3.5 3.5 0 1 0 0-7 3.5 3.5 0 0 0 0 7zm-25 0a3.5 3.5 0 1 0 0-7 3.5 3.5 0 0 0 0 7zm59 0a3.5 3.5 0 1 0 0-7 3.5 3.5 0 0 0 0 7zm68 0a3.5 3.5 0 1 0 0-7 3.5 3.5 0 0 0 0 7zm34 0a3.5 3.5 0 1 0 0-7 3.5 3.5 0 0 0 0 7zm25 0a3.5 3.5 0 1 0 0-7 3.5 3.5 0 0 0 0 7zM215 126H107v30h108v-30z"/><path fill-rule="evenodd" clip-rule="evenodd" d="M149 110V80h2v30h-2z"/></g><path d="M240 169h-39v30h39v-30z" fill="#4660F9" opacity=".2"/><path d="M144.518 80H172v30H54V80h90.518z" fill="#4660F9" opacity=".1"/><path opacity=".3" fill-rule="evenodd" clip-rule="evenodd" d="M149 156v-30h2v30h-2z" fill="#4660F9"/><path opacity=".2" d="M126.884 105H149v5H54v-5h72.884zm27.682 46H169v5h-62v-5h47.566zm54.106 43H211v5h-10v-5h7.672z" fill="#4660F9"/></svg>