<svg width="600" height="137" fill="none" xmlns="http://www.w3.org/2000/svg"><rect x=".5" y=".5" width="599" height="42" rx="3.5" fill="#fff"/><path fill-rule="evenodd" clip-rule="evenodd" d="M18.93 27.197a.667.667 0 0 1-.973.03L15.6 24.872l-3.087 3.087c-.628.628-1.571-.315-.942-.943l3.086-3.087-2.357-2.357a.667.667 0 0 1 .095-1.021c1.508-1.033 2.787-1.462 4.109-1.325l1.558-1.558c-.018-1.11.342-2.048 1.276-3.131a.667.667 0 0 1 .976-.036l4.714 4.714a.667.667 0 0 1-.057.994c-1.257.997-2.07 1.34-3.125 1.273l-1.528 1.528c.225 1.466-.248 2.89-1.389 4.188Zm.018-4.258a.667.667 0 0 1 .178-.623l2-2a.667.667 0 0 1 .56-.19c.664.089 1.119-.01 1.855-.514l-3.634-3.634c-.432.647-.554 1.203-.501 1.902a.666.666 0 0 1-.194.521l-2 2.001a.667.667 0 0 1-.587.185c-.881-.156-1.742.028-2.793.63l4.534 4.535c.62-.917.805-1.852.582-2.813Z" fill="#EAEAEB"/><rect x="34" y="14.5" width="307" height="14" rx="2" fill="#EAEAEB"/><mask id="a" style="mask-type:alpha" maskUnits="userSpaceOnUse" x="380" y="11" width="20" height="21"><circle cx="390" cy="21.5" r="10" fill="#D0D0D0"/></mask><g mask="url(#a)"><path d="M389.895 25.746a6.475 6.475 0 1 0 0-12.95 6.475 6.475 0 0 0 0 12.95Z" fill="#D4D4D6"/><path d="M401 11.03h-22.934V35.5H401V11.03Z" fill="#D4D4D6"/><path d="M395.079 20.651h-.372a.383.383 0 0 1-.383-.383v-1.634c0-.212.171-.384.383-.384h.372c.211 0 .383.172.383.384v1.634a.384.384 0 0 1-.383.383Zm-10.182 0h-.371a.383.383 0 0 1-.383-.383v-1.634c0-.212.171-.384.383-.384h.371c.211 0 .383.172.383.384v1.634a.384.384 0 0 1-.383.383Zm5.26 14.576c4.623 0 8.37-2.685 8.37-5.998s-3.747-5.999-8.37-5.999c-4.622 0-8.37 2.686-8.37 5.999 0 3.313 3.748 5.998 8.37 5.998Z" fill="#F4F4F5"/><path d="M389.377 23.265c-1.816 0-3.691.845-4.668 1.352 1.23.426 2.953.548 4.298.169 1.044-.294 1.603-.569 2.344-1.261a7.595 7.595 0 0 0-1.974-.26Z" fill="#A9A9AD"/><path d="M389.778 23.96c2.798 0 5.066-2.161 5.066-4.827s-2.268-4.827-5.066-4.827c-2.799 0-5.067 2.161-5.067 4.827s2.268 4.827 5.067 4.827Z" fill="#F4F4F5"/><path d="M393.125 23.832s-.727.5-3.322.5c-2.596 0-3.365-.5-3.365-.5l.147-1.373h6.392l.148 1.373Z" fill="#F4F4F5"/><path d="M392.626 27.485a.844.844 0 1 0 0-1.69.844.844 0 0 0 0 1.69Zm-1.092-1.69h-3.846v4.1h3.846v-4.1Z" fill="#D4D4D6"/><path d="M394.043 20.225c0 .63-.302 1.221-.816 1.586-.811.574-2.114.929-3.391.929-1.278 0-2.58-.355-3.391-.93a1.94 1.94 0 0 1-.816-1.585v-1.871c0-.56.239-1.095.661-1.463.654-.57 1.809-1.27 3.546-1.27 1.736 0 2.892.7 3.546 1.27.422.368.661.903.661 1.463v1.87Z" fill="#A9A9AD"/></g><rect x="412" y="14.5" width="70" height="14" rx="2" fill="#F4F4F5"/><rect x="487" y="14.5" width="14" height="14" rx="7" fill="#90A0FB"/><rect x="511" y="14.5" width="59" height="14" rx="7" fill="#EDEFFE"/><path fill-rule="evenodd" clip-rule="evenodd" d="M582.5 18.583c-.69 0-1.25-.522-1.25-1.166 0-.645.56-1.167 1.25-1.167s1.25.522 1.25 1.167c0 .644-.56 1.166-1.25 1.166Zm0 4.084c-.69 0-1.25-.523-1.25-1.167s.56-1.167 1.25-1.167 1.25.523 1.25 1.167-.56 1.167-1.25 1.167Zm-1.25 2.916c0 .645.56 1.167 1.25 1.167s1.25-.522 1.25-1.167c0-.644-.56-1.166-1.25-1.166s-1.25.522-1.25 1.166Z" fill="#A9A9AD"/><rect x=".5" y=".5" width="599" height="42" rx="3.5" stroke="#fff"/><g opacity=".7"><rect x=".5" y="47.5" width="599" height="42" rx="3.5" fill="#fff"/><path fill-rule="evenodd" clip-rule="evenodd" d="M12.343 62.843a8 8 0 1 1 11.314 11.315 8 8 0 0 1-11.314-11.315Zm1.06 1.06a6.5 6.5 0 1 0 9.193 9.193 6.5 6.5 0 0 0-9.192-9.192Zm5.658 5.658a1.5 1.5 0 1 1-2.122-2.122 1.5 1.5 0 0 1 2.122 2.122Z" fill="#EAEAEB"/><rect x="34" y="61.5" width="307" height="14" rx="2" fill="#EAEAEB"/><mask id="b" style="mask-type:alpha" maskUnits="userSpaceOnUse" x="380" y="58" width="20" height="21"><circle cx="390" cy="68.5" r="10" fill="#D0D0D0"/></mask><g mask="url(#b)"><path d="M389.895 72.746a6.475 6.475 0 1 0 0-12.95 6.475 6.475 0 0 0 0 12.95Z" fill="#D4D4D6"/><path d="M401 58.03h-22.934V82.5H401V58.03Z" fill="#D4D4D6"/><path d="M395.079 67.651h-.372a.383.383 0 0 1-.383-.383v-1.635c0-.21.171-.383.383-.383h.372c.211 0 .383.171.383.383v1.635a.384.384 0 0 1-.383.383Zm-10.182 0h-.371a.383.383 0 0 1-.383-.383v-1.635c0-.21.171-.383.383-.383h.371c.211 0 .383.171.383.383v1.635a.384.384 0 0 1-.383.383Zm5.26 14.577c4.623 0 8.37-2.686 8.37-5.999 0-3.313-3.747-5.999-8.37-5.999-4.622 0-8.37 2.686-8.37 5.999 0 3.313 3.748 5.999 8.37 5.999Z" fill="#F4F4F5"/><path d="M389.377 70.265c-1.816 0-3.691.845-4.668 1.352 1.23.426 2.953.548 4.298.169 1.044-.294 1.603-.569 2.344-1.261a7.595 7.595 0 0 0-1.974-.26Z" fill="#A9A9AD"/><path d="M389.778 70.96c2.798 0 5.066-2.161 5.066-4.827s-2.268-4.827-5.066-4.827c-2.799 0-5.067 2.161-5.067 4.827s2.268 4.827 5.067 4.827Z" fill="#F4F4F5"/><path d="M393.125 70.832s-.727.5-3.322.5c-2.596 0-3.365-.5-3.365-.5l.147-1.373h6.392l.148 1.373Z" fill="#F4F4F5"/><path d="M392.626 74.484a.844.844 0 1 0 0-1.688.844.844 0 0 0 0 1.688Zm-1.092-1.689h-3.846v4.1h3.846v-4.1Z" fill="#D4D4D6"/><path d="M394.043 67.225c0 .63-.302 1.221-.816 1.586-.811.574-2.114.929-3.391.929-1.278 0-2.58-.355-3.391-.93a1.94 1.94 0 0 1-.816-1.585v-1.871c0-.56.239-1.095.661-1.463.654-.57 1.809-1.27 3.546-1.27 1.736 0 2.892.7 3.546 1.27.422.368.661.902.661 1.463v1.87Z" fill="#A9A9AD"/></g><rect x="412" y="61.5" width="70" height="14" rx="2" fill="#F4F4F5"/><rect x="487" y="61.5" width="14" height="14" rx="7" fill="#90A0FB"/><rect x="511" y="61.5" width="59" height="14" rx="7" fill="#EDEFFE"/><path fill-rule="evenodd" clip-rule="evenodd" d="M582.5 65.583c-.69 0-1.25-.522-1.25-1.166 0-.645.56-1.167 1.25-1.167s1.25.522 1.25 1.167c0 .644-.56 1.166-1.25 1.166Zm0 4.084c-.69 0-1.25-.523-1.25-1.167s.56-1.167 1.25-1.167 1.25.523 1.25 1.167-.56 1.167-1.25 1.167Zm-1.25 2.916c0 .645.56 1.167 1.25 1.167s1.25-.522 1.25-1.167c0-.644-.56-1.166-1.25-1.166s-1.25.522-1.25 1.166Z" fill="#A9A9AD"/><rect x=".5" y="47.5" width="599" height="42" rx="3.5" stroke="#fff"/></g><g opacity=".4"><rect x=".5" y="94.5" width="599" height="42" rx="3.5" fill="#fff"/><path fill-rule="evenodd" clip-rule="evenodd" d="M12.343 109.843a8.001 8.001 0 0 1 11.314 11.314 8.001 8.001 0 0 1-11.314-11.314Zm1.06 1.061a6.5 6.5 0 1 0 9.192 9.192 6.5 6.5 0 0 0-9.191-9.192Zm5.658 5.657a1.501 1.501 0 1 1-2.122-2.124 1.501 1.501 0 0 1 2.122 2.124Z" fill="#EAEAEB"/><rect x="34" y="108.5" width="307" height="14" rx="2" fill="#EAEAEB"/><mask id="c" style="mask-type:alpha" maskUnits="userSpaceOnUse" x="380" y="105" width="20" height="21"><circle cx="390" cy="115.5" r="10" fill="#D0D0D0"/></mask><g mask="url(#c)"><path d="M389.895 119.746a6.475 6.475 0 1 0 0-12.95 6.475 6.475 0 0 0 0 12.95Z" fill="#D4D4D6"/><path d="M401 105.03h-22.934v24.47H401v-24.47Z" fill="#D4D4D6"/><path d="M395.079 114.651h-.372a.383.383 0 0 1-.383-.383v-1.634c0-.212.171-.384.383-.384h.372c.211 0 .383.171.383.384v1.634a.384.384 0 0 1-.383.383Zm-10.182 0h-.371a.383.383 0 0 1-.383-.383v-1.634c0-.212.171-.384.383-.384h.371c.211 0 .383.171.383.384v1.634a.384.384 0 0 1-.383.383Zm5.26 14.577c4.623 0 8.37-2.686 8.37-5.999 0-3.313-3.747-5.999-8.37-5.999-4.622 0-8.37 2.686-8.37 5.999 0 3.313 3.748 5.999 8.37 5.999Z" fill="#F4F4F5"/><path d="M389.377 117.265c-1.816 0-3.691.845-4.668 1.352 1.23.426 2.953.548 4.298.169 1.044-.294 1.603-.569 2.344-1.261a7.591 7.591 0 0 0-1.974-.26Z" fill="#A9A9AD"/><path d="M389.778 117.96c2.798 0 5.066-2.161 5.066-4.827s-2.268-4.827-5.066-4.827c-2.799 0-5.067 2.161-5.067 4.827s2.268 4.827 5.067 4.827Z" fill="#F4F4F5"/><path d="M393.125 117.832s-.727.501-3.322.501c-2.596 0-3.365-.501-3.365-.501l.147-1.373h6.392l.148 1.373Z" fill="#F4F4F5"/><path d="M392.626 121.484a.844.844 0 1 0 0-1.688.844.844 0 0 0 0 1.688Zm-1.092-1.689h-3.846v4.099h3.846v-4.099Z" fill="#D4D4D6"/><path d="M394.043 114.225c0 .63-.302 1.221-.816 1.586-.811.574-2.114.929-3.391.929-1.278 0-2.58-.355-3.391-.929a1.94 1.94 0 0 1-.816-1.586v-1.871c0-.561.239-1.095.661-1.463.654-.57 1.809-1.27 3.546-1.27 1.736 0 2.892.701 3.546 1.27.422.368.661.902.661 1.463v1.871Z" fill="#A9A9AD"/></g><rect x="412" y="108.5" width="70" height="14" rx="2" fill="#F4F4F5"/><rect x="487" y="108.5" width="14" height="14" rx="7" fill="#90A0FB"/><rect x="511" y="108.5" width="59" height="14" rx="7" fill="#EDEFFE"/><path fill-rule="evenodd" clip-rule="evenodd" d="M582.5 112.583c-.69 0-1.25-.522-1.25-1.166 0-.645.56-1.167 1.25-1.167s1.25.522 1.25 1.167c0 .644-.56 1.166-1.25 1.166Zm0 4.084c-.69 0-1.25-.523-1.25-1.167s.56-1.167 1.25-1.167 1.25.523 1.25 1.167-.56 1.167-1.25 1.167Zm-1.25 2.916c0 .645.56 1.167 1.25 1.167s1.25-.522 1.25-1.167c0-.644-.56-1.166-1.25-1.166s-1.25.522-1.25 1.166Z" fill="#A9A9AD"/><rect x=".5" y="94.5" width="599" height="42" rx="3.5" stroke="#fff"/></g></svg>