<svg width="300" height="250" fill="none" xmlns="http://www.w3.org/2000/svg"><path opacity=".3" d="M202.887 70.263H249v29.814H51V70.263h151.887z" fill="#4660F9"/><path opacity=".2" d="M213.479 116.345h-85.031v29.814h85.031v-29.814zM249 159.834H104.931v29.815H249v-29.815z" fill="#4660F9"/><path d="M126.949 94.638h23.046v5.44H51v-5.44h75.949z" fill="#4660F9"/><path opacity=".3" d="M144.748 140.718h4.958v5.44h-21.258v-5.44h16.3zm7.549 43.403h14.372v5.441h-61.738v-5.441h47.366z" fill="#4660F9"/><path fill-rule="evenodd" clip-rule="evenodd" d="M82.442 124.701a2.684 2.684 0 1 0 0 5.368 2.684 2.684 0 0 0 0-5.368zm-4.684 2.684a4.684 4.684 0 1 1 9.367 0 4.684 4.684 0 0 1-9.367 0z" fill="#4660F9"/><path opacity=".3" fill-rule="evenodd" clip-rule="evenodd" d="M180.28 207.836a2.802 2.802 0 1 0 0 5.604 2.802 2.802 0 0 0 0-5.604zm-4.802 2.802a4.802 4.802 0 1 1 9.604 0 4.802 4.802 0 0 1-9.604 0z" fill="#4660F9"/><path d="M197.96 202.67a2.495 2.495 0 1 0 0-4.99 2.495 2.495 0 0 0 0 4.99z" fill="#4660F9"/><path opacity=".3" d="M225.665 57.214a2.12 2.12 0 1 0 0-4.241 2.12 2.12 0 0 0 0 4.241z" fill="#4660F9"/><path opacity=".2" d="m191.372 36.932 1.091 6.61a1.084 1.084 0 0 0 .91.908l6.631 1.09a1.082 1.082 0 0 1 .652 1.768 1.082 1.082 0 0 1-.652.366l-6.631 1.09a1.089 1.089 0 0 0-.91.908l-1.091 6.61a1.072 1.072 0 0 1-1.064.932 1.072 1.072 0 0 1-1.065-.932l-1.091-6.61a1.088 1.088 0 0 0-.91-.908l-6.63-1.09a1.081 1.081 0 0 1 0-2.134l6.63-1.09a1.084 1.084 0 0 0 .91-.907l1.091-6.61a1.072 1.072 0 0 1 1.065-.933 1.072 1.072 0 0 1 1.064.932z" fill="#4660F9"/></svg>