<svg width="600" height="293" fill="none" xmlns="http://www.w3.org/2000/svg"><path d="m300.35 101.595 1.059-6.426a1.051 1.051 0 0 1 .868-.868l6.426-1.058a1.043 1.043 0 0 0 0-2.066l-6.426-1.06a1.051 1.051 0 0 1-.868-.867l-1.059-6.426a1.048 1.048 0 0 0-1.036-.876 1.052 1.052 0 0 0-1.037.876l-1.059 6.426a1.051 1.051 0 0 1-.86.868l-6.426 1.059a1.046 1.046 0 0 0-.639 1.715c.164.19.391.314.639.35l6.426 1.06a1.05 1.05 0 0 1 .86.867l1.059 6.426a1.048 1.048 0 0 0 1.037.876 1.053 1.053 0 0 0 1.036-.876Zm-25.115-48.056a2.588 2.588 0 1 0 0-5.177 2.588 2.588 0 0 0 0 5.177Zm-3.993 90.972a2.507 2.507 0 1 0 0-5.014 2.507 2.507 0 0 0 0 5.014Z" fill="#4660F9"/><path d="M280.329 142.438a2.507 2.507 0 1 0 .001-5.015 2.507 2.507 0 0 0-.001 5.015Z" stroke="#4660F9" stroke-width="2" stroke-miterlimit="10"/><path d="M360.325 113.653a3.301 3.301 0 1 0 0-6.603 3.301 3.301 0 0 0 0 6.603Z" fill="#4660F9"/><path d="M337.328 24.717c12.816-4.69 23.146-4.801 28.675.735 8.007 8.007 4.257 25.933-8.044 46.917m-110.525 89.355c-5.713.25-10.293-1.08-13.44-4.191-6.978-6.977-5.022-21.484 3.735-38.968" stroke="#4660F9" stroke-width="2" stroke-miterlimit="10"/><path d="M354.127 57.37a2.625 2.625 0 1 0 0-5.251 2.625 2.625 0 0 0 0 5.25Z" stroke="#4660F9" stroke-width="2" stroke-miterlimit="10"/><g opacity=".3"><path d="M338.505 132.511c8.849-8.849-1.772-33.818-23.724-55.77-21.951-21.951-46.92-32.572-55.769-23.723-8.85 8.85 1.771 33.819 23.723 55.77 21.951 21.951 46.92 32.572 55.77 23.723Z" stroke="#4660F9" stroke-width="2" stroke-miterlimit="10"/><path d="M341.225 99.315a2.456 2.456 0 1 0 .001-4.91 2.456 2.456 0 0 0-.001 4.91Zm12.902-20.263a1.316 1.316 0 1 0 0-2.632 1.316 1.316 0 0 0 0 2.632Zm-105.133 25.961a2.536 2.536 0 1 0 0-5.072 2.536 2.536 0 0 0 0 5.072Z" fill="#4660F9"/><path d="M319.547 33.283a132.872 132.872 0 0 1 6.963-3.802" stroke="#4660F9" stroke-width="2" stroke-miterlimit="10"/><path d="m242.119 111.829.206-1.264c0-.047.015-.092.042-.129a.219.219 0 0 1 .112-.077l1.265-.206a.207.207 0 0 0 .167-.202.206.206 0 0 0-.167-.202l-1.265-.192a.205.205 0 0 1-.169-.169l-.191-1.235a.21.21 0 0 0-.06-.146.21.21 0 0 0-.292 0 .21.21 0 0 0-.06.146l-.206 1.257a.204.204 0 0 1-.169.169l-1.264.214a.204.204 0 0 0-.12.071.203.203 0 0 0 0 .262c.03.037.073.062.12.071l1.264.206a.213.213 0 0 1 .111.058c.03.031.05.069.058.111l.243 1.257a.203.203 0 0 0 .076.088.2.2 0 0 0 .111.033c.04 0 .079-.011.112-.033a.203.203 0 0 0 .076-.088Z" fill="#4660F9"/><path d="M351.575 82.5a276.879 276.879 0 0 1-5.206 7.272m9.846-52.652a1.809 1.809 0 1 0 0-3.617 1.809 1.809 0 0 0 0 3.618Z" stroke="#4660F9" stroke-width="2" stroke-miterlimit="10"/></g><path opacity=".2" d="M261.254 41.4a3.618 3.618 0 1 0 0-7.236 3.618 3.618 0 0 0 0 7.236Zm53.527 67.388c21.952-21.951 32.573-46.92 23.724-55.77-8.85-8.85-33.819 1.772-55.77 23.723-21.952 21.952-32.573 46.921-23.723 55.77 8.849 8.85 33.818-1.772 55.769-23.723Zm6.017 9.754a224.02 224.02 0 0 1-35.388 28.205" stroke="#4660F9" stroke-width="2" stroke-miterlimit="10"/><g opacity=".1"><path d="M360.324 49.73a3.618 3.618 0 1 0 0-7.235 3.618 3.618 0 0 0 0 7.236Zm-120.045 51.792a1.809 1.809 0 1 0 0-3.618 1.809 1.809 0 0 0 0 3.618Z" fill="#4660F9"/><path d="M289.881 54.745a207.154 207.154 0 0 1 26.278-19.432m-44.667 36.968c1.5-1.573 3.032-3.144 4.596-4.713a253.205 253.205 0 0 1 6.867-6.617m-16.859 17.182c.735-.794 1.433-1.595 2.169-2.39m-17.581 21.595a228.266 228.266 0 0 1 8.58-11.212m5.41 71.399a66.681 66.681 0 0 1-11.168 3.419m75.554-50.761a255.73 255.73 0 0 1-5.103 5.25" stroke="#4660F9" stroke-width="2" stroke-miterlimit="10"/></g><rect x=".5" y="202.254" width="599" height="42" rx="3.5" fill="#fff"/><path fill-rule="evenodd" clip-rule="evenodd" d="M18.93 228.95a.666.666 0 0 1-.973.032l-2.357-2.357-3.087 3.087c-.628.628-1.571-.315-.942-.943l3.086-3.087-2.357-2.357a.667.667 0 0 1 .095-1.022c1.508-1.032 2.787-1.461 4.109-1.325l1.558-1.558c-.018-1.108.342-2.047 1.276-3.13a.666.666 0 0 1 .976-.036l4.714 4.714a.667.667 0 0 1-.057.994c-1.257.997-2.07 1.34-3.125 1.273l-1.528 1.528c.225 1.466-.248 2.889-1.389 4.187Zm.018-4.257a.668.668 0 0 1 .178-.623l2-2.001a.67.67 0 0 1 .56-.189c.664.089 1.119-.01 1.855-.514l-3.634-3.634c-.432.646-.554 1.203-.501 1.902a.665.665 0 0 1-.194.521l-2 2.001a.666.666 0 0 1-.587.185c-.881-.156-1.742.028-2.793.63l4.534 4.534c.62-.917.805-1.852.582-2.812Z" fill="#EAEAEB"/><rect x="34" y="216.254" width="307" height="14" rx="2" fill="#EAEAEB"/><mask id="a" style="mask-type:alpha" maskUnits="userSpaceOnUse" x="380" y="213" width="20" height="21"><circle cx="390" cy="223.254" r="10" fill="#D0D0D0"/></mask><g mask="url(#a)"><path d="M389.895 227.5a6.475 6.475 0 1 0 0-12.95 6.475 6.475 0 0 0 0 12.95Z" fill="#D4D4D6"/><path d="M401 212.784h-22.934v24.47H401v-24.47Z" fill="#D4D4D6"/><path d="M395.079 222.405h-.372a.383.383 0 0 1-.383-.383v-1.635c0-.211.171-.383.383-.383h.372c.211 0 .383.171.383.383v1.635a.384.384 0 0 1-.383.383Zm-10.182 0h-.371a.383.383 0 0 1-.383-.383v-1.635c0-.211.171-.383.383-.383h.371c.211 0 .383.171.383.383v1.635a.384.384 0 0 1-.383.383Zm5.26 14.576c4.623 0 8.37-2.685 8.37-5.998s-3.747-5.999-8.37-5.999c-4.622 0-8.37 2.686-8.37 5.999 0 3.313 3.748 5.998 8.37 5.998Z" fill="#F4F4F5"/><path d="M389.377 225.019c-1.816 0-3.691.845-4.668 1.352 1.23.425 2.953.548 4.298.169 1.044-.294 1.603-.569 2.344-1.261a7.591 7.591 0 0 0-1.974-.26Z" fill="#A9A9AD"/><path d="M389.778 225.714c2.798 0 5.066-2.161 5.066-4.827s-2.268-4.827-5.066-4.827c-2.799 0-5.067 2.161-5.067 4.827s2.268 4.827 5.067 4.827Z" fill="#F4F4F5"/><path d="M393.125 225.586s-.727.501-3.322.501c-2.596 0-3.365-.501-3.365-.501l.147-1.373h6.392l.148 1.373Z" fill="#F4F4F5"/><path d="M392.626 229.238a.844.844 0 1 0 0-1.688.844.844 0 0 0 0 1.688Zm-1.092-1.689h-3.846v4.099h3.846v-4.099Z" fill="#D4D4D6"/><path d="M394.043 221.979c0 .63-.302 1.221-.816 1.586-.811.574-2.114.929-3.391.929-1.278 0-2.58-.355-3.391-.929a1.94 1.94 0 0 1-.816-1.586v-1.871c0-.561.239-1.095.661-1.463.654-.57 1.809-1.27 3.546-1.27 1.736 0 2.892.701 3.546 1.27.422.368.661.902.661 1.463v1.871Z" fill="#A9A9AD"/></g><rect x="412" y="216.254" width="70" height="14" rx="2" fill="#EAEAEB"/><rect x="487" y="216.254" width="14" height="14" rx="7" fill="#90A0FB"/><rect x="511" y="216.254" width="59" height="14" rx="7" fill="#EDEFFE"/><path fill-rule="evenodd" clip-rule="evenodd" d="M582.5 220.337c-.69 0-1.25-.522-1.25-1.166 0-.645.56-1.167 1.25-1.167s1.25.522 1.25 1.167c0 .644-.56 1.166-1.25 1.166Zm0 4.084c-.69 0-1.25-.523-1.25-1.167s.56-1.167 1.25-1.167 1.25.523 1.25 1.167-.56 1.167-1.25 1.167Zm-1.25 2.916c0 .645.56 1.167 1.25 1.167s1.25-.522 1.25-1.167c0-.644-.56-1.166-1.25-1.166s-1.25.522-1.25 1.166Z" fill="#A9A9AD"/><rect x=".5" y="202.254" width="599" height="42" rx="3.5" stroke="#fff"/><g opacity=".7"><rect x=".5" y="249.254" width="599" height="42" rx="3.5" fill="#fff"/><path fill-rule="evenodd" clip-rule="evenodd" d="M12.343 264.597a8.001 8.001 0 0 1 11.314 11.314 8.001 8.001 0 0 1-11.314-11.314Zm1.06 1.061a6.5 6.5 0 1 0 9.192 9.192 6.5 6.5 0 0 0-9.191-9.192Zm5.658 5.657a1.501 1.501 0 1 1-2.122-2.124 1.501 1.501 0 0 1 2.122 2.124Z" fill="#EAEAEB"/><rect x="34" y="263.254" width="307" height="14" rx="2" fill="#EAEAEB"/><mask id="b" style="mask-type:alpha" maskUnits="userSpaceOnUse" x="380" y="260" width="20" height="21"><circle cx="390" cy="270.254" r="10" fill="#D0D0D0"/></mask><g mask="url(#b)"><path d="M389.895 274.5a6.475 6.475 0 1 0 0-12.95 6.475 6.475 0 0 0 0 12.95Z" fill="#D4D4D6"/><path d="M401 259.784h-22.934v24.47H401v-24.47Z" fill="#D4D4D6"/><path d="M395.079 269.405h-.372a.383.383 0 0 1-.383-.383v-1.635c0-.211.171-.383.383-.383h.372c.211 0 .383.171.383.383v1.635a.384.384 0 0 1-.383.383Zm-10.182 0h-.371a.383.383 0 0 1-.383-.383v-1.635c0-.211.171-.383.383-.383h.371c.211 0 .383.171.383.383v1.635a.384.384 0 0 1-.383.383Zm5.26 14.576c4.623 0 8.37-2.685 8.37-5.998s-3.747-5.999-8.37-5.999c-4.622 0-8.37 2.686-8.37 5.999 0 3.313 3.748 5.998 8.37 5.998Z" fill="#F4F4F5"/><path d="M389.377 272.019c-1.816 0-3.691.845-4.668 1.352 1.23.425 2.953.548 4.298.169 1.044-.294 1.603-.569 2.344-1.261a7.591 7.591 0 0 0-1.974-.26Z" fill="#A9A9AD"/><path d="M389.778 272.714c2.798 0 5.066-2.161 5.066-4.827s-2.268-4.827-5.066-4.827c-2.799 0-5.067 2.161-5.067 4.827s2.268 4.827 5.067 4.827Z" fill="#F4F4F5"/><path d="M393.125 272.586s-.727.501-3.322.501c-2.596 0-3.365-.501-3.365-.501l.147-1.373h6.392l.148 1.373Z" fill="#F4F4F5"/><path d="M392.626 276.238a.844.844 0 1 0 0-1.688.844.844 0 0 0 0 1.688Zm-1.092-1.689h-3.846v4.099h3.846v-4.099Z" fill="#D4D4D6"/><path d="M394.043 268.979c0 .63-.302 1.221-.816 1.586-.811.574-2.114.929-3.391.929-1.278 0-2.58-.355-3.391-.929a1.94 1.94 0 0 1-.816-1.586v-1.871c0-.561.239-1.095.661-1.463.654-.57 1.809-1.27 3.546-1.27 1.736 0 2.892.701 3.546 1.27.422.368.661.902.661 1.463v1.871Z" fill="#A9A9AD"/></g><rect x="412" y="263.254" width="70" height="14" rx="2" fill="#F4F4F5"/><rect x="487" y="263.254" width="14" height="14" rx="7" fill="#90A0FB"/><rect x="511" y="263.254" width="59" height="14" rx="7" fill="#EDEFFE"/><path fill-rule="evenodd" clip-rule="evenodd" d="M582.5 267.337c-.69 0-1.25-.522-1.25-1.166 0-.645.56-1.167 1.25-1.167s1.25.522 1.25 1.167c0 .644-.56 1.166-1.25 1.166Zm0 4.084c-.69 0-1.25-.523-1.25-1.167s.56-1.167 1.25-1.167 1.25.523 1.25 1.167-.56 1.167-1.25 1.167Zm-1.25 2.916c0 .645.56 1.167 1.25 1.167s1.25-.522 1.25-1.167c0-.644-.56-1.166-1.25-1.166s-1.25.522-1.25 1.166Z" fill="#A9A9AD"/><rect x=".5" y="249.254" width="599" height="42" rx="3.5" stroke="#fff"/></g></svg>