<svg width="300" height="250" fill="none" xmlns="http://www.w3.org/2000/svg"><path fill-rule="evenodd" clip-rule="evenodd" d="M225.771 66.85c-6.719 4.615-16.105 11.538-27.276 20.117l-1.218-1.586c11.182-8.588 20.6-15.535 27.361-20.18 3.377-2.319 6.112-4.078 8.081-5.18.977-.547 1.806-.955 2.449-1.184.315-.112.645-.203.956-.223.271-.017.818.003 1.199.465l.003.004c.305.374.304.803.264 1.066a2.595 2.595 0 0 1-.257.744c-.223.447-.59.975-1.05 1.561-.932 1.185-2.387 2.773-4.291 4.705-3.817 3.873-9.527 9.217-16.696 15.645-14.344 12.86-34.578 30.102-57.31 48.682-22.732 18.58-43.646 34.986-59.094 46.492-7.72 5.751-14.089 10.287-18.64 13.26-2.27 1.483-4.114 2.593-5.459 3.271-.665.336-1.255.589-1.738.72a2.569 2.569 0 0 1-.78.103c-.266-.013-.687-.098-.992-.472-.376-.46-.293-.995-.224-1.257.08-.3.231-.603.4-.886.345-.576.898-1.296 1.614-2.132 1.442-1.683 3.666-3.975 6.556-6.777 5.785-5.61 14.311-13.335 24.767-22.452l1.314 1.507c-10.445 9.108-18.94 16.807-24.689 22.381-2.877 2.791-5.048 5.031-6.43 6.642-.26.304-.487.581-.684.831 1.242-.628 3.006-1.687 5.252-3.154 4.499-2.939 10.828-7.446 18.539-13.189 15.416-11.483 36.306-27.87 59.022-46.437 22.717-18.566 42.926-35.788 57.241-48.622 7.159-6.42 12.833-11.73 16.606-15.56 1.885-1.912 3.275-3.433 4.136-4.527-.299.15-.635.33-1.008.538-1.887 1.057-4.561 2.774-7.924 5.084zm10.494-6.24h-.012a.06.06 0 0 1 .012 0zM72.991 194.123l.002-.011a.064.064 0 0 1-.002.011z" fill="#4660F9"/><path d="M260.452 169.771a4.073 4.073 0 1 0 0-8.146 4.073 4.073 0 0 0 0 8.146zM44.188 101.766l.889-5.242a.855.855 0 0 1 .708-.709l5.231-.855a.855.855 0 0 0 0-1.687l-5.23-.867a.845.845 0 0 1-.71-.708l-.866-5.231a.855.855 0 0 0-1.687 0l-.866 5.23a.844.844 0 0 1-.698.71l-5.242.866a.855.855 0 0 0 0 1.687l5.242.855a.866.866 0 0 1 .698.709l.866 5.242a.855.855 0 0 0 1.665 0z" fill="#4660F9"/><g opacity=".3" fill="#4660F9"><path fill-rule="evenodd" clip-rule="evenodd" d="M232.272 191.346a1.959 1.959 0 1 0 0 3.918 1.959 1.959 0 0 0 0-3.918zm-3.959 1.959a3.959 3.959 0 1 1 7.918 0 3.959 3.959 0 0 1-7.918 0zm14.084-152.952a7.201 7.201 0 1 0 0 14.402 7.201 7.201 0 0 0 0-14.402zm-9.201 7.2a9.201 9.201 0 1 1 18.401 0 9.201 9.201 0 0 1-18.401 0z"/><path d="M56.214 57.071a4.14 4.14 0 1 0 0-8.28 4.14 4.14 0 0 0 0 8.28zm-10.8 161.76-1.856 1.327a.34.34 0 0 1-.428 0l-1.856-1.327a.368.368 0 0 0-.584.271.37.37 0 0 0 .066.246l1.34 1.823a.37.37 0 0 1 0 .427l-1.34 1.856a.372.372 0 0 0 .518.518l1.856-1.328a.34.34 0 0 1 .428 0l1.856 1.328c.071.05.158.074.246.067a.375.375 0 0 0 .338-.339.373.373 0 0 0-.067-.246l-1.327-1.856a.37.37 0 0 1 0-.427l1.327-1.857a.37.37 0 0 0-.517-.483z"/></g><g opacity=".2" fill="#4660F9"><path fill-rule="evenodd" clip-rule="evenodd" d="M149.712 38.632C102.927 38.632 65 76.558 65 123.343s37.927 84.712 84.712 84.712c46.784 0 84.711-37.927 84.711-84.712 0-46.785-37.927-84.711-84.711-84.711zM63 123.343c0-47.89 38.822-86.711 86.712-86.711 47.889 0 86.711 38.822 86.711 86.711 0 47.89-38.822 86.712-86.711 86.712-47.89 0-86.712-38.822-86.712-86.712z"/><path d="m85.97 36.608.562-3.465a.596.596 0 0 1 .472-.473l3.476-.573a.563.563 0 0 0 0-1.125l-3.476-.574a.574.574 0 0 1-.472-.461l-.563-3.476a.573.573 0 0 0-1.125 0l-.574 3.465a.551.551 0 0 1-.46.46l-3.477.575a.562.562 0 1 0 0 1.125l3.476.573a.574.574 0 0 1 .461.473l.574 3.465a.574.574 0 0 0 1.125.01zM52.074 188.547a2.621 2.621 0 1 0 0-5.243 2.621 2.621 0 0 0 0 5.243zm195.058-63.854.405-2.407a.385.385 0 0 1 .327-.326l2.407-.405a.397.397 0 0 0 .328-.389.393.393 0 0 0-.328-.388l-2.407-.393a.395.395 0 0 1-.327-.327l-.405-2.418a.39.39 0 0 0-.388-.328.394.394 0 0 0-.388.328l-.393 2.418a.403.403 0 0 1-.113.214.403.403 0 0 1-.214.113l-2.418.393a.397.397 0 0 0-.328.388.394.394 0 0 0 .328.389l2.418.405a.395.395 0 0 1 .327.326l.393 2.407a.395.395 0 0 0 .388.328.394.394 0 0 0 .388-.328zM234.195 37.52a3.297 3.297 0 1 0 0-6.594 3.297 3.297 0 0 0 0 6.593z"/></g><path d="M197.46 85.544a59.995 59.995 0 1 0-8.459 84.373 59.985 59.985 0 0 0 8.459-84.373zm-92.709 46.191a5.307 5.307 0 0 1 .567-9.796 5.306 5.306 0 0 1 5.711 1.487 5.308 5.308 0 0 1 .81 5.846 5.296 5.296 0 0 1-3.031 2.707 5.286 5.286 0 0 1-4.057-.244zm11.993 13.354c-1.924 3.971-5.164 6.378-7.245 5.366-2.081-1.013-2.25-5.04-.293-9 1.958-3.96 5.164-6.378 7.245-5.366 2.081 1.013 2.216 5.029.293 9zm67.273-45.978a7.11 7.11 0 1 1 12.804 6.187 7.11 7.11 0 0 1-12.804-6.187zm-11.34 39.745a2.7 2.7 0 1 1 1.249 3.6 2.687 2.687 0 0 1-1.249-3.6zm-6.93 30.645a3.552 3.552 0 0 1-3.403 2.011 3.556 3.556 0 0 1-2.166-6.204 3.557 3.557 0 0 1 5.72 1.483c.31.888.256 1.862-.151 2.71zm15.986-8.156a6.888 6.888 0 0 1-10.349 2.497 6.887 6.887 0 0 1-.425-10.638 6.887 6.887 0 0 1 11.079 2.884 6.886 6.886 0 0 1-.305 5.257zm1.069-43.402a4.187 4.187 0 0 1 6.29-1.472 4.187 4.187 0 1 1-6.719 3.06 4.19 4.19 0 0 1 .429-1.588zm3.105 28.89c-2.306-1.924-1.204-7.054 2.463-11.464 3.668-4.41 8.517-6.412 10.823-4.5 2.306 1.913 1.203 7.043-2.464 11.452-3.667 4.41-8.516 6.424-10.822 4.512zm72.487-40.319a2.014 2.014 0 1 0-.001-4.027 2.014 2.014 0 0 0 .001 4.027z" opacity=".1" fill="#4660F9"/></svg>