<svg width="300" height="250" fill="none" xmlns="http://www.w3.org/2000/svg"><path fill-rule="evenodd" clip-rule="evenodd" d="M164.69 102.452a3.37 3.37 0 1 0 0 6.74 3.37 3.37 0 0 0 0-6.74zm-5.37 3.37a5.37 5.37 0 1 1 10.74 0 5.37 5.37 0 0 1-10.74 0zm-81.31 18.36a1.18 1.18 0 1 0 0 2.36 1.18 1.18 0 0 0 0-2.36zm-3.18 1.18a3.18 3.18 0 1 1 6.36-.001 3.18 3.18 0 0 1-6.36.001z" fill="#4660F9"/><path d="m145.77 32.982 1 6.38a1 1 0 0 0 .85.86l6.31 1a1.001 1.001 0 0 1 0 2l-6.27 1.12a1.003 1.003 0 0 0-.85.86l-1 6.37a1.002 1.002 0 0 1-1 1 .999.999 0 0 1-1-1l-1-6.37a1.002 1.002 0 0 0-.85-.86l-6.43-1a.999.999 0 1 1 0-2l6.31-1a1.003 1.003 0 0 0 .85-.86l1-6.38a1.04 1.04 0 0 1 1.733-.838c.206.184.331.442.347.718zm7.59 165.94.43 2.66a.446.446 0 0 0 .36.36l2.63.44a.429.429 0 0 1 .261.705.434.434 0 0 1-.261.145l-2.63.44a.437.437 0 0 0-.36.36l-.43 2.66a.434.434 0 0 1-.145.261.434.434 0 0 1-.56 0 .434.434 0 0 1-.145-.261l-.44-2.66a.438.438 0 0 0-.35-.36l-2.64-.44a.43.43 0 0 1 0-.85l2.64-.44a.44.44 0 0 0 .35-.36l.44-2.66a.43.43 0 0 1 .85 0zm-6.5-90.24c.778 0 1.41-.641 1.41-1.43 0-.79-.632-1.43-1.41-1.43-.779 0-1.41.64-1.41 1.43 0 .789.631 1.43 1.41 1.43zm20.36-54.78c.779 0 1.41-.64 1.41-1.43 0-.79-.631-1.43-1.41-1.43-.779 0-1.41.64-1.41 1.43 0 .79.631 1.43 1.41 1.43z" fill="#4660F9"/><path fill-rule="evenodd" clip-rule="evenodd" d="M139.691 212.336c-.233-3.416-.622-8.35-1.246-14.412l1.989-.205a423.561 423.561 0 0 1 1.252 14.481 281.554 281.554 0 0 1 .297 5.003l.012.266.003.068.001.024-.999.041-1 .04v-.02l-.003-.065a276.68 276.68 0 0 0-.306-5.221zm-5.677-46.404a417.37 417.37 0 0 0-3.402-17.489l1.955-.423a420.025 420.025 0 0 1 3.418 17.572l-1.971.34zm-6.674-31.244a281.158 281.158 0 0 0-10.492-32.743l1.863-.726a282.884 282.884 0 0 1 10.568 32.976l-1.939.493zm-19.473-52.326C95.07 58.35 77.391 39.899 52.846 36.07l.308-1.976c25.454 3.97 43.556 23.08 56.478 47.327l-1.765.941zm50.273 132.573c.102-1.719.267-4.226.523-7.384l1.993.161a344.45 344.45 0 0 0-.519 7.341 190.652 190.652 0 0 0-.131 2.452l-.005.126-.002.041-.999-.04-1-.041.002-.045.006-.13.024-.51c.022-.449.057-1.111.108-1.971zm26.827-122.438c13.135-29.348 32.72-53.822 61.878-58.403l.31 1.976c-28.122 4.418-47.307 28.074-60.362 57.244-13.038 29.131-19.827 63.474-23.302 88.714l-1.982-.273c3.485-25.31 10.306-59.871 23.458-89.258z" fill="#4660F9"/><g opacity=".3" fill="#4660F9"><path fill-rule="evenodd" clip-rule="evenodd" d="M149.428 91.422h.007a280.436 280.436 0 0 0 42.279-2.88l.286 1.98a282.44 282.44 0 0 1-42.58 2.9c-35.42 0-64.13-5.16-64.13-11.53 0-6.37 28.71-11.55 64.17-11.55s64.13 5.17 64.13 11.53c0 3.43-8.33 6.51-21.55 8.63l-.317-1.975c6.554-1.051 11.779-2.324 15.32-3.711 1.78-.698 3.018-1.38 3.776-1.998.373-.303.576-.548.679-.718.095-.156.092-.224.092-.228 0-.008 0-.066-.072-.195-.081-.142-.243-.355-.55-.625-.626-.55-1.666-1.175-3.195-1.825-3.04-1.293-7.563-2.504-13.305-3.537-11.451-2.06-27.359-3.348-45.008-3.348s-33.567 1.29-45.028 3.354c-5.747 1.035-10.275 2.248-13.319 3.544-1.53.651-2.572 1.277-3.2 1.828-.306.27-.47.484-.55.627-.073.13-.073.188-.073.196v.001c0 .008 0 .066.073.196.08.143.243.356.55.626.627.551 1.67 1.176 3.199 1.826 3.043 1.294 7.57 2.504 13.314 3.537 11.457 2.06 27.365 3.345 44.994 3.345h.008zm.03 50.11h.009a181.617 181.617 0 0 0 30.168-2.257l-.001-.003c4.672-.819 8.365-1.809 10.843-2.873 1.246-.535 2.073-1.043 2.556-1.474.279-.248.375-.407.407-.475-.028-.06-.106-.19-.314-.391-.391-.377-1.075-.837-2.138-1.333-2.115-.988-5.303-1.93-9.401-2.74-8.163-1.613-19.527-2.624-32.137-2.624s-23.974 1.014-32.137 2.628c-4.098.81-7.286 1.752-9.402 2.74-1.063.496-1.747.956-2.138 1.332-.208.201-.286.33-.313.39.027.06.105.189.312.389.391.376 1.075.835 2.138 1.331 2.114.986 5.301 1.927 9.398 2.736 8.162 1.612 19.526 2.624 32.142 2.624h.008zm-44.012-7.119.002.009-.002-.009zm.002.068a.065.065 0 0 1-.002.01l.002-.01zm88.006.008-.003-.009.003.009zm-.002-.069a.066.066 0 0 1 .002-.009l-.002.009zm-13.453 6.818c9.459-1.66 15.451-4.088 15.451-6.786 0-5.02-20.6-9.09-46-9.09s-46 4.08-46 9.09 20.59 9.08 46 9.08a183.587 183.587 0 0 0 30.53-2.287l.02-.003h-.02l.019-.004zm1.036 40.654c-.029-.079-.23-.583-1.612-1.358-1.466-.823-3.72-1.63-6.678-2.332-5.883-1.397-14.113-2.28-23.275-2.28-9.162 0-17.392.883-23.276 2.28-2.957.702-5.211 1.509-6.677 2.332-1.382.775-1.583 1.28-1.612 1.358.029.078.23.582 1.612 1.358 1.466.823 3.72 1.629 6.677 2.331 5.884 1.397 14.114 2.281 23.276 2.281 9.162 0 17.392-.884 23.275-2.281 2.958-.702 5.212-1.508 6.678-2.331 1.382-.776 1.583-1.28 1.612-1.358zm2.005 0c0 4.401-15.03 7.97-33.57 7.97s-33.57-3.569-33.57-7.97c0-4.402 15.03-7.97 33.57-7.97s33.57 3.568 33.57 7.97z"/><path opacity=".3" d="M187.07 122.072c.778 0 1.41-.641 1.41-1.43 0-.79-.632-1.43-1.41-1.43-.779 0-1.41.64-1.41 1.43 0 .789.631 1.43 1.41 1.43zm-24.58 77.98c.607 0 1.1-.497 1.1-1.11 0-.613-.493-1.11-1.1-1.11-.608 0-1.1.497-1.1 1.11 0 .613.492 1.11 1.1 1.11z"/></g><path opacity=".2" fill-rule="evenodd" clip-rule="evenodd" d="M120.74 51.942a1.96 1.96 0 1 0 0 3.919 1.96 1.96 0 0 0 0-3.92zm-3.96 1.96a3.96 3.96 0 1 1 7.92 0 3.96 3.96 0 0 1-7.92 0zm89.06 96.01a5.18 5.18 0 1 0 0 10.36 5.18 5.18 0 0 0 0-10.36zm-7.18 5.18a7.18 7.18 0 1 1 14.36 0 7.18 7.18 0 0 1-14.36 0z" fill="#4660F9"/><path d="M176.77 66.822a2.34 2.34 0 0 0 2.33-2.35 2.34 2.34 0 0 0-2.33-2.35 2.34 2.34 0 0 0-2.33 2.35 2.34 2.34 0 0 0 2.33 2.35zm-50.76 96.75c.608 0 1.1-.497 1.1-1.11 0-.613-.492-1.11-1.1-1.11-.607 0-1.1.497-1.1 1.11 0 .613.493 1.11 1.1 1.11zm78.6-62.12a2.98 2.98 0 0 0 2.97-2.99 2.98 2.98 0 0 0-2.97-2.99 2.98 2.98 0 0 0-2.97 2.99 2.98 2.98 0 0 0 2.97 2.99zm-52.71 53.64c.778 0 1.41-.641 1.41-1.43 0-.79-.632-1.43-1.41-1.43-.779 0-1.41.64-1.41 1.43 0 .789.631 1.43 1.41 1.43zm12.79-34.45c1.397 0 2.53-1.146 2.53-2.56 0-1.414-1.133-2.56-2.53-2.56-1.397 0-2.53 1.146-2.53 2.56 0 1.414 1.133 2.56 2.53 2.56zm-79.35-.47c2.546 0 4.61-2.082 4.61-4.65 0-2.568-2.064-4.65-4.61-4.65-2.546 0-4.61 2.082-4.61 4.65 0 2.568 2.064 4.65 4.61 4.65z" opacity=".1" fill="#4660F9"/></svg>