<svg width="300" height="250" fill="none" xmlns="http://www.w3.org/2000/svg"><path fill-rule="evenodd" clip-rule="evenodd" d="M112.471 78.333a7.545 7.545 0 0 0-9.643 6.557l-.996-.09.996.091a7.522 7.522 0 0 0 1.717 5.516 7.546 7.546 0 0 0 5.12 2.676h.001a7.542 7.542 0 0 0 2.805-14.75zm-11.635 6.376a9.544 9.544 0 1 1 8.652 10.366 9.535 9.535 0 0 1-8.261-6.66 9.525 9.525 0 0 1-.391-3.706zm90.045 88.955a6.408 6.408 0 1 0 0 12.817 6.408 6.408 0 0 0 0-12.817zm-8.408 6.409a8.408 8.408 0 1 1 8.408 8.408 8.408 8.408 0 0 1-8.408-8.408z" fill="#4660F9"/><path d="M180.343 38.965a4.278 4.278 0 1 0-.001-8.555 4.278 4.278 0 0 0 .001 8.555zm55.674 81.267a1.983 1.983 0 1 0 0-3.965 1.983 1.983 0 0 0 0 3.965zM73.171 142.258a2.707 2.707 0 1 0 0-5.413 2.707 2.707 0 0 0 0 5.413zm82.801-32.814 1.472 8.893a1.433 1.433 0 0 0 1.247 1.247l8.893 1.471a1.447 1.447 0 0 1 0 2.869l-8.893 1.472a1.433 1.433 0 0 0-1.247 1.247l-1.472 8.892a1.45 1.45 0 0 1-2.388.899 1.448 1.448 0 0 1-.48-.899l-1.472-8.892a1.433 1.433 0 0 0-1.247-1.247l-8.893-1.472a1.445 1.445 0 0 1-1.257-1.434 1.45 1.45 0 0 1 1.257-1.435l8.893-1.471a1.433 1.433 0 0 0 1.247-1.247l1.472-8.893a1.443 1.443 0 0 1 1.434-1.257 1.444 1.444 0 0 1 1.434 1.257zM73.62 58.559l.462 2.768a.461.461 0 0 0 .374.375l2.756.498a.449.449 0 1 1 0 .898l-2.806.462a.461.461 0 0 0-.374.386l-.462 2.807a.461.461 0 0 1-.91 0l-.436-2.806a.449.449 0 0 0-.375-.387l-2.806-.462a.449.449 0 0 1 0-.898l2.806-.461a.449.449 0 0 0 .375-.412l.461-2.806a.468.468 0 0 1 .935.038z" fill="#4660F9"/><g opacity=".3" fill-rule="evenodd" clip-rule="evenodd" fill="#4660F9"><path d="M215.496 70.09c1.955 10.123-1.108 23.184-10.202 39.126l-1.737-.991c8.99-15.76 11.799-28.312 9.975-37.756-1.809-9.364-8.217-15.885-18.225-19.552-10.046-3.68-23.665-4.453-39.642-2.244-15.962 2.207-34.202 7.38-53.444 15.509l-.779-1.843c19.372-8.183 37.783-13.411 53.949-15.647 16.15-2.233 30.134-1.49 40.605 2.347 10.509 3.85 17.529 10.85 19.5 21.051zM92.936 188.361c-1.36-10.715 1.837-24.651 10.897-41.452l1.76.949c-8.956 16.611-11.96 30.112-10.673 40.251 1.28 10.075 6.798 16.9 15.149 20.301 8.41 3.425 19.793 3.413 32.754-.502 12.945-3.91 27.384-11.692 41.832-23.679l1.277 1.539c-14.617 12.128-29.288 20.055-42.531 24.055-13.228 3.995-25.112 4.094-34.086.439-9.032-3.678-15.01-11.123-16.379-21.901z"/><path d="M109.755 132.684s.001-.001.682.731l.682.732-.009.008-.028.026-.113.107c-.101.096-.252.239-.448.428-.393.378-.97.94-1.701 1.67a199.809 199.809 0 0 0-6.008 6.283c-4.934 5.381-11.402 12.978-17.55 21.846-6.152 8.871-11.963 18.987-15.605 29.407-3.643 10.422-5.094 21.085-2.612 31.096l-1.94.481c-2.607-10.512-1.057-21.591 2.664-32.237 3.722-10.649 9.637-20.928 15.849-29.887 6.214-8.963 12.745-16.631 17.719-22.057a203.159 203.159 0 0 1 6.07-6.348 138.44 138.44 0 0 1 2.306-2.247l.031-.029.009-.008.002-.002zm98.636 27.172a215.324 215.324 0 0 1-12.055 15.163l-1.505-1.317c3.722-4.255 7.893-9.432 11.94-15.019l1.62 1.173zM61.89 112.838c9.548-10.175 22.578-21.03 38.586-26.454l.642 1.894c-15.572 5.277-28.334 15.874-37.769 25.929l-1.458-1.369zm163.359-52.07c-.838-4.423-3.287-7.946-8.43-9.654l.631-1.898c5.914 1.965 8.807 6.133 9.764 11.18.941 4.965.014 10.77-1.569 16.219-1.589 5.47-3.874 10.692-5.755 14.537a107.732 107.732 0 0 1-2.393 4.616c-.304.553-.55.986-.72 1.283l-.197.339-.052.088-.014.023-.005.008-.859-.512-.65-.388-.208-.125.003-.005.012-.02.048-.082c.042-.072.106-.18.188-.324.165-.286.404-.708.702-1.249.596-1.082 1.423-2.64 2.349-4.53 1.852-3.789 4.085-8.898 5.63-14.217 1.552-5.341 2.379-10.785 1.525-15.29z"/></g><path d="M66.187 74.573a2.819 2.819 0 1 0 0-5.637 2.819 2.819 0 0 0 0 5.637zM170.54 27.504a1.758 1.758 0 1 0 0-3.517 1.758 1.758 0 0 0 0 3.517zM87.626 217.987a3.068 3.068 0 1 0 0-6.137 3.068 3.068 0 0 0 0 6.137zm-11.362-63.395a1.359 1.359 0 1 0 .002-2.718 1.359 1.359 0 0 0-.002 2.718zm2.196 64.53.374 2.233a.362.362 0 0 0 .299.299l2.233.374a.36.36 0 1 1 0 .723l-2.233.362a.378.378 0 0 0-.3.299l-.373 2.233a.362.362 0 0 1-.71 0l-.376-2.233a.377.377 0 0 0-.299-.299l-2.232-.362a.363.363 0 0 1 0-.723l2.232-.374a.365.365 0 0 0 .3-.299l.374-2.233a.362.362 0 0 1 .71 0zm147.504-93.751.948 1.746a.312.312 0 0 0 .337.162l1.958-.337a.326.326 0 0 1 .212.599l-1.746.948a.313.313 0 0 0-.162.336l.337 1.971a.325.325 0 0 1-.599.2l-.948-1.747a.315.315 0 0 0-.337-.162l-1.97.337a.322.322 0 0 1-.336-.22.327.327 0 0 1 .136-.379l1.746-.947a.313.313 0 0 0 .163-.337l-.337-1.958a.325.325 0 0 1 .598-.212zm3.618-11.312a2.968 2.968 0 1 0 0-5.937 2.968 2.968 0 0 0 0 5.937z" opacity=".2" fill="#4660F9"/><path d="M153.964 161.851c22.207 0 40.21-18.002 40.21-40.209 0-22.207-18.003-40.21-40.21-40.21s-40.209 18.003-40.209 40.21 18.002 40.209 40.209 40.209z" fill="#4660F9" opacity=".1"/></svg>