<svg width="300" height="250" fill="none" xmlns="http://www.w3.org/2000/svg"><path fill-rule="evenodd" clip-rule="evenodd" d="M259 151a3 3 0 1 0 0 6 3 3 0 0 0 0-6zm-5 3a5 5 0 1 1 10.001.001A5 5 0 0 1 254 154zM113 68a3 3 0 1 0 0 6 3 3 0 0 0 0-6zm-5 3a5 5 0 1 1 10 0 5 5 0 0 1-10 0zm-4 1H32v-2h72v2zm85.95 59h2v21.95H250v2h-60.05V131zM114 113.853V80.5h-2v35.348l62.998.152.004-2-61.002-.147z" fill="#4660F9"/><path d="m189.846 106.736-.9 5.47a.883.883 0 0 1-.73.74l-5.48.9a.907.907 0 0 0-.736.885.903.903 0 0 0 .736.885l5.48.9a.892.892 0 0 1 .73.73l.9 5.48a.906.906 0 0 0 .885.737.903.903 0 0 0 .885-.737l.9-5.48a.893.893 0 0 1 .74-.73l5.47-.9a.9.9 0 0 0 0-1.77l-5.47-.9a.888.888 0 0 1-.74-.74l-.9-5.47a.9.9 0 0 0-1.77 0z" fill="#4660F9"/><g opacity=".3" fill="#4660F9"><path d="M199 47a3 3 0 1 0 0-6 3 3 0 0 0 0 6zM49.42 151.72a1.35 1.35 0 1 0 0-2.7 1.35 1.35 0 0 0 0 2.7zM197.388 78.5l3.165.517a.523.523 0 0 1 .429.427l.52 3.146a.52.52 0 0 0 1.017 0l.52-3.146a.535.535 0 0 1 .384-.416l3.165-.517a.522.522 0 0 0 .412-.505.515.515 0 0 0-.412-.506l-3.165-.517a.541.541 0 0 1-.429-.427l-.475-3.146a.522.522 0 0 0-1.017 0l-.52 3.146a.512.512 0 0 1-.429.427l-3.165.517a.516.516 0 0 0 0 1z"/><path fill-rule="evenodd" clip-rule="evenodd" d="M161 67a3 3 0 1 0 0 6 3 3 0 0 0 0-6zm-5 3a5 5 0 1 1 10 0 5 5 0 0 1-10 0z"/><path d="m61.4 162.09.57 3.2a.53.53 0 0 1-.26.55l-2.79 1.52a.528.528 0 0 0-.29.656.531.531 0 0 0 .63.344l3.14-.53a.54.54 0 0 1 .54.28l1.54 2.86a.526.526 0 1 0 1-.33l-.56-3.2a.5.5 0 0 1 .26-.55l2.78-1.53a.532.532 0 0 0 .28-.647.528.528 0 0 0-.61-.353l-3.14.53a.511.511 0 0 1-.54-.27l-1.54-2.86a.532.532 0 0 0-1.01.33zM256.5 119a1.5 1.5 0 1 0-.001-3.001A1.5 1.5 0 0 0 256.5 119zm-95 80a2.5 2.5 0 1 0 0-5 2.5 2.5 0 0 0 0 5z"/><path fill-rule="evenodd" clip-rule="evenodd" d="M147 198a5 5 0 1 0 .001 10.001A5 5 0 0 0 147 198zm-7 5a7 7 0 1 1 14 0 7 7 0 0 1-14 0zM260 96a2 2 0 1 0 0 4 2 2 0 0 0 0-4zm-4 2a4 4 0 1 1 8 0 4 4 0 0 1-8 0z"/></g><path d="M191 131c8.837 0 16-7.163 16-16s-7.163-16-16-16-16 7.163-16 16 7.163 16 16 16z" fill="#4660F9" opacity=".2"/><path d="M259 163a9 9 0 0 0 9-9 9 9 0 0 0-9-9 9 9 0 0 0-9 9 9 9 0 0 0 9 9zM113.21 80.42a9.21 9.21 0 0 0 9.21-9.21 9.21 9.21 0 0 0-9.21-9.21 9.21 9.21 0 0 0-9.21 9.21 9.21 9.21 0 0 0 9.21 9.21zm1.04 111.69c-26.55-47.89 67.01 10.8 144.75 10.8V170h-81.2l.2-36h-76V89H32s114.48 161.26 82.25 103.11z" opacity=".1" fill="#4660F9"/></svg>