<svg width="250" height="192" fill="none" xmlns="http://www.w3.org/2000/svg"><g clip-path="url(#a)"><path d="M148.139 143.368c46.851-21.937 75.466-59.721 63.914-84.394-11.553-24.672-58.898-26.89-105.748-4.954-46.85 21.937-75.466 59.721-63.914 84.394 11.552 24.672 58.897 26.89 105.748 4.954z" stroke="#C9BDFF" stroke-miterlimit="10"/><path d="M140.559 127.18c29.876-13.989 48.124-38.082 40.758-53.814-7.366-15.733-37.557-17.146-67.433-3.158-29.875 13.989-48.123 38.082-40.757 53.814s37.557 17.146 67.432 3.158z" fill="#1D1A37"/><path d="m139.874 73.24-5.442 12.984a.68.68 0 0 0 .248.908c.1.06.213.094.329.098l14.734 2.93c1.54.307.192 2.24-1.75 2.512l-18.601 2.624a3.634 3.634 0 0 0-1.951.972l-12.371 12.607c-1.321 1.348-3.789 1.321-3.238 0l5.25-12.669a.687.687 0 0 0-.017-.66.69.69 0 0 0-.569-.337l-14.725-2.931c-1.54-.306-.193-2.24 1.75-2.511l18.592-2.625a3.57 3.57 0 0 0 1.96-.971l12.546-12.958c1.339-1.356 3.823-1.356 3.255.027z" fill="#31C1FE"/><path d="M144.327 29.345a4.471 4.471 0 1 0 0-8.942 4.471 4.471 0 0 0 0 8.942z" stroke="#31C1FE" stroke-miterlimit="10"/><path d="M65.68 190.917c-60.474-.543-82.942-39.118-50.176-86.171 32.765-47.054 108.35-84.754 168.859-84.212" stroke="#4660F6" stroke-miterlimit="10"/><path d="M125.367 187.802a6.85 6.85 0 1 0 0-13.701 6.85 6.85 0 0 0 0 13.701z" fill="#C9BDFF"/><path d="M20.15 77.606a2.091 2.091 0 1 0 0-4.183 2.091 2.091 0 0 0 0 4.183z" fill="#31C1FE"/><path d="m217.112 109.479-1.689-2.389a.259.259 0 0 0-.28-.113l-2.87.56a.29.29 0 0 1-.311-.173.289.289 0 0 1 .093-.344l2.379-1.688a.278.278 0 0 0 .123-.28l-.534-2.809a.278.278 0 0 1 .161-.325.279.279 0 0 1 .347.107l1.662 2.327a.296.296 0 0 0 .28.114l2.878-.56a.286.286 0 0 1 .193.02.281.281 0 0 1 .026.487l-2.388 1.689a.26.26 0 0 0-.114.288l.56 2.87a.287.287 0 0 1-.173.312.293.293 0 0 1-.187.013.284.284 0 0 1-.156-.106z" fill="#31BEFB"/><path d="m209.15 11.392-.63-4.086a.375.375 0 0 0-.289-.324L204.25 5.87a.406.406 0 0 1-.223-.153.406.406 0 0 1 .028-.508.404.404 0 0 1 .239-.127l4.068-.595a.406.406 0 0 0 .324-.289l1.111-3.884a.403.403 0 0 1 .779 0l.63 3.99a.39.39 0 0 0 .289.324l3.981 1.12a.392.392 0 0 1 0 .779l-4.086.62a.416.416 0 0 0-.333.289l-1.128 4.05a.404.404 0 0 1-.779-.096zM23.142 130.372l-1.645 2.292a.281.281 0 0 0 0 .298l1.417 2.441a.272.272 0 0 1-.394.359l-2.266-1.645a.28.28 0 0 0-.297 0l-2.389 1.373a.277.277 0 0 1-.177.023.281.281 0 0 1-.182-.425l1.593-2.249a.259.259 0 0 0 0-.297l-1.417-2.441a.272.272 0 0 1 .221-.428c.067 0 .131.024.181.069l2.292 1.645a.263.263 0 0 0 .298 0l2.44-1.417a.268.268 0 0 1 .31.083.27.27 0 0 1 .015.319z" fill="#C9BDFF"/><path d="m52.268 175.185.437 2.039a.199.199 0 0 0 .054.095.197.197 0 0 0 .095.054l2.039.437a.2.2 0 0 1 .2.201.202.202 0 0 1-.2.202l-2.039.437a.199.199 0 0 0-.095.054.199.199 0 0 0-.054.095l-.437 1.986a.2.2 0 0 1-.201.201.2.2 0 0 1-.202-.201l-.437-1.986a.17.17 0 0 0-.05-.099.173.173 0 0 0-.099-.05l-2.038-.437a.202.202 0 0 1-.142-.344.2.2 0 0 1 .142-.059l2.038-.437a.18.18 0 0 0 .1-.05.174.174 0 0 0 .049-.099l.437-2.039a.201.201 0 0 1 .403 0z" fill="#C7C6C9"/><path d="M213.402 84.719a3.867 3.867 0 1 0 0-7.734 3.867 3.867 0 0 0 0 7.734z" fill="#4660F6"/><path d="M7.227 80.852a2.669 2.669 0 1 0 0-5.338 2.669 2.669 0 0 0 0 5.338z" stroke="#31C1FE" stroke-miterlimit="10"/><path d="M184.328 20.534c60.475.534 82.943 39.11 50.177 86.163s-108.35 84.753-168.86 84.22" stroke="#4660F6" stroke-miterlimit="10"/></g><defs><clipPath id="a"><path fill="#fff" d="M0 0h250v191.363H0z"/></clipPath></defs></svg>