<svg width="300" height="250" fill="none" xmlns="http://www.w3.org/2000/svg"><path opacity=".3" fill-rule="evenodd" clip-rule="evenodd" d="M139.544 43.573h78.298v78.26h-2v-76.26h-74.298V93.68h-2V43.573z" fill="#4660F9"/><path opacity=".1" d="M257.054 121.833h-89.06v63.565h89.06v-63.565z" fill="#4660F9"/><path opacity=".3" d="M206.093 152.761a2.889 2.889 0 1 0-.002-5.778 2.889 2.889 0 0 0 .002 5.778z" fill="#4660F9"/><path d="M186.849 154.629a4.757 4.757 0 1 0 0-9.515 4.757 4.757 0 0 0 0 9.515z" fill="#4660F9"/><path opacity=".3" d="M225.235 152.761a2.89 2.89 0 1 0 0-5.778 2.89 2.89 0 0 0 0 5.778zm16.384.158a2.888 2.888 0 1 0 0-5.776 2.888 2.888 0 0 0 0 5.776z" fill="#4660F9"/><path opacity=".3" fill-rule="evenodd" clip-rule="evenodd" d="M203.132 134.862h-26.817v-2h26.817v2zm-63.588-1.129h2v83.604h74.298v-31.939h2v33.939h-78.298v-85.604z" fill="#4660F9"/><path opacity=".1" d="M113.383 81.435H42v57.759h71.383V81.435z" fill="#4660F9"/><path opacity=".1" fill-rule="evenodd" clip-rule="evenodd" d="M42.983 151.573H112.4V174.8H42.983v-23.227zm2 2V172.8H110.4v-19.227H44.983zm-2 30.825H112.4v34.939H42.983v-34.939zm2 2v30.939H110.4v-30.939H44.983zm-2-142.365H112.4v29.334H42.983V44.033zm2 2v25.334H110.4V46.033H44.983z" fill="#4660F9"/><path opacity=".1" d="M140.544 133.747c11.065 0 20.034-8.969 20.034-20.034 0-11.064-8.969-20.033-20.034-20.033-11.064 0-20.033 8.969-20.033 20.033 0 11.065 8.969 20.034 20.033 20.034z" fill="#4660F9"/><path d="m138.705 103.84-1.149 6.956a1.156 1.156 0 0 1-.935.949l-6.97 1.135a1.147 1.147 0 0 0-.928 1.128 1.15 1.15 0 0 0 .928 1.128l6.97 1.136a1.148 1.148 0 0 1 .935.948l1.149 6.956a1.135 1.135 0 0 0 2.242 0l1.15-6.956a1.146 1.146 0 0 1 .934-.948l6.956-1.136a1.147 1.147 0 0 0 .928-1.128 1.15 1.15 0 0 0-.928-1.128l-6.956-1.135a1.15 1.15 0 0 1-.934-.949l-1.15-6.956a1.139 1.139 0 0 0-1.121-.955 1.133 1.133 0 0 0-1.121.955z" fill="#4660F9"/><g opacity=".2" fill="#4660F9"><path d="m227.093 56.67 3.58.59a.584.584 0 0 1 .48.48l.59 3.59a.588.588 0 0 0 .957.345.588.588 0 0 0 .203-.345l.59-3.59a.58.58 0 0 1 .48-.48l3.59-.59a.592.592 0 0 0 .482-.58.59.59 0 0 0-.482-.58l-3.59-.59a.568.568 0 0 1-.48-.48l-.59-3.58a.588.588 0 0 0-.957-.346.588.588 0 0 0-.203.346l-.59 3.58a.567.567 0 0 1-.48.48l-3.58.59a.592.592 0 0 0-.346.957.592.592 0 0 0 .346.203zM113.432 186.953l2.818.464a.453.453 0 0 1 .378.378l.465 2.826a.463.463 0 0 0 .753.272.468.468 0 0 0 .16-.272l.464-2.826a.46.46 0 0 1 .378-.378l2.826-.464a.465.465 0 0 0 0-.913l-2.826-.465a.447.447 0 0 1-.378-.378l-.464-2.818a.468.468 0 0 0-.457-.379.464.464 0 0 0-.456.379l-.465 2.818a.45.45 0 0 1-.378.378l-2.818.465a.464.464 0 0 0 0 .913z"/><path fill-rule="evenodd" clip-rule="evenodd" d="M183.973 72.49a.96.96 0 1 0-1.92 0 .96.96 0 0 0 1.92 0zm-.96-2.96a2.96 2.96 0 1 1 0 5.92 2.96 2.96 0 0 1 0-5.92zm-58.039-35.57a.96.96 0 1 0-1.92 0 .96.96 0 0 0 1.92 0zm-.96-2.96a2.96 2.96 0 1 1 0 5.92 2.96 2.96 0 0 1 0-5.92zm132.099 9.36a3.36 3.36 0 1 0-6.72 0 3.36 3.36 0 0 0 6.72 0zm-3.36-5.36a5.36 5.36 0 1 1 0 10.72 5.36 5.36 0 0 1 0-10.72zm-18.7 158.5a1.5 1.5 0 1 0-3 0 1.5 1.5 0 0 0 3 0zm-1.5-3.5a3.5 3.5 0 1 1 0 7 3.5 3.5 0 0 1 0-7z"/></g><path opacity=".3" fill-rule="evenodd" clip-rule="evenodd" d="M58.082 91.82a5.711 5.711 0 1 0 0 11.423 5.711 5.711 0 0 0 0-11.423zm-7.712 5.71a7.711 7.711 0 1 1 15.423 0 7.711 7.711 0 0 1-15.423 0z" fill="#4660F9"/><path d="M58.082 130.298a3.708 3.708 0 1 0 0-7.416 3.708 3.708 0 0 0 0 7.416z" fill="#4660F9"/><path opacity=".3" fill-rule="evenodd" clip-rule="evenodd" d="M99.055 98.158h-26.53v-2h26.53v2zm-14.386 11.411H72.525v-2h12.144v2z" fill="#4660F9"/></svg>