<svg width="300" height="250" fill="none" xmlns="http://www.w3.org/2000/svg"><path fill-rule="evenodd" clip-rule="evenodd" d="m166.995 151.003 29.768-16.88.986 1.74-29.767 16.88-.987-1.74zm-94.033 16.891 8.388-4.754.987 1.74-8.389 4.754-.986-1.74zm10.373 13.027 20.883-11.85.987 1.74-20.883 11.849-.987-1.739z" fill="#4660F9"/><path d="m245.761 89.73-1.038 6.311a1.025 1.025 0 0 1-.842.854l-6.323 1.038a1.026 1.026 0 0 0 0 2.031l6.323 1.05c.211.034.406.133.557.285.152.151.251.346.285.557l1.038 6.323a1.038 1.038 0 0 0 2.043 0l1.038-6.323a1.012 1.012 0 0 1 .854-.842l6.311-1.05a1.026 1.026 0 0 0 0-2.03l-6.311-1.039a1.024 1.024 0 0 1-.854-.854l-1.038-6.311a1.04 1.04 0 0 0-2.043 0zM39.922 196 39 194.292c.272-.145 27.423-14.676 54.545-28.508 55.624-28.402 56.866-26.404 57.682-25.075.622.97 1.272 2.057-12.41 11.64a124.514 124.514 0 0 0-10.196 7.673c10.866-3.793 62.071-31.719 96.427-51.032l.971 1.698c-.242.135-24.558 13.793-48.806 26.908-49.845 26.937-50.758 25.491-51.574 24.25-.621-.97-1.116-1.785 12.081-11.049 7.341-5.141 10.118-7.556 11.177-8.672-6.38 1.455-38.533 16.17-108.974 53.875z" fill="#4660F9"/><g opacity=".3" fill="#4660F9"><path d="M121.349 91.576a1.558 1.558 0 1 0 0-3.116 1.558 1.558 0 0 0 0 3.116zm-70.115 42.702a1.558 1.558 0 1 0-.001-3.116 1.558 1.558 0 0 0 0 3.116z"/><path fill-rule="evenodd" clip-rule="evenodd" d="M232.077 167.387a2.588 2.588 0 1 0 0 5.177 2.588 2.588 0 0 0 0-5.177zm-4.588 2.588a4.588 4.588 0 1 1 9.176 0 4.588 4.588 0 0 1-9.176 0zm18.769-88.487c-9.484 0-17.173 7.689-17.173 17.172 0 9.484 7.689 17.172 17.173 17.172 9.483 0 17.172-7.688 17.172-17.172 0-9.483-7.689-17.172-17.172-17.172zM227.085 98.66c0-10.588 8.584-19.172 19.173-19.172 10.588 0 19.172 8.584 19.172 19.172 0 10.589-8.584 19.172-19.172 19.172-10.589 0-19.173-8.583-19.173-19.172z"/><path d="M104.711 61.37a3.116 3.116 0 1 0 0-6.231 3.116 3.116 0 0 0 0 6.231zm-56.223 91.368.288-1.904a.322.322 0 0 1 .265-.254l1.904-.311a.312.312 0 0 0 0-.612l-1.904-.311a.326.326 0 0 1-.265-.265l-.288-1.939a.312.312 0 0 0-.612 0l-.254 1.939a.325.325 0 0 1-.254.265l-1.903.311a.311.311 0 0 0 0 .612l1.903.311a.33.33 0 0 1 .254.254l.312 1.904a.31.31 0 0 0 .554 0z"/></g><g opacity=".2" fill="#4660F9"><path fill-rule="evenodd" clip-rule="evenodd" d="M37.538 129.624a1.538 1.538 0 1 0 0 3.077 1.538 1.538 0 0 0 0-3.077zM34 131.162a3.538 3.538 0 1 1 7.076 0 3.538 3.538 0 0 1-7.076 0z"/><path d="M226.193 153.753a1.892 1.892 0 1 0 0-3.784 1.892 1.892 0 0 0 0 3.784z"/><path fill-rule="evenodd" clip-rule="evenodd" d="M135.091 97.883a4.077 4.077 0 1 0 0 8.154 4.077 4.077 0 0 0 0-8.154zm-6.077 4.077a6.077 6.077 0 1 1 12.154 0 6.077 6.077 0 0 1-12.154 0z"/><path d="m144.932 59.859.531-3.231a.532.532 0 0 1 .427-.438l3.231-.531a.531.531 0 0 0 0-1.039l-3.231-.53a.528.528 0 0 1-.427-.439l-.531-3.23a.527.527 0 0 0-.519-.421.53.53 0 0 0-.519.42l-.508 3.266a.526.526 0 0 1-.427.438l-3.23.531a.534.534 0 0 0-.421.52.534.534 0 0 0 .421.519l3.23.53a.528.528 0 0 1 .427.439l.543 3.23a.528.528 0 0 0 .819.232.528.528 0 0 0 .184-.266z"/></g><path d="M99.116 82.196h-42.92v117.859h42.92V82.195zm58.473 44.443h-42.92v73.416h42.92v-73.416zm60.678-44.443h-42.921v117.859h42.921V82.195z" opacity=".1" fill="#4660F9"/></svg>