<svg width="300" height="250" fill="none" xmlns="http://www.w3.org/2000/svg"><path fill-rule="evenodd" clip-rule="evenodd" d="M150.88 194.875c17.516-6.774 33.48-20.437 45.644-37.576l1.631 1.158c-12.336 17.381-28.591 31.338-46.554 38.284h-.001c-22.501 8.69-42.9 4.506-56.432-9.231l1.424-1.404c12.888 13.083 32.409 17.219 54.288 8.769zm67.328-123.769a60.987 60.987 0 0 0-8.993-22.127l1.67-1.102a62.997 62.997 0 0 1 9.287 22.853l-1.964.376zm-20.088-33.68c-12.62-9.217-29.801-11.344-48.76-4.025l-.72-1.866c19.481-7.52 37.4-5.408 50.66 4.275l-1.18 1.616zm-73.379 10.729a119.126 119.126 0 0 0-20.716 22.432l-1.631-1.158a121.103 121.103 0 0 1 21.064-22.808l1.283 1.534z" fill="#4660F9"/><path fill-rule="evenodd" clip-rule="evenodd" d="m150.87 194.865 84.02-32.45.72 1.866-84.02 32.45-.72-1.866z" fill="#4660F9"/><path d="m155.14 125.788 1.45-8.81a1.434 1.434 0 0 1 1.18-1.19l8.82-1.45a1.439 1.439 0 0 0 0-2.84l-8.82-1.45a1.429 1.429 0 0 1-1.18-1.19l-1.45-8.81a1.44 1.44 0 0 0-2.85 0l-1.45 8.81a1.434 1.434 0 0 1-1.18 1.19l-8.82 1.45a1.438 1.438 0 0 0-1.201 1.42 1.439 1.439 0 0 0 1.201 1.42l8.82 1.45a1.429 1.429 0 0 1 1.18 1.19l1.45 8.81a1.437 1.437 0 0 0 1.425 1.233 1.442 1.442 0 0 0 1.425-1.233z" fill="#4660F9"/><path fill-rule="evenodd" clip-rule="evenodd" d="m83.337 220.402 75.68-28.51.705 1.872-75.68 28.51-.705-1.872z" fill="#4660F9"/><g opacity=".3" fill="#4660F9"><path fill-rule="evenodd" clip-rule="evenodd" d="M149.37 33.397a89.53 89.53 0 0 0-24.625 14.755l-1.29-1.528a91.55 91.55 0 0 1 25.175-15.085l.74 1.858zm70.48 53.43a82.993 82.993 0 0 0-1.64-15.711l1.96-.396a84.975 84.975 0 0 1 1.68 16.087c.333 24.863-8.882 50.775-23.694 71.65l-1.631-1.158c14.607-20.585 23.652-46.091 23.325-70.468v-.004zm-10.63-37.842a46.701 46.701 0 0 0-11.063-11.562l1.186-1.61a48.683 48.683 0 0 1 11.537 12.058l-1.66 1.114z"/><path d="m91.26 109.798.59-3.58a.585.585 0 0 1 .48-.48l3.59-.59a.588.588 0 0 0 .346-.957.588.588 0 0 0-.346-.203l-3.59-.59a.578.578 0 0 1-.48-.48l-.59-3.59a.59.59 0 0 0-1.16 0l-.59 3.59a.567.567 0 0 1-.48.48l-3.58.59a.588.588 0 0 0-.346.957c.088.106.21.178.346.203l3.58.59a.567.567 0 0 1 .48.48l.59 3.58a.592.592 0 0 0 .58.482.59.59 0 0 0 .58-.482z"/><path fill-rule="evenodd" clip-rule="evenodd" d="M229.56 142.698a2.45 2.45 0 1 0 0 4.9 2.45 2.45 0 0 0 0-4.9zm-4.45 2.45a4.45 4.45 0 1 1 8.9 0 4.45 4.45 0 0 1-8.9 0zm-118.03 7.77a.96.96 0 1 0 0 1.92.96.96 0 0 0 0-1.92zm-2.96.96a2.96 2.96 0 1 1 5.92 0 2.96 2.96 0 0 1-5.92 0zm-29.17-73.1a3.36 3.36 0 1 0 0 6.72 3.36 3.36 0 0 0 0-6.72zm-5.36 3.36a5.36 5.36 0 1 1 10.72 0 5.36 5.36 0 0 1-10.72 0z"/><path d="M84.95 124.408a1.73 1.73 0 1 0 0-3.46 1.73 1.73 0 0 0 0 3.46zm94.63-68.8a1.41 1.41 0 1 0 0-2.82 1.41 1.41 0 0 0 0 2.82z"/><path fill-rule="evenodd" clip-rule="evenodd" d="M68.03 194.137c.069-.446.268-1.229.577-2.329v-.002c.776-2.742 1.682-5.623 2.59-8.513l.32-1.018c1.017-3.237 2.018-6.468 2.841-9.549.823-3.083 1.46-5.987 1.751-8.567.294-2.593.23-4.78-.283-6.468-.501-1.647-1.419-2.796-2.89-3.439-1.52-.666-3.765-.848-7.006-.229-6.492 1.239-16.489 5.589-31.42 14.455l-1.02-1.72c14.954-8.879 25.207-13.39 32.065-14.7 3.433-.655 6.138-.534 8.183.361 2.096.917 3.361 2.585 4.001 4.69.628 2.066.664 4.566.358 7.275-.308 2.721-.972 5.733-1.807 8.858-.835 3.128-1.849 6.397-2.865 9.632l-.228.728c2.422-5.209 5.63-11.929 9.447-19.181 5.3-10.069 11.79-21.19 19.011-30.742 7.202-9.528 15.211-17.602 23.578-21.44l.834 1.818c-7.908 3.627-15.672 11.376-22.817 20.829-7.128 9.429-13.56 20.444-18.836 30.467-5.063 9.618-9.048 18.297-11.554 23.753l-.305.665c-.62 1.349-1.14 2.479-1.553 3.343-.401.84-.729 1.493-.954 1.84a1.947 1.947 0 0 1-.244.312 1.135 1.135 0 0 1-.322.231 1.028 1.028 0 0 1-1.439-.657 1.233 1.233 0 0 1-.045-.316 2.32 2.32 0 0 1 .032-.387z"/></g><g opacity=".2" fill="#4660F9"><path d="m235.25 129.878.33-2a.321.321 0 0 1 .26-.27l2-.32a.32.32 0 0 0 0-.64l-2-.33a.312.312 0 0 1-.26-.26l-.33-2a.32.32 0 0 0-.63 0l-.33 2a.312.312 0 0 1-.26.26l-2 .33a.32.32 0 0 0 0 .64l2 .32a.321.321 0 0 1 .26.27l.33 2a.32.32 0 0 0 .63 0z"/><path fill-rule="evenodd" clip-rule="evenodd" d="M187.06 64.778a2.78 2.78 0 1 0 0 5.56 2.78 2.78 0 0 0 0-5.56zm-4.78 2.78a4.78 4.78 0 1 1 9.56 0 4.78 4.78 0 0 1-9.56 0z"/><path d="M226.48 54.198a1.73 1.73 0 1 0 0-3.46 1.73 1.73 0 0 0 0 3.46z"/></g><path d="M153.71 141.698c15.895 0 28.78-12.885 28.78-28.78 0-15.895-12.885-28.78-28.78-28.78-15.895 0-28.78 12.885-28.78 28.78 0 15.895 12.885 28.78 28.78 28.78z" fill="#4660F9" opacity=".1"/></svg>