<svg width="300" height="250" fill="none" xmlns="http://www.w3.org/2000/svg"><path fill-rule="evenodd" clip-rule="evenodd" d="M58.89 176.15a2.16 2.16 0 1 0 0 4.32 2.16 2.16 0 0 0 0-4.32zm-4.16 2.16a4.16 4.16 0 1 1 8.32 0 4.16 4.16 0 0 1-8.32 0zm64.82-33.39a2.16 2.16 0 1 0 0 4.32 2.16 2.16 0 0 0 0-4.32zm-4.16 2.16a4.16 4.16 0 1 1 8.319-.001 4.16 4.16 0 0 1-8.319.001zM188 96.95V74h2v22.95h-2zM188 220V113.5h2V220h-2z" fill="#4660F9"/><path d="m189.694 52.534.722 4.398a.729.729 0 0 0 .589.598l4.386.724a.714.714 0 0 1 .609.708.715.715 0 0 1-.609.708l-4.386.724a.724.724 0 0 0-.589.598l-.722 4.398a.713.713 0 0 1-1.412 0l-.698-4.398a.717.717 0 0 0-.589-.598l-4.386-.724a.714.714 0 0 1-.609-.708.715.715 0 0 1 .609-.708l4.386-.724a.717.717 0 0 0 .589-.598l.729-4.398a.72.72 0 0 1 .691-.534.713.713 0 0 1 .69.534z" fill="#4660F9"/><path fill-rule="evenodd" clip-rule="evenodd" d="M189 103a2 2 0 1 0-.001 3.999A2 2 0 0 0 189 103zm-4 2a4 4 0 1 1 8 0 4 4 0 0 1-8 0z" fill="#4660F9"/><g opacity=".3" fill="#4660F9"><path d="m56.51 79.82-.54 3a.49.49 0 0 0 .22.5l2.47 1.37a.49.49 0 0 1-.32.9l-2.78-.45a.47.47 0 0 0-.48.26l-1.41 2.61a.45.45 0 0 1-.84-.3l.54-2.95a.47.47 0 0 0-.22-.5l-2.47-1.37a.5.5 0 0 1 .32-.91l2.78.45a.46.46 0 0 0 .48-.26l1.41-2.65a.45.45 0 0 1 .84.3zM251.89 52.5a2.39 2.39 0 1 0 0-4.78 2.39 2.39 0 0 0 0 4.78zm-171.2 54.47a2.25 2.25 0 1 0 0-4.5 2.25 2.25 0 0 0 0 4.5z"/><path fill-rule="evenodd" clip-rule="evenodd" d="M196.84 103.47h63.42v2h-63.42v-2zM57.89 219.79v-33.33h2v33.33h-2zm60.66-42.64v-21.92h2v23.92H67.04v-2h51.51zm9.16-31.23h60.98v2h-60.98v-2z"/><path d="M189 74c8.284 0 15-6.716 15-15 0-8.284-6.716-15-15-15-8.284 0-15 6.716-15 15 0 8.284 6.716 15 15 15z"/></g><g opacity=".2" fill="#4660F9"><path d="m241.2 30.32.41 2.48a.388.388 0 0 0 .33.33l2.48.41a.41.41 0 0 1 0 .8l-2.48.4a.4.4 0 0 0-.33.34l-.41 2.47a.4.4 0 1 1-.8 0l-.41-2.47a.416.416 0 0 0-.33-.34l-2.48-.4a.412.412 0 0 1-.23-.656.412.412 0 0 1 .23-.144l2.48-.41a.397.397 0 0 0 .33-.33l.41-2.48a.41.41 0 0 1 .8 0zM44.13 147.08a4.13 4.13 0 1 0 0-8.26 4.13 4.13 0 0 0 0 8.26z"/><path fill-rule="evenodd" clip-rule="evenodd" d="M118.68 89.28a4.5 4.5 0 1 0 0 9 4.5 4.5 0 0 0 0-9zm-6.5 4.5a6.5 6.5 0 1 1 13 0 6.5 6.5 0 0 1-13 0z"/></g><path d="M72 197.155V220h188v-99h-61.86v41.343h-66.124v35.36L72 197.155zM74.59 67.72a1.25 1.25 0 1 0 0-2.5 1.25 1.25 0 0 0 0 2.5zm66.82 45.64a1.46 1.46 0 1 0 0-2.92 1.46 1.46 0 0 0 0 2.92zm-82.52 73.11a8.16 8.16 0 1 0 0-16.32 8.16 8.16 0 0 0-8.16 8.16 8.16 8.16 0 0 0 8.16 8.16zm60.66-31.23a8.16 8.16 0 1 0 0-16.32 8.16 8.16 0 0 0 0 16.32zm69.61-42.36a8.16 8.16 0 0 0 8.16-8.16 8.16 8.16 0 0 0-8.16-8.16 8.16 8.16 0 0 0-8.16 8.16 8.16 8.16 0 0 0 8.16 8.16z" opacity=".1" fill="#4660F9"/></svg>