<svg width="149" height="146" fill="none" xmlns="http://www.w3.org/2000/svg"><g opacity=".5"><path opacity=".1" d="M142.381 11.36H5.619a3.494 3.494 0 0 0-3.494 3.494v127.222a3.494 3.494 0 0 0 3.494 3.494h136.762a3.494 3.494 0 0 0 3.494-3.494V14.854a3.494 3.494 0 0 0-3.494-3.494z" fill="#4660F9"/><path opacity=".5" d="M44.875 58.159H31.25a1 1 0 0 0-1 1v13.6a1 1 0 0 0 1 1h13.625a1 1 0 0 0 1-1v-13.6a1 1 0 0 0-1-1zm25 0H56.25a1 1 0 0 0-1 1v13.6a1 1 0 0 0 1 1h13.625a1 1 0 0 0 1-1v-13.6a1 1 0 0 0-1-1zm25 0H81.25a1 1 0 0 0-1 1v13.6a1 1 0 0 0 1 1h13.625a1 1 0 0 0 1-1v-13.6a1 1 0 0 0-1-1zm25 0H106.25a1 1 0 0 0-1 1v13.6a1 1 0 0 0 1 1h13.625a1 1 0 0 0 1-1v-13.6a1 1 0 0 0-1-1zm-75 24.96H31.25a1 1 0 0 0-1 1v13.6a1 1 0 0 0 1 1h13.625a1 1 0 0 0 1-1v-13.6a1 1 0 0 0-1-1zm25 0H56.25a1 1 0 0 0-1 1v13.6a1 1 0 0 0 1 1h13.625a1 1 0 0 0 1-1v-13.6a1 1 0 0 0-1-1zm25 0H81.25a1 1 0 0 0-1 1v13.6a1 1 0 0 0 1 1h13.625a1 1 0 0 0 1-1v-13.6a1 1 0 0 0-1-1zm25 0H106.25a1 1 0 0 0-1 1v13.6a1 1 0 0 0 1 1h13.625a1 1 0 0 0 1-1v-13.6a1 1 0 0 0-1-1zm-75 24.959H31.25a1 1 0 0 0-1 1v13.6a1 1 0 0 0 1 1h13.625a1 1 0 0 0 1-1v-13.6a1 1 0 0 0-1-1zm25 0H56.25a1 1 0 0 0-1 1v13.6a1 1 0 0 0 1 1h13.625a1 1 0 0 0 1-1v-13.6a1 1 0 0 0-1-1zm25 0H81.25a1 1 0 0 0-1 1v13.6a1 1 0 0 0 1 1h13.625a1 1 0 0 0 1-1v-13.6a1 1 0 0 0-1-1zm25 0H106.25a1 1 0 0 0-1 1v13.6a1 1 0 0 0 1 1h13.625a1 1 0 0 0 1-1v-13.6a1 1 0 0 0-1-1z" fill="#4660F9"/><path opacity=".5" fill-rule="evenodd" clip-rule="evenodd" d="M2.125 14.853a3.496 3.496 0 0 1 3.5-3.493h136.75a3.489 3.489 0 0 1 3.5 3.493v26.2H2.125v-26.2z" fill="#4660F9"/><path opacity=".5" d="M34.938 23.84V2m78.125 21.84V2v21.84z" stroke="#4660F9" stroke-width="3" stroke-linecap="round" stroke-linejoin="round"/></g></svg>