<svg width="791" height="436" fill="none" xmlns="http://www.w3.org/2000/svg"><g filter="url(#a)"><rect x="50" y="6.957" width="732" height="418.087" rx="10" fill="#161B22"/><rect x="50" y="6.957" width="732" height="418.087" rx="10" stroke="#30363D"/></g><path d="M112 51.922h626M112 76.797h626m-626 23.918h626m-626 23.918h626m-626 24.874h626m-626 23.918h626m-626 23.918h626m-626 24.875h626m-626 23.918h626M112 271.01h626m-626 23.919h626m-626 23.918h626m-626 23.918h626m-626 24.874h626" stroke="#30363D" stroke-linecap="square"/><path d="M94.61 47.413c1.628 0 2.805-1.139 2.805-2.696v-.01c0-1.483-1.059-2.58-2.536-2.58-1.058 0-1.756.554-2.04 1.177h-.103c0-.059 0-.118.006-.177.059-1.547.601-2.82 1.906-2.82.73 0 1.236.376 1.45.967l.022.054h1.192l-.01-.065c-.258-1.17-1.279-1.976-2.648-1.976-1.918 0-3.062 1.547-3.062 4.168v.01c0 2.852 1.461 3.948 3.019 3.948Zm-1.637-2.696v-.006c0-.934.709-1.61 1.638-1.61.94 0 1.617.687 1.617 1.637v.011c0 .93-.72 1.654-1.628 1.654-.913 0-1.627-.74-1.627-1.686Zm8.658 2.696c1.633 0 2.782-1.096 2.782-2.685v-.011c0-1.488-1.042-2.573-2.497-2.573-.715 0-1.322.3-1.649.822h-.092l.237-2.47h3.561v-1.021h-4.507l-.386 4.5h1.036a1.56 1.56 0 0 1 .355-.45c.306-.28.709-.42 1.181-.42.935 0 1.612.677 1.612 1.633v.011c0 .972-.666 1.654-1.622 1.654-.849 0-1.467-.542-1.569-1.224l-.005-.043H98.94l.005.07c.108 1.256 1.16 2.207 2.686 2.207Z" fill="#B1BAC4"/><path fill-rule="evenodd" clip-rule="evenodd" d="M93.026 73.94c-.15.276-.26.593-.327.95a5.87 5.87 0 0 0-.096.842l-.004.185.1-.001c.096-.199.237-.384.421-.555.185-.171.413-.31.685-.414.272-.104.584-.156.935-.156.494 0 .932.107 1.313.32.381.215.68.507.897.877.217.37.325.793.325 1.27v.01a2.464 2.464 0 0 1-1.359 2.245c-.422.223-.906.334-1.45.334-.39 0-.766-.07-1.125-.208a2.63 2.63 0 0 1-.967-.658c-.285-.3-.51-.69-.677-1.169-.166-.48-.25-1.06-.25-1.742v-.01c0-.836.122-1.551.365-2.145.244-.595.595-1.05 1.053-1.367.459-.317 1.006-.476 1.644-.476.458 0 .872.08 1.24.242.37.16.675.383.919.665.243.283.406.61.489.984l.016.062h-1.198l-.021-.051a1.362 1.362 0 0 0-.798-.81 1.736 1.736 0 0 0-.653-.115c-.343 0-.638.08-.883.239a1.776 1.776 0 0 0-.594.652Zm.607 4.725c.247.144.521.216.822.216a1.605 1.605 0 0 0 1.41-.781 1.52 1.52 0 0 0 .218-.802v-.01c0-.305-.07-.575-.207-.81a1.488 1.488 0 0 0-.572-.554 1.685 1.685 0 0 0-.833-.203c-.308 0-.586.066-.835.2a1.546 1.546 0 0 0-.59.547 1.462 1.462 0 0 0-.218.794l-.001.006.01.177c.022.232.092.445.208.64.145.243.341.436.588.58Zm7.96 1.182c.598 0 1.11-.158 1.536-.473.427-.315.755-.763.986-1.343.231-.581.346-1.27.346-2.069v-.01c0-.798-.115-1.487-.346-2.066-.231-.579-.559-1.026-.986-1.341-.426-.315-.938-.473-1.536-.473-.598 0-1.11.158-1.536.473-.426.315-.754.762-.983 1.341-.229.58-.343 1.268-.343 2.066v.01c0 .798.114 1.488.343 2.069.23.58.557 1.028.983 1.343.426.315.938.473 1.536.473Zm-.883-1.316c.245.237.54.355.883.355.348 0 .644-.118.889-.355.245-.236.433-.572.564-1.01.131-.436.196-.956.196-1.559v-.01c0-.603-.065-1.122-.196-1.557-.131-.435-.319-.77-.564-1.005a1.238 1.238 0 0 0-.889-.352c-.343 0-.638.118-.883.352-.246.235-.434.57-.564 1.005-.131.435-.196.954-.196 1.557v.01c0 .603.065 1.123.196 1.56.13.437.318.773.564 1.01Zm-4.786 24.908c-.417.217-.9.326-1.447.326a3.1 3.1 0 0 1-1.343-.278 2.394 2.394 0 0 1-.935-.758 2.161 2.161 0 0 1-.408-1.076l-.005-.067h1.133l.005.041a1.3 1.3 0 0 0 .26.591c.139.178.32.319.546.421.226.103.478.155.757.155.319 0 .6-.068.844-.203.243-.136.434-.322.572-.558a1.6 1.6 0 0 0 .206-.817v-.01c0-.305-.07-.576-.21-.812a1.486 1.486 0 0 0-.568-.553 1.7 1.7 0 0 0-.833-.197 2.02 2.02 0 0 0-.647.1 1.56 1.56 0 0 0-.723.498c-.06.071-.114.148-.16.234h-1.043l.387-4.306h4.512v.976h-3.561l-.237 2.364h.086a1.63 1.63 0 0 1 .682-.58c.29-.138.615-.206.973-.206.487 0 .917.106 1.291.318.374.213.67.504.884.874.215.37.322.793.322 1.269v.011c0 .503-.119.948-.357 1.336a2.474 2.474 0 0 1-.983.907Zm7.047 0c-.417.217-.9.326-1.448.326-.504 0-.952-.093-1.342-.278a2.392 2.392 0 0 1-.935-.758 2.16 2.16 0 0 1-.408-1.076l-.005-.067h1.133l.005.041c.036.216.123.413.261.591s.319.319.545.421a1.8 1.8 0 0 0 .757.155c.319 0 .6-.068.843-.203.244-.136.435-.322.572-.558a1.59 1.59 0 0 0 .207-.817v-.01c0-.305-.07-.576-.209-.812-.14-.236-.33-.42-.57-.553a1.696 1.696 0 0 0-.832-.197c-.233 0-.449.033-.647.1a1.557 1.557 0 0 0-.723.498 1.346 1.346 0 0 0-.161.234h-1.042l.387-4.306h4.512v.976h-3.561l-.237 2.364h.086c.165-.25.392-.444.682-.58.29-.138.614-.206.972-.206.487 0 .918.106 1.292.318.374.213.669.504.884.874.215.37.322.793.322 1.269v.011c0 .503-.119.948-.357 1.336a2.474 2.474 0 0 1-.983.907Zm-1.483 24.244c.598 0 1.11-.158 1.536-.473.427-.315.755-.763.986-1.344.231-.58.346-1.27.346-2.068v-.01c0-.798-.115-1.487-.346-2.066-.231-.579-.559-1.026-.986-1.341-.426-.315-.938-.473-1.536-.473-.598 0-1.11.158-1.536.473-.426.315-.754.762-.983 1.341-.229.579-.343 1.268-.343 2.066v.01c0 .798.114 1.488.343 2.068.23.581.557 1.029.983 1.344.426.315.938.473 1.536.473Zm-7.095 0c.548 0 1.03-.109 1.448-.326a2.48 2.48 0 0 0 .983-.907 2.5 2.5 0 0 0 .357-1.336v-.011a2.48 2.48 0 0 0-.323-1.269 2.334 2.334 0 0 0-.883-.873 2.565 2.565 0 0 0-1.292-.319c-.358 0-.682.068-.972.205a1.64 1.64 0 0 0-.682.581h-.086l.236-2.364h3.561v-.976h-4.51l-.387 4.306h1.042c.046-.085.1-.163.16-.234.062-.07.126-.136.194-.197.154-.134.33-.234.53-.301.198-.067.414-.1.647-.1.315 0 .592.066.832.198.24.131.43.316.57.552.14.236.209.507.209.812v.01a1.6 1.6 0 0 1-.207.817 1.485 1.485 0 0 1-.572.558 1.71 1.71 0 0 1-.843.203c-.28 0-.532-.052-.757-.154a1.423 1.423 0 0 1-.546-.422 1.3 1.3 0 0 1-.26-.591l-.006-.041h-1.133l.005.067c.04.397.176.756.409 1.077a2.4 2.4 0 0 0 .934.757 3.1 3.1 0 0 0 1.343.278Zm6.212-1.316c.245.237.54.355.883.355.348 0 .644-.118.889-.355.245-.236.433-.572.564-1.009.131-.437.196-.957.196-1.56v-.01c0-.603-.065-1.122-.196-1.557-.131-.435-.319-.77-.564-1.005a1.24 1.24 0 0 0-.889-.352c-.343 0-.638.118-.883.352-.246.235-.434.57-.564 1.005-.13.435-.196.954-.196 1.557v.01c0 .603.065 1.123.196 1.56.13.437.318.773.564 1.009Zm1.02 50.108c.598 0 1.111-.157 1.537-.472.426-.315.754-.763.985-1.344.231-.581.347-1.27.347-2.068v-.011c0-.798-.116-1.486-.347-2.065-.231-.579-.559-1.026-.985-1.342-.426-.315-.939-.472-1.537-.472-.597 0-1.11.157-1.536.472-.426.316-.753.763-.983 1.342-.229.579-.343 1.267-.343 2.065v.011c0 .798.114 1.487.343 2.068.23.581.557 1.029.983 1.344.426.315.939.472 1.536.472Zm-5.333-1.649v1.47h-1.166v-1.47h-3.78v-.982c.203-.335.412-.673.625-1.012.213-.339.428-.678.644-1.017a80.438 80.438 0 0 1 1.308-1.986c.219-.324.434-.64.645-.948h1.724v4.963h1.069v.982h-1.069Zm-3.787-.961h2.638v-4.008h-.07c-.168.24-.339.487-.51.742a83.921 83.921 0 0 0-1.568 2.4 64.67 64.67 0 0 0-.49.794v.072Zm8.237 1.295c.245.236.54.355.883.355.348 0 .644-.119.889-.355.246-.236.434-.573.564-1.01.131-.437.196-.956.196-1.559v-.011c0-.603-.065-1.122-.196-1.557-.13-.435-.318-.77-.564-1.004a1.236 1.236 0 0 0-.889-.352 1.23 1.23 0 0 0-.883.352c-.245.234-.433.569-.564 1.004-.131.435-.196.954-.196 1.557v.011c0 .603.065 1.122.196 1.559.131.437.319.774.564 1.01Zm-3.866-21.826v-1.469h1.068v-.982h-1.069v-4.964h-1.724a177.432 177.432 0 0 0-1.3 1.93 83.38 83.38 0 0 0-.652 1.005c-.217.339-.431.678-.645 1.017-.213.339-.421.677-.625 1.012v.982h3.781v1.469h1.166Zm-1.15-2.43H93.09v-.072a64.67 64.67 0 0 1 1.533-2.41l.524-.784c.172-.255.342-.502.51-.742h.07v4.008Zm7.882 2.284c-.417.218-.9.326-1.447.326-.505 0-.953-.092-1.343-.277a2.404 2.404 0 0 1-.935-.758 2.16 2.16 0 0 1-.408-1.077l-.005-.066h1.133l.005.041c.036.215.123.412.261.591.138.178.319.318.545.421.226.103.478.154.757.154.319 0 .6-.068.844-.203.243-.135.434-.321.572-.557.138-.237.206-.509.206-.817v-.011c0-.305-.069-.575-.209-.812a1.479 1.479 0 0 0-.569-.552 1.702 1.702 0 0 0-.833-.198 2.04 2.04 0 0 0-.647.1 1.55 1.55 0 0 0-.723.499c-.06.07-.114.148-.161.234h-1.042l.387-4.307h4.512v.977h-3.561l-.237 2.364h.086c.165-.251.392-.444.683-.581.29-.137.614-.206.972-.206.487 0 .917.107 1.291.319.375.212.669.504.884.873.215.37.322.794.322 1.27v.01c0 .504-.119.949-.357 1.336a2.474 2.474 0 0 1-.983.907Zm-7.173 47.841c-.42.187-.907.28-1.458.28-.552 0-1.034-.09-1.445-.27a2.403 2.403 0 0 1-.978-.742 2.085 2.085 0 0 1-.419-1.084l-.005-.067h1.16l.005.056c.04.336.21.61.51.823.301.212.692.318 1.172.318.318 0 .596-.052.832-.157.236-.104.42-.25.553-.436.133-.187.199-.4.199-.64v-.01c0-.418-.149-.739-.446-.964-.297-.224-.703-.336-1.219-.336h-.94v-.905h.902c.298 0 .557-.05.78-.151.221-.102.395-.241.52-.419.126-.178.188-.382.188-.612v-.01c0-.24-.053-.445-.16-.614a1.03 1.03 0 0 0-.47-.391 1.866 1.866 0 0 0-.75-.136c-.287 0-.54.046-.763.139-.222.092-.4.223-.532.393s-.21.373-.236.609l-.005.046h-1.14l.005-.051c.043-.422.18-.787.411-1.097.231-.31.54-.552.924-.725.385-.173.83-.259 1.335-.259.515 0 .965.082 1.348.246.383.165.68.392.892.681.21.29.316.626.316 1.01v.01c0 .309-.07.58-.212.815-.141.234-.335.43-.58.586a2.439 2.439 0 0 1-.84.326v.026c.569.044 1.027.224 1.375.539.347.315.52.733.52 1.254v.01c0 .425-.12.803-.36 1.133a2.39 2.39 0 0 1-.99.776Zm7.079-.005c-.417.218-.9.326-1.448.326-.504 0-.952-.092-1.342-.277a2.399 2.399 0 0 1-.935-.758 2.159 2.159 0 0 1-.408-1.077l-.005-.066h1.133l.005.041c.036.215.123.412.261.591.138.178.319.318.545.421a1.8 1.8 0 0 0 .757.154c.319 0 .6-.068.843-.203.244-.135.435-.321.572-.557.138-.237.207-.509.207-.817v-.011c0-.305-.07-.575-.209-.812-.14-.236-.33-.42-.57-.552a1.695 1.695 0 0 0-.832-.198c-.233 0-.449.034-.647.1a1.55 1.55 0 0 0-.723.499c-.061.07-.114.148-.161.234h-1.042l.387-4.307h4.512v.977h-3.561l-.237 2.364h.086c.165-.251.392-.444.682-.581.29-.137.614-.206.972-.206.487 0 .918.107 1.292.319.374.212.669.504.884.873.215.37.322.794.322 1.27v.01c0 .504-.119.949-.357 1.336a2.474 2.474 0 0 1-.983.907Zm-1.493 24.244c.598 0 1.11-.157 1.536-.472.426-.316.755-.763.986-1.344.231-.581.346-1.27.346-2.068v-.011c0-.798-.115-1.486-.346-2.065-.231-.579-.56-1.026-.986-1.342-.426-.315-.938-.472-1.536-.472-.598 0-1.11.157-1.536.472-.426.316-.754.763-.983 1.342-.23.579-.344 1.267-.344 2.065v.011c0 .798.115 1.487.344 2.068.23.581.557 1.028.983 1.344.426.315.938.472 1.536.472Zm-7.117-.041c.552 0 1.038-.093 1.459-.28a2.38 2.38 0 0 0 .99-.776c.24-.33.36-.708.36-1.133v-.01c0-.521-.173-.939-.52-1.254-.348-.315-.806-.495-1.376-.539v-.026a2.44 2.44 0 0 0 .841-.326c.245-.156.439-.352.58-.586.141-.235.212-.506.212-.815v-.01c0-.384-.105-.72-.317-1.01-.211-.289-.508-.516-.891-.681-.383-.164-.833-.246-1.348-.246-.505 0-.95.086-1.335.259a2.304 2.304 0 0 0-.924.725c-.23.31-.368.676-.41 1.097l-.006.051h1.138l.006-.046a1.17 1.17 0 0 1 .236-.609 1.3 1.3 0 0 1 .532-.393c.222-.092.476-.139.763-.139.293 0 .543.046.749.136.206.091.362.221.47.391.107.17.16.374.16.614v.01c0 .23-.062.434-.187.612a1.257 1.257 0 0 1-.521.419 1.865 1.865 0 0 1-.779.151h-.902v.905h.94c.515 0 .922.112 1.219.336.297.225.446.546.446.964v.01c0 .24-.067.453-.199.64a1.317 1.317 0 0 1-.553.437 2.053 2.053 0 0 1-.833.156c-.48 0-.87-.106-1.17-.318-.301-.213-.471-.487-.51-.823l-.006-.056h-1.16l.005.067c.04.407.179.769.419 1.084.24.315.566.563.978.743.411.179.893.269 1.444.269Zm6.233-1.274c.246.236.54.354.884.354.347 0 .644-.118.889-.354s.433-.573.564-1.01c.131-.437.196-.956.196-1.559v-.011c0-.603-.065-1.122-.196-1.557-.131-.435-.319-.77-.564-1.004a1.238 1.238 0 0 0-.889-.352c-.344 0-.638.117-.884.352-.245.234-.433.569-.564 1.004-.13.435-.196.954-.196 1.557v.011c0 .603.066 1.122.196 1.559.131.437.319.774.564 1.01Zm-4.029 25.023v.987h-5.231v-.786l2.578-2.58c.344-.342.61-.624.8-.845.19-.221.324-.419.4-.594.078-.174.116-.363.116-.565v-.01c0-.243-.055-.46-.164-.65a1.147 1.147 0 0 0-.47-.447 1.542 1.542 0 0 0-.73-.162c-.287 0-.54.056-.758.17-.218.113-.388.27-.51.472a1.348 1.348 0 0 0-.182.709v.021l-1.14-.005-.004-.01c.003-.453.118-.853.343-1.2.226-.348.54-.62.94-.817.401-.197.861-.296 1.38-.296.48 0 .91.09 1.287.27.378.18.676.428.894.745.219.317.328.679.328 1.087v.015c0 .281-.054.554-.161.817-.108.264-.293.554-.556.869-.263.315-.63.695-1.099 1.141l-1.644 1.569v.096l3.583-.001Zm5.772.841c-.418.217-.9.326-1.448.326-.505 0-.952-.093-1.343-.278a2.394 2.394 0 0 1-.934-.758 2.16 2.16 0 0 1-.408-1.076l-.006-.067h1.133l.006.041c.036.216.123.413.26.591.138.178.32.319.546.422.225.102.478.154.757.154.319 0 .6-.068.843-.203.244-.136.434-.321.572-.558a1.59 1.59 0 0 0 .207-.817v-.01c0-.305-.07-.576-.21-.812a1.465 1.465 0 0 0-.569-.552 1.698 1.698 0 0 0-.832-.198c-.233 0-.449.033-.648.1a1.559 1.559 0 0 0-.722.498 1.357 1.357 0 0 0-.161.234H98.88l.387-4.306h4.511v.976h-3.561l-.236 2.364h.086c.165-.25.392-.444.682-.581.29-.137.614-.205.972-.205.487 0 .918.106 1.292.318.374.213.669.504.883.874.215.37.323.793.323 1.269v.011a2.5 2.5 0 0 1-.357 1.336 2.48 2.48 0 0 1-.983.907Zm-5.855 24.064v-.987l-3.583.001v-.096l1.644-1.57c.47-.445.836-.825 1.099-1.14.263-.315.448-.605.556-.869a2.15 2.15 0 0 0 .16-.817v-.015c0-.408-.108-.77-.327-1.087a2.216 2.216 0 0 0-.894-.745 2.954 2.954 0 0 0-1.286-.27c-.52 0-.98.099-1.38.296a2.299 2.299 0 0 0-.94.817c-.226.347-.34.747-.344 1.2l.005.01 1.139.005v-.021c0-.27.06-.507.182-.709.122-.202.292-.359.51-.473.219-.113.471-.169.758-.169.283 0 .526.054.73.162.204.108.361.257.47.447.11.19.164.407.164.65v.01c0 .202-.038.391-.115.565-.077.175-.21.373-.4.594-.19.221-.457.503-.8.845l-2.58 2.58v.786h5.232Zm4.372.18c.598 0 1.11-.158 1.537-.473.426-.315.754-.763.985-1.344.231-.58.347-1.27.347-2.068v-.01c0-.798-.116-1.487-.347-2.066-.231-.579-.559-1.026-.985-1.341-.427-.315-.939-.473-1.537-.473s-1.11.158-1.536.473c-.426.315-.753.762-.983 1.341-.229.579-.343 1.268-.343 2.066v.01c0 .798.114 1.488.343 2.068.23.581.557 1.029.983 1.344.426.315.938.473 1.536.473Zm-.883-1.316c.245.237.54.355.883.355.348 0 .644-.118.889-.355.246-.236.434-.573.564-1.009.131-.437.196-.957.196-1.56v-.01c0-.603-.065-1.122-.196-1.557-.13-.435-.318-.77-.564-1.005a1.24 1.24 0 0 0-.889-.352c-.343 0-.638.118-.883.352-.245.235-.433.57-.564 1.005-.13.435-.196.954-.196 1.557v.01c0 .603.065 1.123.196 1.56.131.436.319.773.564 1.009Zm-3.281 18.596v7.415h-1.208v-6.228h-.086l-1.95 1.331v-1.131l2.041-1.387h1.203Zm6.395 7.268c-.417.218-.9.327-1.448.327-.505 0-.952-.093-1.343-.278a2.397 2.397 0 0 1-.934-.758 2.161 2.161 0 0 1-.408-1.076l-.006-.067h1.134l.005.041c.036.216.123.413.26.591.138.178.32.319.546.421a1.8 1.8 0 0 0 .757.155c.319 0 .6-.068.843-.203a1.49 1.49 0 0 0 .572-.558 1.59 1.59 0 0 0 .207-.817v-.01c0-.305-.07-.576-.209-.812a1.477 1.477 0 0 0-.57-.553 1.697 1.697 0 0 0-.832-.197c-.233 0-.449.033-.648.1a1.573 1.573 0 0 0-.722.498c-.061.07-.115.148-.161.234h-1.042l.387-4.306h4.511v.976h-3.561l-.236 2.364h.086c.165-.25.392-.444.682-.581.29-.137.614-.205.972-.205.487 0 .918.106 1.292.318.374.213.669.504.884.874.214.37.322.793.322 1.269v.01c0 .504-.119.949-.357 1.336-.239.388-.566.69-.983.907Zm-1.482 25.201c.597 0 1.11-.158 1.536-.473.426-.315.754-.763.985-1.344.231-.58.347-1.27.347-2.068v-.01c0-.798-.116-1.487-.347-2.066-.231-.579-.559-1.026-.985-1.341-.426-.315-.939-.473-1.536-.473-.598 0-1.111.158-1.537.473-.426.315-.753.762-.983 1.341-.229.579-.343 1.268-.343 2.066v.01c0 .798.114 1.488.343 2.068.23.581.557 1.029.983 1.344.426.315.939.473 1.537.473Zm-4.996-.18v-7.415h-1.203l-2.04 1.387v1.131l1.949-1.331h.086v6.228h1.208Zm4.112-1.136c.245.237.54.355.884.355.347 0 .643-.118.888-.355.246-.236.434-.573.564-1.009.131-.437.196-.957.196-1.56v-.01c0-.603-.065-1.122-.196-1.557-.13-.435-.318-.77-.564-1.005a1.24 1.24 0 0 0-.888-.352c-.344 0-.639.118-.884.352-.245.235-.433.57-.564 1.005-.131.435-.196.954-.196 1.557v.01c0 .603.065 1.123.196 1.56.131.436.319.773.564 1.009Z" fill="#B1BAC4"/><path d="M101.5 348.685c.548 0 1.03-.109 1.448-.327.417-.217.744-.519.982-.907a2.49 2.49 0 0 0 .358-1.336v-.01a2.48 2.48 0 0 0-.323-1.269 2.345 2.345 0 0 0-.883-.874 2.575 2.575 0 0 0-1.292-.318c-.358 0-.682.068-.972.205-.29.137-.518.331-.682.581h-.086l.236-2.364h3.561v-.976h-4.512l-.386 4.306h1.042c.046-.086.1-.164.161-.234s.125-.136.193-.198c.154-.133.331-.233.529-.3.199-.067.415-.1.647-.1.316 0 .593.065.833.197s.43.316.569.553c.14.236.21.507.21.812v.01c0 .308-.069.581-.207.817a1.496 1.496 0 0 1-.572.558 1.71 1.71 0 0 1-.843.203c-.28 0-.532-.052-.758-.155a1.415 1.415 0 0 1-.545-.421 1.297 1.297 0 0 1-.26-.591l-.006-.041H98.81l.005.067c.04.397.176.756.409 1.076.232.321.544.573.934.758.391.185.838.278 1.343.278Z" fill="#B1BAC4"/><path fill-rule="evenodd" clip-rule="evenodd" d="M103.001 371.174c-.426.315-.938.473-1.536.473-.598 0-1.11-.158-1.536-.473-.426-.315-.754-.763-.983-1.344-.229-.58-.343-1.27-.343-2.068v-.01c0-.798.114-1.487.343-2.066.23-.579.557-1.026.983-1.341.426-.315.938-.473 1.536-.473.598 0 1.11.158 1.536.473.427.315.755.762.986 1.341.231.579.346 1.268.346 2.066v.01c0 .798-.115 1.488-.346 2.068-.231.581-.559 1.029-.986 1.344Zm-2.419-.843c.245.237.54.355.883.355.348 0 .644-.118.889-.355.246-.236.434-.573.564-1.009.131-.437.196-.957.196-1.56v-.01c0-.603-.065-1.122-.196-1.557-.13-.435-.318-.77-.564-1.005a1.236 1.236 0 0 0-.889-.352 1.23 1.23 0 0 0-.883.352c-.245.235-.433.57-.564 1.005-.13.435-.196.954-.196 1.557v.01c0 .603.065 1.123.196 1.56.131.436.319.773.564 1.009Z" fill="#B1BAC4"/><ellipse cx="738" cy="138.027" rx="4" ry="3.827" fill="#2196F3"/><ellipse cx="111" cy="138.027" rx="4" ry="3.827" fill="#2196F3"/><path fill-rule="evenodd" clip-rule="evenodd" d="M510.998 378.078a.719.719 0 0 1-.516.205.718.718 0 0 1-.515-.205.66.66 0 0 1-.215-.494.65.65 0 0 1 .215-.49.72.72 0 0 1 .515-.203c.201 0 .373.067.516.203a.65.65 0 0 1 .215.49.66.66 0 0 1-.215.494Zm-16.994 6.962c.601 0 1.124-.094 1.568-.282.444-.189.787-.455 1.029-.799.242-.345.362-.753.362-1.226v-.005c0-.548-.178-.987-.534-1.315-.356-.329-.941-.576-1.754-.74l-.848-.18c-.498-.103-.857-.246-1.077-.429a.86.86 0 0 1-.331-.686v-.005a.9.9 0 0 1 .207-.597c.138-.164.325-.29.562-.377.236-.088.504-.131.805-.131.312-.004.585.04.819.131.235.091.423.215.564.372.142.158.228.338.261.54l.01.067h1.177l-.006-.067a1.896 1.896 0 0 0-.4-1.043 2.427 2.427 0 0 0-.972-.733c-.41-.179-.889-.269-1.437-.269s-1.033.09-1.455.272c-.423.182-.753.435-.991.761a1.894 1.894 0 0 0-.363 1.13v.005c0 .548.179.998.537 1.349.358.351.93.607 1.714.768l.848.17c.512.106.881.253 1.107.442a.887.887 0 0 1 .338.709v.005a.912.912 0 0 1-.217.601 1.435 1.435 0 0 1-.599.411c-.254.1-.545.149-.87.149-.348 0-.657-.046-.927-.138a1.599 1.599 0 0 1-.644-.386.965.965 0 0 1-.277-.58l-.005-.057h-1.187l.005.067c.036.414.179.779.43 1.094.25.316.592.561 1.026.738.433.176.941.264 1.525.264Zm5.634 1.681v-2.744h.091a1.6 1.6 0 0 0 .425.519c.179.144.385.256.617.336.233.081.484.121.752.121.495 0 .922-.117 1.284-.352s.641-.567.838-.997c.197-.43.295-.939.295-1.528v-.011c0-.586-.099-1.093-.298-1.523a2.34 2.34 0 0 0-.84-1.002c-.362-.238-.788-.358-1.279-.358-.272 0-.522.04-.752.119-.229.078-.432.19-.609.334a1.721 1.721 0 0 0-.433.524h-.091v-.879h-1.165v7.441h1.165Zm.715-2.957c.236.155.515.233.837.233.326 0 .606-.077.838-.231.233-.154.411-.375.535-.663.123-.288.185-.63.185-1.027v-.011c0-.401-.062-.745-.185-1.033a1.473 1.473 0 0 0-.535-.663 1.482 1.482 0 0 0-.838-.231c-.322 0-.601.078-.837.234a1.48 1.48 0 0 0-.543.663c-.125.286-.188.629-.188 1.03v.011c0 .393.063.734.188 1.022.125.288.306.51.543.666Zm6.214 1.097v-3.335c0-.271.063-.505.191-.702.127-.197.302-.35.526-.46.224-.109.484-.164.781-.164a3.287 3.287 0 0 1 .629.062v-1.028a2.658 2.658 0 0 0-.51-.052c-.387 0-.712.083-.975.247a1.302 1.302 0 0 0-.551.694h-.091v-.843h-1.166v5.581h1.166Zm4.495 0v-5.581h-1.17v5.581h1.17Zm2.922-3.274v3.274h-1.165v-5.581h1.165v.843h.092c.143-.298.354-.531.633-.699.28-.168.632-.252 1.059-.252.655 0 1.156.18 1.503.54.348.359.521.872.521 1.536v3.613h-1.17v-3.351c0-.466-.102-.812-.304-1.04-.202-.228-.518-.342-.948-.342-.283 0-.528.059-.736.177a1.198 1.198 0 0 0-.48.504c-.113.217-.17.477-.17.778Zm7.697 3.31c.115 0 .226-.006.333-.018.108-.012.208-.025.301-.039v-.894a5.9 5.9 0 0 1-.44.021c-.291 0-.498-.066-.624-.198-.125-.132-.188-.349-.188-.65v-2.96h1.252v-.879h-1.252v-1.408h-1.192v1.408h-.913v.879h.913v3.232c0 .534.142.919.427 1.154.285.234.746.352 1.383.352Zm8.229-7.451v7.415h-1.209v-6.228h-.086l-1.949 1.331v-1.131l2.041-1.387h1.203Zm3.357 2.638c.068-.358.177-.675.327-.95a1.77 1.77 0 0 1 .594-.653c.245-.159.54-.239.883-.239.244 0 .461.039.653.116.191.077.354.183.489.318.134.136.237.299.308.491l.022.051h1.198l-.016-.061a2.219 2.219 0 0 0-.489-.984 2.526 2.526 0 0 0-.919-.666 3.065 3.065 0 0 0-1.24-.241c-.638 0-1.186.158-1.644.475-.458.317-.809.773-1.053 1.367-.243.594-.365 1.309-.365 2.145v.011c0 .681.083 1.262.25 1.742.166.479.392.869.677 1.169.284.299.607.519.966.657.36.139.735.208 1.126.208.544 0 1.027-.111 1.45-.334.422-.222.755-.528.996-.917a2.46 2.46 0 0 0 .363-1.328v-.01c0-.477-.109-.9-.325-1.27a2.359 2.359 0 0 0-.897-.876 2.636 2.636 0 0 0-1.313-.321c-.351 0-.663.052-.935.157-.272.104-.5.242-.685.413a1.899 1.899 0 0 0-.421.555l-.101.001.005-.184a5.92 5.92 0 0 1 .096-.842Zm.934 3.775c.247.144.521.215.822.215a1.605 1.605 0 0 0 1.41-.781c.145-.239.217-.507.217-.801v-.011c0-.304-.069-.574-.206-.809a1.496 1.496 0 0 0-.572-.555 1.69 1.69 0 0 0-.833-.203c-.308 0-.586.067-.835.201a1.543 1.543 0 0 0-.591.547 1.463 1.463 0 0 0-.218.794v.005l.009.177c.023.232.093.445.209.64.145.243.341.437.588.581Zm63.676-5.576a.719.719 0 0 0 .516-.205.66.66 0 0 0 .215-.494.65.65 0 0 0-.215-.49.721.721 0 0 0-.516-.203.72.72 0 0 0-.515.203.647.647 0 0 0-.215.49c0 .192.071.357.215.494a.718.718 0 0 0 .515.205Zm-14.91 6.475c-.444.188-.967.282-1.568.282-.584 0-1.092-.088-1.526-.264-.433-.177-.775-.422-1.026-.738a2 2 0 0 1-.429-1.094l-.006-.067h1.187l.006.057a.97.97 0 0 0 .276.58c.16.165.375.293.645.386.27.092.579.138.926.138.326 0 .616-.049.871-.149.254-.099.453-.236.598-.411a.913.913 0 0 0 .218-.601v-.005a.887.887 0 0 0-.338-.709c-.226-.189-.595-.336-1.107-.442l-.849-.17c-.784-.161-1.355-.417-1.713-.768-.358-.351-.537-.801-.537-1.349v-.005c.004-.428.124-.805.363-1.13.238-.326.568-.579.99-.761.423-.182.908-.272 1.456-.272.548 0 1.027.09 1.437.269.41.18.734.424.972.733.238.308.371.656.4 1.043l.006.067h-1.177l-.011-.067a1.043 1.043 0 0 0-.26-.54 1.441 1.441 0 0 0-.564-.372 2.18 2.18 0 0 0-.819-.131c-.301 0-.569.043-.806.131a1.304 1.304 0 0 0-.561.377.9.9 0 0 0-.207.597v.005c0 .274.11.502.331.686.22.183.579.326 1.076.429l.849.18c.813.164 1.397.411 1.754.74.356.328.534.767.534 1.315v.005c0 .473-.121.881-.362 1.226-.242.344-.585.61-1.029.799Zm4.066-.781v2.744h-1.166v-7.441h1.166v.879h.091c.111-.206.255-.38.433-.524.177-.144.38-.256.609-.334.229-.079.48-.119.752-.119.491 0 .917.12 1.279.358.361.238.641.572.84 1.002.199.43.298.937.298 1.523v.011c0 .589-.098 1.098-.295 1.528-.197.43-.476.762-.838.997s-.79.352-1.284.352c-.268 0-.519-.04-.752-.121a2.032 2.032 0 0 1-.617-.336 1.6 1.6 0 0 1-.425-.519h-.091Zm1.552.02c-.322 0-.601-.078-.838-.233a1.481 1.481 0 0 1-.542-.666 2.554 2.554 0 0 1-.188-1.022v-.011c0-.401.063-.744.188-1.03.125-.286.306-.507.542-.663.237-.156.516-.234.838-.234.326 0 .605.077.838.231.233.155.411.376.535.663.123.288.185.632.185 1.033v.011c0 .397-.062.739-.185 1.027a1.462 1.462 0 0 1-.535.663 1.484 1.484 0 0 1-.838.231Zm5.377-2.471v3.335h-1.166v-5.581h1.166v.843h.091c.104-.298.287-.529.551-.694.263-.164.588-.247.974-.247a2.662 2.662 0 0 1 .511.052v1.028a3.287 3.287 0 0 0-.629-.062c-.297 0-.557.055-.781.164-.224.11-.4.263-.527.46s-.19.431-.19.702Zm4.495-2.246v5.581h-1.171v-5.581h1.171Zm2.922 5.581v-3.274c0-.301.057-.561.169-.778a1.2 1.2 0 0 1 .481-.504c.208-.118.453-.177.736-.177.43 0 .746.114.948.342.202.228.303.574.303 1.04v3.351h1.171v-3.613c0-.664-.173-1.177-.521-1.536-.347-.36-.848-.54-1.504-.54-.426 0-.778.084-1.058.252a1.62 1.62 0 0 0-.634.699h-.091v-.843h-1.165v5.581h1.165Zm8.03.018a2.988 2.988 0 0 1-.333.018c-.637 0-1.098-.118-1.383-.352-.285-.235-.427-.62-.427-1.154v-3.232h-.913v-.879h.913v-1.408h1.192v1.408h1.252v.879h-1.252v2.96c0 .301.063.518.188.65.126.132.333.198.623.198a6.052 6.052 0 0 0 .441-.021v.894a8.11 8.11 0 0 1-.301.039Zm7.895-.018v-7.415h-1.203l-2.041 1.387v1.131l1.95-1.331h.086v6.228h1.208Zm7.225-6.413-3.368 6.413h-1.268l3.416-6.362v-.077h-4.06v-.976h5.28v1.002Zm59.927-.165c.2 0 .372-.068.515-.205a.66.66 0 0 0 .215-.494.65.65 0 0 0-.215-.49.72.72 0 0 0-.515-.203.721.721 0 0 0-.516.203.65.65 0 0 0-.215.49.66.66 0 0 0 .215.494.719.719 0 0 0 .516.205Zm-14.911 6.475c-.444.188-.966.282-1.568.282-.584 0-1.092-.088-1.525-.264-.434-.177-.776-.422-1.026-.738a1.993 1.993 0 0 1-.43-1.094l-.005-.067h1.187l.005.057a.965.965 0 0 0 .277.58c.159.165.374.293.644.386.271.092.579.138.927.138.326 0 .616-.049.87-.149.254-.099.454-.236.599-.411a.912.912 0 0 0 .217-.601v-.005a.887.887 0 0 0-.338-.709c-.226-.189-.594-.336-1.107-.442l-.848-.17c-.784-.161-1.355-.417-1.714-.768-.358-.351-.537-.801-.537-1.349v-.005c.004-.428.125-.805.363-1.13.238-.326.568-.579.991-.761.422-.182.908-.272 1.455-.272.548 0 1.027.09 1.437.269.41.18.734.424.972.733.238.308.372.656.401 1.043l.005.067h-1.176l-.011-.067a1.037 1.037 0 0 0-.261-.54 1.441 1.441 0 0 0-.564-.372 2.174 2.174 0 0 0-.819-.131c-.3 0-.569.043-.805.131a1.302 1.302 0 0 0-.562.377.904.904 0 0 0-.206.597v.005c0 .274.11.502.33.686.22.183.579.326 1.077.429l.848.18c.813.164 1.398.411 1.754.74.356.328.535.767.535 1.315v.005c0 .473-.121.881-.363 1.226-.242.344-.585.61-1.029.799Zm4.066-.781v2.744h-1.165v-7.441h1.165v.879h.092c.111-.206.255-.38.432-.524a1.95 1.95 0 0 1 .61-.334 2.29 2.29 0 0 1 .752-.119c.49 0 .916.12 1.278.358s.642.572.84 1.002c.199.43.299.937.299 1.523v.011c0 .589-.099 1.098-.296 1.528-.197.43-.476.762-.838.997-.361.235-.789.352-1.283.352-.269 0-.52-.04-.752-.121a2.026 2.026 0 0 1-.618-.336 1.585 1.585 0 0 1-.424-.519h-.092Zm1.553.02c-.323 0-.602-.078-.838-.233a1.483 1.483 0 0 1-.543-.666 2.554 2.554 0 0 1-.188-1.022v-.011c0-.401.063-.744.188-1.03.126-.286.306-.507.543-.663.236-.156.515-.234.838-.234.325 0 .605.077.837.231.233.155.411.376.535.663.123.288.185.632.185 1.033v.011c0 .397-.062.739-.185 1.027a1.462 1.462 0 0 1-.535.663 1.481 1.481 0 0 1-.837.231Zm5.376-2.471v3.335h-1.165v-5.581h1.165v.843h.091c.104-.298.288-.529.551-.694.263-.164.588-.247.975-.247a2.658 2.658 0 0 1 .51.052v1.028a3.266 3.266 0 0 0-.628-.062c-.298 0-.558.055-.782.164-.224.11-.399.263-.526.46a1.267 1.267 0 0 0-.191.702Zm4.496-2.246v5.581h-1.171v-5.581h1.171Zm2.922 5.581v-3.274c0-.301.056-.561.169-.778.113-.218.273-.386.48-.504.208-.118.453-.177.736-.177.43 0 .746.114.948.342.203.228.304.574.304 1.04v3.351h1.171v-3.613c0-.664-.174-1.177-.521-1.536-.348-.36-.849-.54-1.504-.54-.426 0-.779.084-1.058.252-.28.168-.491.401-.634.699h-.091v-.843h-1.166v5.581h1.166Zm8.029.018a2.988 2.988 0 0 1-.333.018c-.637 0-1.098-.118-1.383-.352-.284-.235-.427-.62-.427-1.154v-3.232h-.913v-.879h.913v-1.408h1.193v1.408h1.251v.879h-1.251v2.96c0 .301.062.518.188.65.125.132.333.198.623.198a6.01 6.01 0 0 0 .44-.021v.894a7.842 7.842 0 0 1-.301.039Zm7.896-.018v-7.415h-1.203l-2.041 1.387v1.131l1.949-1.331h.086v6.228h1.209Zm6.571-.134c-.442.182-.949.272-1.522.272-.577 0-1.085-.09-1.526-.272-.44-.182-.786-.434-1.036-.758a1.767 1.767 0 0 1-.376-1.112v-.011c0-.311.072-.598.217-.858.145-.26.348-.48.607-.66.26-.18.558-.304.894-.373v-.025c-.433-.12-.781-.326-1.044-.617a1.484 1.484 0 0 1-.395-1.028v-.01c0-.38.114-.718.341-1.012.227-.295.542-.528.943-.699.401-.172.859-.257 1.375-.257.515 0 .973.085 1.372.257.399.171.713.404.94.699.227.294.341.632.341 1.012v.01c0 .394-.131.737-.392 1.028-.262.291-.609.497-1.042.617v.025c.34.069.638.193.894.373s.457.4.602.66c.145.26.217.547.217.858v.011c0 .417-.124.788-.373 1.112-.249.324-.594.576-1.037.758Zm-1.522-4.188c-.29 0-.545-.049-.763-.146a1.229 1.229 0 0 1-.513-.409 1.003 1.003 0 0 1-.185-.596v-.01c0-.226.061-.427.185-.601a1.22 1.22 0 0 1 .516-.409 1.85 1.85 0 0 1 .76-.146c.286 0 .539.048.757.146.218.098.389.234.513.409.123.174.185.375.185.601v.01c0 .223-.061.421-.182.596a1.204 1.204 0 0 1-.513.409 1.873 1.873 0 0 1-.76.146Zm-.876 3.368c.254.112.546.167.876.167.329 0 .621-.055.875-.167.254-.111.454-.263.599-.457.145-.193.218-.415.218-.665v-.011a1.12 1.12 0 0 0-.215-.675 1.431 1.431 0 0 0-.599-.463 2.19 2.19 0 0 0-.878-.167c-.333 0-.627.056-.881.167a1.428 1.428 0 0 0-.596.463 1.114 1.114 0 0 0-.215.675v.011c0 .25.072.472.217.665.145.194.345.346.599.457Zm-549.377-5.624c.2 0 .372-.068.515-.205a.657.657 0 0 0 .215-.494.647.647 0 0 0-.215-.49.72.72 0 0 0-.515-.203.721.721 0 0 0-.516.203.65.65 0 0 0-.215.49.66.66 0 0 0 .215.494.719.719 0 0 0 .516.205Zm-14.91 6.475c-.444.188-.967.282-1.569.282-.583 0-1.092-.088-1.525-.264-.433-.177-.775-.422-1.026-.738a1.993 1.993 0 0 1-.43-1.094l-.005-.067h1.187l.005.057a.971.971 0 0 0 .277.58c.159.165.374.293.644.386.271.092.58.138.927.138.326 0 .616-.049.87-.149.254-.099.454-.236.599-.411a.912.912 0 0 0 .217-.601v-.005a.884.884 0 0 0-.338-.709c-.226-.189-.594-.336-1.106-.442l-.849-.17c-.784-.161-1.355-.417-1.713-.768-.358-.351-.538-.801-.538-1.349v-.005c.004-.428.125-.805.363-1.13.238-.326.568-.579.991-.761.423-.182.908-.272 1.456-.272.547 0 1.026.09 1.436.269.41.18.734.424.973.733.238.308.371.656.4 1.043l.005.067h-1.176l-.011-.067a1.043 1.043 0 0 0-.26-.54 1.456 1.456 0 0 0-.564-.372 2.183 2.183 0 0 0-.82-.131c-.3 0-.569.043-.805.131a1.292 1.292 0 0 0-.561.377.9.9 0 0 0-.207.597v.005c0 .274.11.502.33.686.22.183.579.326 1.077.429l.849.18c.812.164 1.397.411 1.753.74.357.328.535.767.535 1.315v.005c0 .473-.121.881-.363 1.226-.242.344-.584.61-1.028.799Zm4.065-.781v2.744h-1.165v-7.441h1.165v.879h.092c.111-.206.255-.38.432-.524a1.96 1.96 0 0 1 .61-.334c.229-.079.48-.119.752-.119.49 0 .916.12 1.278.358s.642.572.841 1.002c.198.43.298.937.298 1.523v.011c0 .589-.099 1.098-.296 1.528-.197.43-.476.762-.838.997-.361.235-.789.352-1.283.352-.269 0-.519-.04-.752-.121a2.026 2.026 0 0 1-.618-.336 1.597 1.597 0 0 1-.424-.519h-.092Zm1.553.02c-.323 0-.602-.078-.838-.233a1.483 1.483 0 0 1-.543-.666 2.554 2.554 0 0 1-.188-1.022v-.011c0-.401.063-.744.188-1.03.126-.286.306-.507.543-.663.236-.156.515-.234.838-.234.326 0 .605.077.838.231.232.155.41.376.534.663.124.288.185.632.185 1.033v.011c0 .397-.061.739-.185 1.027a1.467 1.467 0 0 1-.534.663 1.484 1.484 0 0 1-.838.231Zm5.376-2.471v3.335h-1.165v-5.581h1.165v.843h.091c.104-.298.288-.529.551-.694.263-.164.588-.247.975-.247a2.677 2.677 0 0 1 .51.052v1.028a3.266 3.266 0 0 0-.628-.062c-.297 0-.558.055-.782.164-.224.11-.399.263-.526.46a1.267 1.267 0 0 0-.191.702Zm4.496-2.246v5.581h-1.171v-5.581h1.171Zm2.922 5.581v-3.274c0-.301.056-.561.169-.778a1.2 1.2 0 0 1 .481-.504c.207-.118.453-.177.735-.177.43 0 .746.114.948.342.203.228.304.574.304 1.04v3.351h1.171v-3.613c0-.664-.174-1.177-.521-1.536-.348-.36-.849-.54-1.504-.54-.426 0-.779.084-1.058.252-.28.168-.491.401-.634.699h-.091v-.843h-1.166v5.581h1.166Zm8.029.018a2.988 2.988 0 0 1-.333.018c-.637 0-1.098-.118-1.383-.352-.284-.235-.427-.62-.427-1.154v-3.232h-.913v-.879h.913v-1.408h1.193v1.408h1.251v.879h-1.251v2.96c0 .301.062.518.188.65.125.132.333.198.623.198a6.01 6.01 0 0 0 .44-.021v.894a7.842 7.842 0 0 1-.301.039Zm7.896-.018v-7.415h-1.203l-2.041 1.387v1.131l1.95-1.331h.085v6.228h1.209Zm7.487-.987v.987h-5.231v-.787l2.578-2.579c.344-.343.61-.625.8-.845.19-.221.323-.419.4-.594.077-.175.116-.363.116-.565v-.011c0-.243-.055-.459-.164-.65a1.146 1.146 0 0 0-.47-.447 1.542 1.542 0 0 0-.73-.161c-.287 0-.539.056-.758.169a1.26 1.26 0 0 0-.51.473 1.344 1.344 0 0 0-.183.709v.021l-1.138-.006-.006-.01c.004-.452.119-.852.344-1.2a2.31 2.31 0 0 1 .94-.817c.401-.197.861-.295 1.38-.295.48 0 .909.09 1.287.269.378.18.676.429.894.746.219.316.328.679.328 1.086v.016c0 .281-.054.553-.161.817-.108.264-.293.553-.556.868-.263.315-.63.696-1.099 1.141l-1.644 1.569v.096h3.583Zm63.951-5.591c.2 0 .372-.068.516-.205a.66.66 0 0 0 .214-.494.65.65 0 0 0-.214-.49.724.724 0 0 0-.516-.203.723.723 0 0 0-.516.203.65.65 0 0 0-.215.49.66.66 0 0 0 .215.494.72.72 0 0 0 .516.205Zm-14.91 6.475c-.444.188-.967.282-1.569.282-.583 0-1.092-.088-1.525-.264-.433-.177-.775-.422-1.026-.738a2 2 0 0 1-.43-1.094l-.005-.067h1.187l.005.057a.977.977 0 0 0 .277.58c.159.165.374.293.645.386.27.092.579.138.926.138.326 0 .616-.049.87-.149.254-.099.454-.236.599-.411a.913.913 0 0 0 .218-.601v-.005a.885.885 0 0 0-.339-.709c-.225-.189-.594-.336-1.106-.442l-.849-.17c-.784-.161-1.355-.417-1.713-.768-.358-.351-.537-.801-.537-1.349v-.005c.003-.428.124-.805.362-1.13.238-.326.569-.579.991-.761.423-.182.908-.272 1.456-.272.548 0 1.027.09 1.437.269.41.18.734.424.972.733.238.308.371.656.4 1.043l.005.067h-1.176l-.011-.067a1.043 1.043 0 0 0-.26-.54 1.456 1.456 0 0 0-.564-.372 2.18 2.18 0 0 0-.819-.131c-.301 0-.57.043-.806.131a1.304 1.304 0 0 0-.561.377.9.9 0 0 0-.207.597v.005c0 .274.11.502.33.686.22.183.579.326 1.077.429l.849.18c.813.164 1.397.411 1.753.74.357.328.535.767.535 1.315v.005c0 .473-.121.881-.363 1.226-.241.344-.584.61-1.028.799Zm4.066-.781v2.744h-1.166v-7.441h1.166v.879h.091c.111-.206.255-.38.432-.524.178-.144.381-.256.61-.334.229-.079.48-.119.752-.119.491 0 .917.12 1.278.358.362.238.642.572.841 1.002.199.43.298.937.298 1.523v.011c0 .589-.099 1.098-.295 1.528-.197.43-.477.762-.838.997-.362.235-.79.352-1.284.352-.269 0-.519-.04-.752-.121a2.026 2.026 0 0 1-.618-.336 1.597 1.597 0 0 1-.424-.519h-.091Zm1.552.02c-.322 0-.602-.078-.838-.233a1.481 1.481 0 0 1-.542-.666c-.126-.288-.188-.629-.188-1.022v-.011c0-.401.062-.744.188-1.03.125-.286.306-.507.542-.663.236-.156.516-.234.838-.234.326 0 .605.077.838.231.233.155.411.376.534.663.124.288.186.632.186 1.033v.011c0 .397-.062.739-.186 1.027a1.454 1.454 0 0 1-.534.663 1.484 1.484 0 0 1-.838.231Zm5.376-2.471v3.335h-1.165v-5.581h1.165v.843h.092a1.3 1.3 0 0 1 .55-.694c.263-.164.588-.247.975-.247a2.662 2.662 0 0 1 .51.052v1.028a3.326 3.326 0 0 0-.308-.047 3.302 3.302 0 0 0-.32-.015c-.297 0-.558.055-.782.164-.223.11-.399.263-.526.46a1.267 1.267 0 0 0-.191.702Zm4.496-2.246v5.581h-1.171v-5.581h1.171Zm2.922 5.581v-3.274c0-.301.056-.561.169-.778a1.2 1.2 0 0 1 .481-.504c.207-.118.453-.177.736-.177.429 0 .745.114.948.342.202.228.303.574.303 1.04v3.351h1.171v-3.613c0-.664-.174-1.177-.521-1.536-.347-.36-.849-.54-1.504-.54-.426 0-.779.084-1.058.252a1.614 1.614 0 0 0-.634.699h-.091v-.843h-1.166v5.581h1.166Zm8.03.018a3.014 3.014 0 0 1-.333.018c-.638 0-1.099-.118-1.383-.352-.285-.235-.427-.62-.427-1.154v-3.232h-.913v-.879h.913v-1.408h1.192v1.408h1.251v.879h-1.251v2.96c0 .301.063.518.188.65s.333.198.623.198a5.859 5.859 0 0 0 .44-.021v.894a8.045 8.045 0 0 1-.3.039Zm7.895-.018v-7.415h-1.203l-2.041 1.387v1.131l1.95-1.331h.086v6.228h1.208Zm6.448-.142c-.421.187-.907.28-1.458.28-.551 0-1.033-.09-1.445-.269a2.404 2.404 0 0 1-.977-.743 2.082 2.082 0 0 1-.419-1.084l-.006-.067h1.16l.006.057c.039.335.209.609.51.822.301.212.691.318 1.171.318.319 0 .596-.052.832-.156a1.32 1.32 0 0 0 .554-.437c.132-.187.198-.4.198-.64v-.01c0-.418-.148-.739-.445-.964-.298-.224-.704-.336-1.22-.336h-.94v-.905h.903c.297 0 .557-.05.779-.151.222-.101.395-.241.521-.419.125-.178.188-.382.188-.612v-.01c0-.24-.054-.444-.162-.614-.107-.17-.264-.3-.47-.39a1.842 1.842 0 0 0-.749-.137c-.286 0-.54.047-.762.139-.223.093-.4.224-.532.393-.133.17-.212.373-.237.609l-.005.046h-1.139l.006-.051c.043-.421.18-.787.411-1.097.231-.31.539-.552.923-.725.385-.173.83-.259 1.335-.259.516 0 .965.082 1.348.246.383.165.681.392.892.681.211.29.317.626.317 1.01v.01c0 .309-.071.58-.212.815-.142.235-.335.43-.58.586a2.428 2.428 0 0 1-.841.326v.026c.569.044 1.028.224 1.375.539.347.315.521.733.521 1.254v.01c0 .425-.12.803-.36 1.133-.24.331-.57.59-.991.776Zm61.547-6.641a.719.719 0 0 1-.516.205.718.718 0 0 1-.515-.205.657.657 0 0 1-.215-.494c0-.191.071-.355.215-.49a.72.72 0 0 1 .515-.203c.201 0 .373.067.516.203a.65.65 0 0 1 .215.49.66.66 0 0 1-.215.494Zm-16.994 6.962c.601 0 1.124-.094 1.568-.282.444-.189.787-.455 1.029-.799.241-.345.362-.753.362-1.226v-.005c0-.548-.178-.987-.534-1.315-.357-.329-.941-.576-1.754-.74l-.849-.18c-.497-.103-.856-.246-1.076-.429a.857.857 0 0 1-.331-.686v-.005a.9.9 0 0 1 .207-.597c.138-.164.325-.29.561-.377.237-.088.505-.131.806-.131.311-.004.584.04.819.131s.423.215.564.372c.141.158.228.338.26.54l.011.067h1.177l-.006-.067a1.904 1.904 0 0 0-.4-1.043 2.427 2.427 0 0 0-.972-.733c-.41-.179-.889-.269-1.437-.269s-1.033.09-1.456.272c-.422.182-.752.435-.99.761a1.887 1.887 0 0 0-.363 1.13v.005c0 .548.179.998.537 1.349.358.351.929.607 1.713.768l.849.17c.512.106.881.253 1.107.442a.887.887 0 0 1 .338.709v.005a.913.913 0 0 1-.218.601 1.431 1.431 0 0 1-.598.411 2.37 2.37 0 0 1-.871.149c-.347 0-.656-.046-.926-.138a1.61 1.61 0 0 1-.645-.386.97.97 0 0 1-.276-.58l-.006-.057h-1.187l.006.067a2 2 0 0 0 .429 1.094c.251.316.593.561 1.026.738.434.176.942.264 1.526.264Zm5.634 1.681v-2.744h.091a1.6 1.6 0 0 0 .425.519c.179.144.385.256.617.336.233.081.484.121.752.121.494 0 .922-.117 1.284-.352s.641-.567.838-.997c.197-.43.295-.939.295-1.528v-.011c0-.586-.099-1.093-.298-1.523a2.348 2.348 0 0 0-.84-1.002c-.362-.238-.788-.358-1.279-.358-.272 0-.523.04-.752.119-.229.078-.432.19-.609.334a1.707 1.707 0 0 0-.433.524h-.091v-.879h-1.166v7.441h1.166Zm.714-2.957c.237.155.516.233.838.233.326 0 .605-.077.838-.231.233-.154.411-.375.535-.663.123-.288.185-.63.185-1.027v-.011c0-.401-.062-.745-.185-1.033a1.473 1.473 0 0 0-.535-.663 1.484 1.484 0 0 0-.838-.231c-.322 0-.601.078-.838.234a1.484 1.484 0 0 0-.542.663c-.125.286-.188.629-.188 1.03v.011c0 .393.063.734.188 1.022.125.288.306.51.542.666Zm6.215 1.097v-3.335c0-.271.063-.505.19-.702.127-.197.303-.35.527-.46.224-.109.484-.164.781-.164a3.287 3.287 0 0 1 .629.062v-1.028a2.662 2.662 0 0 0-.511-.052c-.386 0-.711.083-.974.247a1.297 1.297 0 0 0-.551.694h-.091v-.843h-1.166v5.581h1.166Zm4.495 0v-5.581h-1.171v5.581h1.171Zm2.922-3.274v3.274h-1.165v-5.581h1.165v.843h.091a1.62 1.62 0 0 1 .634-.699c.28-.168.632-.252 1.058-.252.656 0 1.157.18 1.504.54.348.359.521.872.521 1.536v3.613h-1.171v-3.351c0-.466-.101-.812-.303-1.04-.202-.228-.518-.342-.948-.342-.283 0-.528.059-.736.177a1.2 1.2 0 0 0-.481.504 1.679 1.679 0 0 0-.169.778Zm7.697 3.31c.115 0 .226-.006.333-.018a8.11 8.11 0 0 0 .301-.039v-.894a6.052 6.052 0 0 1-.441.021c-.29 0-.497-.066-.623-.198-.125-.132-.188-.349-.188-.65v-2.96h1.252v-.879h-1.252v-1.408h-1.192v1.408h-.913v.879h.913v3.232c0 .534.142.919.427 1.154.285.234.746.352 1.383.352Zm8.228-7.451v7.415h-1.208v-6.228h-.086l-1.95 1.331v-1.131l2.041-1.387h1.203Zm6.983 7.415v-1.47h1.069v-.981h-1.069v-4.964h-1.724a136.383 136.383 0 0 0-1.3 1.929 92.127 92.127 0 0 0-1.297 2.022c-.213.339-.422.677-.626 1.013v.981h3.781v1.47h1.166Zm-3.787-2.431h2.637v-4.008h-.069c-.169.24-.339.487-.511.742a152.207 152.207 0 0 0-1.052 1.591 54.136 54.136 0 0 0-1.005 1.603v.072Zm64.514-4.147a.719.719 0 0 0 .516-.205.66.66 0 0 0 .215-.494.65.65 0 0 0-.215-.49.721.721 0 0 0-.516-.203.72.72 0 0 0-.515.203.647.647 0 0 0-.215.49c0 .192.071.357.215.494a.718.718 0 0 0 .515.205Zm-14.91 6.475c-.444.188-.967.282-1.568.282-.584 0-1.092-.088-1.526-.264-.433-.177-.775-.422-1.026-.738a1.992 1.992 0 0 1-.429-1.094l-.006-.067h1.187l.006.057a.97.97 0 0 0 .276.58c.16.165.374.293.645.386.27.092.579.138.926.138.326 0 .616-.049.87-.149.255-.099.454-.236.599-.411a.913.913 0 0 0 .218-.601v-.005a.885.885 0 0 0-.339-.709c-.225-.189-.594-.336-1.106-.442l-.849-.17c-.784-.161-1.355-.417-1.713-.768-.358-.351-.537-.801-.537-1.349v-.005c.004-.428.124-.805.362-1.13.239-.326.569-.579.991-.761.423-.182.908-.272 1.456-.272.548 0 1.027.09 1.437.269.41.18.734.424.972.733.238.308.371.656.4 1.043l.005.067h-1.176l-.011-.067a1.043 1.043 0 0 0-.26-.54 1.441 1.441 0 0 0-.564-.372 2.18 2.18 0 0 0-.819-.131c-.301 0-.569.043-.806.131a1.304 1.304 0 0 0-.561.377.9.9 0 0 0-.207.597v.005c0 .274.11.502.33.686.221.183.58.326 1.077.429l.849.18c.813.164 1.397.411 1.754.74.356.328.534.767.534 1.315v.005c0 .473-.121.881-.362 1.226-.242.344-.585.61-1.029.799Zm4.066-.781v2.744h-1.166v-7.441h1.166v.879h.091c.111-.206.255-.38.433-.524.177-.144.38-.256.609-.334.229-.079.48-.119.752-.119.491 0 .917.12 1.278.358.362.238.642.572.841 1.002.199.43.298.937.298 1.523v.011c0 .589-.098 1.098-.295 1.528-.197.43-.476.762-.838.997s-.79.352-1.284.352c-.268 0-.519-.04-.752-.121a2.02 2.02 0 0 1-.617-.336 1.6 1.6 0 0 1-.425-.519h-.091Zm1.552.02c-.322 0-.601-.078-.838-.233a1.481 1.481 0 0 1-.542-.666c-.126-.288-.188-.629-.188-1.022v-.011c0-.401.062-.744.188-1.03.125-.286.306-.507.542-.663.237-.156.516-.234.838-.234.326 0 .605.077.838.231.233.155.411.376.534.663.124.288.186.632.186 1.033v.011c0 .397-.062.739-.186 1.027a1.454 1.454 0 0 1-.534.663 1.484 1.484 0 0 1-.838.231Zm5.377-2.471v3.335h-1.166v-5.581h1.166v.843h.091a1.3 1.3 0 0 1 .55-.694c.264-.164.589-.247.975-.247a2.662 2.662 0 0 1 .511.052v1.028a3.287 3.287 0 0 0-.629-.062 1.76 1.76 0 0 0-.781.164c-.224.11-.4.263-.527.46s-.19.431-.19.702Zm4.495-2.246v5.581h-1.171v-5.581h1.171Zm2.922 5.581v-3.274c0-.301.057-.561.169-.778a1.2 1.2 0 0 1 .481-.504c.208-.118.453-.177.736-.177.43 0 .746.114.948.342.202.228.303.574.303 1.04v3.351h1.171v-3.613c0-.664-.173-1.177-.521-1.536-.347-.36-.848-.54-1.504-.54-.426 0-.778.084-1.058.252a1.62 1.62 0 0 0-.634.699h-.091v-.843h-1.165v5.581h1.165Zm8.03.018a3.014 3.014 0 0 1-.333.018c-.637 0-1.098-.118-1.383-.352-.285-.235-.427-.62-.427-1.154v-3.232h-.913v-.879h.913v-1.408h1.192v1.408h1.252v.879h-1.252v2.96c0 .301.063.518.188.65.126.132.333.198.623.198a6.052 6.052 0 0 0 .441-.021v.894a8.11 8.11 0 0 1-.301.039Zm7.895-.018v-7.415h-1.203l-2.041 1.387v1.131l1.95-1.331h.086v6.228h1.208Zm6.395-.147c-.417.218-.9.326-1.448.326-.505 0-.952-.092-1.343-.277a2.404 2.404 0 0 1-.934-.758 2.154 2.154 0 0 1-.408-1.076l-.006-.067h1.134l.005.041c.036.216.123.413.26.591.138.178.32.318.546.421a1.8 1.8 0 0 0 .757.154c.319 0 .6-.067.843-.203a1.48 1.48 0 0 0 .572-.557c.138-.237.207-.509.207-.817v-.011c0-.304-.07-.575-.209-.811a1.477 1.477 0 0 0-.57-.553 1.698 1.698 0 0 0-.832-.198c-.233 0-.449.034-.648.101a1.556 1.556 0 0 0-.722.498c-.061.07-.115.148-.161.234h-1.042l.387-4.306h4.511v.976h-3.561l-.236 2.364h.086c.165-.25.392-.444.682-.581.29-.137.614-.205.972-.205.487 0 .918.106 1.292.318.374.213.669.504.884.874.214.37.322.793.322 1.269v.01c0 .504-.119.949-.357 1.336-.239.387-.566.69-.983.907Z" fill="#B1BAC4"/><path fill="#484F58" d="M132 172.469h67V367.64h-67zm87-48.793h67V367.64h-67z"/><path fill-rule="evenodd" clip-rule="evenodd" d="M393 172.469h67V367.64h-67V172.469Z" fill="#484F58"/><path opacity=".4" fill="#00D090" d="M480 150.464h67v217.175h-67zm87-99.499h67v316.674h-67z"/><path fill="#00D090" d="M654 75.84h67v291.8h-67z"/><path fill="#484F58" d="M306 197.344h67V367.64h-67z"/><path d="M113 138.027h625" stroke="#2196F3" stroke-width="2" stroke-linecap="square"/><g filter="url(#b)"><rect x="16.5" y="44.015" width="231" height="66.21" rx="9.5" fill="#30363D" stroke="#30363D"/><path fill-rule="evenodd" clip-rule="evenodd" d="M103.322 64.092a.552.552 0 0 0 .404-.166.537.537 0 0 0 .166-.394.535.535 0 0 0-.166-.397.556.556 0 0 0-.404-.164.56.56 0 0 0-.402.164.533.533 0 0 0-.168.397c0 .152.056.284.168.395.113.11.247.165.402.165ZM89.757 70.1v-7.035h-.827V70.1h.827Zm-7.287-6.741-2.528 6.74h-.846l-2.529-6.74h.899l2.015 5.652h.076l2.015-5.652h.898Zm-45.775 6.74.687-1.928h2.732L40.8 70.1h.899l-2.529-6.741h-.846l-2.529 6.74h.899Zm3.163-2.643h-2.221l1.073-3.009h.076l1.072 3.01Zm6.57-2.392L44.533 70.1h-.836L41.8 65.064h.875l1.402 4.148h.076l1.402-4.148h.875Zm3.11 5.125c.3 0 .572-.039.814-.115.243-.076.453-.18.63-.308.177-.13.322-.274.435-.435.112-.16.19-.326.235-.497l.01-.038h-.827l-.02.042a.871.871 0 0 1-.232.295 1.33 1.33 0 0 1-.423.238 1.766 1.766 0 0 1-.604.093c-.31 0-.58-.067-.808-.203a1.344 1.344 0 0 1-.527-.584 1.928 1.928 0 0 1-.178-.71l-.006-.151h3.687v-.318c0-.502-.09-.942-.27-1.32a2.067 2.067 0 0 0-.77-.885c-.333-.212-.733-.318-1.2-.318-.462 0-.866.11-1.211.332a2.192 2.192 0 0 0-.801.92c-.189.392-.283.849-.283 1.369v.004c0 .527.094.984.283 1.372.188.387.458.687.808.899.35.212.77.318 1.257.318Zm-1.49-3.022h2.831l-.008-.102a1.93 1.93 0 0 0-.16-.604 1.273 1.273 0 0 0-.5-.573 1.406 1.406 0 0 0-.731-.189 1.39 1.39 0 0 0-.74.199 1.372 1.372 0 0 0-.515.586c-.084.172-.14.371-.169.596l-.008.087Zm5.9 2.933v-3.12c0-.247.058-.462.173-.645.116-.184.275-.328.478-.43.203-.103.436-.154.699-.154a2.735 2.735 0 0 1 .508.046v-.79a3.916 3.916 0 0 0-.178-.02 2.35 2.35 0 0 0-.235-.012c-.346 0-.636.073-.87.22-.235.146-.4.352-.5.616h-.075v-.747h-.827V70.1h.827Zm5.038-.007a2.022 2.022 0 0 1-.637.096c-.323 0-.614-.061-.872-.183a1.48 1.48 0 0 1-.613-.518 1.391 1.391 0 0 1-.226-.794v-.01c0-.448.162-.8.487-1.053.325-.254.785-.398 1.381-.432l1.468-.087v-.46c0-.311-.095-.549-.287-.712-.192-.164-.48-.245-.863-.245-.307 0-.559.053-.755.16a.803.803 0 0 0-.395.456l-.005.014h-.827l.005-.028c.044-.265.156-.496.335-.694a1.8 1.8 0 0 1 .697-.462c.285-.11.61-.166.974-.166.418 0 .772.067 1.062.201.29.134.51.326.66.577.151.25.227.55.227.9V70.1h-.827v-.743h-.076a1.736 1.736 0 0 1-.392.453 1.63 1.63 0 0 1-.521.283Zm-.466-.61c-.298 0-.545-.07-.741-.212a.692.692 0 0 1-.295-.596v-.01c0-.248.09-.441.269-.578.179-.138.463-.217.853-.239l1.368-.085v.459c0 .24-.062.455-.187.645s-.297.34-.516.45a1.633 1.633 0 0 1-.75.166Zm7.23 2.165c-.343.151-.747.227-1.213.227a3.12 3.12 0 0 1-1.078-.17 1.775 1.775 0 0 1-.735-.482 1.414 1.414 0 0 1-.34-.722l.01-.004h.855l.005.004c.045.19.178.347.4.47.221.123.516.184.883.184.46 0 .819-.102 1.077-.305.258-.204.387-.492.387-.862v-1.019h-.076a1.72 1.72 0 0 1-.95.769c-.203.067-.422.1-.656.1-.44 0-.822-.103-1.143-.31a2.043 2.043 0 0 1-.744-.858 2.869 2.869 0 0 1-.262-1.252v-.01c0-.47.088-.887.264-1.253.176-.366.426-.654.749-.865.323-.21.708-.315 1.155-.315.24 0 .463.038.665.112a1.7 1.7 0 0 1 .54.318c.157.137.287.3.392.49h.057v-.831h.827v4.966c0 .373-.093.699-.278.976-.185.277-.45.491-.791.642ZM64.5 69.12c-.317 0-.586-.072-.806-.217a1.382 1.382 0 0 1-.504-.6 2.121 2.121 0 0 1-.173-.883v-.01c0-.333.057-.629.173-.887a1.4 1.4 0 0 1 .504-.608c.22-.146.489-.22.805-.22.317 0 .59.074.816.22.226.147.4.35.523.608.121.258.182.554.182.887v.01c0 .333-.06.627-.182.883a1.422 1.422 0 0 1-.523.6 1.481 1.481 0 0 1-.816.217Zm6.88.955a2.709 2.709 0 0 1-.816.115c-.488 0-.907-.106-1.257-.318a2.093 2.093 0 0 1-.808-.9c-.188-.387-.283-.844-.283-1.37v-.005c0-.52.095-.977.283-1.369.189-.392.456-.7.801-.92.345-.221.75-.332 1.212-.332.466 0 .866.106 1.2.318.334.211.591.507.77.885.18.378.269.818.269 1.32v.317l-3.687.001.006.152c.02.27.079.506.178.71.123.253.3.448.527.583.228.136.498.203.808.203.232 0 .433-.03.604-.093.171-.062.312-.142.423-.238a.872.872 0 0 0 .233-.295l.019-.042h.827l-.01.038a1.536 1.536 0 0 1-.235.497 1.87 1.87 0 0 1-.435.435 2.151 2.151 0 0 1-.63.308Zm.527-2.907h-2.832l.008-.087c.029-.225.085-.424.17-.596a1.37 1.37 0 0 1 .515-.586 1.39 1.39 0 0 1 .74-.199c.275 0 .519.063.731.19.212.126.379.316.5.572.08.17.133.371.16.604l.008.102Zm13.392 3.022c.3 0 .572-.039.815-.115.242-.076.452-.18.63-.308.177-.13.322-.274.434-.435.113-.16.191-.326.236-.497l.01-.038h-.828l-.019.042a.871.871 0 0 1-.233.295 1.33 1.33 0 0 1-.423.238 1.766 1.766 0 0 1-.603.093c-.311 0-.58-.067-.808-.203a1.344 1.344 0 0 1-.528-.584 1.93 1.93 0 0 1-.178-.71l-.006-.151h3.687v-.318c0-.502-.09-.942-.269-1.32a2.067 2.067 0 0 0-.77-.885c-.334-.212-.734-.318-1.2-.318-.462 0-.866.11-1.212.332a2.192 2.192 0 0 0-.8.92c-.19.392-.283.849-.283 1.369v.004c0 .527.094.984.282 1.372.189.387.458.687.808.899.35.212.77.318 1.258.318Zm-1.49-3.022h2.832l-.008-.102a1.933 1.933 0 0 0-.16-.604 1.274 1.274 0 0 0-.5-.573 1.406 1.406 0 0 0-.731-.189 1.39 1.39 0 0 0-.74.199 1.372 1.372 0 0 0-.515.586 1.882 1.882 0 0 0-.17.596l-.007.087Zm11.015 2.706c-.352.21-.772.316-1.26.316-.485 0-.904-.106-1.257-.316a2.095 2.095 0 0 1-.818-.9c-.191-.388-.287-.85-.287-1.386v-.01c0-.539.096-1.003.287-1.392a2.08 2.08 0 0 1 .818-.897c.353-.209.772-.313 1.257-.313.488 0 .908.104 1.26.313.351.209.623.508.815.897.191.39.287.853.287 1.392v.01c0 .535-.096.998-.287 1.387a2.1 2.1 0 0 1-.815.9Zm-1.26-.404c-.323 0-.597-.074-.822-.224a1.41 1.41 0 0 1-.516-.645c-.119-.28-.178-.618-.178-1.013v-.01c0-.398.06-.738.178-1.018.119-.28.29-.494.516-.642.225-.148.499-.222.822-.222.323 0 .597.074.822.222.225.148.397.362.516.642s.178.62.178 1.018v.01c0 .395-.06.733-.178 1.013a1.41 1.41 0 0 1-.516.645c-.225.15-.499.224-.822.224Zm6.911.519c-.292.133-.643.2-1.055.2-.479 0-.894-.107-1.246-.322a2.156 2.156 0 0 1-.817-.91c-.193-.393-.29-.856-.29-1.388v-.01c0-.523.096-.978.288-1.364.191-.386.463-.686.815-.899.351-.213.766-.32 1.245-.32.415 0 .773.072 1.074.215.301.143.542.336.723.577.18.241.296.511.347.81l.004.028h-.822l-.005-.014a1.15 1.15 0 0 0-.432-.635c-.225-.174-.522-.261-.89-.261-.306 0-.573.076-.798.228a1.472 1.472 0 0 0-.52.647 2.45 2.45 0 0 0-.183.988v.01c0 .386.062.722.185 1.007.124.284.298.505.523.66.225.156.49.234.794.234.345 0 .627-.073.846-.22.219-.146.375-.36.471-.64l.009-.027.818-.005-.01.051a2.11 2.11 0 0 1-.371.806c-.177.235-.412.42-.703.554Zm3.256-4.924V70.1h-.827v-5.036h.827Zm3.493 5.073c.082 0 .163-.004.242-.014.08-.009.159-.02.238-.032V69.4a3.168 3.168 0 0 1-.38.019c-.266 0-.456-.065-.57-.194-.115-.13-.172-.342-.172-.638v-2.85h1.122v-.672h-1.122v-1.303h-.855v1.303h-.808v.673h.808v3.055c0 .48.118.824.354 1.032.236.209.617.313 1.143.313Zm3.035 1.6a2.023 2.023 0 0 1-.768.129 2.551 2.551 0 0 1-.366-.028v-.668c.051.009.106.015.167.018.06.003.118.005.176.005.234 0 .426-.06.577-.178.151-.118.272-.322.364-.612l.095-.299-1.897-5.04h.884l1.406 4.144h.078l1.401-4.144h.87l-2.001 5.344c-.142.377-.291.671-.444.883-.154.212-.335.36-.542.446Zm9.161-1.548c.488 0 .908-.106 1.26-.316a2.1 2.1 0 0 0 .815-.9c.192-.388.288-.85.288-1.386v-.01c0-.539-.096-1.003-.288-1.392a2.085 2.085 0 0 0-.815-.897c-.352-.209-.772-.313-1.26-.313-.485 0-.904.104-1.257.313a2.077 2.077 0 0 0-.817.897c-.192.39-.288.853-.288 1.392v.01c0 .535.096.998.288 1.387.191.39.464.689.817.9.353.21.772.315 1.257.315Zm-.822-.944c.225.15.499.224.822.224.323 0 .598-.074.823-.224a1.41 1.41 0 0 0 .515-.645c.119-.28.178-.618.178-1.013v-.01c0-.398-.059-.738-.178-1.018a1.395 1.395 0 0 0-.515-.642c-.225-.148-.5-.222-.823-.222-.323 0-.597.074-.822.222a1.397 1.397 0 0 0-.516.642c-.119.28-.178.62-.178 1.018v.01c0 .395.059.733.178 1.013.119.28.291.496.516.645Zm6.678.855 1.896-5.036h-.874l-1.402 4.148h-.076l-1.402-4.148h-.875l1.896 5.036h.837Zm5.82-.026a2.706 2.706 0 0 1-.815.115c-.488 0-.907-.106-1.257-.318a2.09 2.09 0 0 1-.808-.9c-.189-.387-.283-.844-.283-1.37v-.005c0-.52.094-.977.283-1.369.188-.392.455-.7.801-.92.345-.221.749-.332 1.212-.332.465 0 .865.106 1.2.318.334.211.591.507.77.885.179.378.268.818.268 1.32v.317l-3.687.001.006.152c.02.27.079.506.178.71.124.253.3.448.528.583.228.136.497.203.808.203.231 0 .432-.03.603-.093a1.31 1.31 0 0 0 .423-.238.867.867 0 0 0 .233-.295l.019-.042h.827l-.009.038a1.538 1.538 0 0 1-.235.497c-.113.16-.258.305-.435.435a2.18 2.18 0 0 1-.63.308Zm.527-2.907h-2.831l.008-.087c.028-.225.085-.424.169-.596.127-.258.299-.454.516-.586a1.39 1.39 0 0 1 .739-.199c.276 0 .52.063.732.19.212.126.378.316.499.572.08.17.134.371.16.604l.008.102Zm3.069-.188v3.12h-.827v-5.035h.827v.747h.076c.098-.264.264-.47.499-.616.234-.147.524-.22.87-.22.079 0 .157.004.235.012l.178.02v.79a2.721 2.721 0 0 0-.509-.047 1.52 1.52 0 0 0-.698.155 1.186 1.186 0 0 0-.478.43 1.181 1.181 0 0 0-.173.644Zm7.676 3.158c.082 0 .163-.004.242-.014.079-.009.159-.02.238-.032V69.4c-.076.007-.14.011-.193.014a3.132 3.132 0 0 1-.187.005c-.267 0-.457-.065-.571-.194-.114-.13-.171-.342-.171-.638v-2.85h1.122v-.672h-1.122v-1.303h-.856v1.303h-.808v.673h.808v3.055c0 .48.119.824.355 1.032.236.209.617.313 1.143.313Zm2.704-3.018v2.98h-.827v-7.035h.827v2.757h.076c.13-.268.317-.476.561-.624.244-.148.555-.222.932-.222.383 0 .708.073.974.217.266.145.469.356.608.633.14.278.21.615.21 1.014v3.26h-.828v-3.064c0-.454-.097-.792-.292-1.011-.195-.22-.497-.33-.905-.33-.273 0-.509.058-.708.173-.2.116-.355.28-.464.49a1.646 1.646 0 0 0-.164.762Zm7.058 3.07c.301 0 .573-.039.815-.115.243-.076.453-.18.63-.308a1.85 1.85 0 0 0 .435-.435c.113-.16.191-.326.235-.497l.01-.038h-.827l-.019.042a.867.867 0 0 1-.233.295 1.331 1.331 0 0 1-.423.238 1.765 1.765 0 0 1-.604.093c-.31 0-.58-.067-.808-.203a1.34 1.34 0 0 1-.527-.584 1.932 1.932 0 0 1-.178-.71l-.006-.151h3.687v-.318c0-.502-.09-.942-.269-1.32a2.069 2.069 0 0 0-.77-.885c-.334-.212-.734-.318-1.2-.318-.463 0-.867.11-1.212.332a2.198 2.198 0 0 0-.801.92c-.188.392-.283.849-.283 1.369v.004c0 .527.095.984.283 1.372.189.387.458.687.808.899.35.212.769.318 1.257.318Zm-1.489-3.022h2.832l-.008-.102a1.944 1.944 0 0 0-.161-.604 1.273 1.273 0 0 0-.499-.573 1.404 1.404 0 0 0-.732-.189 1.39 1.39 0 0 0-.739.199 1.374 1.374 0 0 0-.516.586c-.084.172-.14.371-.169.596l-.008.087Z" fill="#B1BAC4"/><path fill-rule="evenodd" clip-rule="evenodd" d="M211.438 63.945a.762.762 0 0 1-.551.222.774.774 0 0 1-.552-.222.712.712 0 0 1-.232-.535c0-.211.077-.391.232-.54a.774.774 0 0 1 .552-.221c.215 0 .399.074.551.222a.725.725 0 0 1 .228.54.72.72 0 0 1-.228.534Zm-51.503-.955v7.11h-1.388v-7.11h1.388Zm3.61 7.1a2.078 2.078 0 0 1-.635.094c-.329 0-.623-.064-.882-.191a1.468 1.468 0 0 1-.606-.54 1.507 1.507 0 0 1-.218-.815v-.01c0-.463.176-.827.527-1.09.352-.263.853-.414 1.502-.451l1.264-.075.001-.425c0-.224-.076-.396-.226-.516-.151-.12-.369-.18-.654-.18-.25 0-.454.041-.61.124a.63.63 0 0 0-.317.353l-.009.018h-1.283l.004-.042c.038-.302.155-.565.35-.79.195-.223.458-.398.789-.522a3.26 3.26 0 0 1 1.152-.187c.463 0 .856.069 1.179.208.323.138.57.338.739.598.17.26.254.572.254.936V70.1h-1.368v-.682h-.086a1.342 1.342 0 0 1-.354.409 1.653 1.653 0 0 1-.513.264Zm-.169-.906c-.241 0-.437-.056-.589-.168a.542.542 0 0 1-.229-.463v-.009c0-.187.073-.335.219-.444.146-.109.368-.17.665-.186l1.055-.068.001.38c0 .181-.05.344-.148.489a1.03 1.03 0 0 1-.399.343 1.27 1.27 0 0 1-.575.126Zm7.234.818a3.14 3.14 0 0 1-1.188.21c-.476 0-.88-.065-1.215-.196a1.888 1.888 0 0 1-.784-.537 1.438 1.438 0 0 1-.33-.78l-.005-.019h1.364l.01.019c.057.159.165.29.325.392.16.103.376.154.649.154.177 0 .333-.024.466-.072a.763.763 0 0 0 .313-.199.426.426 0 0 0 .115-.294v-.01a.419.419 0 0 0-.172-.34c-.114-.09-.304-.165-.57-.225l-.874-.182c-.498-.106-.871-.28-1.12-.523-.249-.243-.373-.556-.373-.939v-.005c0-.324.091-.606.273-.847.183-.242.438-.43.766-.563a3.006 3.006 0 0 1 1.143-.201c.456 0 .844.067 1.164.203.32.135.567.316.739.542.173.226.269.477.288.754v.019h-1.288l-.005-.023a.68.68 0 0 0-.285-.372c-.152-.107-.358-.16-.618-.16-.158 0-.3.022-.423.07a.69.69 0 0 0-.292.195.444.444 0 0 0-.107.3v.004c0 .137.055.25.166.336.111.088.301.16.57.215l.87.182c.523.112.91.28 1.16.505.25.224.375.526.375.906v.005c0 .34-.098.635-.294.887a1.92 1.92 0 0 1-.813.589Zm4.506.117a3.748 3.748 0 0 0 .694-.061v-1.014l-.188.017a2.857 2.857 0 0 1-.221.006c-.235 0-.405-.053-.511-.16-.106-.108-.159-.277-.159-.507v-2.416h1.079v-1.027h-1.079v-1.229h-1.402v1.229h-.808v1.027h.808v2.729c0 .498.139.857.418 1.076.279.22.735.33 1.369.33Zm7.695-6.76v6.74h-1.436V64.69h-.085l-1.683 1.15v-1.271l1.773-1.21h1.431Zm6.93 6.74v-1.134h-3.024v-.105l1.27-1.166c.418-.38.748-.712.988-.995a3.11 3.11 0 0 0 .514-.792c.101-.244.152-.494.152-.75v-.014c0-.389-.102-.73-.307-1.023a2.04 2.04 0 0 0-.846-.686c-.359-.165-.775-.248-1.247-.248-.501 0-.941.092-1.319.276a2.157 2.157 0 0 0-.889.766 2.026 2.026 0 0 0-.321 1.135l.005.023h1.326v-.023c0-.215.047-.403.142-.563.096-.16.229-.287.4-.378.171-.092.367-.138.589-.138.219 0 .407.041.566.124a.874.874 0 0 1 .363.343c.084.146.126.316.126.51v.013c0 .159-.035.312-.104.46-.07.148-.194.321-.371.519s-.428.45-.751.754l-2.21 2.144v.949h4.948Zm7.319-.097a3.14 3.14 0 0 1-1.188.21c-.475 0-.88-.065-1.214-.196a1.881 1.881 0 0 1-.785-.537 1.446 1.446 0 0 1-.33-.78l-.005-.019h1.364l.01.019a.77.77 0 0 0 .326.392c.16.103.376.154.648.154.178 0 .333-.024.466-.072a.767.767 0 0 0 .314-.199.425.425 0 0 0 .114-.294v-.01a.418.418 0 0 0-.171-.34c-.114-.09-.304-.165-.571-.225l-.874-.182c-.498-.106-.871-.28-1.119-.523-.249-.243-.374-.556-.374-.939v-.005c0-.324.092-.606.274-.847.182-.242.437-.43.765-.563a3.006 3.006 0 0 1 1.143-.201c.456 0 .845.067 1.165.203.32.135.566.316.739.542.172.226.268.477.287.754v.019h-1.288l-.005-.023a.68.68 0 0 0-.285-.372c-.152-.107-.358-.16-.618-.16-.158 0-.299.022-.423.07a.697.697 0 0 0-.292.195.45.45 0 0 0-.107.3v.004c0 .137.055.25.166.336.111.088.301.16.571.215l.87.182c.522.112.909.28 1.159.505.251.224.376.526.376.906v.005a1.4 1.4 0 0 1-.295.887 1.908 1.908 0 0 1-.813.589Zm3.746 1.803v-2.527h.085c.089.187.21.347.364.48.154.135.333.24.537.314.204.075.427.112.668.112.44 0 .819-.107 1.136-.32.317-.213.561-.518.732-.913.171-.396.256-.87.256-1.42v-.01c0-.548-.086-1.019-.259-1.413a2.072 2.072 0 0 0-.734-.913c-.317-.215-.694-.322-1.131-.322a2.06 2.06 0 0 0-.675.105 1.513 1.513 0 0 0-.894.773h-.085v-.794h-1.388v6.848h1.388Zm.549-2.939c.179.122.389.183.629.183.248 0 .459-.061.635-.183.176-.12.312-.295.409-.523a2.08 2.08 0 0 0 .145-.813v-.009c0-.314-.049-.585-.145-.813a1.176 1.176 0 0 0-.409-.523 1.09 1.09 0 0 0-.635-.182c-.244 0-.455.06-.634.182a1.166 1.166 0 0 0-.414.521 2.078 2.078 0 0 0-.145.815v.01c0 .31.05.581.148.81.098.229.237.404.416.526Zm5.862 1.234v-2.878a1.2 1.2 0 0 1 .157-.626 1.05 1.05 0 0 1 .447-.404c.193-.095.422-.142.685-.142a2.63 2.63 0 0 1 .636.08v-1.192a2.039 2.039 0 0 0-.518-.065c-.339 0-.622.077-.85.23a1.171 1.171 0 0 0-.471.653h-.086v-.8h-1.387V70.1h1.387Zm4.359 0v-5.143h-1.388V70.1h1.388Zm2.899-2.976V70.1h-1.388v-5.143h1.388v.794h.086c.12-.28.307-.501.561-.663.253-.162.567-.243.941-.243.583 0 1.027.167 1.333.502.306.335.459.81.459 1.427V70.1h-1.388v-3.018c0-.364-.078-.64-.233-.826-.155-.187-.398-.28-.727-.28a1.02 1.02 0 0 0-.549.142.947.947 0 0 0-.357.4 1.365 1.365 0 0 0-.126.606Zm7.006 2.995a3.734 3.734 0 0 0 .694-.061v-1.014l-.188.017a2.84 2.84 0 0 1-.221.006c-.234 0-.404-.053-.511-.16-.106-.108-.159-.277-.159-.507v-2.416h1.079v-1.027h-1.079v-1.229h-1.402v1.229h-.808v1.027h.808v2.729c0 .498.139.857.418 1.076.279.22.735.33 1.369.33Zm5.181-.117a3.14 3.14 0 0 1-1.188.21c-.476 0-.88-.065-1.215-.196a1.888 1.888 0 0 1-.784-.537 1.438 1.438 0 0 1-.33-.78l-.005-.019h1.364l.01.019c.057.159.165.29.325.392.16.103.376.154.649.154.177 0 .333-.024.466-.072a.763.763 0 0 0 .313-.199.426.426 0 0 0 .115-.294v-.01a.419.419 0 0 0-.172-.34c-.114-.09-.304-.165-.57-.225l-.875-.182c-.497-.106-.87-.28-1.119-.523s-.373-.556-.373-.939v-.005c0-.324.091-.606.273-.847.183-.242.438-.43.766-.563a3.006 3.006 0 0 1 1.143-.201c.456 0 .844.067 1.164.203.32.135.567.316.739.542.173.226.269.477.288.754v.019h-1.288l-.005-.023a.68.68 0 0 0-.285-.372c-.152-.107-.358-.16-.618-.16-.159 0-.3.022-.423.07a.69.69 0 0 0-.292.195.444.444 0 0 0-.107.3v.004c0 .137.055.25.166.336.111.088.301.16.57.215l.87.182c.523.112.91.28 1.16.505.25.224.375.526.375.906v.005c0 .34-.098.635-.294.887a1.92 1.92 0 0 1-.813.589Zm-93.439 11.232a.988.988 0 0 1-.716.288c-.276 0-.515-.096-.717-.288a.925.925 0 0 1-.303-.696c0-.275.101-.509.303-.701.202-.193.441-.289.717-.289.28 0 .519.096.716.289a.941.941 0 0 1 .297.701.934.934 0 0 1-.297.696Zm-64.739 1.411a3.49 3.49 0 0 0-.337 1.018c-.052.29-.085.596-.098.92l-.005.165.122-.001a2.246 2.246 0 0 1 1.23-1.102c.304-.12.66-.18 1.069-.18.58 0 1.089.124 1.526.37.436.248.776.588 1.02 1.02.242.434.364.928.364 1.483v.012a2.97 2.97 0 0 1-.436 1.597c-.29.47-.692.84-1.205 1.111-.513.272-1.105.407-1.776.407a3.742 3.742 0 0 1-1.446-.276 3.222 3.222 0 0 1-1.17-.835c-.337-.373-.598-.842-.786-1.409-.187-.567-.28-1.237-.28-2.01v-.012c0-.976.148-1.813.447-2.511.299-.699.724-1.234 1.276-1.607.552-.372 1.207-.558 1.965-.558a3.76 3.76 0 0 1 1.557.31 3.13 3.13 0 0 1 1.14.843c.299.357.493.764.584 1.221l.012.06h-1.822l-.025-.054a1.359 1.359 0 0 0-.791-.801 1.714 1.714 0 0 0-.649-.116c-.346 0-.641.083-.886.25a1.861 1.861 0 0 0-.6.685Zm-4.785 6.59v-1.61h1.161v-1.47H63.7v-5.684h-2.62a103.45 103.45 0 0 0-2.141 3.368 84.072 84.072 0 0 0-1.387 2.347v1.44h4.368v1.609h1.78Zm-1.743-3.03h-2.725v-.098a54.81 54.81 0 0 1 1.023-1.728l.537-.865c.18-.287.359-.569.538-.844l.528-.808h.1v4.342Zm7.99 1.803a1.605 1.605 0 0 1-1.617-1.453l-.01-.18.001-.007c0-.303.074-.572.22-.804a1.56 1.56 0 0 1 .59-.55c.247-.134.523-.2.828-.2.313 0 .59.068.83.206.242.138.432.325.572.562.14.237.21.509.21.817v.012c0 .3-.073.57-.219.81a1.63 1.63 0 0 1-.587.574 1.606 1.606 0 0 1-.819.213Zm13.51 1.102c-.538.233-1.178.35-1.919.35-.709 0-1.324-.106-1.847-.317-.524-.21-.934-.507-1.233-.89a2.424 2.424 0 0 1-.504-1.35l-.006-.098h1.798l.006.061c.025.219.117.41.275.574.159.164.372.293.64.386a2.8 2.8 0 0 0 .92.14c.334 0 .627-.05.878-.146a1.4 1.4 0 0 0 .59-.404.904.904 0 0 0 .213-.592v-.007a.818.818 0 0 0-.355-.692c-.237-.174-.634-.318-1.19-.431l-.939-.188c-.927-.186-1.6-.492-2.02-.917-.42-.425-.63-.97-.63-1.634v-.006c0-.543.146-1.016.438-1.421.293-.405.694-.72 1.205-.944.51-.225 1.096-.337 1.755-.337.692 0 1.286.11 1.782.33.497.221.885.523 1.165.905.28.383.439.82.476 1.31l.006.078h-1.755l-.012-.073a1.094 1.094 0 0 0-.269-.552 1.447 1.447 0 0 0-.568-.374 2.29 2.29 0 0 0-.825-.136 2.22 2.22 0 0 0-.803.133 1.24 1.24 0 0 0-.538.374.883.883 0 0 0-.191.567v.006a.84.84 0 0 0 .349.696c.232.18.61.323 1.133.428l.946.188c.943.19 1.63.482 2.06.875.43.392.646.93.646 1.615v.006c0 .58-.145 1.08-.435 1.503-.29.423-.705.751-1.242.984Zm6.009.149a5.4 5.4 0 0 0 .902-.079v-1.318l-.244.021c-.077.007-.172.01-.288.01-.304 0-.526-.07-.664-.21-.138-.14-.207-.36-.207-.659v-3.14h1.403v-1.336h-1.403v-1.597h-1.823v1.597h-1.05v1.336h1.05v3.547c0 .648.181 1.114.544 1.4.362.285.956.428 1.78.428Zm7.102-.297c-.5.279-1.1.419-1.801.419-.696 0-1.296-.14-1.798-.42a2.813 2.813 0 0 1-1.156-1.199c-.267-.52-.401-1.142-.401-1.867v-.012c0-.721.136-1.34.408-1.859a2.88 2.88 0 0 1 1.158-1.2c.5-.28 1.097-.421 1.789-.421s1.288.14 1.789.419c.5.28.886.679 1.158 1.2.272.52.408 1.14.408 1.86v.013c0 .725-.134 1.347-.401 1.867-.268.52-.652.92-1.153 1.2Zm-1.801-.978a1.35 1.35 0 0 1-.819-.246c-.224-.164-.395-.402-.513-.714-.117-.311-.176-.688-.176-1.13v-.012c0-.437.06-.81.18-1.12a1.56 1.56 0 0 1 .516-.716 1.31 1.31 0 0 1 .812-.253c.317 0 .588.084.813.252.224.168.396.407.516.717.119.31.179.683.179 1.12v.013c0 .437-.06.811-.18 1.123-.119.312-.29.55-.512.717a1.325 1.325 0 0 1-.816.249Zm6.55-2.49v3.74h-1.805v-6.686h1.805v1.039h.111c.111-.365.315-.647.612-.847.296-.2.665-.301 1.106-.301a2.637 2.637 0 0 1 .673.085v1.549a4.067 4.067 0 0 0-.411-.076 3.186 3.186 0 0 0-.417-.028 2 2 0 0 0-.89.186 1.35 1.35 0 0 0-.58.525 1.553 1.553 0 0 0-.204.814Zm4.529 6.097c.56 0 1.04-.074 1.439-.222.4-.147.74-.394 1.02-.738s.521-.811.723-1.402l2.317-6.68h-1.903l-1.427 5.065h-.125l-1.426-5.066h-1.984l2.391 6.693-.061.255c-.062.259-.188.45-.377.574-.19.123-.445.185-.766.185a10.122 10.122 0 0 1-.47-.012v1.33c.107.008.216.013.327.015l.322.003Zm11.666-3.425v3.285h-1.805v-8.903h1.805v1.033h.111a1.973 1.973 0 0 1 1.161-1.005c.264-.091.556-.137.878-.137.568 0 1.058.14 1.47.419.412.28.73.675.955 1.187.224.512.337 1.125.337 1.837v.012c0 .717-.111 1.332-.334 1.847-.222.514-.54.91-.951 1.187-.412.277-.905.416-1.477.416a2.51 2.51 0 0 1-.868-.146 2.204 2.204 0 0 1-.699-.407 1.905 1.905 0 0 1-.472-.625h-.111Zm1.532-.298c-.313 0-.586-.079-.819-.237a1.519 1.519 0 0 1-.54-.683 2.653 2.653 0 0 1-.192-1.053v-.013c0-.413.063-.766.188-1.06.126-.293.305-.519.538-.677.233-.157.508-.236.825-.236.321 0 .596.079.825.236.228.158.406.385.531.68.126.296.189.648.189 1.057v.012c0 .41-.063.762-.189 1.057a1.525 1.525 0 0 1-.531.68 1.417 1.417 0 0 1-.825.237Zm9.599 1.094c-.501.279-1.101.419-1.801.419-.697 0-1.296-.14-1.798-.42a2.813 2.813 0 0 1-1.156-1.199c-.268-.52-.402-1.142-.402-1.867v-.012c0-.721.136-1.34.408-1.859a2.878 2.878 0 0 1 1.159-1.2c.5-.28 1.097-.421 1.789-.421s1.288.14 1.788.419c.501.28.887.679 1.159 1.2.272.52.408 1.14.408 1.86v.013c0 .725-.134 1.347-.402 1.867s-.652.92-1.152 1.2Zm-1.801-.978c-.322 0-.595-.082-.819-.246-.225-.164-.396-.402-.513-.714-.117-.311-.176-.688-.176-1.13v-.012c0-.437.06-.81.179-1.12.12-.31.292-.549.516-.716.225-.169.495-.253.813-.253.317 0 .588.084.812.252.225.168.397.407.516.717.12.31.179.683.179 1.12v.013c0 .437-.059.811-.179 1.123-.119.312-.29.55-.513.717a1.323 1.323 0 0 1-.815.249Zm6.562 1.25v-6.686h-1.805v6.687h1.805Zm3.546-3.868v3.869h-1.804v-6.686h1.804v1.032h.112c.156-.364.399-.652.729-.862.329-.21.737-.316 1.223-.316.758 0 1.336.217 1.733.653.398.435.596 1.053.596 1.855v4.324h-1.804v-3.923c0-.474-.101-.832-.303-1.075-.201-.243-.516-.364-.945-.364-.276 0-.514.061-.714.185a1.236 1.236 0 0 0-.463.519 1.778 1.778 0 0 0-.164.79Zm8.886 3.893a5.44 5.44 0 0 0 .902-.079v-1.318l-.244.021a3.74 3.74 0 0 1-.288.01c-.305 0-.526-.07-.664-.21-.138-.14-.207-.36-.207-.659v-3.14h1.403v-1.336h-1.403v-1.597h-1.823v1.597h-1.05v1.336h1.05v3.547c0 .648.182 1.114.544 1.4.363.285.956.428 1.78.428Zm6.512-.152c-.449.183-.964.274-1.545.274-.618 0-1.144-.085-1.578-.255-.435-.17-.775-.403-1.02-.699a1.87 1.87 0 0 1-.429-1.014l-.006-.024h1.773l.012.024a1 1 0 0 0 .423.51c.208.134.49.2.844.2.231 0 .432-.03.605-.094a.996.996 0 0 0 .408-.258.552.552 0 0 0 .149-.382v-.012a.545.545 0 0 0-.223-.444c-.148-.117-.395-.214-.741-.291l-1.137-.237c-.647-.138-1.132-.365-1.455-.68-.324-.316-.485-.723-.485-1.22v-.007c0-.421.118-.788.355-1.102.237-.314.568-.558.995-.732.426-.174.921-.261 1.486-.261.593 0 1.097.088 1.513.264.417.176.737.41.961.704.225.294.349.62.374.981v.024h-1.674l-.007-.03c-.049-.182-.173-.343-.37-.483-.198-.14-.466-.21-.804-.21-.206 0-.389.031-.549.092a.899.899 0 0 0-.38.255.58.58 0 0 0-.139.389v.006c0 .178.072.324.216.437.144.113.391.207.741.28l1.131.236c.68.146 1.182.365 1.508.656.325.292.488.684.488 1.178v.006c0 .442-.128.826-.383 1.154-.256.328-.608.583-1.057.765Z" fill="#F0F6FC"/><path fill-rule="evenodd" clip-rule="evenodd" d="M36.903 83.494a1.435 1.435 0 0 0 0 2.87h8.811a1.435 1.435 0 1 0 0-2.87h-8.81Z" fill="#2196F3"/></g><defs><filter id="a" x="41.5" y=".457" width="749" height="435.086" filterUnits="userSpaceOnUse" color-interpolation-filters="sRGB"><feFlood flood-opacity="0" result="BackgroundImageFix"/><feColorMatrix in="SourceAlpha" values="0 0 0 0 0 0 0 0 0 0 0 0 0 0 0 0 0 0 127 0" result="hardAlpha"/><feOffset dy="2"/><feGaussianBlur stdDeviation="4"/><feColorMatrix values="0 0 0 0 0 0 0 0 0 0 0 0 0 0 0 0 0 0 0.05 0"/><feBlend in2="BackgroundImageFix" result="effect1_dropShadow_624_111166"/><feBlend in="SourceGraphic" in2="effect1_dropShadow_624_111166" result="shape"/></filter><filter id="b" x="0" y="29.515" width="264" height="99.21" filterUnits="userSpaceOnUse" color-interpolation-filters="sRGB"><feFlood flood-opacity="0" result="BackgroundImageFix"/><feColorMatrix in="SourceAlpha" values="0 0 0 0 0 0 0 0 0 0 0 0 0 0 0 0 0 0 127 0" result="hardAlpha"/><feOffset dy="2"/><feGaussianBlur stdDeviation="8"/><feColorMatrix values="0 0 0 0 0 0 0 0 0 0 0 0 0 0 0 0 0 0 0.05 0"/><feBlend in2="BackgroundImageFix" result="effect1_dropShadow_624_111166"/><feBlend in="SourceGraphic" in2="effect1_dropShadow_624_111166" result="shape"/></filter></defs></svg>