<svg width="800" height="315" fill="none" xmlns="http://www.w3.org/2000/svg"><path d="M6.987 26.816c3.384 0 5.546-2.1 5.546-5.378v-1.582H7.27v1.73h3.04l-.008.265c-.027 1.801-1.345 3.005-3.279 3.005-2.258 0-3.682-1.801-3.682-4.71v-.018c0-2.865 1.397-4.667 3.612-4.667 1.626 0 2.786.809 3.2 2.197l.026.088h2.25l-.01-.088c-.43-2.478-2.54-4.157-5.466-4.157-3.612 0-5.924 2.593-5.924 6.644v.018c0 4.096 2.285 6.653 5.96 6.653Zm9.08-11.53c.711 0 1.3-.572 1.3-1.293 0-.712-.589-1.292-1.3-1.292-.721 0-1.31.58-1.31 1.292 0 .72.589 1.292 1.31 1.292Zm-1.1 11.214h2.19v-9.606h-2.19V26.5Zm8.658.044c.422 0 .826-.035 1.143-.097V24.76a6.497 6.497 0 0 1-.739.035c-.914 0-1.292-.404-1.292-1.362V18.59h2.03v-1.696h-2.03v-2.356h-2.223v2.356H19.02v1.696h1.494v5.361c0 1.855.905 2.593 3.111 2.593Zm3.55-.044h2.268v-5.502h6.17V26.5h2.26V13.817h-2.26v5.274h-6.17v-5.274h-2.267V26.5Zm16.788.193c1.389 0 2.364-.624 2.812-1.652h.15V26.5h2.188v-9.606h-2.188v5.598c0 1.442-.756 2.356-2.171 2.356-1.319 0-1.872-.756-1.872-2.242v-5.712h-2.189v6.213c0 2.286 1.108 3.586 3.27 3.586Zm13.166-.035c2.408 0 3.946-1.907 3.946-4.948v-.018c0-3.058-1.512-4.957-3.946-4.957-1.319 0-2.417.65-2.918 1.688h-.15v-5.247h-2.188V26.5h2.189v-1.503h.149c.527 1.046 1.573 1.661 2.918 1.661Zm-.686-1.846c-1.485 0-2.408-1.177-2.408-3.102v-.018c0-1.924.923-3.11 2.408-3.11 1.495 0 2.4 1.177 2.4 3.11v.018c0 1.934-.906 3.102-2.4 3.102Zm11.62 1.688h2.188v-5.599c0-1.441.809-2.355 2.11-2.355 1.326 0 1.933.756 1.933 2.25V26.5h2.188v-6.214c0-2.285-1.168-3.577-3.313-3.577-1.389 0-2.312.624-2.769 1.652h-.149v-1.467h-2.189V26.5Zm15.152.193c2.874 0 4.623-1.88 4.623-4.992v-.017c0-3.094-1.758-4.975-4.623-4.975-2.857 0-4.623 1.89-4.623 4.975v.017c0 3.111 1.74 4.992 4.623 4.992Zm0-1.775c-1.52 0-2.39-1.187-2.39-3.208v-.018c0-2.021.87-3.216 2.39-3.216 1.512 0 2.382 1.195 2.382 3.216v.018c0 2.021-.862 3.208-2.382 3.208Zm10.6 1.626c.421 0 .826-.035 1.142-.097V24.76c-.264.026-.43.035-.738.035-.914 0-1.292-.404-1.292-1.362V18.59h2.03v-1.696h-2.03v-2.356h-2.224v2.356H89.21v1.696h1.494v5.361c0 1.855.905 2.593 3.111 2.593Zm4.447-11.259c.712 0 1.3-.571 1.3-1.292a1.3 1.3 0 0 0-1.3-1.292c-.721 0-1.31.58-1.31 1.292 0 .72.589 1.292 1.31 1.292ZM97.163 26.5h2.189v-9.606h-2.189V26.5Zm5.581 0h2.189v-7.91h2.047v-1.696h-2.083v-.827c0-.914.396-1.406 1.424-1.406.308 0 .58.018.747.044v-1.53a7.06 7.06 0 0 0-1.213-.087c-2.135 0-3.111.94-3.111 2.856v.95h-1.573v1.696h1.573v7.91Zm7.471-11.215c.712 0 1.301-.571 1.301-1.292 0-.712-.589-1.292-1.301-1.292-.721 0-1.31.58-1.31 1.292 0 .72.589 1.292 1.31 1.292ZM109.116 26.5h2.189v-9.606h-2.189V26.5Zm9 .193c2.435 0 3.85-1.31 4.166-3.278l.018-.07-2.066.009-.017.035c-.273 1.01-.967 1.529-2.101 1.529-1.485 0-2.373-1.195-2.373-3.234v-.018c0-2.013.879-3.19 2.373-3.19 1.196 0 1.907.668 2.11 1.6l.008.026h2.066v-.036c-.246-1.986-1.723-3.357-4.193-3.357-2.891 0-4.587 1.855-4.587 4.957v.018c0 3.137 1.705 5.01 4.596 5.01Zm8.886-.035c1.266 0 2.285-.545 2.812-1.476h.15V26.5h2.162v-6.565c0-2.03-1.389-3.226-3.858-3.226-2.286 0-3.832 1.072-4.043 2.69l-.009.078h2.065l.009-.035c.22-.632.87-.993 1.872-.993 1.178 0 1.802.528 1.802 1.486v.826l-2.47.15c-2.338.14-3.647 1.142-3.647 2.856v.017c0 1.75 1.327 2.874 3.155 2.874Zm-.993-2.98v-.017c0-.79.571-1.24 1.793-1.318l2.162-.14v.773c0 1.142-.976 2.004-2.294 2.004-.967 0-1.661-.484-1.661-1.301Zm12.524 2.866c.422 0 .826-.035 1.143-.097V24.76a6.42 6.42 0 0 1-.738.035c-.915 0-1.292-.404-1.292-1.362V18.59h2.03v-1.696h-2.03v-2.356h-2.224v2.356h-1.494v1.696h1.494v5.361c0 1.855.905 2.593 3.111 2.593Zm4.447-11.259c.712 0 1.301-.571 1.301-1.292 0-.712-.589-1.292-1.301-1.292-.72 0-1.309.58-1.309 1.292 0 .72.589 1.292 1.309 1.292ZM141.882 26.5h2.188v-9.606h-2.188V26.5Zm9.026.193c2.874 0 4.623-1.88 4.623-4.992v-.017c0-3.094-1.758-4.975-4.623-4.975-2.856 0-4.623 1.89-4.623 4.975v.017c0 3.111 1.74 4.992 4.623 4.992Zm0-1.775c-1.52 0-2.39-1.187-2.39-3.208v-.018c0-2.021.87-3.216 2.39-3.216 1.512 0 2.382 1.195 2.382 3.216v.018c0 2.021-.861 3.208-2.382 3.208Zm6.821 1.582h2.188v-5.599c0-1.441.809-2.355 2.109-2.355 1.328 0 1.934.756 1.934 2.25V26.5h2.188v-6.214c0-2.285-1.169-3.577-3.313-3.577-1.389 0-2.312.624-2.769 1.652h-.149v-1.467h-2.188V26.5Zm14.633.193c2.365 0 4.078-1.221 4.078-3.05v-.017c0-1.398-.887-2.197-2.768-2.62l-1.556-.342c-1.037-.237-1.441-.58-1.441-1.143v-.008c0-.721.703-1.196 1.679-1.196 1.028 0 1.661.493 1.819 1.099l.009.026h2.056v-.017c-.14-1.556-1.538-2.716-3.876-2.716-2.267 0-3.849 1.195-3.849 2.927v.009c0 1.415.87 2.276 2.698 2.68l1.556.352c1.054.237 1.476.606 1.476 1.169v.017c0 .721-.756 1.213-1.846 1.213-1.089 0-1.731-.466-1.959-1.134l-.009-.017h-2.171v.017c.184 1.626 1.661 2.751 4.104 2.751Z" fill="#F0F6FC"/><path d="M187.818 29.313h1.141c-1.133-1.446-1.977-4.555-1.977-7.29 0-2.71.844-5.843 1.977-7.289h-1.141c-1.531 2.024-2.218 4.391-2.218 7.29 0 2.906.695 5.265 2.218 7.288Zm7.032-2.547c2.492 0 3.992-2.274 3.992-5.899v-.015c0-3.625-1.5-5.891-3.992-5.891-2.493 0-3.977 2.266-3.977 5.89v.016c0 3.625 1.484 5.899 3.977 5.899Zm0-1.227c-1.618 0-2.563-1.797-2.563-4.672v-.015c0-2.875.945-4.657 2.563-4.657 1.617 0 2.578 1.782 2.578 4.657v.015c0 2.875-.961 4.672-2.578 4.672Zm7.046 3.773c1.524-2.023 2.219-4.382 2.219-7.289 0-2.898-.687-5.265-2.219-7.289h-1.14c1.133 1.446 1.976 4.579 1.976 7.29 0 2.734-.843 5.843-1.976 7.288h1.14Z" fill="#B1BAC4"/><rect x="681.5" y=".5" width="118" height="35" rx="1.5" fill="#161B22"/><path d="M692.213 23h1.295v-6.722h.102L696.295 23h1.054l2.691-6.722h.095V23h1.295v-9.16h-1.638l-2.919 7.306h-.102l-2.92-7.306h-1.638V23Zm13.248.114c.914 0 1.638-.393 2.044-1.091h.108V23h1.365v-4.716c0-1.448-.978-2.31-2.711-2.31-1.568 0-2.653.755-2.818 1.884l-.007.045h1.327l.006-.026c.165-.488.667-.768 1.429-.768.933 0 1.409.42 1.409 1.175v.61l-1.866.107c-1.644.101-2.571.819-2.571 2.05v.013c0 1.25.971 2.05 2.285 2.05Zm-.914-2.107v-.013c0-.622.432-.965 1.384-1.022l1.682-.108v.59c0 .89-.756 1.562-1.784 1.562-.743 0-1.282-.374-1.282-1.01ZM710.92 23h1.377v-4.12c0-.996.718-1.644 1.771-1.644.261 0 .495.032.743.083v-1.27a3.034 3.034 0 0 0-.603-.063c-.92 0-1.562.431-1.809 1.162h-.102v-1.042h-1.377V23Zm5.268 0h1.378v-2.507l.59-.59L720.53 23h1.676l-3.066-3.986 2.876-2.908h-1.613l-2.736 2.908h-.101v-5.612h-1.378V23Zm12.721.114c.914 0 1.638-.393 2.044-1.091h.108V23h1.365v-4.716c0-1.448-.978-2.31-2.711-2.31-1.568 0-2.653.755-2.818 1.884l-.006.045h1.326l.007-.026c.165-.488.666-.768 1.428-.768.933 0 1.409.42 1.409 1.175v.61l-1.866.107c-1.644.101-2.571.819-2.571 2.05v.013c0 1.25.971 2.05 2.285 2.05Zm-.914-2.107v-.013c0-.622.432-.965 1.384-1.022l1.682-.108v.59c0 .89-.755 1.562-1.784 1.562-.742 0-1.282-.374-1.282-1.01ZM734.432 23h1.377v-9.598h-1.377V23Zm3.491 0h1.377v-9.598h-1.377V23Zm8.874.114c.914 0 1.638-.393 2.044-1.091h.108V23h1.364v-4.716c0-1.448-.977-2.31-2.71-2.31-1.568 0-2.653.755-2.818 1.884l-.007.045h1.327l.006-.026c.165-.488.667-.768 1.429-.768.933 0 1.409.42 1.409 1.175v.61l-1.866.107c-1.645.101-2.571.819-2.571 2.05v.013c0 1.25.971 2.05 2.285 2.05Zm-.914-2.107v-.013c0-.622.431-.965 1.384-1.022l1.682-.108v.59c0 .89-.756 1.562-1.784 1.562-.743 0-1.282-.374-1.282-1.01Zm8.88 2.126c1.638 0 2.857-.87 2.857-2.145v-.013c0-.997-.635-1.561-1.962-1.873l-1.092-.247c-.774-.184-1.091-.45-1.091-.882v-.013c0-.552.546-.927 1.301-.927.774 0 1.263.362 1.396.844v.013h1.314v-.006c-.12-1.124-1.13-1.91-2.704-1.91-1.561 0-2.678.862-2.678 2.062v.006c0 1.01.603 1.6 1.904 1.898l1.098.254c.8.184 1.123.476 1.123.908v.013c0 .565-.59.952-1.44.952-.819 0-1.321-.35-1.492-.87l-.006-.006h-1.378v.006c.133 1.155 1.187 1.936 2.85 1.936Zm8.055-.133h1.378v-4.12c0-.996.717-1.644 1.771-1.644.26 0 .495.032.742.083v-1.27a3.017 3.017 0 0 0-.603-.063c-.92 0-1.561.431-1.809 1.162h-.101v-1.042h-1.378V23Zm7.922.133c1.765 0 2.717-1.015 2.946-1.923l.012-.057-1.326.006-.026.051c-.165.355-.692.793-1.574.793-1.136 0-1.86-.768-1.885-2.088h4.887v-.482c0-2.07-1.18-3.46-3.104-3.46-1.923 0-3.167 1.441-3.167 3.593v.006c0 2.184 1.219 3.561 3.237 3.561Zm-.063-6.03c.933 0 1.625.597 1.733 1.828h-3.504c.12-1.187.831-1.828 1.771-1.828Zm6.627 6.011c.914 0 1.637-.393 2.044-1.091h.108V23h1.364v-4.716c0-1.448-.977-2.31-2.71-2.31-1.568 0-2.653.755-2.818 1.884l-.007.045h1.327l.006-.026c.165-.488.667-.768 1.428-.768.933 0 1.41.42 1.41 1.175v.61l-1.867.107c-1.644.101-2.57.819-2.57 2.05v.013c0 1.25.971 2.05 2.285 2.05Zm-.914-2.107v-.013c0-.622.431-.965 1.383-1.022l1.683-.108v.59c0 .89-.756 1.562-1.784 1.562-.743 0-1.282-.374-1.282-1.01Zm8.886 2.107c.965 0 1.721-.444 2.12-1.2h.108V23h1.371v-9.598h-1.371v3.796h-.108c-.368-.742-1.174-1.212-2.12-1.212-1.752 0-2.856 1.377-2.856 3.56v.014c0 2.164 1.123 3.554 2.856 3.554Zm.394-1.174c-1.155 0-1.847-.901-1.847-2.38v-.013c0-1.48.692-2.38 1.847-2.38 1.142 0 1.853.907 1.853 2.38v.013c0 1.472-.704 2.38-1.853 2.38Z" fill="#484F58"/><rect x="681.5" y=".5" width="118" height="35" rx="1.5" stroke="#21262D"/><rect x=".5" y="46.5" width="799" height="81" rx="3.5" fill="#161B22"/><rect x="20" y="66" width="6" height="6" rx="3" fill="#90A0FB"/><path fill="#484F58" d="M20 84h459v12H20z"/><path opacity=".4" fill="#484F58" d="M20 103h77v5H20z"/><rect x=".5" y="46.5" width="799" height="81" rx="3.5" stroke="#30363D"/><rect x=".5" y="138.5" width="799" height="81" rx="3.5" fill="#161B22"/><rect x="20" y="158" width="6" height="6" rx="3" fill="#90A0FB"/><path fill="#484F58" d="M20 176h459v12H20z"/><path opacity=".4" fill="#484F58" d="M20 195h77v5H20z"/><rect x=".5" y="138.5" width="799" height="81" rx="3.5" stroke="#30363D"/><rect x=".5" y="230.5" width="799" height="81" rx="3.5" fill="#161B22"/><rect x="20" y="250" width="6" height="6" rx="3" fill="#90A0FB"/><path fill="#484F58" d="M20 268h459v12H20z"/><path opacity=".4" fill="#484F58" d="M20 287h77v5H20z"/><rect x=".5" y="230.5" width="799" height="81" rx="3.5" stroke="#30363D"/></svg>