<svg width="817" height="436" fill="none" xmlns="http://www.w3.org/2000/svg"><g filter="url(#a)"><rect x="9" y="7" width="777" height="418" rx="10" fill="#161B22"/><rect x="9" y="7" width="777" height="418" rx="10" stroke="#30363D"/></g><path fill-rule="evenodd" clip-rule="evenodd" d="M56.335 80.969V82h-5.231v-.822l2.578-2.696c.344-.358.61-.653.8-.884.19-.23.324-.437.4-.62a1.49 1.49 0 0 0 .116-.59v-.012c0-.254-.055-.48-.164-.679a1.17 1.17 0 0 0-.47-.467 1.488 1.488 0 0 0-.73-.17c-.287 0-.54.06-.758.178a1.28 1.28 0 0 0-.51.494 1.46 1.46 0 0 0-.182.741v.022l-1.14-.006-.004-.01c.003-.473.118-.891.343-1.255.226-.363.54-.648.94-.854.401-.206.861-.309 1.38-.309.48 0 .91.094 1.287.282.378.188.676.448.894.78.219.33.328.71.328 1.135v.016c0 .294-.054.579-.161.854-.108.276-.293.579-.556.908-.263.33-.63.727-1.098 1.192l-1.645 1.641v.1h3.583Zm6.865 0V82h-5.232v-.822l2.578-2.696c.344-.358.61-.653.8-.884.19-.23.324-.437.4-.62a1.49 1.49 0 0 0 .116-.59v-.012c0-.254-.054-.48-.163-.679a1.17 1.17 0 0 0-.47-.467 1.488 1.488 0 0 0-.731-.17c-.286 0-.539.06-.757.178a1.28 1.28 0 0 0-.51.494 1.458 1.458 0 0 0-.183.741v.022l-1.139-.006-.005-.01c.003-.473.118-.891.344-1.255a2.33 2.33 0 0 1 .94-.854c.4-.206.86-.309 1.38-.309.48 0 .909.094 1.286.282.378.188.676.448.895.78.218.33.327.71.327 1.135v.016c0 .294-.053.579-.161.854-.107.276-.293.579-.556.908-.263.33-.63.727-1.098 1.192l-1.644 1.64v.101H63.2ZM55.986 107v-1.031h-3.583v-.1l1.644-1.64c.47-.466.836-.863 1.099-1.193.263-.329.448-.632.556-.908.107-.275.16-.56.16-.854v-.016c0-.426-.108-.804-.327-1.136a2.246 2.246 0 0 0-.894-.778 2.849 2.849 0 0 0-1.286-.282c-.52 0-.98.103-1.38.308-.402.206-.715.49-.94.854a2.368 2.368 0 0 0-.345 1.255l.006.01 1.139.006v-.022c0-.283.06-.53.182-.741.122-.211.292-.376.51-.494.219-.118.471-.177.758-.177.283 0 .526.056.73.169.204.113.36.268.47.467.11.199.164.425.164.679v.011c0 .211-.039.408-.116.591-.077.183-.21.389-.4.62-.19.231-.456.526-.8.884l-2.578 2.696V107h5.231Zm4.372.188c.598 0 1.11-.165 1.537-.494.426-.33.754-.798.985-1.405.231-.607.347-1.327.347-2.162v-.01c0-.835-.116-1.554-.347-2.159-.23-.606-.56-1.073-.986-1.402-.426-.33-.938-.495-1.536-.495-.598 0-1.11.165-1.536.495-.426.33-.754.796-.983 1.402-.229.605-.343 1.324-.343 2.159v.01c0 .835.114 1.555.343 2.162.23.607.557 1.075.983 1.405.426.329.938.494 1.536.494Zm-.883-1.375a1.2 1.2 0 0 0 .883.371c.348 0 .644-.124.89-.371.245-.247.433-.599.563-1.055.131-.457.196-1 .196-1.631v-.01c0-.631-.065-1.173-.196-1.628-.13-.454-.318-.805-.564-1.05a1.212 1.212 0 0 0-.889-.368c-.343 0-.638.123-.883.368s-.433.596-.564 1.05c-.13.455-.196.997-.196 1.628v.01c0 .631.065 1.174.196 1.631.13.456.319.808.564 1.055Zm-.798 47.195c.068-.375.178-.706.328-.994.15-.288.348-.516.593-.682.246-.167.54-.25.884-.25.243 0 .461.04.653.121a1.411 1.411 0 0 1 .798.846l.02.054h1.198l-.016-.065a2.353 2.353 0 0 0-.488-1.028 2.524 2.524 0 0 0-.919-.696 2.96 2.96 0 0 0-1.24-.252c-.638 0-1.186.165-1.644.496-.459.332-.81.808-1.053 1.429-.243.621-.365 1.369-.365 2.242v.011c0 .713.083 1.32.25 1.821.166.501.392.909.676 1.222.285.313.607.542.967.687.36.145.735.218 1.125.218.545 0 1.028-.116 1.45-.349a2.59 2.59 0 0 0 .997-.959c.242-.406.362-.869.362-1.388v-.011c0-.498-.108-.94-.325-1.327a2.406 2.406 0 0 0-.896-.915 2.544 2.544 0 0 0-1.314-.336c-.35 0-.662.054-.934.164a2.08 2.08 0 0 0-.685.432 1.963 1.963 0 0 0-.422.58l-.1.001.005-.193a6.38 6.38 0 0 1 .095-.879ZM55.32 158v-7.75h-1.203l-2.04 1.45v1.181l1.949-1.391h.086V158h1.208Zm4.292-1.047c.247.15.52.225.822.225.304 0 .579-.073.824-.22a1.646 1.646 0 0 0 .803-1.434v-.011c0-.319-.069-.6-.207-.846a1.526 1.526 0 0 0-.572-.58 1.631 1.631 0 0 0-.832-.212c-.308 0-.587.07-.836.209-.248.14-.445.331-.59.572a1.584 1.584 0 0 0-.218.83v.006l.009.185a1.67 1.67 0 0 0 .797 1.276Zm2.226-23.093c-.442.19-.95.285-1.523.285-.576 0-1.084-.095-1.525-.285a2.47 2.47 0 0 1-1.037-.792 1.902 1.902 0 0 1-.376-1.163v-.01c0-.326.073-.625.218-.897a2.01 2.01 0 0 1 .607-.691c.26-.188.558-.317.894-.389v-.027a2.121 2.121 0 0 1-1.044-.644 1.593 1.593 0 0 1-.395-1.075v-.01c0-.398.113-.751.34-1.058.228-.308.542-.552.943-.731.402-.179.86-.269 1.375-.269.516 0 .974.09 1.373.269.399.179.712.423.94.731.227.307.34.66.34 1.058v.01c0 .412-.13.77-.391 1.075a2.105 2.105 0 0 1-1.042.644v.027c.34.072.638.201.894.389s.456.418.602.691c.145.272.217.571.217.897v.01c0 .437-.124.825-.373 1.163-.25.338-.595.603-1.037.792Zm-6.571-7.61V134h-1.209v-6.51h-.086l-1.95 1.391V127.7l2.041-1.45h1.204Zm5.048 3.233a1.78 1.78 0 0 1-.762-.153 1.237 1.237 0 0 1-.513-.427 1.086 1.086 0 0 1-.185-.623v-.011c0-.236.061-.446.185-.628.123-.183.295-.325.515-.427a1.79 1.79 0 0 1 .76-.153c.287 0 .54.051.758.153.218.102.39.244.513.427.123.182.185.392.185.628v.011c0 .233-.06.44-.183.623a1.215 1.215 0 0 1-.513.427 1.79 1.79 0 0 1-.76.153Zm-.875 3.521c.254.116.546.174.875.174.33 0 .622-.058.876-.174a1.48 1.48 0 0 0 .599-.478c.145-.203.217-.435.217-.696v-.011a1.2 1.2 0 0 0-.215-.706 1.426 1.426 0 0 0-.598-.483 2.091 2.091 0 0 0-.879-.175c-.333 0-.626.058-.88.175a1.428 1.428 0 0 0-.597.483 1.205 1.205 0 0 0-.215.706v.011c0 .261.073.493.218.696.145.202.345.361.599.478ZM55.256 184v-7.75h-1.203l-2.041 1.45v1.181l1.95-1.391h.085V184h1.209Zm6.982 0v-1.536h1.07v-1.026h-1.07v-5.188h-1.724a172.497 172.497 0 0 0-1.3 2.016c-.218.346-.436.696-.652 1.05-.217.355-.432.709-.645 1.064a82.11 82.11 0 0 0-.626 1.058v1.026h3.782V184h1.165Zm-3.786-2.541h2.637v-4.189h-.07c-.168.251-.338.509-.51.776a139.694 139.694 0 0 0-1.053 1.662 64.075 64.075 0 0 0-1.004 1.676v.075Zm4.748 26.51V209h-5.232v-.822l2.578-2.696c.344-.358.61-.653.8-.884.19-.231.324-.437.4-.62a1.49 1.49 0 0 0 .116-.591v-.011c0-.254-.054-.48-.163-.679a1.168 1.168 0 0 0-.47-.467 1.486 1.486 0 0 0-.731-.169c-.286 0-.539.059-.757.177a1.279 1.279 0 0 0-.51.494 1.456 1.456 0 0 0-.183.741v.022l-1.139-.006-.005-.01c.003-.473.118-.891.344-1.255a2.33 2.33 0 0 1 .94-.854c.4-.206.86-.308 1.38-.308.48 0 .909.094 1.286.282.378.187.676.447.895.778.218.332.327.71.327 1.136v.016c0 .294-.053.579-.161.854-.107.276-.293.579-.556.908-.263.33-.63.727-1.098 1.193l-1.644 1.639v.101H63.2Zm-7.488-6.719V209h-1.208v-6.51h-.086l-1.95 1.391V202.7l2.041-1.45h1.203Zm4.646 33.938c.598 0 1.11-.165 1.537-.494.426-.33.754-.798.985-1.405.231-.607.347-1.327.347-2.162v-.01c0-.835-.116-1.554-.347-2.159-.23-.606-.56-1.073-.986-1.402-.426-.33-.938-.494-1.536-.494-.598 0-1.11.164-1.536.494-.426.329-.754.796-.983 1.402-.229.605-.343 1.324-.343 2.159v.01c0 .835.114 1.555.343 2.162.23.607.557 1.075.983 1.405.426.329.938.494 1.536.494ZM55.363 235v-7.75H54.16l-2.04 1.45v1.181l1.949-1.391h.086V235h1.208Zm4.112-1.187a1.2 1.2 0 0 0 .883.371c.348 0 .644-.124.89-.371.245-.247.433-.599.563-1.055.131-.457.196-1 .196-1.631v-.01c0-.631-.065-1.173-.196-1.628-.13-.454-.318-.805-.564-1.05a1.212 1.212 0 0 0-.889-.368c-.343 0-.638.123-.883.368s-.433.596-.564 1.05c-.13.455-.196.997-.196 1.628v.01c0 .631.065 1.174.196 1.631.13.456.319.808.564 1.055Zm.84 26.332c.573 0 1.08-.095 1.523-.285.442-.189.788-.454 1.037-.792a1.91 1.91 0 0 0 .373-1.163v-.01c0-.326-.072-.625-.217-.897a2.031 2.031 0 0 0-.602-.691 2.291 2.291 0 0 0-.894-.389v-.027c.433-.125.78-.34 1.042-.644a1.6 1.6 0 0 0 .392-1.075v-.01c0-.398-.114-.751-.341-1.058a2.315 2.315 0 0 0-.94-.731 3.322 3.322 0 0 0-1.373-.269c-.515 0-.973.09-1.375.269a2.313 2.313 0 0 0-.942.731c-.228.307-.341.66-.341 1.058v.01c0 .412.131.77.395 1.075.263.304.61.519 1.044.644v.027a2.338 2.338 0 0 0-.894.389 2.01 2.01 0 0 0-.607.691 1.877 1.877 0 0 0-.218.897v.01c0 .437.126.825.376 1.163.251.338.597.603 1.037.792.44.19.949.285 1.525.285Zm0-4.662a1.78 1.78 0 0 1-.762-.153 1.237 1.237 0 0 1-.513-.427 1.086 1.086 0 0 1-.185-.623v-.011c0-.236.061-.446.185-.628.123-.183.295-.325.515-.427a1.79 1.79 0 0 1 .76-.153c.287 0 .54.051.758.153.218.102.39.244.513.427.123.182.185.392.185.628v.011c0 .233-.06.44-.183.623a1.215 1.215 0 0 1-.513.427 1.79 1.79 0 0 1-.76.153Zm-.875 3.521c.254.116.546.174.875.174.33 0 .622-.058.876-.174a1.48 1.48 0 0 0 .599-.478c.145-.203.217-.435.217-.696v-.011a1.2 1.2 0 0 0-.215-.706 1.426 1.426 0 0 0-.598-.483 2.091 2.091 0 0 0-.879-.175c-.333 0-.626.058-.88.175a1.428 1.428 0 0 0-.597.483 1.205 1.205 0 0 0-.215.706v.011c0 .261.073.493.218.696.145.202.345.361.599.478Zm-.435 21.01c-.15.288-.26.619-.328.994a6.38 6.38 0 0 0-.095.879l-.005.193.1-.001c.097-.208.237-.401.422-.58a2.08 2.08 0 0 1 .685-.432c.272-.11.583-.164.934-.164.494 0 .932.112 1.313.336.382.223.68.529.898.915.216.387.324.829.324 1.327v.011c0 .519-.12.982-.362 1.388a2.589 2.589 0 0 1-.996.959c-.423.233-.906.349-1.45.349-.391 0-.766-.073-1.126-.218a2.63 2.63 0 0 1-.967-.687c-.284-.313-.51-.721-.676-1.222-.167-.501-.25-1.108-.25-1.821v-.011c0-.873.121-1.621.365-2.242s.594-1.097 1.053-1.429c.458-.331 1.006-.496 1.643-.496.459 0 .872.084 1.241.252.369.168.675.4.919.696.243.295.406.638.488 1.028l.016.065h-1.197l-.022-.054a1.427 1.427 0 0 0-.309-.513 1.412 1.412 0 0 0-.488-.333 1.662 1.662 0 0 0-.653-.121c-.344 0-.638.083-.884.25a1.824 1.824 0 0 0-.593.682Zm.607 4.939c.247.15.52.225.822.225.304 0 .579-.073.824-.22a1.646 1.646 0 0 0 .803-1.434v-.011c0-.319-.069-.6-.207-.846a1.526 1.526 0 0 0-.572-.58 1.631 1.631 0 0 0-.832-.212c-.308 0-.587.07-.836.209-.248.14-.445.331-.59.572a1.584 1.584 0 0 0-.218.83v.006l.009.185a1.67 1.67 0 0 0 .797 1.276Zm2.626 25.511V312h-1.165v-1.536H57.29v-1.026a98.45 98.45 0 0 1 1.27-2.121 114.727 114.727 0 0 1 1.952-3.067h1.725v5.188h1.07v1.026h-1.07Zm-3.786-1.004h2.637v-4.189h-.07c-.168.25-.338.509-.51.776a105.248 105.248 0 0 0-1.569 2.508c-.168.281-.33.558-.488.83v.075Z" fill="#B1BAC4"/><path d="M63.2 338v-1.031h-3.583v-.101l1.644-1.639c.469-.466.835-.863 1.098-1.193.263-.329.449-.632.556-.908.108-.275.161-.56.161-.854v-.016c0-.426-.109-.804-.328-1.136a2.236 2.236 0 0 0-.894-.778 2.848 2.848 0 0 0-1.286-.282c-.52 0-.98.102-1.38.308a2.339 2.339 0 0 0-.94.854c-.226.364-.34.782-.344 1.255l.005.01 1.139.006v-.022c0-.283.06-.53.182-.741.122-.211.292-.376.51-.494.22-.118.472-.177.758-.177.283 0 .526.056.73.169.205.113.361.268.47.467.11.199.164.425.164.679v.011c0 .211-.038.408-.115.591-.077.183-.21.389-.4.62-.19.231-.457.526-.8.884l-2.579 2.696V338H63.2Z" fill="#B1BAC4"/><path fill-rule="evenodd" clip-rule="evenodd" d="M61.895 361.694c-.427.329-.939.494-1.537.494s-1.11-.165-1.536-.494c-.426-.33-.754-.798-.983-1.405-.229-.607-.343-1.327-.343-2.162v-.01c0-.835.114-1.554.343-2.159.23-.606.557-1.073.983-1.402.426-.33.938-.494 1.536-.494.598 0 1.11.164 1.537.494.426.329.754.796.985 1.402.231.605.347 1.324.347 2.159v.01c0 .835-.116 1.555-.347 2.162-.23.607-.56 1.075-.986 1.405Zm-2.42-.881a1.2 1.2 0 0 0 .883.371c.348 0 .644-.124.89-.371.245-.247.433-.599.563-1.055.131-.457.196-1 .196-1.631v-.01c0-.631-.065-1.173-.196-1.628-.13-.454-.318-.805-.564-1.05a1.212 1.212 0 0 0-.889-.368c-.343 0-.638.123-.883.368s-.433.596-.564 1.05c-.13.455-.196.997-.196 1.628v.01c0 .631.065 1.174.196 1.631.13.456.319.808.564 1.055Zm38.363 21.047c-.442.19-.95.285-1.523.285-.576 0-1.084-.095-1.525-.285a2.47 2.47 0 0 1-1.037-.792 1.902 1.902 0 0 1-.376-1.163v-.01c0-.326.073-.625.218-.897a2.01 2.01 0 0 1 .607-.691c.26-.188.558-.317.894-.389v-.027a2.121 2.121 0 0 1-1.044-.644 1.593 1.593 0 0 1-.395-1.075v-.01c0-.398.113-.751.34-1.058.228-.308.542-.552.943-.731.401-.179.86-.269 1.375-.269.516 0 .974.09 1.373.269.399.179.712.423.94.731.227.307.34.66.34 1.058v.01c0 .412-.13.77-.391 1.075a2.105 2.105 0 0 1-1.042.644v.027c.34.072.638.201.894.389s.456.418.602.691c.144.272.217.571.217.897v.01c0 .437-.124.825-.373 1.163-.25.338-.595.603-1.037.792Zm-24.586.328c.763 0 1.357-.213 1.783-.639.426-.426.64-1.022.64-1.789v-5.51h-1.21v5.5c0 .444-.103.781-.31 1.012-.208.231-.511.346-.908.346-.24 0-.442-.046-.605-.139a.989.989 0 0 1-.378-.379 1.318 1.318 0 0 1-.161-.534v-.043H70.91l.005.064c.022.408.127.772.315 1.09.188.319.453.569.795.75.342.181.75.271 1.227.271Zm5.86-.091c.258 0 .496-.036.714-.108a1.792 1.792 0 0 0 1.015-.816h.086V382h1.16v-3.991c0-.408-.088-.758-.266-1.05a1.711 1.711 0 0 0-.778-.671c-.342-.156-.759-.234-1.25-.234-.44 0-.83.066-1.173.199a2.073 2.073 0 0 0-.827.556c-.21.238-.337.518-.384.84l-.005.038h1.122l.011-.016a.839.839 0 0 1 .411-.483c.206-.115.472-.172.798-.172.39 0 .684.085.883.255.199.17.298.416.298.738v.514l-1.574.093c-.694.043-1.23.212-1.608.508-.378.295-.567.704-.567 1.227v.011c0 .351.084.657.253.918.168.262.398.463.69.605.292.141.622.212.99.212Zm-.462-1.158c.204.152.462.228.773.228.29 0 .55-.058.776-.174.228-.116.406-.274.535-.473.129-.198.193-.423.193-.674v-.499l-1.412.091c-.401.025-.697.11-.887.255-.19.145-.284.348-.284.61v.01c0 .265.102.474.306.626ZM84.96 382v-3.421c0-.315.057-.587.17-.814.113-.227.273-.403.48-.526.209-.124.454-.186.737-.186.43 0 .745.119.948.357.202.239.303.601.303 1.088V382h1.171v-3.776c0-.695-.174-1.23-.521-1.606-.347-.376-.849-.564-1.504-.564-.426 0-.779.088-1.058.263-.28.176-.49.419-.634.731h-.091v-.881h-1.166V382h1.166Zm11.355-4.517a1.78 1.78 0 0 1-.762-.153 1.237 1.237 0 0 1-.513-.427 1.086 1.086 0 0 1-.186-.623v-.011c0-.236.062-.446.186-.628.123-.183.295-.325.515-.427a1.79 1.79 0 0 1 .76-.153c.287 0 .54.051.758.153.218.102.39.244.513.427.123.182.185.392.185.628v.011c0 .233-.06.44-.183.623a1.215 1.215 0 0 1-.513.427 1.79 1.79 0 0 1-.76.153Zm-.875 3.521c.254.116.546.174.875.174.33 0 .622-.058.876-.174a1.48 1.48 0 0 0 .599-.478c.145-.203.217-.435.217-.696v-.011a1.2 1.2 0 0 0-.215-.706 1.426 1.426 0 0 0-.598-.483 2.091 2.091 0 0 0-.879-.175c-.333 0-.626.058-.88.175a1.428 1.428 0 0 0-.597.483 1.206 1.206 0 0 0-.214.706v.011c0 .261.072.493.217.696.145.202.345.361.599.478Zm109.918 1.184c.598 0 1.11-.165 1.537-.494.426-.33.754-.798.985-1.405.231-.607.347-1.327.347-2.162v-.01c0-.835-.116-1.554-.347-2.159-.231-.606-.559-1.073-.985-1.402-.427-.33-.939-.494-1.537-.494s-1.11.164-1.536.494c-.426.329-.753.796-.983 1.402-.229.605-.343 1.324-.343 2.159v.01c0 .835.114 1.555.343 2.162.23.607.557 1.075.983 1.405.426.329.938.494 1.536.494Zm-28.37 0c.763 0 1.357-.213 1.783-.639.427-.426.64-1.022.64-1.789v-5.51h-1.209v5.5c0 .444-.104.781-.311 1.012-.208.231-.511.346-.908.346-.24 0-.441-.046-.604-.139a.993.993 0 0 1-.379-.379 1.312 1.312 0 0 1-.161-.534v-.043h-1.193l.006.064c.021.408.126.772.314 1.09.188.319.453.569.795.75.342.181.751.271 1.227.271Zm5.86-.091c.258 0 .496-.036.714-.108a1.798 1.798 0 0 0 1.016-.816h.086V382h1.16v-3.991c0-.408-.089-.758-.266-1.05a1.71 1.71 0 0 0-.779-.671c-.342-.156-.758-.234-1.249-.234-.44 0-.831.066-1.173.199a2.069 2.069 0 0 0-.827.556 1.58 1.58 0 0 0-.384.84l-.006.038h1.123l.01-.016a.838.838 0 0 1 .411-.483c.206-.115.472-.172.798-.172.39 0 .685.085.883.255.199.17.299.416.299.738l-.001.514-1.573.093c-.695.043-1.231.212-1.609.508-.378.295-.566.704-.566 1.227v.011c0 .351.084.657.252.918.168.262.398.463.69.605.292.141.622.212.991.212Zm-.462-1.158c.204.152.462.228.774.228.29 0 .548-.058.776-.174.227-.116.405-.274.534-.473.129-.198.194-.423.194-.674l-.001-.499-1.412.091c-.401.025-.696.11-.886.255-.19.145-.285.348-.285.61v.01c0 .265.102.474.306.626Zm6.311 1.061v-3.421c0-.315.057-.587.169-.814.113-.227.273-.403.481-.526a1.41 1.41 0 0 1 .736-.186c.43 0 .746.119.948.357.202.239.303.601.303 1.088V382h1.171v-3.776c0-.695-.173-1.23-.521-1.606-.347-.376-.848-.564-1.504-.564-.426 0-.778.088-1.058.263a1.66 1.66 0 0 0-.633.731h-.092v-.881h-1.165V382h1.165Zm11.666-7.75V382h-1.208v-6.51h-.086l-1.95 1.391V375.7l2.041-1.45h1.203Zm4.112 6.563a1.2 1.2 0 0 0 .883.371c.348 0 .644-.124.889-.371.246-.247.434-.599.564-1.055.131-.457.196-1 .196-1.631v-.01c0-.631-.065-1.173-.196-1.628-.13-.454-.318-.805-.564-1.05a1.21 1.21 0 0 0-.889-.368c-.343 0-.638.123-.883.368s-.433.596-.564 1.05c-.131.455-.196.997-.196 1.628v.01c0 .631.065 1.174.196 1.631.131.456.319.808.564 1.055Zm111.725.156V382h-5.232v-.822l2.578-2.696c.344-.358.611-.653.801-.884a2.65 2.65 0 0 0 .4-.62c.077-.183.115-.38.115-.591v-.011c0-.254-.054-.48-.164-.679a1.165 1.165 0 0 0-.469-.467 1.49 1.49 0 0 0-.731-.169c-.286 0-.539.059-.757.177a1.28 1.28 0 0 0-.511.494 1.464 1.464 0 0 0-.182.741v.022l-1.139-.006-.005-.01c.003-.473.118-.891.344-1.255a2.33 2.33 0 0 1 .94-.854c.401-.206.861-.308 1.38-.308.48 0 .908.094 1.286.282.378.187.676.447.895.778.218.332.327.71.327 1.136v.016c0 .294-.054.579-.161.854-.107.276-.293.579-.556.908-.263.33-.629.727-1.098 1.193l-1.644 1.639v.101h3.583Zm-29.079.58c-.427.426-1.021.639-1.784.639-.476 0-.885-.09-1.227-.271a1.97 1.97 0 0 1-.795-.75 2.347 2.347 0 0 1-.314-1.09l-.005-.064h1.192v.043c.018.197.072.375.161.534.09.159.216.286.379.379.163.093.364.139.604.139.397 0 .7-.115.908-.346.207-.231.311-.568.311-1.012v-5.5h1.209v5.51c0 .767-.213 1.363-.639 1.789Zm4.791.44a2.276 2.276 0 0 1-.715.108 2.25 2.25 0 0 1-.991-.212 1.664 1.664 0 0 1-.69-.605 1.659 1.659 0 0 1-.252-.918v-.011c0-.523.189-.932.566-1.227.378-.296.914-.465 1.609-.508l1.573-.093.001-.514c0-.322-.1-.568-.298-.738-.199-.17-.494-.255-.884-.255-.326 0-.592.057-.798.172a.84.84 0 0 0-.41.483l-.011.016h-1.123l.006-.038a1.58 1.58 0 0 1 .384-.84c.209-.238.485-.424.827-.556a3.22 3.22 0 0 1 1.173-.199c.491 0 .907.078 1.249.234.342.156.602.379.779.671.177.292.266.642.266 1.05V382h-1.16v-.827h-.086a1.798 1.798 0 0 1-1.015.816Zm-.403-.822c-.312 0-.57-.076-.774-.228a.738.738 0 0 1-.306-.626v-.01c0-.262.095-.465.285-.61.19-.145.485-.23.886-.255l1.412-.091.001.499c0 .251-.065.476-.194.674a1.358 1.358 0 0 1-.534.473 1.682 1.682 0 0 1-.776.174Zm5.537-2.588V382h-1.165v-5.833h1.165v.881h.092a1.66 1.66 0 0 1 .633-.731c.28-.175.632-.263 1.059-.263.655 0 1.156.188 1.503.564.348.376.521.911.521 1.606V382h-1.17v-3.502c0-.487-.102-.849-.304-1.088-.202-.238-.518-.357-.948-.357a1.41 1.41 0 0 0-.736.186 1.231 1.231 0 0 0-.48.526 1.81 1.81 0 0 0-.17.814ZM308.712 382v-7.75h-1.203l-2.041 1.45v1.181l1.95-1.391h.086V382h1.208Zm85.669.188c.763 0 1.357-.213 1.783-.639.426-.426.639-1.022.639-1.788v-5.511h-1.208v5.5c0 .444-.104.781-.312 1.012-.207.231-.51.347-.908.347-.239 0-.441-.047-.604-.14a.98.98 0 0 1-.378-.378 1.322 1.322 0 0 1-.162-.535v-.043h-1.192l.005.065c.022.408.127.771.315 1.09.188.319.453.568.795.749.342.181.751.271 1.227.271Zm5.86-.091c.258 0 .496-.036.714-.107a1.8 1.8 0 0 0 1.015-.817h.086V382h1.16v-3.99c0-.408-.088-.758-.266-1.05a1.71 1.71 0 0 0-.778-.672c-.342-.155-.759-.233-1.249-.233-.441 0-.832.066-1.174.198a2.086 2.086 0 0 0-.827.556 1.597 1.597 0 0 0-.384.841l-.005.038h1.122l.011-.017a.844.844 0 0 1 .411-.483c.206-.115.472-.172.798-.172.39 0 .684.085.883.255.199.17.298.417.298.739v.513l-1.574.094c-.694.043-1.23.212-1.608.507-.378.296-.567.705-.567 1.228v.01c0 .351.084.657.253.919.168.261.398.463.69.604.292.141.622.212.991.212Zm-.462-1.157c.204.152.462.228.773.228.29 0 .549-.058.776-.175a1.36 1.36 0 0 0 .535-.472c.129-.199.193-.424.193-.674v-.5l-1.412.091c-.401.026-.697.111-.887.256-.189.145-.284.348-.284.609v.011c0 .265.102.474.306.626Zm6.311 1.06v-3.421c0-.315.056-.586.169-.814.113-.227.273-.402.481-.526.207-.124.453-.185.736-.185.429 0 .745.119.948.357.202.238.303.601.303 1.088V382h1.171v-3.775c0-.695-.174-1.23-.521-1.606-.347-.376-.849-.564-1.504-.564-.426 0-.779.087-1.058.263a1.66 1.66 0 0 0-.634.73h-.091v-.881h-1.166V382h1.166Zm11.666-7.75V382h-1.209v-6.509h-.086l-1.949 1.391V375.7l2.041-1.45h1.203Zm6.982 7.75v-1.536h1.069v-1.026h-1.069v-5.188h-1.724a163.416 163.416 0 0 0-1.3 2.017 73.01 73.01 0 0 0-.652 1.05 96.684 96.684 0 0 0-1.27 2.121v1.026h3.781V382h1.165Zm-3.786-2.54h2.637v-4.189h-.07a94.521 94.521 0 0 0-2.079 3.284 62.79 62.79 0 0 0-.488.83v.075Zm104.725-2.452c.068-.375.177-.706.328-.994.15-.288.348-.516.593-.682.246-.167.54-.25.884-.25.243 0 .461.04.653.121.191.08.354.191.488.333.135.141.238.312.309.513l.022.054h1.197l-.016-.065a2.344 2.344 0 0 0-.489-1.028 2.516 2.516 0 0 0-.918-.696 2.96 2.96 0 0 0-1.241-.252c-.637 0-1.185.165-1.643.496-.459.332-.809.808-1.053 1.429-.243.621-.365 1.369-.365 2.242v.011c0 .713.083 1.32.25 1.821.166.501.392.909.676 1.222.285.313.607.542.967.687.36.145.735.218 1.125.218.545 0 1.028-.116 1.451-.349.422-.233.754-.552.996-.959.242-.406.362-.869.362-1.388v-.011c0-.498-.108-.94-.325-1.327a2.396 2.396 0 0 0-.897-.915 2.543 2.543 0 0 0-1.313-.336c-.351 0-.662.054-.934.164a2.077 2.077 0 0 0-.685.432 1.959 1.959 0 0 0-.422.58l-.1.001.005-.193c.012-.306.044-.599.095-.879Zm-26.732 5.18c.763 0 1.357-.213 1.784-.639.426-.426.639-1.022.639-1.789v-5.51h-1.209v5.5c0 .444-.104.781-.311 1.012-.208.231-.511.346-.908.346-.24 0-.441-.046-.604-.139a.993.993 0 0 1-.379-.379 1.328 1.328 0 0 1-.161-.534v-.043h-1.192l.005.064c.021.408.126.772.314 1.09.188.319.453.569.795.75.342.181.751.271 1.227.271Zm5.86-.091c.258 0 .496-.036.715-.108a1.798 1.798 0 0 0 1.015-.816h.086V382h1.16v-3.991c0-.408-.089-.758-.266-1.05a1.71 1.71 0 0 0-.779-.671c-.342-.156-.758-.234-1.249-.234-.44 0-.831.066-1.173.199a2.069 2.069 0 0 0-.827.556 1.58 1.58 0 0 0-.384.84l-.006.038h1.123l.01-.016a.842.842 0 0 1 .411-.483c.206-.115.472-.172.798-.172.39 0 .685.085.884.255.198.17.298.416.298.738l-.001.514-1.573.093c-.695.043-1.231.212-1.609.508-.378.295-.566.704-.566 1.227v.011c0 .351.084.657.252.918.168.262.398.463.69.605.292.141.622.212.991.212Zm-.462-1.158c.204.152.462.228.774.228.29 0 .548-.058.776-.174.227-.116.405-.274.534-.473.129-.198.194-.423.194-.674l-.001-.499-1.412.091c-.401.025-.696.11-.886.255-.19.145-.285.348-.285.61v.01c0 .265.102.474.306.626Zm6.311 1.061v-3.421c0-.315.057-.587.169-.814a1.24 1.24 0 0 1 .481-.526 1.41 1.41 0 0 1 .736-.186c.43 0 .746.119.948.357.202.239.304.601.304 1.088V382h1.17v-3.776c0-.695-.173-1.23-.521-1.606-.347-.376-.848-.564-1.503-.564-.427 0-.779.088-1.059.263a1.66 1.66 0 0 0-.633.731h-.092v-.881h-1.165V382h1.165Zm11.666-7.75V382h-1.208v-6.51h-.086l-1.95 1.391V375.7l2.041-1.45h1.203Zm4.292 6.703c.247.15.521.225.822.225.304 0 .579-.073.824-.22a1.644 1.644 0 0 0 .803-1.434v-.011c0-.319-.069-.6-.207-.846a1.524 1.524 0 0 0-.572-.58 1.63 1.63 0 0 0-.832-.212c-.308 0-.587.07-.835.209-.249.14-.446.331-.591.572a1.584 1.584 0 0 0-.218.83v.006l.009.185a1.67 1.67 0 0 0 .797 1.276Zm105.226.907c-.442.19-.95.285-1.523.285-.576 0-1.085-.095-1.525-.285a2.475 2.475 0 0 1-1.037-.792 1.906 1.906 0 0 1-.376-1.163v-.01c0-.326.073-.625.218-.897.145-.273.347-.503.607-.691.26-.188.558-.317.894-.389v-.027a2.12 2.12 0 0 1-1.044-.644 1.589 1.589 0 0 1-.395-1.075v-.01c0-.398.113-.751.341-1.058.227-.308.541-.552.942-.731.401-.179.86-.269 1.375-.269.516 0 .973.09 1.373.269.399.179.712.423.94.731.227.307.341.66.341 1.058v.01c0 .412-.131.77-.392 1.075a2.109 2.109 0 0 1-1.042.644v.027c.34.072.638.201.894.389s.456.418.602.691c.145.272.217.571.217.897v.01c0 .437-.124.825-.373 1.163-.249.338-.595.603-1.037.792Zm-28.163-.311c-.426.426-1.021.639-1.783.639-.477 0-.886-.09-1.228-.271a1.97 1.97 0 0 1-.795-.75 2.359 2.359 0 0 1-.314-1.09l-.005-.064h1.192v.043c.018.197.072.375.161.534.09.159.216.286.379.379.163.093.364.139.604.139.398 0 .7-.115.908-.346.208-.231.311-.568.311-1.012v-5.5h1.209v5.51c0 .767-.213 1.363-.639 1.789Zm4.791.44a2.276 2.276 0 0 1-.715.108c-.368 0-.699-.071-.991-.212a1.677 1.677 0 0 1-.69-.605 1.659 1.659 0 0 1-.252-.918v-.011c0-.523.189-.932.567-1.227.377-.296.914-.465 1.608-.508l1.573-.093.001-.514c0-.322-.099-.568-.298-.738-.199-.17-.493-.255-.884-.255-.326 0-.591.057-.797.172a.838.838 0 0 0-.411.483l-.011.016h-1.123l.006-.038a1.58 1.58 0 0 1 .384-.84c.209-.238.485-.424.827-.556a3.221 3.221 0 0 1 1.174-.199c.49 0 .906.078 1.248.234.342.156.602.379.779.671.177.292.266.642.266 1.05V382h-1.16v-.827h-.086a1.798 1.798 0 0 1-1.015.816Zm-.403-.822c-.312 0-.569-.076-.773-.228a.737.737 0 0 1-.307-.626v-.01c0-.262.095-.465.285-.61.19-.145.485-.23.886-.255l1.412-.091.001.499c0 .251-.065.476-.193.674a1.36 1.36 0 0 1-.535.473 1.682 1.682 0 0 1-.776.174Zm5.538-2.588V382h-1.166v-5.833h1.166v.881h.091c.143-.312.354-.555.634-.731.279-.175.632-.263 1.058-.263.655 0 1.156.188 1.504.564.347.376.521.911.521 1.606V382h-1.171v-3.502c0-.487-.101-.849-.304-1.088-.202-.238-.518-.357-.948-.357a1.41 1.41 0 0 0-.736.186 1.237 1.237 0 0 0-.48.526 1.81 1.81 0 0 0-.169.814ZM625.267 382v-7.75h-1.204l-2.041 1.45v1.181l1.95-1.391h.086V382h1.209Zm5.048-4.517a1.78 1.78 0 0 1-.762-.153 1.23 1.23 0 0 1-.513-.427 1.083 1.083 0 0 1-.186-.623v-.011c0-.236.062-.446.186-.628.123-.183.295-.325.515-.427.221-.102.474-.153.76-.153.287 0 .539.051.758.153.218.102.389.244.513.427.123.182.185.392.185.628v.011c0 .233-.061.44-.183.623a1.206 1.206 0 0 1-.513.427c-.22.102-.473.153-.76.153Zm-.875 3.521c.254.116.546.174.875.174.33 0 .622-.058.876-.174a1.48 1.48 0 0 0 .599-.478c.145-.203.217-.435.217-.696v-.011a1.2 1.2 0 0 0-.215-.706 1.422 1.422 0 0 0-.598-.483 2.093 2.093 0 0 0-.879-.175c-.333 0-.626.058-.88.175a1.431 1.431 0 0 0-.597.483 1.207 1.207 0 0 0-.214.706v.011c0 .261.072.493.217.696.145.202.345.361.599.478Zm108.546-.035V382h-5.231v-.822l2.578-2.696c.344-.358.611-.653.8-.884.19-.231.323-.437.4-.62.077-.183.116-.38.116-.591v-.011c0-.254-.055-.48-.164-.679a1.167 1.167 0 0 0-.47-.467 1.483 1.483 0 0 0-.73-.169c-.287 0-.539.059-.758.177a1.283 1.283 0 0 0-.51.494 1.454 1.454 0 0 0-.183.741v.022l-1.138-.006-.006-.01c.004-.473.119-.891.344-1.255.226-.363.539-.648.94-.854.401-.206.861-.308 1.38-.308.48 0 .909.094 1.287.282.378.187.676.447.894.778.219.332.328.71.328 1.136v.016c0 .294-.054.579-.161.854-.108.276-.293.579-.556.908-.263.33-.63.727-1.099 1.193l-1.644 1.64v.1h3.583Zm-25.502 1.219c.763 0 1.357-.213 1.784-.639.426-.426.639-1.022.639-1.789v-5.51h-1.209v5.5c0 .444-.104.781-.311 1.012-.208.231-.511.346-.908.346-.24 0-.441-.046-.604-.139a.993.993 0 0 1-.379-.379 1.328 1.328 0 0 1-.161-.534v-.043h-1.192l.005.064c.021.408.126.772.314 1.09.188.319.453.569.795.75.342.181.751.271 1.227.271Zm5.86-.091c.258 0 .496-.036.715-.108a1.798 1.798 0 0 0 1.015-.816h.086V382h1.16v-3.991c0-.408-.089-.758-.266-1.05a1.71 1.71 0 0 0-.779-.671c-.342-.156-.758-.234-1.249-.234-.44 0-.831.066-1.173.199a2.069 2.069 0 0 0-.827.556 1.58 1.58 0 0 0-.384.84l-.006.038h1.123l.011-.016a.84.84 0 0 1 .41-.483c.206-.115.472-.172.798-.172.39 0 .685.085.884.255.198.17.298.416.298.738l-.001.514-1.573.093c-.695.043-1.231.212-1.609.508-.377.295-.566.704-.566 1.227v.011c0 .351.084.657.252.918.168.262.398.463.69.605.292.141.622.212.991.212Zm-.462-1.158c.204.152.462.228.774.228.29 0 .549-.058.776-.174.227-.116.405-.274.534-.473.129-.198.194-.423.194-.674l-.001-.499-1.412.091c-.401.025-.696.11-.886.255-.19.145-.285.348-.285.61v.01c0 .265.102.474.306.626Zm6.311 1.061v-3.421c0-.315.057-.587.17-.814.112-.227.273-.403.48-.526a1.41 1.41 0 0 1 .736-.186c.43 0 .746.119.948.357.202.239.304.601.304 1.088V382h1.17v-3.776c0-.695-.173-1.23-.521-1.606-.347-.376-.848-.564-1.503-.564-.427 0-.779.088-1.059.263a1.66 1.66 0 0 0-.633.731h-.092v-.881h-1.165V382h1.165Zm18.165.188c.598 0 1.11-.165 1.537-.494.426-.33.754-.798.985-1.405.231-.607.347-1.327.347-2.162v-.01c0-.835-.116-1.554-.347-2.159-.231-.606-.559-1.073-.985-1.402-.427-.33-.939-.494-1.537-.494s-1.11.164-1.536.494c-.426.329-.753.796-.983 1.402-.229.605-.343 1.324-.343 2.159v.01c0 .835.114 1.555.343 2.162.23.607.557 1.075.983 1.405.426.329.938.494 1.536.494Zm-.883-1.375a1.2 1.2 0 0 0 .883.371c.348 0 .644-.124.889-.371.246-.247.434-.599.564-1.055.131-.457.196-1 .196-1.631v-.01c0-.631-.065-1.173-.196-1.628-.13-.454-.318-.805-.564-1.05a1.21 1.21 0 0 0-.889-.368c-.343 0-.638.123-.883.368s-.433.596-.564 1.05c-.131.455-.196.997-.196 1.628v.01c0 .631.065 1.174.196 1.631.131.456.319.808.564 1.055Z" fill="#B1BAC4"/><path d="M73 82h667M73 122h667M73 162h667M73 202h667M73 242h667M73 282h667M73 322h667M73 362h667" stroke="#30363D"/><path fill-rule="evenodd" clip-rule="evenodd" d="M73 136.56h76.557V98.887h139.738V81h160.994v27.574h43.869l-.658 27.986H450V122l-160.705-1v29.887H149l.557 51.859H73V136.56Z" fill="url(#b)"/><path fill-rule="evenodd" clip-rule="evenodd" d="M73 202.559h76.557v-51.672h139.738V120h160.994v14.573h43.869v227.915H73V202.559Z" fill="url(#c)"/><path d="M739.958 108.999H449.611V81H288.346v16.815H149.153v35.832l.019 3.352H74" stroke="#90A0FB" stroke-width="2" stroke-linecap="round"/><circle opacity=".01" r="5" transform="matrix(1 0 0 -1 628.5 109)" fill="#F1C647" stroke="#fff" stroke-width="2"/><rect x="465" y="47" width="56" height="26" rx="2" fill="#0C9F72"/><path fill-rule="evenodd" clip-rule="evenodd" d="M494.851 63.831c-.39.813-1.19 1.285-2.249 1.285-1.88 0-3.056-1.47-3.056-3.876v-.013c0-2.42 1.148-3.876 3.056-3.876 1.032 0 1.873.505 2.249 1.326h.123v-4.081h1.996V65h-1.996v-1.169h-.123Zm-18.198-6.993V65h-2.064v-8.162h-2.96v-1.702h7.984v1.702h-2.96Zm11.642 4.402c0 2.454-1.395 3.917-3.712 3.917s-3.712-1.47-3.712-3.917v-.013c0-2.427 1.415-3.917 3.712-3.917s3.712 1.483 3.712 3.917v.013Zm-3.712 2.352c-1.066 0-1.668-.868-1.668-2.352v-.013c0-1.47.608-2.352 1.668-2.352 1.053 0 1.668.882 1.668 2.352v.013c0 1.484-.608 2.352-1.668 2.352Zm8.695-.13c-1.052 0-1.702-.834-1.702-2.222v-.013c0-1.374.65-2.222 1.702-2.222 1.053 0 1.716.847 1.716 2.228v.014c0 1.38-.656 2.215-1.716 2.215Zm9.967.54c-.383.697-1.176 1.114-2.16 1.114-1.436 0-2.454-.888-2.454-2.256v-.013c0-1.354 1.046-2.147 2.919-2.256l1.818-.11v-.622c0-.649-.444-1.018-1.264-1.018-.718 0-1.176.253-1.333.697l-.014.027h-1.846l.007-.061c.157-1.32 1.401-2.194 3.295-2.194 1.996 0 3.124.943 3.124 2.55V65h-1.969v-.998h-.123Zm-1.49-.342c-.691 0-1.176-.348-1.176-.923v-.013c0-.547.417-.868 1.272-.923l1.517-.096v.554c0 .793-.69 1.401-1.613 1.401Zm9.953 1.333c-.67 1.99-1.661 2.66-3.52 2.66-.233 0-.486-.008-.718-.021v-1.504c.136.014.335.02.519.02.711 0 1.121-.273 1.265-.86l.068-.288-2.645-7.526h2.194l1.579 5.7h.137l1.579-5.7h2.105l-2.563 7.52Z" fill="#fff"/><path d="m493 72 .5 290.5" stroke="#0C9F72" stroke-width="2" stroke-linecap="square"/><path d="M74 202.692h75.399V151.02h139.739V121h160.994v15.669h289.791" stroke="#90A0FB" stroke-width="2" stroke-linecap="round"/><path opacity=".01" d="M629 361V105" stroke="#F1C647" stroke-width="2" stroke-linecap="round" stroke-linejoin="round" stroke-dasharray="2 4"/><path opacity=".8" fill-rule="evenodd" clip-rule="evenodd" d="M149.399 362.489v-38.498h139.838v-17.422h45.241v-37.118h159.681v-45.89V362.65l-344.76-.161Z" fill="url(#d)"/><path opacity=".8" fill-rule="evenodd" clip-rule="evenodd" d="M149.399 362.489v-38.498h139.838v-17.422h45.241v-37.118h159.681v-45.89V362.65l-344.76-.161Z" fill="url(#e)"/><circle r="5" transform="matrix(1 0 0 -1 149 150)" fill="#4660F9" stroke="#fff" stroke-width="2"/><circle r="5" transform="matrix(1 0 0 -1 149 98)" fill="#B5BFFD" stroke="#fff" stroke-width="2"/><circle r="5" transform="matrix(1 0 0 -1 289 120)" fill="#4660F9" stroke="#fff" stroke-width="2"/><circle r="5" transform="matrix(1 0 0 -1 289 81)" fill="#B5BFFD" stroke="#fff" stroke-width="2"/><circle r="5" transform="matrix(1 0 0 -1 450 135)" fill="#4660F9" stroke="#fff" stroke-width="2"/><circle r="5" transform="matrix(1 0 0 -1 450 109)" fill="#B5BFFD" stroke="#fff" stroke-width="2"/><path d="M74 361.449h75.399v-37.458h139.739v-17.422h45.209v-37.118h158.809v-45.89" stroke="#90A0FB" stroke-width="2" stroke-linecap="round"/><circle r="5" transform="matrix(1 0 0 -1 149.4 324)" fill="#2A44DD" stroke="#fff" stroke-width="2"/><circle r="5" transform="matrix(1 0 0 -1 290 307)" fill="#2A44DD" stroke="#fff" stroke-width="2"/><circle r="5" transform="matrix(1 0 0 -1 335 270)" fill="#2A44DD" stroke="#fff" stroke-width="2"/><circle r="5" transform="matrix(1 0 0 -1 493 223)" fill="#2A44DD" stroke="#fff" stroke-width="2"/><path opacity=".01" d="M73 359.833 628 110" stroke="#F1C647" stroke-width="2" stroke-linecap="round" stroke-linejoin="round" stroke-dasharray="2 4"/><path opacity=".01" d="M73 359.833 739 70m1 291V105" stroke="#2A44DD" stroke-width="2" stroke-linecap="round" stroke-linejoin="round" stroke-dasharray="2 4"/><circle opacity=".01" r="5" transform="matrix(1 0 0 -1 740 109)" fill="#2A44DD" stroke="#fff" stroke-width="2"/><g filter="url(#f)"><rect x="656.5" y="37.5" width="144" height="179" rx="9.5" fill="#30363D" stroke="#30363D"/><rect x="676" y="181" width="22" height="16" rx="8" fill="#4660F9"/><path fill-rule="evenodd" clip-rule="evenodd" d="M687 193.17c1.945 0 3.299-1.008 3.299-2.455v-.012c0-1.084-.785-1.922-1.916-2.15v-.035c.967-.258 1.611-.967 1.611-1.875v-.012c0-1.301-1.242-2.256-2.994-2.256-1.752 0-2.994.955-2.994 2.256v.012c0 .908.644 1.617 1.611 1.875v.035c-1.125.228-1.916 1.066-1.916 2.15v.012c0 1.447 1.354 2.455 3.299 2.455Zm0-5.133c-.885 0-1.5-.516-1.5-1.254v-.012c0-.738.615-1.253 1.5-1.253s1.5.515 1.5 1.253v.012c0 .738-.615 1.254-1.5 1.254Zm-1.734 2.578c0 .815.72 1.401 1.734 1.401s1.734-.586 1.734-1.401v-.011c0-.821-.714-1.413-1.734-1.413-1.025 0-1.734.592-1.734 1.413v.011Z" fill="#fff"/><path fill-rule="evenodd" clip-rule="evenodd" d="M734.521 166.721a.561.561 0 0 0 .415-.174.569.569 0 0 0 .17-.412.568.568 0 0 0-.17-.415.566.566 0 0 0-.415-.171.566.566 0 0 0-.413.171.559.559 0 0 0-.173.415.56.56 0 0 0 .173.412.562.562 0 0 0 .413.174Zm-53.941 6.184c-.391.174-.848.261-1.372.261-.514 0-.963-.084-1.345-.251a2.233 2.233 0 0 1-.908-.694 1.946 1.946 0 0 1-.389-1.013l-.004-.054h.878l.005.054c.023.234.113.437.271.608.158.171.37.303.635.398.265.094.567.141.906.141.319 0 .603-.051.852-.153a1.41 1.41 0 0 0 .588-.428.99.99 0 0 0 .215-.629v-.005a.97.97 0 0 0-.322-.74c-.215-.2-.565-.354-1.05-.462l-.781-.17c-.707-.157-1.22-.398-1.541-.726-.32-.327-.481-.746-.481-1.257v-.005c.004-.39.11-.735.32-1.035.21-.299.501-.534.874-.703a3.089 3.089 0 0 1 1.287-.254c.469 0 .884.084 1.245.252.361.167.648.393.862.676.213.283.331.6.354.952l.005.068h-.879l-.01-.063a1.106 1.106 0 0 0-.254-.554 1.418 1.418 0 0 0-.547-.384 2.02 2.02 0 0 0-.801-.136c-.293 0-.556.045-.791.136-.234.091-.42.223-.559.393a.967.967 0 0 0-.207.628v.005c0 .28.104.516.312.708.209.192.552.34 1.031.444l.781.176c.735.163 1.261.399 1.577.708.316.309.474.718.474 1.225v.005c0 .44-.108.819-.323 1.138a2.086 2.086 0 0 1-.908.74Zm5.938-.022c-.3.14-.661.21-1.084.21-.492 0-.918-.113-1.28-.337a2.248 2.248 0 0 1-.84-.952c-.198-.41-.297-.894-.297-1.45v-.01c0-.547.098-1.022.295-1.426a2.22 2.22 0 0 1 .837-.94c.362-.223.788-.334 1.28-.334.426 0 .794.074 1.103.224.309.15.557.351.742.603.186.252.305.535.357.847l.005.03h-.845l-.005-.015a1.206 1.206 0 0 0-.444-.664c-.231-.182-.536-.273-.913-.273-.316 0-.589.079-.821.239a1.529 1.529 0 0 0-.534.676c-.126.291-.188.636-.188 1.033v.01c0 .403.063.754.19 1.052.127.298.306.528.537.691.231.162.503.244.816.244.355 0 .644-.077.869-.23a1.26 1.26 0 0 0 .483-.669l.01-.029.84-.005-.01.054a2.214 2.214 0 0 1-.381.842 1.86 1.86 0 0 1-.722.579Zm4.638.21c.502 0 .933-.11 1.294-.33a2.18 2.18 0 0 0 .838-.94c.197-.407.295-.89.295-1.45v-.01c0-.563-.098-1.048-.295-1.455a2.162 2.162 0 0 0-.838-.937c-.361-.218-.792-.327-1.294-.327-.498 0-.928.109-1.291.327a2.16 2.16 0 0 0-.84.937c-.197.407-.296.892-.296 1.455v.01c0 .56.099 1.043.296 1.45.197.407.477.72.84.94.363.22.793.33 1.291.33Zm-.844-.987c.231.157.512.235.844.235.332 0 .614-.078.845-.235.231-.156.408-.38.53-.673.122-.293.183-.647.183-1.06v-.01c0-.416-.061-.771-.183-1.064a1.458 1.458 0 0 0-.53-.672c-.231-.154-.513-.231-.845-.231-.332 0-.613.077-.844.231a1.451 1.451 0 0 0-.53.672c-.122.293-.183.648-.183 1.064v.01c0 .413.061.767.183 1.06.122.293.298.517.53.673Zm5.556 2.652v-2.588h.078c.098.189.229.351.393.488.165.137.354.244.567.32.213.077.44.115.681.115.446 0 .834-.113 1.164-.337a2.21 2.21 0 0 0 .77-.947c.182-.407.273-.886.273-1.436v-.01c0-.547-.091-1.023-.273-1.43a2.218 2.218 0 0 0-.77-.95 2.01 2.01 0 0 0-1.164-.339c-.244 0-.47.037-.679.112a1.764 1.764 0 0 0-.962.82h-.078v-.84h-.849v7.022h.849Zm.698-2.656c.232.159.507.239.826.239.322 0 .597-.079.825-.237.228-.158.403-.384.525-.679.122-.294.183-.645.183-1.052v-.01c0-.41-.061-.761-.183-1.054a1.499 1.499 0 0 0-.525-.677 1.412 1.412 0 0 0-.825-.236c-.319 0-.594.079-.826.239a1.518 1.518 0 0 0-.532.678c-.124.293-.185.643-.185 1.05v.01c0 .404.061.753.185 1.047.124.295.301.522.532.682Zm6.822.991c.309 0 .588-.04.837-.12.249-.08.465-.187.647-.322s.331-.287.447-.454c.115-.168.196-.341.242-.52l.009-.039h-.849l-.02.044a.902.902 0 0 1-.239.307 1.358 1.358 0 0 1-.435.249 1.781 1.781 0 0 1-.62.098c-.319 0-.595-.071-.83-.212a1.405 1.405 0 0 1-.542-.611 2.07 2.07 0 0 1-.183-.741l-.006-.159 3.788-.001v-.332c0-.524-.092-.984-.276-1.379a2.148 2.148 0 0 0-.791-.925c-.344-.222-.755-.332-1.233-.332-.475 0-.89.115-1.245.346a2.282 2.282 0 0 0-.823.962c-.194.41-.29.887-.29 1.431v.005c0 .55.096 1.028.29 1.433.194.405.47.718.83.94.36.221.79.332 1.292.332Zm-1.53-3.159h2.909l-.008-.106a2.077 2.077 0 0 0-.165-.632 1.327 1.327 0 0 0-.513-.598 1.424 1.424 0 0 0-.752-.198c-.283 0-.536.07-.759.208-.223.138-.4.343-.53.613-.087.18-.145.387-.174.623l-.008.09Zm9 3.066v-3.262c0-.257.06-.481.179-.674.118-.192.282-.341.49-.449.209-.107.448-.161.718-.161a2.768 2.768 0 0 1 .523.049v-.825a3.293 3.293 0 0 0-.425-.034c-.355 0-.653.076-.894.229a1.24 1.24 0 0 0-.512.645h-.079v-.782h-.849V173h.849Zm5.916-.027c-.249.08-.528.12-.837.12-.502 0-.932-.111-1.292-.332a2.18 2.18 0 0 1-.83-.94c-.194-.405-.291-.883-.291-1.433v-.005c0-.544.097-1.021.291-1.431.194-.41.468-.731.823-.962.355-.231.77-.346 1.245-.346.478 0 .889.11 1.233.332.343.221.607.529.791.925.184.395.276.855.276 1.379v.332l-3.788.001.006.159c.02.282.081.529.183.741.127.265.308.469.542.611.234.141.511.212.83.212.238 0 .444-.033.62-.098s.321-.148.435-.249a.914.914 0 0 0 .239-.307l.02-.044h.849l-.01.039a1.619 1.619 0 0 1-.241.52 1.959 1.959 0 0 1-.447.454 2.213 2.213 0 0 1-.647.322Zm.541-3.039h-2.908l.008-.09c.029-.236.087-.443.174-.623.13-.27.307-.475.53-.613.223-.138.476-.208.759-.208.283 0 .534.066.752.198.218.132.389.331.513.598.082.178.137.389.165.632l.007.106Zm3.153-.196V173h-.85v-5.264h.85v.801h.078c.117-.283.297-.503.539-.659.243-.156.537-.234.882-.234.237 0 .451.039.639.117.189.078.352.186.489.324.136.139.245.299.327.481h.078c.094-.185.221-.347.381-.485.159-.139.344-.246.554-.323a1.97 1.97 0 0 1 .676-.114c.358 0 .662.066.911.2.249.133.439.328.569.583.13.256.195.567.195.935V173h-.849v-3.442c0-.388-.091-.678-.271-.872-.181-.194-.457-.29-.828-.29-.244 0-.457.055-.64.166a1.16 1.16 0 0 0-.425.441c-.1.184-.151.389-.151.613V173h-.85v-3.574c0-.313-.099-.563-.297-.75-.199-.187-.464-.28-.796-.28-.228 0-.434.06-.618.18a1.278 1.278 0 0 0-.435.486 1.452 1.452 0 0 0-.158.676Zm9.414 3.355c.237 0 .456-.034.654-.1.199-.067.377-.166.535-.296.158-.13.292-.288.403-.473h.078V173h.849v-3.604c0-.364-.077-.677-.232-.939a1.492 1.492 0 0 0-.678-.603c-.298-.14-.662-.21-1.092-.21-.374 0-.708.057-1.001.173a1.843 1.843 0 0 0-.715.483 1.413 1.413 0 0 0-.344.725l-.005.03h.85l.004-.015a.838.838 0 0 1 .406-.476c.202-.112.46-.168.776-.168.394 0 .689.085.886.256.197.171.296.419.296.744l-.001.481-1.508.091c-.612.036-1.085.186-1.418.451-.334.266-.501.633-.501 1.102v.009c0 .319.077.596.232.83.155.235.365.415.63.542.265.127.564.191.896.191Zm-.586-.96c.202.148.456.222.762.222.289 0 .546-.057.771-.173.225-.115.401-.272.53-.471.128-.199.193-.423.193-.674l-.001-.48-1.405.089c-.401.023-.693.106-.877.25-.184.143-.276.345-.276.605v.01c0 .267.101.474.303.622Zm5.644-4.397V173h-.849v-5.264h.849Zm2.569 2.149c0-.309.056-.575.168-.796a1.23 1.23 0 0 1 .476-.513c.205-.12.448-.18.728-.18.42 0 .73.114.93.344.2.229.3.582.3 1.057V173h.85v-3.408c0-.625-.159-1.106-.476-1.443-.318-.337-.772-.505-1.365-.505-.387 0-.706.077-.957.231a1.506 1.506 0 0 0-.576.652h-.078v-.791h-.85V173h.85v-3.115Zm5.967-3.338a.561.561 0 0 1-.415.174.563.563 0 0 1-.413-.174.56.56 0 0 1-.173-.412c0-.163.057-.301.173-.415a.568.568 0 0 1 .413-.171c.162 0 .301.057.415.171.114.114.17.252.17.415a.565.565 0 0 1-.17.412Zm.004 6.453v-5.264h-.849V173h.849Zm2.737-3.911a1.745 1.745 0 0 0-.168.796V173h-.85v-5.264h.85v.791h.078c.133-.28.325-.497.576-.652.251-.154.57-.231.957-.231.593 0 1.048.168 1.365.505.317.337.476.818.476 1.443V173h-.85v-3.203c0-.475-.1-.828-.3-1.057-.2-.23-.51-.344-.93-.344-.28 0-.523.06-.728.18a1.23 1.23 0 0 0-.476.513Zm7.102 5.766c.479 0 .894-.078 1.245-.236.352-.158.623-.382.813-.672a1.81 1.81 0 0 0 .286-1.02v-5.191h-.85v.869h-.058a1.884 1.884 0 0 0-.403-.512 1.755 1.755 0 0 0-.554-.332 1.934 1.934 0 0 0-.684-.117c-.459 0-.854.109-1.186.329-.332.22-.589.521-.769.903-.181.383-.271.82-.271 1.312v.009c0 .492.089.928.268 1.309.179.381.434.679.764.896.331.216.722.325 1.175.325.241 0 .465-.035.674-.105a1.768 1.768 0 0 0 .976-.804h.078v1.065c0 .387-.132.687-.398.901-.265.213-.634.32-1.106.32-.377 0-.68-.065-.908-.193-.228-.129-.364-.293-.41-.491l-.005-.005h-.879l-.01.005c.046.286.162.538.35.754.187.217.438.384.754.503s.685.178 1.108.178Zm-.866-3.107c.226.151.502.227.827.227.326 0 .605-.076.838-.227.232-.152.411-.361.537-.628.125-.267.188-.574.188-.923v-.009c0-.349-.063-.658-.188-.928a1.502 1.502 0 0 0-.537-.635 1.491 1.491 0 0 0-.838-.229c-.325 0-.601.076-.827.229a1.449 1.449 0 0 0-.518.635 2.28 2.28 0 0 0-.178.928v.009c0 .349.059.656.178.923s.291.476.518.628Z" fill="#B1BAC4"/><path fill-rule="evenodd" clip-rule="evenodd" d="M710.125 138.458V140h-6.608v-1.289l2.952-2.913c.431-.415.766-.757 1.003-1.025.237-.269.402-.504.495-.705a1.47 1.47 0 0 0 .139-.625v-.019c0-.263-.056-.493-.168-.692a1.181 1.181 0 0 0-.485-.467 1.598 1.598 0 0 0-.756-.168c-.296 0-.558.063-.787.187a1.362 1.362 0 0 0-.533.515c-.127.218-.19.472-.19.764v.032h-1.771l-.007-.032c0-.584.143-1.098.429-1.542a2.903 2.903 0 0 1 1.187-1.041c.505-.25 1.093-.375 1.761-.375.631 0 1.186.113 1.666.337.481.224.857.535 1.13.933.273.398.41.861.41 1.39v.019c0 .347-.068.687-.203 1.019-.136.332-.364.691-.686 1.076-.322.385-.762.836-1.32 1.352l-1.696 1.583v.144h4.038Zm-30.551 1.777c.99 0 1.759-.268 2.307-.803s.822-1.286.822-2.25v-6.342h-1.917v6.329c0 .457-.105.806-.314 1.047-.21.242-.517.362-.924.362-.249 0-.462-.051-.638-.152a1.042 1.042 0 0 1-.406-.426 1.505 1.505 0 0 1-.162-.622v-.038h-1.86v.051c.017.571.151 1.071.4 1.498.25.428.603.759 1.06.994.457.234 1.001.352 1.632.352Zm6.9-.121c.304 0 .587-.042.847-.127.26-.084.489-.204.686-.358a1.81 1.81 0 0 0 .472-.556h.115V140h1.828v-4.773c0-.496-.113-.92-.34-1.273-.226-.353-.555-.624-.987-.813-.431-.188-.956-.282-1.574-.282-.584 0-1.097.085-1.539.254-.443.169-.794.406-1.054.711-.26.304-.416.662-.467 1.072l-.006.058h1.714l.013-.026a.847.847 0 0 1 .422-.479c.209-.112.481-.168.815-.168.381 0 .672.081.873.244.201.163.302.397.302.702l-.001.577-1.688.102c-.867.051-1.536.255-2.006.612-.469.358-.704.852-.704 1.482v.013c0 .423.097.793.292 1.108.194.315.464.56.809.733.345.174.738.26 1.178.26Zm-.165-1.587c.203.153.465.229.787.229.287 0 .543-.057.768-.172.224-.114.402-.269.533-.466s.197-.418.197-.663l-.001-.518-1.408.092c-.398.021-.694.106-.889.254a.716.716 0 0 0-.292.603v.013c0 .267.101.476.305.628Zm7.706 1.473v-4.043c0-.318.056-.593.168-.826.112-.232.271-.413.476-.542a1.35 1.35 0 0 1 .733-.194c.44 0 .764.127.971.381.208.254.311.628.311 1.123V140h1.854v-4.52c0-.837-.204-1.484-.613-1.939-.408-.455-1.002-.682-1.78-.682-.5 0-.919.11-1.257.33-.339.22-.588.52-.749.901h-.114v-1.079h-1.854V140h1.854Zm19.576-5.824c.072-.404.187-.759.346-1.063.158-.305.364-.544.615-.717.252-.174.556-.261.911-.261.25 0 .472.04.667.121a1.418 1.418 0 0 1 .812.838l.026.057h1.872l-.012-.064a2.817 2.817 0 0 0-.6-1.275 3.215 3.215 0 0 0-1.171-.883 3.818 3.818 0 0 0-1.6-.324c-.779 0-1.451.195-2.019.584-.567.39-1.004.949-1.31 1.679-.307.73-.461 1.605-.461 2.625v.013c0 .808.097 1.508.289 2.101.193.592.462 1.083.806 1.473.345.389.746.68 1.203.872.457.193.952.289 1.486.289.689 0 1.298-.142 1.825-.425a3.185 3.185 0 0 0 1.237-1.162 3.143 3.143 0 0 0 .448-1.669v-.013c0-.58-.125-1.096-.375-1.549a2.723 2.723 0 0 0-1.047-1.066c-.449-.258-.971-.387-1.568-.387a2.95 2.95 0 0 0-1.098.187 2.348 2.348 0 0 0-.781.492 2.356 2.356 0 0 0-.482.66l-.125.001.005-.173c.013-.338.047-.658.101-.961Zm1.003 4.316c.254.151.535.226.844.226.309 0 .589-.074.841-.222.252-.149.453-.348.603-.6.15-.252.225-.535.225-.848v-.012c0-.322-.072-.607-.215-.854a1.592 1.592 0 0 0-.588-.587 1.664 1.664 0 0 0-.853-.216c-.313 0-.597.07-.851.209a1.57 1.57 0 0 0-.831 1.416l-.001.007.009.188a1.67 1.67 0 0 0 .817 1.293Z" fill="#F0F6FC"/><path fill-rule="evenodd" clip-rule="evenodd" d="M755.455 140.105c.457 0 .852-.097 1.184-.293.332-.195.58-.466.744-.814h.105V140h1.711v-8.918h-1.711v3.498h-.105a1.836 1.836 0 0 0-.753-.832 2.259 2.259 0 0 0-1.175-.305c-.547 0-1.016.133-1.406.399-.391.265-.691.646-.9 1.142-.209.496-.313 1.09-.313 1.782v.011c0 .688.106 1.28.319 1.776.213.496.516.879.908 1.148.393.27.857.404 1.392.404Zm-11.628-6.462a3.406 3.406 0 0 0-.319.981c-.05.28-.081.576-.094.887l-.003.159h.114a2.154 2.154 0 0 1 1.166-1.064 2.733 2.733 0 0 1 1.014-.172c.551 0 1.033.119 1.447.357.414.238.737.566.967.984.231.418.346.895.346 1.43v.012c0 .574-.138 1.088-.413 1.541-.276.453-.656.81-1.143 1.072-.486.262-1.048.393-1.684.393-.493 0-.95-.089-1.371-.267a3.06 3.06 0 0 1-1.111-.806c-.318-.359-.566-.812-.744-1.359-.178-.547-.267-1.193-.267-1.939v-.012c0-.942.142-1.749.425-2.423.283-.674.687-1.19 1.21-1.55.524-.359 1.145-.539 1.863-.539.547 0 1.04.1 1.477.299.438.199.798.471 1.081.814.283.344.468.737.554 1.178l.012.059h-1.729l-.023-.053a1.336 1.336 0 0 0-.29-.466 1.35 1.35 0 0 0-.46-.307 1.588 1.588 0 0 0-.616-.112c-.328 0-.608.08-.84.24a1.792 1.792 0 0 0-.569.663Zm.607 4.965c.234.139.494.208.779.208.285 0 .544-.068.776-.205.233-.136.418-.321.557-.553.139-.233.208-.494.208-.783v-.011c0-.297-.066-.56-.199-.788a1.468 1.468 0 0 0-.542-.542 1.541 1.541 0 0 0-.788-.2c-.289 0-.551.065-.786.194a1.444 1.444 0 0 0-.767 1.306l-.001.007.009.174a1.552 1.552 0 0 0 .754 1.193Zm10.822-.155c.219.152.478.229.779.229.305 0 .567-.077.785-.229.219-.152.388-.371.507-.656.119-.285.179-.623.179-1.014v-.012c0-.398-.06-.739-.179-1.022a1.47 1.47 0 0 0-.51-.656 1.323 1.323 0 0 0-.782-.232c-.297 0-.556.077-.776.232a1.45 1.45 0 0 0-.507.656c-.117.283-.176.622-.176 1.017v.011c0 .395.059.735.176 1.02.117.285.285.504.504.656Zm7.471 1.652c.281 0 .542-.039.782-.117.24-.078.451-.188.633-.331a1.66 1.66 0 0 0 .436-.512h.106V140h1.687v-4.406c0-.457-.104-.849-.313-1.175a1.995 1.995 0 0 0-.912-.75c-.398-.174-.882-.261-1.453-.261-.539 0-1.012.078-1.421.235-.408.156-.732.375-.972.656s-.384.611-.431.99l-.006.053h1.582l.012-.024a.78.78 0 0 1 .39-.442c.193-.104.444-.155.753-.155.351 0 .62.075.805.225.186.151.279.366.279.648l-.001.532-1.558.095c-.801.047-1.418.235-1.852.565-.433.33-.65.786-.65 1.368v.012c0 .391.09.731.27 1.022.179.291.428.517.747.677.318.16.68.24 1.087.24Zm-.153-1.464c.188.14.43.211.727.211.265 0 .502-.053.709-.159.207-.105.371-.249.492-.43.121-.182.182-.386.182-.613l-.001-.477-1.3.085c-.367.019-.641.097-.821.234a.664.664 0 0 0-.269.557v.012c0 .246.094.439.281.58Zm6.062 3.632c.531 0 .986-.071 1.365-.213.379-.143.701-.38.967-.712.265-.332.494-.784.685-1.354l2.198-6.445h-1.805l-1.354 4.887h-.118l-1.352-4.887h-1.881l2.267 6.457-.058.246c-.059.25-.178.435-.358.554-.179.119-.421.178-.726.178a9.484 9.484 0 0 1-.445-.011v1.283c.101.008.205.013.31.015l.305.002Zm10.254-2.396c-.426.176-.914.264-1.465.264-.586 0-1.085-.082-1.497-.246-.412-.165-.735-.389-.967-.674a1.826 1.826 0 0 1-.407-.979l-.006-.023h1.681l.012.023a.97.97 0 0 0 .402.492c.197.129.463.194.799.194.219 0 .411-.031.575-.091a.943.943 0 0 0 .386-.249.54.54 0 0 0 .141-.369v-.012a.527.527 0 0 0-.211-.428c-.141-.113-.375-.207-.703-.281l-1.078-.228c-.614-.133-1.073-.352-1.38-.657-.307-.304-.46-.697-.46-1.177v-.006c0-.407.112-.761.337-1.064.224-.303.539-.538.943-.706.404-.168.874-.252 1.409-.252.563 0 1.041.085 1.436.255.394.17.698.397.911.68.213.283.331.598.355.946v.023h-1.588l-.006-.029c-.047-.176-.164-.331-.352-.466-.187-.134-.441-.202-.761-.202-.196 0-.37.03-.522.088a.867.867 0 0 0-.36.246.569.569 0 0 0-.132.375v.006c0 .172.068.313.205.422.137.109.371.199.703.269l1.072.229c.645.141 1.121.352 1.43.633.309.281.463.66.463 1.137v.005c0 .426-.121.797-.363 1.114-.243.316-.577.562-1.002.738Zm-42.233-3.381a.54.54 0 0 0 .17-.76l-2.827-4.41-2.827 4.41a.534.534 0 0 0-.09.297c0 .304.253.55.565.55h1.769v2.917a.583.583 0 1 0 1.166 0v-2.917h1.769c.109 0 .214-.03.305-.087Z" fill="#D81919"/><path fill-rule="evenodd" clip-rule="evenodd" d="M699.579 113.721a.56.56 0 0 0 .415-.174.566.566 0 0 0 .171-.412.565.565 0 0 0-.171-.415.565.565 0 0 0-.415-.171.566.566 0 0 0-.412.171.56.56 0 0 0-.174.415c0 .159.058.297.174.412a.561.561 0 0 0 .412.174Zm-4.766 6.372c.368 0 .694-.082.977-.247.283-.164.505-.393.664-.686h.078v.84h.85v-7.354h-.85v2.92h-.078a1.607 1.607 0 0 0-.657-.671 1.947 1.947 0 0 0-.984-.251c-.445 0-.834.112-1.164.336-.33.225-.587.541-.769.948-.182.407-.274.885-.274 1.435v.01c0 .547.092 1.025.274 1.433.182.409.439.725.771.95.332.224.72.337 1.162.337Zm-17.915-7.139V120h.879v-2.514l1.778-.001c.442 0 .833-.096 1.172-.288.338-.192.604-.459.798-.801.194-.341.29-.735.29-1.181v-.01c0-.446-.096-.838-.29-1.177a2.07 2.07 0 0 0-.798-.791 2.378 2.378 0 0 0-1.172-.283h-2.657Zm.879.782 1.553-.001c.505 0 .895.131 1.172.391.277.26.415.623.415 1.089v.01c0 .462-.138.824-.415 1.086-.277.262-.667.393-1.172.393l-1.553.001v-2.969Zm6.333 3.002V120h-.849v-5.264h.849v.782h.078c.101-.277.272-.492.513-.645.241-.153.539-.229.894-.229a3.293 3.293 0 0 1 .425.034v.825a2.784 2.784 0 0 0-.523-.049c-.27 0-.509.054-.718.161a1.222 1.222 0 0 0-.49.449 1.257 1.257 0 0 0-.179.674Zm5.078 3.355c.31 0 .589-.04.838-.12.249-.08.465-.187.647-.322s.331-.287.447-.454c.115-.168.196-.341.241-.52l.01-.039h-.85l-.019.044a.914.914 0 0 1-.239.307 1.358 1.358 0 0 1-.435.249 1.785 1.785 0 0 1-.62.098c-.319 0-.596-.071-.83-.212a1.405 1.405 0 0 1-.542-.611 2.028 2.028 0 0 1-.183-.741l-.006-.159 3.788-.001v-.332c0-.524-.092-.984-.276-1.379a2.148 2.148 0 0 0-.791-.925c-.344-.222-.755-.332-1.233-.332-.475 0-.891.115-1.245.346a2.282 2.282 0 0 0-.823.962c-.194.41-.291.887-.291 1.431v.005c0 .55.097 1.028.291 1.433.194.405.47.718.83.94.36.221.79.332 1.291.332Zm-1.529-3.159h2.908l-.008-.106a2.05 2.05 0 0 0-.164-.632 1.327 1.327 0 0 0-.513-.598 1.424 1.424 0 0 0-.752-.198c-.283 0-.536.07-.759.208-.223.138-.4.343-.53.613-.087.18-.145.387-.174.623l-.008.09Zm6.527 2.17c.23.158.504.237.823.237.319 0 .594-.08.825-.239.231-.16.409-.387.532-.682.124-.294.186-.643.186-1.047v-.01c0-.407-.062-.757-.186-1.05a1.512 1.512 0 0 0-.532-.678 1.412 1.412 0 0 0-.825-.239c-.319 0-.593.078-.823.236a1.496 1.496 0 0 0-.527.677c-.122.293-.183.644-.183 1.054v.01c0 .407.061.758.183 1.052.122.295.298.521.527.679Zm5.813-4.368V120h-.85v-5.264h.85Zm3.872 5.357c.423 0 .785-.07 1.084-.21.3-.14.54-.333.723-.579a2.23 2.23 0 0 0 .381-.842l.009-.054-.839.005-.01.029a1.262 1.262 0 0 1-.484.669c-.224.153-.514.23-.869.23-.312 0-.584-.082-.815-.244a1.577 1.577 0 0 1-.537-.691 2.67 2.67 0 0 1-.191-1.052v-.01c0-.397.063-.742.188-1.033.126-.291.304-.517.535-.676.231-.16.504-.239.82-.239.378 0 .682.091.913.273.231.182.38.404.445.664l.005.015h.844l-.005-.03a1.956 1.956 0 0 0-.356-.847 1.973 1.973 0 0 0-.742-.603c-.31-.15-.677-.224-1.104-.224-.491 0-.918.111-1.279.334a2.213 2.213 0 0 0-.837.94c-.197.404-.296.879-.296 1.426v.01c0 .556.099 1.04.298 1.45.199.41.478.727.84.952.361.224.788.337 1.279.337Zm5.776-.069a2.03 2.03 0 0 1-.249.015c-.54 0-.931-.109-1.174-.327-.242-.218-.364-.578-.364-1.079v-3.194h-.83v-.703h.83v-1.362h.879v1.362h1.153v.703h-1.153v2.979c0 .309.059.531.176.666.117.136.313.203.586.203.075 0 .139-.002.193-.005l.198-.014v.722a5.148 5.148 0 0 1-.245.034Zm3.707.069c.309 0 .588-.04.837-.12.249-.08.465-.187.647-.322s.331-.287.447-.454c.115-.168.196-.341.241-.52l.01-.039h-.849l-.02.044a.914.914 0 0 1-.239.307 1.358 1.358 0 0 1-.435.249 1.785 1.785 0 0 1-.62.098c-.319 0-.596-.071-.83-.212a1.405 1.405 0 0 1-.542-.611 2.028 2.028 0 0 1-.183-.741l-.006-.159 3.788-.001v-.332c0-.524-.092-.984-.276-1.379a2.148 2.148 0 0 0-.791-.925c-.344-.222-.755-.332-1.233-.332-.475 0-.89.115-1.245.346a2.282 2.282 0 0 0-.823.962c-.194.41-.291.887-.291 1.431v.005c0 .55.097 1.028.291 1.433.194.405.47.718.83.94.36.221.79.332 1.292.332Zm-1.53-3.159h2.908l-.007-.106a2.077 2.077 0 0 0-.165-.632 1.327 1.327 0 0 0-.513-.598 1.424 1.424 0 0 0-.752-.198c-.283 0-.536.07-.759.208-.223.138-.4.343-.53.613-.087.18-.145.387-.174.623l-.008.09Zm7.155 3.159c.367 0 .693-.082.976-.247.283-.164.505-.393.664-.686h.078v.84h.85v-7.354h-.85v2.92h-.078a1.607 1.607 0 0 0-.657-.671 1.946 1.946 0 0 0-.983-.251c-.446 0-.835.112-1.165.336-.33.225-.587.541-.769.948-.182.407-.274.885-.274 1.435v.01c0 .547.092 1.025.274 1.433.182.409.439.725.771.95.332.224.72.337 1.163.337Zm-.628-.989c.23.158.504.237.823.237.319 0 .594-.08.825-.239.231-.16.409-.387.532-.682.124-.294.186-.643.186-1.047v-.01c0-.407-.062-.757-.186-1.05a1.512 1.512 0 0 0-.532-.678 1.412 1.412 0 0 0-.825-.239c-.319 0-.593.078-.823.236a1.496 1.496 0 0 0-.527.677c-.122.293-.183.644-.183 1.054v.01c0 .407.061.758.183 1.052.122.295.298.521.527.679Zm10.032.989c.309 0 .588-.04.837-.12.249-.08.465-.187.647-.322s.331-.287.447-.454c.116-.168.196-.341.242-.52l.009-.039h-.849l-.02.044a.902.902 0 0 1-.239.307 1.358 1.358 0 0 1-.435.249 1.781 1.781 0 0 1-.62.098c-.319 0-.595-.071-.83-.212a1.405 1.405 0 0 1-.542-.611 2.07 2.07 0 0 1-.183-.741l-.006-.159 3.788-.001v-.332c0-.524-.092-.984-.276-1.379a2.148 2.148 0 0 0-.791-.925c-.343-.222-.754-.332-1.233-.332-.475 0-.89.115-1.245.346a2.282 2.282 0 0 0-.823.962c-.193.41-.29.887-.29 1.431v.005c0 .55.097 1.028.29 1.433.194.405.471.718.83.94.36.221.791.332 1.292.332Zm-1.53-3.159h2.909l-.008-.106a2.077 2.077 0 0 0-.165-.632 1.327 1.327 0 0 0-.513-.598 1.424 1.424 0 0 0-.752-.198c-.283 0-.536.07-.759.208-.223.138-.4.343-.53.613a1.95 1.95 0 0 0-.173.623l-.009.09Zm6.061-.049c0-.309.056-.575.169-.796.112-.221.271-.392.476-.513.205-.12.447-.18.727-.18.42 0 .73.114.93.344.201.229.301.582.301 1.057V120h.849v-3.408c0-.625-.158-1.106-.476-1.443-.317-.337-.772-.505-1.365-.505-.387 0-.706.077-.957.231-.25.155-.442.372-.576.652h-.078v-.791h-.85V120h.85v-3.115Zm8.023 2.961a1.907 1.907 0 0 1-.977.247c-.443 0-.83-.113-1.162-.337a2.198 2.198 0 0 1-.772-.95c-.182-.408-.273-.886-.273-1.433v-.01c0-.55.091-1.028.273-1.435.183-.407.439-.723.769-.948a2.028 2.028 0 0 1 1.165-.336c.361 0 .689.083.984.251.294.168.513.391.657.671h.078v-2.92h.849V120h-.849v-.84h-.078a1.74 1.74 0 0 1-.664.686Zm-.782-.505c-.319 0-.593-.079-.822-.237a1.486 1.486 0 0 1-.528-.679c-.122-.294-.183-.645-.183-1.052v-.01c0-.41.061-.761.183-1.054a1.49 1.49 0 0 1 .528-.677c.229-.158.503-.236.822-.236.319 0 .594.079.825.239.232.159.409.386.533.678.123.293.185.643.185 1.05v.01c0 .404-.062.753-.185 1.047a1.514 1.514 0 0 1-.533.682 1.42 1.42 0 0 1-.825.239Zm9.981.505a1.904 1.904 0 0 1-.977.247c-.443 0-.83-.113-1.162-.337a2.189 2.189 0 0 1-.771-.95c-.183-.408-.274-.886-.274-1.433v-.01c0-.55.091-1.028.274-1.435.182-.407.438-.723.769-.948.33-.224.718-.336 1.164-.336.362 0 .689.083.984.251.295.168.514.391.657.671h.078v-2.92h.85V120h-.85v-.84h-.078a1.74 1.74 0 0 1-.664.686Zm-.782-.505c-.319 0-.593-.079-.822-.237a1.486 1.486 0 0 1-.528-.679c-.122-.294-.183-.645-.183-1.052v-.01c0-.41.061-.761.183-1.054a1.49 1.49 0 0 1 .528-.677c.229-.158.503-.236.822-.236.32 0 .595.079.826.239.231.159.408.386.532.678.124.293.185.643.185 1.05v.01c0 .404-.061.753-.185 1.047a1.52 1.52 0 0 1-.532.682 1.42 1.42 0 0 1-.826.239Zm6.221.652c-.198.066-.416.1-.654.1-.332 0-.631-.064-.896-.191a1.527 1.527 0 0 1-.63-.542 1.469 1.469 0 0 1-.232-.83v-.009c0-.469.167-.836.501-1.102.333-.265.806-.415 1.418-.451l1.508-.091.001-.481c0-.325-.099-.573-.296-.744-.197-.171-.492-.256-.886-.256-.316 0-.574.056-.776.168a.832.832 0 0 0-.405.476l-.005.015h-.85l.005-.03a1.42 1.42 0 0 1 .344-.725c.184-.206.423-.368.716-.483a2.695 2.695 0 0 1 1-.173c.43 0 .794.07 1.092.21.298.139.524.34.678.603.155.262.232.575.232.939V120h-.849v-.776h-.078a1.815 1.815 0 0 1-.403.473c-.158.13-.336.229-.535.296Zm-.478-.638c-.306 0-.56-.074-.762-.222a.726.726 0 0 1-.303-.622v-.01c0-.26.092-.462.276-.605.184-.144.476-.227.877-.25l1.405-.089.001.48c0 .251-.064.475-.193.674a1.347 1.347 0 0 1-.53.471 1.655 1.655 0 0 1-.771.173Zm6.132.669a2.03 2.03 0 0 1-.249.015c-.54 0-.931-.109-1.174-.327-.242-.218-.364-.578-.364-1.079v-3.194h-.83v-.703h.83v-1.362h.879v1.362h1.153v.703h-1.153v2.979c0 .309.059.531.176.666.117.136.313.203.586.203a3.484 3.484 0 0 0 .391-.019v.722a5.148 5.148 0 0 1-.245.034Zm3.707.069c.309 0 .588-.04.837-.12.249-.08.465-.187.647-.322s.331-.287.447-.454c.115-.168.196-.341.241-.52l.01-.039h-.849l-.02.044a.914.914 0 0 1-.239.307 1.358 1.358 0 0 1-.435.249 1.785 1.785 0 0 1-.62.098c-.319 0-.596-.071-.83-.212a1.405 1.405 0 0 1-.542-.611 2.048 2.048 0 0 1-.183-.741l-.006-.159 3.788-.001v-.332c0-.524-.092-.984-.276-1.379a2.148 2.148 0 0 0-.791-.925c-.344-.222-.755-.332-1.233-.332-.475 0-.89.115-1.245.346a2.282 2.282 0 0 0-.823.962c-.194.41-.291.887-.291 1.431v.005c0 .55.097 1.028.291 1.433.194.405.47.718.83.94.36.221.79.332 1.292.332Zm-1.53-3.159h2.908l-.007-.106a2.077 2.077 0 0 0-.165-.632 1.327 1.327 0 0 0-.513-.598 1.424 1.424 0 0 0-.752-.198c-.283 0-.536.07-.759.208-.223.138-.4.343-.53.613-.087.18-.145.387-.174.623l-.008.09ZM696.22 60.547a.562.562 0 0 1-.415.174.564.564 0 0 1-.413-.174.565.565 0 0 1-.173-.412c0-.163.058-.301.173-.415a.568.568 0 0 1 .413-.171.57.57 0 0 1 .415.17.565.565 0 0 1 .171.416c0 .16-.057.297-.171.412Zm-15.113 6.035c-.494.279-1.092.418-1.792.418h-2.417v-7.046h2.417c.697 0 1.294.14 1.79.418.496.278.876.68 1.14 1.203.264.524.396 1.156.396 1.895v.01c0 .738-.132 1.37-.396 1.896a2.776 2.776 0 0 1-1.138 1.206Zm-3.33-.373h1.48c.524 0 .972-.107 1.343-.322.371-.215.654-.526.849-.933.196-.407.293-.895.293-1.465v-.01c0-.572-.098-1.063-.295-1.472a2.122 2.122 0 0 0-.852-.937c-.371-.217-.817-.325-1.338-.325h-1.48v5.464Zm8.545.884c.31 0 .589-.04.838-.12.249-.08.464-.187.647-.322.182-.135.331-.287.446-.454a1.6 1.6 0 0 0 .242-.52l.01-.04h-.85l-.019.045a.918.918 0 0 1-.24.307 1.361 1.361 0 0 1-.434.25 1.787 1.787 0 0 1-.62.097 1.57 1.57 0 0 1-.83-.212 1.393 1.393 0 0 1-.542-.61 2.032 2.032 0 0 1-.183-.742l-.006-.159h3.787v-.333c0-.524-.092-.984-.276-1.38a2.14 2.14 0 0 0-.791-.924c-.343-.222-.754-.332-1.232-.332-.476 0-.891.115-1.246.346a2.28 2.28 0 0 0-.822.962c-.194.41-.291.887-.291 1.43v.006c0 .55.097 1.027.291 1.433.193.405.47.718.83.94.359.221.79.332 1.291.332Zm-1.53-3.159h2.909l-.008-.106a2.017 2.017 0 0 0-.165-.632 1.32 1.32 0 0 0-.512-.598 1.425 1.425 0 0 0-.752-.198c-.284 0-.537.07-.76.208a1.423 1.423 0 0 0-.529.613c-.087.18-.145.387-.174.623l-.009.09Zm7.019 3.159c.4 0 .759-.067 1.076-.2.318-.134.569-.32.755-.56.185-.239.278-.515.278-.827v-.01c0-.377-.121-.679-.364-.903-.242-.225-.611-.397-1.106-.518l-.81-.195c-.31-.075-.534-.171-.674-.288a.555.555 0 0 1-.21-.444v-.01c0-.157.047-.293.141-.41a.945.945 0 0 1 .386-.276c.163-.067.349-.1.557-.1.319 0 .578.065.776.195a.883.883 0 0 1 .339.387l.042.12h.835a1.462 1.462 0 0 0-.32-.746 1.694 1.694 0 0 0-.688-.491 2.587 2.587 0 0 0-.979-.173 2.41 2.41 0 0 0-1.001.2c-.296.133-.53.316-.701.547a1.288 1.288 0 0 0-.256.786v.005c0 .377.115.68.346.905.232.227.593.398 1.084.516l.816.195c.325.078.56.18.703.305a.586.586 0 0 1 .215.457v.01c0 .159-.052.3-.156.422a1.05 1.05 0 0 1-.428.288c-.18.07-.39.105-.627.105-.335 0-.607-.067-.816-.2a1 1 0 0 1-.368-.402l-.052-.126h-.869c.033.29.14.542.32.757.181.215.421.382.72.5.3.12.645.179 1.036.179Zm4.414-.093v-5.264h-.85V67h.85Zm2.568-3.262V67h-.85v-5.264h.85v.782h.078c.101-.277.272-.492.513-.645.241-.153.539-.23.893-.23a3.777 3.777 0 0 1 .425.034v.826a2.749 2.749 0 0 0-.522-.049c-.27 0-.51.054-.718.161a1.228 1.228 0 0 0-.491.45 1.252 1.252 0 0 0-.178.673Zm5.078 3.355c.309 0 .588-.04.837-.12a2.2 2.2 0 0 0 .647-.322 1.92 1.92 0 0 0 .447-.454c.116-.168.196-.341.242-.52l.01-.04h-.85l-.019.045a.918.918 0 0 1-.24.307 1.372 1.372 0 0 1-.434.25 1.787 1.787 0 0 1-.62.097 1.57 1.57 0 0 1-.83-.212 1.393 1.393 0 0 1-.542-.61 2.032 2.032 0 0 1-.183-.742l-.006-.159h3.787v-.333c0-.524-.092-.984-.276-1.38a2.147 2.147 0 0 0-.791-.924c-.343-.222-.754-.332-1.233-.332-.475 0-.89.115-1.245.346a2.273 2.273 0 0 0-.822.962c-.194.41-.291.887-.291 1.43v.006c0 .55.097 1.027.291 1.433.193.405.47.718.83.94.359.221.79.332 1.291.332Zm-1.53-3.159h2.909l-.008-.106a2.017 2.017 0 0 0-.165-.632 1.322 1.322 0 0 0-.513-.598 1.423 1.423 0 0 0-.752-.198c-.283 0-.536.07-.759.208a1.432 1.432 0 0 0-.53.613 2.01 2.01 0 0 0-.173.623l-.009.09Zm7.155 3.159c.368 0 .693-.082.977-.247a1.74 1.74 0 0 0 .664-.686h.078V67h.849v-7.353h-.849v2.92h-.078a1.612 1.612 0 0 0-.657-.672 1.957 1.957 0 0 0-.984-.251c-.446 0-.834.112-1.164.337-.331.224-.587.54-.77.947-.182.407-.273.885-.273 1.435v.01c0 .547.091 1.025.273 1.433.183.409.44.725.772.95a2.02 2.02 0 0 0 1.162.337Zm-.627-.989c.229.158.503.237.822.237.319 0 .594-.08.826-.24.231-.159.408-.386.532-.68.124-.295.185-.644.185-1.048v-.01c0-.407-.061-.757-.185-1.05a1.518 1.518 0 0 0-.532-.678 1.421 1.421 0 0 0-.826-.24c-.319 0-.593.08-.822.237a1.49 1.49 0 0 0-.528.677c-.122.293-.183.644-.183 1.054v.01c0 .407.061.758.183 1.052.122.295.298.521.528.679Zm10.031.989c.31 0 .589-.04.838-.12.249-.08.464-.187.647-.322a1.95 1.95 0 0 0 .447-.454c.115-.168.196-.341.241-.52l.01-.04h-.85l-.019.045a.914.914 0 0 1-.239.307 1.378 1.378 0 0 1-.435.25 1.783 1.783 0 0 1-.62.097 1.57 1.57 0 0 1-.83-.212 1.393 1.393 0 0 1-.542-.61 2.032 2.032 0 0 1-.183-.742l-.006-.159h3.787v-.333c0-.524-.091-.984-.275-1.38a2.154 2.154 0 0 0-.791-.924c-.344-.222-.755-.332-1.233-.332-.476 0-.891.115-1.245.346-.355.231-.63.552-.823.962-.194.41-.291.887-.291 1.43v.006c0 .55.097 1.027.291 1.433.193.405.47.718.83.94.36.221.79.332 1.291.332Zm-1.529-3.159h2.908l-.008-.106a2.017 2.017 0 0 0-.165-.632 1.32 1.32 0 0 0-.512-.598 1.425 1.425 0 0 0-.752-.198c-.283 0-.536.07-.759.208-.223.138-.4.343-.53.613-.087.18-.145.387-.174.623l-.008.09ZM723.432 67v-3.115c0-.31.056-.575.168-.796.112-.221.271-.392.476-.513.205-.12.448-.18.728-.18.42 0 .73.114.93.344.2.23.3.582.3 1.057V67h.85v-3.408c0-.625-.159-1.106-.476-1.443-.318-.337-.773-.505-1.365-.505-.387 0-.706.077-.957.232a1.503 1.503 0 0 0-.576.651h-.078v-.79h-.85V67h.85Zm8.022-.154a1.909 1.909 0 0 1-.976.247c-.443 0-.831-.112-1.163-.337a2.189 2.189 0 0 1-.771-.95c-.182-.408-.273-.886-.273-1.433v-.01c0-.55.091-1.028.273-1.435a2.2 2.2 0 0 1 .769-.947c.33-.225.719-.337 1.165-.337.361 0 .689.083.983.251.295.168.514.391.657.671h.078v-2.92h.85V67h-.85v-.84h-.078a1.736 1.736 0 0 1-.664.686Zm-.781-.505c-.319 0-.593-.08-.823-.237a1.492 1.492 0 0 1-.527-.679c-.122-.294-.183-.645-.183-1.052v-.01c0-.41.061-.761.183-1.054.122-.293.298-.519.527-.677.23-.158.504-.236.823-.236.319 0 .594.08.825.239.231.16.409.386.532.678.124.293.186.643.186 1.05v.01c0 .404-.062.753-.186 1.047a1.51 1.51 0 0 1-.532.682c-.231.16-.506.239-.825.239Zm9.98.505a1.906 1.906 0 0 1-.976.247 2.02 2.02 0 0 1-1.162-.337 2.19 2.19 0 0 1-.772-.95c-.182-.408-.273-.886-.273-1.433v-.01c0-.55.091-1.028.273-1.435a2.2 2.2 0 0 1 .769-.947 2.024 2.024 0 0 1 1.165-.337c.361 0 .689.083.984.251.294.168.513.391.656.671h.079v-2.92h.849V67h-.849v-.84h-.079a1.73 1.73 0 0 1-.664.686Zm-.781-.505c-.319 0-.593-.08-.823-.237a1.492 1.492 0 0 1-.527-.679c-.122-.294-.183-.645-.183-1.052v-.01c0-.41.061-.761.183-1.054.122-.293.298-.519.527-.677.23-.158.504-.236.823-.236.319 0 .594.08.825.239.231.16.409.386.532.678.124.293.186.643.186 1.05v.01c0 .404-.062.753-.186 1.047a1.51 1.51 0 0 1-.532.682c-.231.16-.506.239-.825.239Zm6.221.652c-.199.066-.417.1-.655.1-.332 0-.63-.064-.896-.19a1.522 1.522 0 0 1-.629-.543 1.47 1.47 0 0 1-.232-.83v-.01c0-.468.166-.835.5-1.1.334-.266.807-.416 1.419-.452l1.508-.091v-.48c0-.326-.098-.574-.295-.745-.197-.171-.492-.257-.886-.257-.316 0-.575.057-.777.169a.837.837 0 0 0-.405.476l-.005.015h-.849l.005-.03a1.41 1.41 0 0 1 .344-.725c.184-.206.422-.367.715-.483a2.712 2.712 0 0 1 1.001-.173c.43 0 .794.07 1.091.21.298.14.524.34.679.602.155.263.232.576.232.94V67h-.85v-.776h-.078c-.11.185-.245.343-.403.473-.157.13-.336.229-.534.296Zm-.479-.637c-.306 0-.56-.075-.761-.223a.728.728 0 0 1-.303-.622v-.01c0-.26.092-.462.276-.606.184-.143.476-.226.876-.248l1.406-.09v.48c0 .25-.064.475-.192.674a1.362 1.362 0 0 1-.53.471 1.664 1.664 0 0 1-.772.174Zm6.133.668a2.03 2.03 0 0 1-.249.015c-.54 0-.932-.109-1.174-.327-.243-.218-.364-.578-.364-1.08V62.44h-.83v-.703h.83v-1.362h.879v1.362h1.152v.704h-1.152v2.978c0 .31.058.531.176.666.117.136.312.203.586.203.074 0 .139-.002.192-.005l.198-.014v.722a6.192 6.192 0 0 1-.244.034Zm3.706.069c.309 0 .589-.04.838-.12.249-.08.464-.187.647-.322.182-.135.331-.287.446-.454.116-.168.196-.341.242-.52l.01-.04h-.85l-.019.045a.918.918 0 0 1-.24.307 1.372 1.372 0 0 1-.434.25 1.787 1.787 0 0 1-.62.097 1.57 1.57 0 0 1-.83-.212 1.393 1.393 0 0 1-.542-.61 2.032 2.032 0 0 1-.183-.742l-.006-.159h3.787v-.333c0-.524-.092-.984-.276-1.38a2.147 2.147 0 0 0-.791-.924c-.343-.222-.754-.332-1.233-.332-.475 0-.89.115-1.245.346a2.273 2.273 0 0 0-.822.962c-.194.41-.291.887-.291 1.43v.006c0 .55.097 1.027.291 1.433.193.405.47.718.83.94.359.221.79.332 1.291.332Zm-1.53-3.159h2.909l-.008-.106a2.017 2.017 0 0 0-.165-.632 1.322 1.322 0 0 0-.513-.598 1.422 1.422 0 0 0-.751-.198c-.284 0-.537.07-.76.208a1.432 1.432 0 0 0-.53.613 2.01 2.01 0 0 0-.173.623l-.009.09Z" fill="#B1BAC4"/><path fill-rule="evenodd" clip-rule="evenodd" d="M710.125 85.457V87h-6.608v-1.289l2.952-2.913c.431-.415.766-.757 1.003-1.025.237-.269.402-.504.495-.705.093-.2.139-.41.139-.625v-.02c0-.261-.056-.492-.168-.691a1.175 1.175 0 0 0-.485-.467 1.595 1.595 0 0 0-.756-.168c-.296 0-.558.063-.787.187a1.359 1.359 0 0 0-.533.515c-.127.217-.19.472-.19.764v.032h-1.771l-.007-.031c0-.584.143-1.099.429-1.543a2.9 2.9 0 0 1 1.187-1.041c.505-.25 1.093-.374 1.761-.374.631 0 1.186.112 1.666.336.481.224.857.535 1.13.933.273.398.41.861.41 1.39v.02c0 .346-.068.686-.203 1.018-.136.332-.364.69-.686 1.076-.322.385-.762.836-1.32 1.352l-1.696 1.583v.144h4.038Zm-30.551 1.778c.99 0 1.759-.268 2.307-.803s.822-1.285.822-2.25V77.84h-1.917v6.329c0 .457-.105.806-.314 1.047-.21.242-.517.362-.924.362-.249 0-.462-.05-.638-.152a1.038 1.038 0 0 1-.406-.425 1.51 1.51 0 0 1-.162-.623v-.038h-1.86v.051c.017.571.151 1.07.4 1.498.25.428.603.759 1.06.994.457.234 1.001.352 1.632.352Zm6.9-.12c.304 0 .587-.043.847-.128a2.21 2.21 0 0 0 .686-.358 1.81 1.81 0 0 0 .472-.556h.115V87h1.828v-4.773c0-.496-.113-.92-.34-1.273-.226-.353-.555-.624-.987-.813-.431-.188-.956-.282-1.574-.282-.584 0-1.097.085-1.539.254-.443.17-.794.406-1.054.71-.26.305-.416.663-.467 1.074l-.006.057h1.714l.013-.026a.847.847 0 0 1 .422-.479c.209-.112.481-.168.815-.168.381 0 .672.081.873.244.201.163.302.397.302.702l-.001.577-1.688.102c-.867.05-1.536.255-2.006.612-.469.358-.704.852-.704 1.483v.012c0 .423.097.793.292 1.108.194.315.464.56.809.733.345.174.738.26 1.178.26Zm-.165-1.588c.203.153.465.229.787.229.287 0 .543-.057.768-.171.224-.115.402-.27.533-.467a1.17 1.17 0 0 0 .197-.663l-.001-.518-1.408.092c-.398.022-.694.106-.889.254a.717.717 0 0 0-.292.603v.013a.74.74 0 0 0 .305.628ZM694.015 87v-4.043c0-.318.056-.593.168-.826.112-.232.271-.413.476-.542a1.35 1.35 0 0 1 .733-.194c.44 0 .764.127.971.38.208.255.311.63.311 1.124V87h1.854v-4.52c0-.837-.204-1.484-.613-1.939-.408-.455-1.002-.682-1.78-.682-.5 0-.919.11-1.257.33-.339.22-.588.52-.749.901h-.114v-1.079h-1.854V87h1.854Zm21.309.235c.757 0 1.407-.196 1.948-.587.542-.392.959-.947 1.251-1.667.292-.719.438-1.572.438-2.558v-.012c0-.99-.146-1.844-.438-2.562-.292-.717-.709-1.27-1.251-1.66-.541-.389-1.191-.583-1.948-.583-.754 0-1.402.194-1.946.584-.544.389-.961.942-1.253 1.66-.292.717-.438 1.57-.438 2.56v.013c0 .986.146 1.839.438 2.558.292.72.709 1.275 1.253 1.667.544.391 1.192.587 1.946.587Zm-.918-1.91c.252.262.558.393.918.393.364 0 .672-.131.923-.394.252-.262.445-.639.578-1.13.133-.49.2-1.08.2-1.77v-.013c0-.694-.067-1.286-.2-1.775-.133-.488-.326-.863-.578-1.123a1.233 1.233 0 0 0-.923-.39c-.36 0-.666.13-.918.39-.251.26-.444.635-.577 1.123-.133.49-.2 1.08-.2 1.775v.012c0 .69.067 1.28.2 1.771.133.491.326.868.577 1.13Z" fill="#F0F6FC"/></g><defs><linearGradient id="b" x1="87.087" y1="194.602" x2="87.087" y2="81" gradientUnits="userSpaceOnUse"><stop stop-color="#4660F9" stop-opacity=".4"/><stop offset="1" stop-color="#4660F9" stop-opacity=".8"/></linearGradient><linearGradient id="c" x1="73" y1="362.488" x2="73" y2="120" gradientUnits="userSpaceOnUse"><stop stop-color="#4660F9" stop-opacity=".4"/><stop offset="1" stop-color="#4660F9" stop-opacity=".8"/></linearGradient><linearGradient id="d" x1="149.399" y1="362.65" x2="149.399" y2="223.561" gradientUnits="userSpaceOnUse"><stop stop-color="#999AE0"/><stop offset="1" stop-color="#6061BE"/></linearGradient><linearGradient id="e" x1="151.01" y1="362.65" x2="151.01" y2="224.861" gradientUnits="userSpaceOnUse"><stop stop-color="#4660F9" stop-opacity=".6"/><stop offset="1" stop-color="#4660F9" stop-opacity=".8"/></linearGradient><filter id="a" x=".5" y=".5" width="794" height="435" filterUnits="userSpaceOnUse" color-interpolation-filters="sRGB"><feFlood flood-opacity="0" result="BackgroundImageFix"/><feColorMatrix in="SourceAlpha" values="0 0 0 0 0 0 0 0 0 0 0 0 0 0 0 0 0 0 127 0" result="hardAlpha"/><feOffset dy="2"/><feGaussianBlur stdDeviation="4"/><feColorMatrix values="0 0 0 0 0 0 0 0 0 0 0 0 0 0 0 0 0 0 0.05 0"/><feBlend in2="BackgroundImageFix" result="effect1_dropShadow_624_109524"/><feBlend in="SourceGraphic" in2="effect1_dropShadow_624_109524" result="shape"/></filter><filter id="f" x="640" y="23" width="177" height="212" filterUnits="userSpaceOnUse" color-interpolation-filters="sRGB"><feFlood flood-opacity="0" result="BackgroundImageFix"/><feColorMatrix in="SourceAlpha" values="0 0 0 0 0 0 0 0 0 0 0 0 0 0 0 0 0 0 127 0" result="hardAlpha"/><feOffset dy="2"/><feGaussianBlur stdDeviation="8"/><feColorMatrix values="0 0 0 0 0 0 0 0 0 0 0 0 0 0 0 0 0 0 0.05 0"/><feBlend in2="BackgroundImageFix" result="effect1_dropShadow_624_109524"/><feBlend in="SourceGraphic" in2="effect1_dropShadow_624_109524" result="shape"/></filter></defs></svg>