<svg width="816" height="292" fill="none" xmlns="http://www.w3.org/2000/svg"><path fill-rule="evenodd" clip-rule="evenodd" d="M274 4a4 4 0 0 1 4-4h260a4 4 0 0 1 4 4v284a4 4 0 0 1-4 4H278a4 4 0 0 1-4-4V4Z" fill="url(#a)"/><rect x="284.5" y="60.5" width="247" height="126" rx="3.5" fill="#fff"/><mask id="b" style="mask-type:alpha" maskUnits="userSpaceOnUse" x="294" y="70" width="25" height="25"><circle cx="306.5" cy="82.5" r="12.5" fill="#D0D0D0"/></mask><g mask="url(#b)"><path d="M306.506 87.963c4.688 0 8.488-3.8 8.488-8.489a8.489 8.489 0 1 0-8.488 8.489Z" fill="#D4D4D6"/><path d="M321.065 68.67H291v32.08h30.065V68.67Z" fill="#D4D4D6"/><path d="M313.304 81.284h-.487a.503.503 0 0 1-.503-.503v-2.143c0-.277.225-.502.503-.502h.487c.277 0 .502.224.502.502v2.143a.503.503 0 0 1-.502.502Zm-13.349 0h-.487a.502.502 0 0 1-.502-.503v-2.143c0-.277.224-.502.502-.502h.487c.277 0 .502.224.502.502v2.143a.503.503 0 0 1-.502.502Zm6.896 19.109c6.06 0 10.973-3.521 10.973-7.864 0-4.344-4.913-7.864-10.973-7.864-6.061 0-10.974 3.52-10.974 7.864 0 4.343 4.913 7.864 10.974 7.864Z" fill="#F4F4F5"/><path d="M305.827 84.71c-2.381 0-4.839 1.108-6.119 1.772 1.613.558 3.87.72 5.634.222 1.369-.386 2.101-.745 3.073-1.654a9.948 9.948 0 0 0-2.588-.34Z" fill="#A9A9AD"/><path d="M306.353 85.621c3.669 0 6.643-2.833 6.643-6.328s-2.974-6.328-6.643-6.328c-3.668 0-6.642 2.833-6.642 6.328s2.974 6.328 6.642 6.328Z" fill="#F4F4F5"/><path d="M310.741 85.453s-.953.656-4.355.656c-3.402 0-4.412-.656-4.412-.656l.194-1.8h8.379l.194 1.8Z" fill="#F4F4F5"/><path d="M310.088 90.242a1.108 1.108 0 1 0 0-2.216 1.108 1.108 0 0 0 0 2.216Zm-1.432-2.215h-5.043v5.374h5.043v-5.374Z" fill="#D4D4D6"/><path d="M311.946 80.724c0 .826-.396 1.601-1.07 2.08-1.063.752-2.771 1.217-4.446 1.217-1.675 0-3.382-.465-4.445-1.218a2.543 2.543 0 0 1-1.07-2.079v-2.453c0-.734.313-1.435.867-1.918.857-.747 2.372-1.664 4.648-1.664 2.277 0 3.792.918 4.649 1.665a2.54 2.54 0 0 1 .867 1.917v2.453Z" fill="#A9A9AD"/></g><rect x="329" y="70" width="59" height="7" rx="2" fill="#EAEAEB"/><rect x="329" y="81" width="183" height="14" rx="2" fill="#D4D4D6"/><rect x="329" y="111.333" width="85" height="11" rx="1" fill="#EAEAEB"/><path fill-rule="evenodd" clip-rule="evenodd" d="M312.833 109.667h-6.666a2 2 0 0 0-2 2v11.231a1.333 1.333 0 0 0 2.212 1.003l3.121-2.738 3.121 2.738a1.333 1.333 0 0 0 2.212-1.003v-11.231a2 2 0 0 0-2-2Zm-7.333 2c0-.369.299-.667.667-.667h6.666c.369 0 .667.298.667.667v11.231l-3.121-2.738a1.333 1.333 0 0 0-1.758 0l-3.121 2.738v-11.231Z" fill="#999"/><mask id="c" style="mask-type:alpha" maskUnits="userSpaceOnUse" x="304" y="109" width="11" height="16"><path fill-rule="evenodd" clip-rule="evenodd" d="M312.833 109.667h-6.666a2 2 0 0 0-2 2v11.231a1.333 1.333 0 0 0 2.212 1.003l3.121-2.738 3.121 2.738a1.333 1.333 0 0 0 2.212-1.003v-11.231a2 2 0 0 0-2-2Zm-7.333 2c0-.369.299-.667.667-.667h6.666c.369 0 .667.298.667.667v11.231l-3.121-2.738a1.333 1.333 0 0 0-1.758 0l-3.121 2.738v-11.231Z" fill="#fff"/></mask><g mask="url(#c)"><path fill="#999" d="M301.5 109h16v16h-16z"/></g><path fill-rule="evenodd" clip-rule="evenodd" d="M305.168 139.002h4.578l-.573 4.584c-.082.661.748 1.021 1.174.51l6-8a.667.667 0 0 0-.512-1.094h-4.579l.573-4.584c.083-.66-.747-1.021-1.173-.509l-6 8a.666.666 0 0 0 .512 1.093Zm5.333-1.333h-3.91l3.633-5.16-.384 3.077c-.05.398.26.749.661.749h3.91l-3.633 5.16.385-3.077a.667.667 0 0 0-.662-.749Z" fill="#999"/><rect x="329" y="131.667" width="85" height="11" rx="1" fill="#EAEAEB"/><rect x="294" y="161" width="14" height="14" rx="7" fill="#4660F9"/><rect x="318" y="161" width="59" height="14" rx="7" fill="#DADFFE"/><rect x="387" y="161" width="59" height="14" rx="7" fill="#B5BFFD"/><rect x="284.5" y="60.5" width="247" height="126" rx="3.5" stroke="#EAEAEB"/><path d="M285.367 44h2.36V32.727h-2.36V44Zm4.867 0h2.282v-4.977c0-1.164.64-1.921 1.695-1.921 1.078 0 1.578.64 1.578 1.851V44h2.281v-5.563c0-2.054-1.031-3.226-2.945-3.226-1.227 0-2.078.586-2.469 1.516h-.14v-1.329h-2.282V44Zm14.399 0h2.359v-3.555h2.289c2.375 0 3.961-1.53 3.961-3.851v-.016c0-2.32-1.586-3.851-3.961-3.851h-4.648V44Zm4.07-9.406c1.352 0 2.149.71 2.149 1.992v.016c0 1.28-.797 2-2.149 2h-1.711v-4.008h1.711ZM315.188 44h2.281v-4.813c0-1.218.82-1.96 2.117-1.96.352 0 .703.054 1.047.132v-1.992a3.42 3.42 0 0 0-.852-.11c-1.117 0-1.898.548-2.172 1.477h-.14v-1.336h-2.281V44Zm10.585.18c2.649 0 4.243-1.672 4.243-4.477v-.016c0-2.78-1.618-4.476-4.243-4.476s-4.242 1.703-4.242 4.477v.015c0 2.797 1.594 4.477 4.242 4.477Zm0-1.79c-1.218 0-1.906-.992-1.906-2.687v-.016c0-1.68.695-2.687 1.906-2.687 1.204 0 1.907 1.008 1.907 2.688v.015c0 1.695-.696 2.688-1.907 2.688Zm9.899 4.633c2.601 0 4.25-1.273 4.25-3.289v-8.336h-2.281v1.407h-.11c-.461-.97-1.383-1.547-2.562-1.547-2.203 0-3.539 1.703-3.539 4.234v.016c0 2.445 1.336 4.117 3.5 4.117 1.195 0 2.101-.492 2.578-1.398h.14v1.601c0 1-.71 1.57-1.929 1.57-1.016 0-1.61-.343-1.735-.843l-.007-.032h-2.258v.04c.187 1.46 1.57 2.46 3.953 2.46Zm.031-5.148c-1.234 0-1.937-.96-1.937-2.375v-.016c0-1.414.711-2.375 1.937-2.375 1.227 0 1.969.961 1.969 2.375v.016c0 1.414-.734 2.375-1.969 2.375Zm6.5 2.125h2.281v-4.813c0-1.218.821-1.96 2.118-1.96.351 0 .703.054 1.046.132v-1.992a3.406 3.406 0 0 0-.851-.11c-1.117 0-1.899.548-2.172 1.477h-.141v-1.336h-2.281V44Zm10.547.18c2.516 0 3.625-1.453 3.891-2.532l.015-.078h-2.125l-.023.047c-.156.328-.711.86-1.711.86-1.211 0-1.969-.82-1.992-2.235h5.922v-.71c0-2.602-1.563-4.321-4.071-4.321s-4.109 1.758-4.109 4.492v.008c0 2.758 1.586 4.469 4.203 4.469Zm-.055-7.258c.993 0 1.703.64 1.844 1.89h-3.711c.141-1.218.875-1.89 1.867-1.89Zm9.321 7.258c2.203 0 3.773-1.11 3.773-2.813v-.008c0-1.273-.805-1.992-2.523-2.359l-1.43-.305c-.891-.195-1.211-.46-1.211-.922v-.007c0-.578.563-.946 1.352-.946.851 0 1.359.43 1.484.89l.008.04h2.117v-.031c-.094-1.383-1.344-2.508-3.602-2.508-2.148 0-3.586 1.078-3.586 2.695v.008c0 1.29.813 2.094 2.454 2.445l1.437.305c.875.195 1.219.484 1.219.945v.016c0 .57-.594.945-1.469.945-.898 0-1.422-.383-1.601-.914l-.016-.031h-2.242l.008.031c.164 1.477 1.492 2.524 3.828 2.524Zm8.906 0c2.203 0 3.773-1.11 3.773-2.813v-.008c0-1.273-.804-1.992-2.523-2.359l-1.43-.305c-.89-.195-1.211-.46-1.211-.922v-.007c0-.578.563-.946 1.352-.946.851 0 1.359.43 1.484.89l.008.04h2.117v-.031c-.094-1.383-1.344-2.508-3.601-2.508-2.149 0-3.586 1.078-3.586 2.695v.008c0 1.29.812 2.094 2.453 2.445l1.437.305c.875.195 1.219.484 1.219.945v.016c0 .57-.594.945-1.469.945-.898 0-1.422-.383-1.601-.914l-.016-.031h-2.242l.008.031c.164 1.477 1.492 2.524 3.828 2.524Z" fill="#353535"/><path opacity=".8" d="M286.982 23h1.313v-8.455h-1.313l-2.226 1.582v1.289l2.127-1.518h.099V23Zm7.137 0h1.313v-8.455h-1.313V23Zm5.602.123c1.511 0 2.636-.803 2.636-1.98v-.012c0-.92-.586-1.442-1.81-1.729l-1.008-.228c-.715-.17-1.008-.416-1.008-.815v-.011c0-.51.504-.856 1.201-.856.715 0 1.166.334 1.289.78v.011h1.213v-.006c-.111-1.037-1.043-1.763-2.496-1.763-1.441 0-2.472.797-2.472 1.904v.006c0 .931.556 1.476 1.757 1.752l1.014.234c.738.17 1.037.44 1.037.838v.012c0 .521-.545.879-1.33.879-.756 0-1.219-.323-1.377-.803l-.006-.006h-1.271v.006c.123 1.066 1.096 1.787 2.631 1.787Zm6.351 0c1.512 0 2.637-.803 2.637-1.98v-.012c0-.92-.586-1.442-1.811-1.729l-1.007-.228c-.715-.17-1.008-.416-1.008-.815v-.011c0-.51.504-.856 1.201-.856.715 0 1.166.334 1.289.78v.011h1.213v-.006c-.111-1.037-1.043-1.763-2.496-1.763-1.442 0-2.473.797-2.473 1.904v.006c0 .931.557 1.476 1.758 1.752l1.014.234c.738.17 1.037.44 1.037.838v.012c0 .521-.545.879-1.33.879-.756 0-1.219-.323-1.377-.803l-.006-.006h-1.272v.006c.123 1.066 1.096 1.787 2.631 1.787Zm6.276 0c.925 0 1.57-.398 1.875-1.084h.099V23h1.266v-6.363h-1.266v3.732c0 1.026-.545 1.664-1.564 1.664-.932 0-1.319-.521-1.319-1.576v-3.82h-1.271v4.119c0 1.506.744 2.367 2.18 2.367Zm7.746 0c1.629 0 2.508-.938 2.718-1.775l.012-.053-1.224.006-.024.047c-.152.328-.638.732-1.453.732-1.049 0-1.717-.709-1.74-1.928h4.512v-.445c0-1.91-1.09-3.193-2.866-3.193-1.775 0-2.924 1.33-2.924 3.316v.006c0 2.016 1.125 3.287 2.989 3.287Zm-.059-5.566c.861 0 1.5.55 1.6 1.687H318.4c.112-1.096.768-1.687 1.635-1.687Z" fill="#6F6F6F"/><g opacity=".6"><path d="M502 24a4 4 0 0 1 4-4h19a4 4 0 0 1 4 4v19a4 4 0 0 1-4 4h-19a4 4 0 0 1-4-4V24Z" fill="#EDEFFE"/><path fill-rule="evenodd" clip-rule="evenodd" d="M514.833 32.833V29.5a.667.667 0 0 1 1.334 0v3.333h3.333a.667.667 0 0 1 0 1.334h-3.333V37.5a.667.667 0 0 1-1.334 0v-3.333H511.5a.667.667 0 0 1 0-1.334h3.333Z" fill="#4660F9"/></g><path fill-rule="evenodd" clip-rule="evenodd" d="M548 4a4 4 0 0 1 4-4h260a4 4 0 0 1 4 4v284a4 4 0 0 1-4 4H552a4 4 0 0 1-4-4V4Z" fill="url(#d)"/><rect x="558.5" y="60.5" width="247" height="189" rx="3.5" fill="#fff"/><mask id="e" style="mask-type:alpha" maskUnits="userSpaceOnUse" x="568" y="70" width="25" height="25"><circle cx="580.5" cy="82.5" r="12.5" fill="#D0D0D0"/></mask><g mask="url(#e)"><path d="M580.506 87.963c4.688 0 8.488-3.8 8.488-8.489a8.489 8.489 0 1 0-8.488 8.489Z" fill="#D4D4D6"/><path d="M595.065 68.67H565v32.08h30.065V68.67Z" fill="#D4D4D6"/><path d="M587.304 81.284h-.487a.503.503 0 0 1-.503-.503v-2.143c0-.277.225-.502.503-.502h.487c.277 0 .502.224.502.502v2.143a.503.503 0 0 1-.502.502Zm-13.349 0h-.487a.502.502 0 0 1-.502-.503v-2.143c0-.277.224-.502.502-.502h.487c.277 0 .502.224.502.502v2.143a.503.503 0 0 1-.502.502Zm6.896 19.109c6.06 0 10.973-3.521 10.973-7.864 0-4.344-4.913-7.864-10.973-7.864-6.061 0-10.974 3.52-10.974 7.864 0 4.343 4.913 7.864 10.974 7.864Z" fill="#F4F4F5"/><path d="M579.827 84.71c-2.381 0-4.839 1.108-6.119 1.772 1.613.558 3.87.72 5.634.222 1.369-.386 2.101-.745 3.073-1.654a9.948 9.948 0 0 0-2.588-.34Z" fill="#A9A9AD"/><path d="M580.353 85.621c3.669 0 6.643-2.833 6.643-6.328s-2.974-6.328-6.643-6.328c-3.668 0-6.642 2.833-6.642 6.328s2.974 6.328 6.642 6.328Z" fill="#F4F4F5"/><path d="M584.741 85.453s-.953.656-4.355.656c-3.402 0-4.412-.656-4.412-.656l.194-1.8h8.379l.194 1.8Z" fill="#F4F4F5"/><path d="M584.088 90.242a1.108 1.108 0 1 0 0-2.216 1.108 1.108 0 0 0 0 2.216Zm-1.432-2.215h-5.043v5.374h5.043v-5.374Z" fill="#D4D4D6"/><path d="M585.946 80.724c0 .826-.396 1.601-1.07 2.08-1.063.752-2.771 1.217-4.446 1.217-1.675 0-3.382-.465-4.445-1.218a2.543 2.543 0 0 1-1.07-2.079v-2.453c0-.734.313-1.435.867-1.918.857-.747 2.372-1.664 4.648-1.664 2.277 0 3.792.918 4.649 1.665a2.54 2.54 0 0 1 .867 1.917v2.453Z" fill="#A9A9AD"/></g><rect x="603" y="70" width="59" height="7" rx="2" fill="#EAEAEB"/><rect x="603" y="81" width="134" height="14" rx="2" fill="#D4D4D6"/><rect x="568" y="121" width="14" height="14" rx="7" fill="#4660F9"/><rect x="592" y="121" width="59" height="14" rx="7" fill="#DADFFE"/><rect x="661" y="121" width="59" height="14" rx="7" fill="#B5BFFD"/><rect x="570.5" y="150.5" width="223" height="85" rx="1.5" fill="#fff"/><rect x="580" y="160" width="25" height="25" rx="12.5" fill="#F4F4F5"/><path fill-rule="evenodd" clip-rule="evenodd" d="m591.673 167.983 2.288-2.288a.238.238 0 0 1 .338 0 .24.24 0 0 1 .07.169v4.577a.24.24 0 0 1-.408.169l-2.288-2.289a.237.237 0 0 1 0-.338Zm-3.273-.547a.718.718 0 0 0-.621 1.074.717.717 0 1 0 .621-1.074Zm-2.149.716a2.15 2.15 0 1 1 2.865 2.027v5.019a2.15 2.15 0 1 1-1.433 0v-5.019a2.15 2.15 0 0 1-1.432-2.027Zm9.073-.716h-.955v1.433h.955a.954.954 0 0 1 .955.955v5.374a2.153 2.153 0 0 0-1.013 3.306 2.151 2.151 0 0 0 3.784-1.908 2.15 2.15 0 0 0-1.339-1.398v-5.374a2.39 2.39 0 0 0-2.387-2.388Zm.955 9.789a.715.715 0 1 1 1.432 0 .715.715 0 1 1-1.432 0Zm-7.879-.716a.716.716 0 1 0-.001 1.433.716.716 0 0 0 .001-1.433Z" fill="#000"/><mask id="f" style="mask-type:alpha" maskUnits="userSpaceOnUse" x="586" y="165" width="14" height="15"><path fill-rule="evenodd" clip-rule="evenodd" d="m591.673 167.983 2.288-2.288a.238.238 0 0 1 .338 0 .24.24 0 0 1 .07.169v4.577a.24.24 0 0 1-.408.169l-2.288-2.289a.237.237 0 0 1 0-.338Zm-3.273-.547a.718.718 0 0 0-.621 1.074.717.717 0 1 0 .621-1.074Zm-2.149.716a2.15 2.15 0 1 1 2.865 2.027v5.019a2.15 2.15 0 1 1-1.433 0v-5.019a2.15 2.15 0 0 1-1.432-2.027Zm9.073-.716h-.955v1.433h.955a.954.954 0 0 1 .955.955v5.374a2.153 2.153 0 0 0-1.013 3.306 2.151 2.151 0 0 0 3.784-1.908 2.15 2.15 0 0 0-1.339-1.398v-5.374a2.39 2.39 0 0 0-2.387-2.388Zm.955 9.789a.715.715 0 1 1 1.432 0 .715.715 0 1 1-1.432 0Zm-7.879-.716a.716.716 0 1 0-.001 1.433.716.716 0 0 0 .001-1.433Z" fill="#fff"/></mask><g mask="url(#f)"><path fill="#28A745" d="M585 165h15v15h-15z"/></g><rect x="615" y="160" width="59" height="7" rx="2" fill="#EAEAEB"/><rect x="615" y="171" width="152" height="14" rx="2" fill="#D4D4D6"/><rect x="580.5" y="211" width="14" height="14" rx="7" fill="#4660F9"/><rect x="570.5" y="150.5" width="223" height="85" rx="1.5" stroke="#EAEAEB"/><rect x="558.5" y="60.5" width="247" height="189" rx="3.5" stroke="#EAEAEB"/><g opacity=".6"><path d="M776 24a4 4 0 0 1 4-4h19a4 4 0 0 1 4 4v19a4 4 0 0 1-4 4h-19a4 4 0 0 1-4-4V24Z" fill="#EDEFFE"/><path fill-rule="evenodd" clip-rule="evenodd" d="M788.833 32.833V29.5a.667.667 0 0 1 1.334 0v3.333h3.333a.667.667 0 0 1 0 1.334h-3.333V37.5a.667.667 0 0 1-1.334 0v-3.333H785.5a.667.667 0 0 1 0-1.334h3.333Z" fill="#4660F9"/></g><path d="M564.156 44.29c2.719 0 4.649-1.61 4.891-3.97l.008-.086h-2.297l-.016.063c-.25 1.203-1.226 1.992-2.578 1.992-1.781 0-2.883-1.5-2.883-3.922v-.015c0-2.422 1.102-3.914 2.875-3.914 1.344 0 2.352.859 2.594 2.124v.055h2.297v-.094c-.219-2.382-2.219-4.086-4.891-4.086-3.273 0-5.289 2.258-5.289 5.915v.015c0 3.656 2.024 5.922 5.289 5.922Zm10.664-.11c2.649 0 4.242-1.672 4.242-4.477v-.016c0-2.78-1.617-4.476-4.242-4.476s-4.242 1.703-4.242 4.477v.015c0 2.797 1.594 4.477 4.242 4.477Zm0-1.79c-1.218 0-1.906-.992-1.906-2.687v-.016c0-1.68.695-2.687 1.906-2.687 1.203 0 1.907 1.008 1.907 2.688v.015c0 1.695-.696 2.688-1.907 2.688Zm9.172 1.743c1.211 0 2.125-.54 2.57-1.469h.141V44h2.281V32.11h-2.281v4.663h-.141c-.429-.937-1.39-1.515-2.57-1.515-2.18 0-3.492 1.664-3.492 4.43v.015c0 2.75 1.344 4.43 3.492 4.43Zm.774-1.89c-1.204 0-1.946-.954-1.946-2.54v-.016c0-1.57.742-2.539 1.946-2.539 1.203 0 1.961.97 1.961 2.547v.016c0 1.578-.75 2.531-1.961 2.531Zm10.359 1.937c2.516 0 3.625-1.453 3.891-2.532l.015-.078h-2.125l-.023.047c-.156.328-.711.86-1.711.86-1.211 0-1.969-.82-1.992-2.235h5.922v-.71c0-2.602-1.563-4.321-4.071-4.321s-4.109 1.758-4.109 4.492v.008c0 2.758 1.586 4.469 4.203 4.469Zm-.055-7.258c.992 0 1.703.64 1.844 1.89h-3.711c.141-1.218.875-1.89 1.867-1.89ZM605.094 44h2.281v-4.813c0-1.218.82-1.96 2.117-1.96.352 0 .703.054 1.047.132v-1.992a3.419 3.419 0 0 0-.851-.11c-1.118 0-1.899.548-2.172 1.477h-.141v-1.336h-2.281V44Zm10.547.18c2.515 0 3.625-1.453 3.89-2.532l.016-.078h-2.125l-.024.047c-.156.328-.71.86-1.71.86-1.211 0-1.969-.82-1.993-2.235h5.922v-.71c0-2.602-1.562-4.321-4.07-4.321s-4.109 1.758-4.109 4.492v.008c0 2.758 1.585 4.469 4.203 4.469Zm-.055-7.258c.992 0 1.703.64 1.844 1.89h-3.711c.14-1.218.875-1.89 1.867-1.89ZM623.5 44h2.562l2.977-8.602h-2.398l-1.766 6.47h-.141l-1.781-6.47h-2.445L623.5 44Zm8.242-9.922c.703 0 1.281-.562 1.281-1.266 0-.71-.578-1.273-1.281-1.273s-1.289.563-1.289 1.273c0 .704.586 1.266 1.289 1.266ZM630.594 44h2.281v-8.602h-2.281V44Zm8.359.18c2.516 0 3.625-1.453 3.891-2.532l.015-.078h-2.125l-.023.047c-.156.328-.711.86-1.711.86-1.211 0-1.969-.82-1.992-2.235h5.922v-.71c0-2.602-1.563-4.321-4.071-4.321-2.507 0-4.109 1.758-4.109 4.492v.008c0 2.758 1.586 4.469 4.203 4.469Zm-.055-7.258c.993 0 1.704.64 1.844 1.89h-3.711c.141-1.218.875-1.89 1.867-1.89ZM646.273 44h2.391l1.524-6h.14l1.539 6h2.422l2.289-8.602h-2.258l-1.281 6.227h-.141l-1.515-6.227h-2.172l-1.508 6.227h-.141l-1.281-6.227h-2.304L646.273 44Z" fill="#353535"/><path opacity=".8" d="M561.891 23.158c1.793 0 3.064-1.043 3.064-2.496v-.012c0-1.183-.832-1.933-2.074-2.044v-.03c1.031-.217 1.781-.92 1.781-1.969v-.011c0-1.307-1.101-2.21-2.783-2.21-1.652 0-2.777.944-2.906 2.368l-.006.064h1.23l.006-.058c.082-.797.738-1.295 1.676-1.295.955 0 1.506.48 1.506 1.3v.012c0 .785-.656 1.354-1.623 1.354h-.991v1.02h1.032c1.125 0 1.816.533 1.816 1.488v.011c0 .832-.697 1.413-1.728 1.413-1.049 0-1.758-.54-1.84-1.307l-.006-.059h-1.254l.006.07c.111 1.401 1.289 2.391 3.094 2.391Zm8.162-.158h1.312v-8.455h-1.312V23Zm5.601.123c1.512 0 2.637-.803 2.637-1.98v-.012c0-.92-.586-1.442-1.811-1.729l-1.007-.228c-.715-.17-1.008-.416-1.008-.815v-.011c0-.51.504-.856 1.201-.856.715 0 1.166.334 1.289.78v.011h1.213v-.006c-.111-1.037-1.043-1.763-2.496-1.763-1.442 0-2.473.797-2.473 1.904v.006c0 .931.557 1.476 1.758 1.752l1.014.234c.738.17 1.037.44 1.037.838v.012c0 .521-.545.879-1.33.879-.756 0-1.219-.323-1.377-.803l-.006-.006h-1.272v.006c.123 1.066 1.096 1.787 2.631 1.787Zm6.352 0c1.512 0 2.637-.803 2.637-1.98v-.012c0-.92-.586-1.442-1.811-1.729l-1.008-.228c-.715-.17-1.008-.416-1.008-.815v-.011c0-.51.504-.856 1.202-.856.714 0 1.166.334 1.289.78v.011h1.213v-.006c-.112-1.037-1.043-1.763-2.497-1.763-1.441 0-2.472.797-2.472 1.904v.006c0 .931.556 1.476 1.758 1.752l1.013.234c.739.17 1.037.44 1.037.838v.012c0 .521-.545.879-1.33.879-.756 0-1.218-.323-1.377-.803l-.006-.006h-1.271v.006c.123 1.066 1.096 1.787 2.631 1.787Zm6.275 0c.926 0 1.571-.398 1.875-1.084h.1V23h1.265v-6.363h-1.265v3.732c0 1.026-.545 1.664-1.565 1.664-.931 0-1.318-.521-1.318-1.576v-3.82h-1.271v4.119c0 1.506.744 2.367 2.179 2.367Zm7.746 0c1.629 0 2.508-.938 2.719-1.775l.012-.053-1.225.006-.023.047c-.153.328-.639.732-1.453.732-1.049 0-1.717-.709-1.741-1.928h4.512v-.445c0-1.91-1.09-3.193-2.865-3.193-1.775 0-2.924 1.33-2.924 3.316v.006c0 2.016 1.125 3.287 2.988 3.287Zm-.058-5.566c.861 0 1.5.55 1.599 1.687h-3.234c.111-1.096.768-1.687 1.635-1.687Zm6.685 5.566c1.512 0 2.637-.803 2.637-1.98v-.012c0-.92-.586-1.442-1.811-1.729l-1.007-.228c-.715-.17-1.008-.416-1.008-.815v-.011c0-.51.504-.856 1.201-.856.715 0 1.166.334 1.289.78v.011h1.213v-.006c-.111-1.037-1.043-1.763-2.496-1.763-1.442 0-2.473.797-2.473 1.904v.006c0 .931.557 1.476 1.758 1.752l1.014.234c.738.17 1.037.44 1.037.838v.012c0 .521-.545.879-1.33.879-.756 0-1.219-.323-1.377-.803l-.006-.006h-1.272v.006c.123 1.066 1.096 1.787 2.631 1.787Z" fill="#6F6F6F"/><path fill-rule="evenodd" clip-rule="evenodd" d="M0 4a4 4 0 0 1 4-4h260a4 4 0 0 1 4 4v284a4 4 0 0 1-4 4H4a4 4 0 0 1-4-4V4Z" fill="url(#g)"/><g opacity=".6"><path d="M228 24a4 4 0 0 1 4-4h19a4 4 0 0 1 4 4v19a4 4 0 0 1-4 4h-19a4 4 0 0 1-4-4V24Z" fill="#EDEFFE"/><path fill-rule="evenodd" clip-rule="evenodd" d="M240.833 32.833V29.5a.667.667 0 0 1 1.334 0v3.333h3.333a.667.667 0 0 1 0 1.334h-3.333V37.5a.667.667 0 0 1-1.334 0v-3.333H237.5a.667.667 0 0 1 0-1.334h3.333Z" fill="#4660F9"/></g><rect x="10.5" y="60.5" width="247" height="78" rx="3.5" fill="#fff"/><mask id="h" style="mask-type:alpha" maskUnits="userSpaceOnUse" x="20" y="70" width="25" height="25"><circle cx="32.5" cy="82.5" r="12.5" fill="#D0D0D0"/></mask><g mask="url(#h)"><path d="M32.506 87.963a8.489 8.489 0 1 0 0-16.977 8.489 8.489 0 0 0 0 16.977Z" fill="#D4D4D6"/><path d="M47.065 68.67H17v32.08h30.065V68.67Z" fill="#D4D4D6"/><path d="M39.304 81.284h-.487a.502.502 0 0 1-.502-.503v-2.143c0-.277.224-.502.502-.502h.487c.277 0 .502.224.502.502v2.143a.504.504 0 0 1-.502.502Zm-13.349 0h-.487a.502.502 0 0 1-.502-.503v-2.143c0-.277.224-.502.502-.502h.487c.277 0 .502.224.502.502v2.143a.504.504 0 0 1-.502.502Zm6.895 19.109c6.061 0 10.974-3.521 10.974-7.864 0-4.344-4.913-7.864-10.973-7.864-6.06 0-10.974 3.52-10.974 7.864 0 4.343 4.913 7.864 10.974 7.864Z" fill="#F4F4F5"/><path d="M31.827 84.71c-2.38 0-4.839 1.108-6.12 1.772 1.614.558 3.871.72 5.635.222 1.37-.386 2.101-.745 3.073-1.654a9.944 9.944 0 0 0-2.588-.34Z" fill="#A9A9AD"/><path d="M32.353 85.621c3.669 0 6.643-2.833 6.643-6.328s-2.974-6.328-6.643-6.328c-3.668 0-6.642 2.833-6.642 6.328s2.974 6.328 6.642 6.328Z" fill="#F4F4F5"/><path d="M36.741 85.453s-.953.656-4.355.656c-3.403 0-4.412-.656-4.412-.656l.194-1.8h8.38l.193 1.8Z" fill="#F4F4F5"/><path d="M36.089 90.242a1.107 1.107 0 1 0 0-2.215 1.107 1.107 0 0 0 0 2.215Zm-1.433-2.215h-5.043v5.374h5.043v-5.374Z" fill="#D4D4D6"/><path d="M37.946 80.724c0 .826-.396 1.601-1.07 2.08-1.063.752-2.77 1.217-4.446 1.217-1.675 0-3.382-.465-4.445-1.218a2.543 2.543 0 0 1-1.07-2.079v-2.453c0-.734.313-1.435.867-1.918.857-.747 2.372-1.664 4.648-1.664 2.277 0 3.792.918 4.649 1.665a2.54 2.54 0 0 1 .867 1.917v2.453Z" fill="#A9A9AD"/></g><rect x="55" y="70" width="59" height="7" rx="2" fill="#EAEAEB"/><rect x="55" y="81" width="183" height="14" rx="2" fill="#D4D4D6"/><rect x="20" y="115" width="14" height="14" rx="7" fill="#4660F9"/><rect x="44" y="115" width="59" height="14" rx="7" fill="#DADFFE"/><rect x="113" y="115" width="59" height="14" rx="7" fill="#B5BFFD"/><rect x="10.5" y="60.5" width="247" height="78" rx="3.5" stroke="#EAEAEB"/><rect x="10.5" y="152.5" width="247" height="126" rx="3.5" fill="#fff"/><mask id="i" style="mask-type:alpha" maskUnits="userSpaceOnUse" x="20" y="162" width="25" height="25"><circle cx="32.5" cy="174.5" r="12.5" fill="#D0D0D0"/></mask><g mask="url(#i)"><path d="M32.506 179.963a8.489 8.489 0 1 0-.001-16.978 8.489 8.489 0 0 0 0 16.978Z" fill="#D4D4D6"/><path d="M47.065 160.67H17v32.08h30.065v-32.08Z" fill="#D4D4D6"/><path d="M39.304 173.284h-.487a.503.503 0 0 1-.502-.503v-2.143c0-.277.224-.502.502-.502h.487c.277 0 .502.224.502.502v2.143a.504.504 0 0 1-.502.503Zm-13.349 0h-.487a.503.503 0 0 1-.502-.503v-2.143c0-.277.224-.502.502-.502h.487c.277 0 .502.224.502.502v2.143a.504.504 0 0 1-.502.503Zm6.895 19.109c6.061 0 10.974-3.521 10.974-7.864 0-4.344-4.913-7.864-10.973-7.864-6.06 0-10.974 3.52-10.974 7.864 0 4.343 4.913 7.864 10.974 7.864Z" fill="#F4F4F5"/><path d="M31.827 176.71c-2.38 0-4.839 1.108-6.12 1.772 1.614.558 3.871.719 5.635.222 1.37-.386 2.101-.745 3.073-1.654a9.956 9.956 0 0 0-2.588-.34Z" fill="#A9A9AD"/><path d="M32.353 177.621c3.669 0 6.643-2.833 6.643-6.328s-2.974-6.328-6.643-6.328c-3.668 0-6.642 2.833-6.642 6.328s2.974 6.328 6.642 6.328Z" fill="#F4F4F5"/><path d="M36.741 177.453s-.953.656-4.355.656c-3.403 0-4.412-.656-4.412-.656l.194-1.8h8.38l.193 1.8Z" fill="#F4F4F5"/><path d="M36.089 182.242a1.108 1.108 0 1 0-.001-2.215 1.108 1.108 0 0 0 0 2.215Zm-1.433-2.215h-5.043v5.374h5.043v-5.374Z" fill="#D4D4D6"/><path d="M37.946 172.724c0 .826-.396 1.601-1.07 2.079-1.063.753-2.77 1.218-4.446 1.218-1.675 0-3.382-.465-4.445-1.218a2.542 2.542 0 0 1-1.07-2.079v-2.453c0-.734.313-1.435.867-1.918.857-.747 2.372-1.664 4.648-1.664 2.277 0 3.792.918 4.649 1.664.553.483.867 1.184.867 1.918v2.453Z" fill="#A9A9AD"/></g><rect x="55" y="162" width="59" height="7" rx="2" fill="#EAEAEB"/><rect x="55" y="173" width="146" height="14" rx="2" fill="#D4D4D6"/><rect x="55" y="203.333" width="85" height="11" rx="1" fill="#EAEAEB"/><path fill-rule="evenodd" clip-rule="evenodd" d="M38.833 201.667h-6.666a2 2 0 0 0-2 2v11.231a1.334 1.334 0 0 0 2.213 1.003l3.12-2.738 3.12 2.738a1.335 1.335 0 0 0 2.213-1.003v-11.231a2 2 0 0 0-2-2Zm-7.333 2c0-.369.299-.667.667-.667h6.666c.369 0 .667.298.667.667v11.231l-3.12-2.738a1.334 1.334 0 0 0-1.76 0l-3.12 2.738v-11.231Z" fill="#999"/><mask id="j" style="mask-type:alpha" maskUnits="userSpaceOnUse" x="30" y="201" width="11" height="16"><path fill-rule="evenodd" clip-rule="evenodd" d="M38.833 201.667h-6.666a2 2 0 0 0-2 2v11.231a1.334 1.334 0 0 0 2.213 1.003l3.12-2.738 3.12 2.738a1.335 1.335 0 0 0 2.213-1.003v-11.231a2 2 0 0 0-2-2Zm-7.333 2c0-.369.299-.667.667-.667h6.666c.369 0 .667.298.667.667v11.231l-3.12-2.738a1.334 1.334 0 0 0-1.76 0l-3.12 2.738v-11.231Z" fill="#fff"/></mask><g mask="url(#j)"><path fill="#999" d="M27.5 201h16v16h-16z"/></g><path fill-rule="evenodd" clip-rule="evenodd" d="M31.168 231.002h4.578l-.573 4.584c-.083.661.748 1.021 1.174.51l6-8a.667.667 0 0 0-.512-1.094h-4.578l.573-4.584c.082-.66-.748-1.021-1.174-.509l-6 8a.666.666 0 0 0 .512 1.093Zm5.333-1.333h-3.91l3.633-5.16-.384 3.077c-.05.398.26.749.661.749h3.91l-3.633 5.16.385-3.077a.666.666 0 0 0-.662-.749Z" fill="#999"/><rect x="55" y="223.667" width="85" height="11" rx="1" fill="#EAEAEB"/><rect x="20" y="253" width="14" height="14" rx="7" fill="#4660F9"/><rect x="44" y="253" width="59" height="14" rx="7" fill="#DADFFE"/><rect x="113" y="253" width="59" height="14" rx="7" fill="#B5BFFD"/><rect x="10.5" y="152.5" width="247" height="126" rx="3.5" stroke="#EAEAEB"/><path d="M11.367 44h5.063c2.406 0 3.898-1.242 3.898-3.219v-.015c0-1.446-1.086-2.563-2.578-2.68v-.14c1.156-.173 2.04-1.212 2.04-2.4v-.015c0-1.734-1.306-2.804-3.493-2.804h-4.93V44Zm4.328-9.523c1.125 0 1.774.546 1.774 1.46v.016c0 .93-.696 1.461-1.969 1.461h-1.773v-2.937h1.968Zm.078 4.492c1.391 0 2.149.562 2.149 1.61v.015c0 1.07-.735 1.648-2.094 1.648h-2.101V38.97h2.046Zm8.805 5.164c1.125 0 2.031-.477 2.469-1.274h.14V44h2.25v-5.875c0-1.836-1.289-2.914-3.57-2.914-2.164 0-3.586 1-3.765 2.508l-.008.07h2.11l.015-.031c.18-.508.703-.797 1.523-.797.938 0 1.445.422 1.445 1.164v.71l-2.078.126c-2.14.125-3.336 1.031-3.336 2.578v.016c0 1.562 1.165 2.578 2.805 2.578ZM24 41.414v-.016c0-.625.477-.992 1.453-1.054l1.735-.11v.633c0 .906-.79 1.602-1.844 1.602-.79 0-1.344-.399-1.344-1.055Zm11.46 2.766c2.243 0 3.587-1.203 3.821-3.078l.008-.047h-2.11l-.015.03c-.203.86-.758 1.306-1.695 1.306-1.219 0-1.899-.961-1.899-2.703v-.016c0-1.719.672-2.672 1.899-2.672.976 0 1.547.547 1.695 1.383l.008.015h2.125v-.023c-.203-1.922-1.555-3.164-3.836-3.164-2.695 0-4.211 1.633-4.211 4.46v.017c0 2.859 1.523 4.492 4.21 4.492Zm5.696-.18h2.282v-2.883l.624-.664L46.57 44h2.696l-3.532-4.953 3.305-3.649h-2.586l-2.875 3.399h-.14v-6.688h-2.282V44Zm9.625 0h2.282V32.11H50.78V44Zm8.461.18c2.649 0 4.242-1.672 4.242-4.477v-.016c0-2.78-1.617-4.476-4.242-4.476S55 36.914 55 39.688v.015c0 2.797 1.594 4.477 4.242 4.477Zm0-1.79c-1.219 0-1.906-.992-1.906-2.687v-.016c0-1.68.695-2.687 1.906-2.687 1.203 0 1.906 1.008 1.906 2.688v.015c0 1.695-.695 2.688-1.906 2.688Zm9.899 4.633c2.601 0 4.25-1.273 4.25-3.289v-8.336h-2.282v1.407H71c-.46-.97-1.383-1.547-2.563-1.547-2.203 0-3.539 1.703-3.539 4.234v.016c0 2.445 1.336 4.117 3.5 4.117 1.196 0 2.102-.492 2.579-1.398h.14v1.601c0 1-.71 1.57-1.93 1.57-1.015 0-1.609-.343-1.734-.843l-.008-.032h-2.257v.04c.187 1.46 1.57 2.46 3.953 2.46Zm.03-5.148c-1.234 0-1.937-.96-1.937-2.375v-.016c0-1.414.711-2.375 1.938-2.375 1.226 0 1.969.961 1.969 2.375v.016c0 1.414-.735 2.375-1.97 2.375Z" fill="#353535"/><path opacity=".8" d="M10.914 23h5.695v-1.12h-3.908v-.116l1.793-1.787c1.535-1.524 1.98-2.262 1.98-3.223v-.018c0-1.394-1.16-2.396-2.736-2.396-1.699 0-2.894 1.09-2.9 2.637l.012.011h1.23l.006-.017c0-.926.633-1.547 1.582-1.547.926 0 1.494.61 1.494 1.435v.018c0 .686-.322 1.12-1.441 2.285l-2.807 2.947V23Zm10.846 0h1.312v-8.455H21.76V23Zm5.601.123c1.512 0 2.637-.803 2.637-1.98v-.012c0-.92-.586-1.442-1.81-1.729l-1.008-.228c-.715-.17-1.008-.416-1.008-.815v-.011c0-.51.504-.856 1.201-.856.715 0 1.166.334 1.29.78v.011h1.212v-.006c-.111-1.037-1.043-1.763-2.496-1.763-1.442 0-2.473.797-2.473 1.904v.006c0 .931.557 1.476 1.758 1.752l1.014.234c.738.17 1.037.44 1.037.838v.012c0 .521-.545.879-1.33.879-.756 0-1.219-.323-1.377-.803l-.006-.006h-1.271v.006c.122 1.066 1.095 1.787 2.63 1.787Zm6.352 0c1.512 0 2.637-.803 2.637-1.98v-.012c0-.92-.586-1.442-1.81-1.729l-1.009-.228c-.715-.17-1.008-.416-1.008-.815v-.011c0-.51.504-.856 1.202-.856.715 0 1.166.334 1.289.78v.011h1.213v-.006c-.112-1.037-1.043-1.763-2.496-1.763-1.442 0-2.473.797-2.473 1.904v.006c0 .931.556 1.476 1.758 1.752l1.013.234c.739.17 1.037.44 1.037.838v.012c0 .521-.544.879-1.33.879-.755 0-1.218-.323-1.377-.803l-.006-.006h-1.271v.006c.123 1.066 1.096 1.787 2.63 1.787Zm6.275 0c.926 0 1.57-.398 1.875-1.084h.1V23h1.265v-6.363h-1.265v3.732c0 1.026-.545 1.664-1.565 1.664-.931 0-1.318-.521-1.318-1.576v-3.82h-1.27v4.119c0 1.506.744 2.367 2.18 2.367Zm7.746 0c1.63 0 2.508-.938 2.72-1.775l.01-.053-1.224.006-.023.047c-.152.328-.639.732-1.453.732-1.05 0-1.717-.709-1.74-1.928h4.511v-.445c0-1.91-1.09-3.193-2.865-3.193-1.776 0-2.924 1.33-2.924 3.316v.006c0 2.016 1.125 3.287 2.988 3.287Zm-.058-5.566c.861 0 1.5.55 1.6 1.687H46.04c.111-1.096.768-1.687 1.635-1.687Zm6.685 5.566c1.512 0 2.637-.803 2.637-1.98v-.012c0-.92-.586-1.442-1.81-1.729l-1.008-.228c-.715-.17-1.008-.416-1.008-.815v-.011c0-.51.504-.856 1.201-.856.715 0 1.166.334 1.29.78v.011h1.212v-.006c-.111-1.037-1.043-1.763-2.496-1.763-1.441 0-2.473.797-2.473 1.904v.006c0 .931.557 1.476 1.758 1.752l1.014.234c.738.17 1.037.44 1.037.838v.012c0 .521-.545.879-1.33.879-.756 0-1.219-.323-1.377-.803l-.006-.006H51.73v.006c.123 1.066 1.096 1.787 2.631 1.787Z" fill="#6F6F6F"/><defs><linearGradient id="a" x1="408" y1="0" x2="408" y2="292" gradientUnits="userSpaceOnUse"><stop stop-color="#fff"/><stop offset="1" stop-color="#F4F4F5" stop-opacity="0"/></linearGradient><linearGradient id="d" x1="682" y1="0" x2="682" y2="292" gradientUnits="userSpaceOnUse"><stop stop-color="#fff"/><stop offset="0" stop-color="#fff"/><stop offset="1" stop-color="#F4F4F5" stop-opacity="0"/></linearGradient><linearGradient id="g" x1="134" y1="0" x2="134" y2="292" gradientUnits="userSpaceOnUse"><stop stop-color="#fff"/><stop offset="1" stop-color="#F4F4F5" stop-opacity="0"/></linearGradient></defs></svg>