<svg width="800" height="400" fill="none" xmlns="http://www.w3.org/2000/svg"><path fill-rule="evenodd" clip-rule="evenodd" d="M91.91 150.272c0 .561-.459 1.005-1.013 1.005a1.01 1.01 0 0 1-1.018-1.005c0-.553.458-1.004 1.018-1.004.554 0 1.012.451 1.012 1.004ZM70.601 160v-1.483H65.98v-2.824h4.368v-1.401H65.98v-2.673h4.62v-1.483h-6.384V160h6.385Zm3.712 0v-4.354c0-1.122.628-1.833 1.64-1.833 1.032 0 1.504.588 1.504 1.75V160h1.702v-4.833c0-1.777-.909-2.782-2.577-2.782-1.08 0-1.798.485-2.153 1.285h-.117v-1.142H72.61V160h1.703Zm13.63-.185c0 1.723-1.38 2.81-3.561 2.81-1.969 0-3.152-.841-3.322-2.099l.006-.02h1.703l.006.02c.117.479.684.814 1.634.814 1.162 0 1.839-.54 1.839-1.497v-1.429h-.116c-.43.8-1.244 1.237-2.277 1.237-1.893 0-3.069-1.463-3.069-3.582v-.013c0-2.16 1.176-3.651 3.104-3.651 1.032 0 1.838.506 2.262 1.354h.09v-1.231h1.701v7.287Zm-3.561-1.517c-1.183 0-1.853-.909-1.853-2.229v-.013c0-1.32.67-2.236 1.853-2.236 1.176 0 1.893.916 1.893 2.236v.013c0 1.32-.71 2.229-1.893 2.229ZM91.745 160v-7.472h-1.702V160h1.702Zm3.794-4.354V160h-1.702v-7.472h1.702v1.142h.116c.356-.8 1.073-1.285 2.154-1.285 1.668 0 2.577 1.005 2.577 2.782V160h-1.702v-4.437c0-1.162-.472-1.75-1.504-1.75-1.012 0-1.64.711-1.64 1.833Zm10.056 4.504c2.03 0 3.028-1.169 3.267-2.132l.021-.062h-1.62l-.021.048c-.164.342-.69.807-1.613.807-1.155 0-1.88-.78-1.9-2.12h5.222v-.56c0-2.256-1.312-3.746-3.438-3.746-2.126 0-3.487 1.538-3.487 3.889v.007c0 2.379 1.347 3.869 3.569 3.869Zm-1.853-4.6h3.548c-.116-1.224-.807-1.832-1.757-1.832-.95 0-1.661.642-1.791 1.832Zm10.111 4.6c2.03 0 3.028-1.169 3.267-2.132l.021-.062h-1.62l-.021.048c-.164.342-.69.807-1.613.807-1.156 0-1.88-.78-1.901-2.12h5.223v-.56c0-2.256-1.313-3.746-3.438-3.746-2.126 0-3.487 1.538-3.487 3.889v.007c0 2.379 1.347 3.869 3.569 3.869Zm-1.853-4.6h3.548c-.116-1.224-.807-1.832-1.757-1.832-.95 0-1.661.642-1.791 1.832Zm8.613 4.45v-4.341c0-1.066.745-1.743 1.88-1.743.294 0 .574.041.848.096v-1.525a2.722 2.722 0 0 0-.691-.082c-.984 0-1.668.472-1.921 1.272h-.116v-1.149h-1.702V160h1.702Zm6.002-9.728c0 .561-.458 1.005-1.011 1.005a1.01 1.01 0 0 1-1.019-1.005c0-.553.458-1.004 1.019-1.004.553 0 1.011.451 1.011 1.004Zm-.164 9.728v-7.472h-1.702V160h1.702Zm3.794-4.354V160h-1.702v-7.472h1.702v1.142h.116c.356-.8 1.074-1.285 2.154-1.285 1.668 0 2.577 1.005 2.577 2.782V160h-1.702v-4.437c0-1.162-.472-1.75-1.504-1.75-1.012 0-1.641.711-1.641 1.833Zm10.069 6.979c2.181 0 3.562-1.087 3.562-2.81v-7.287h-1.702v1.231h-.089c-.424-.848-1.231-1.354-2.263-1.354-1.927 0-3.103 1.491-3.103 3.651v.013c0 2.119 1.176 3.582 3.069 3.582 1.032 0 1.846-.437 2.276-1.237h.117v1.429c0 .957-.677 1.497-1.839 1.497-.95 0-1.518-.335-1.634-.814l-.007-.02h-1.702l-.007.02c.171 1.258 1.354 2.099 3.322 2.099Zm-1.852-6.556c0 1.32.67 2.229 1.852 2.229 1.183 0 1.894-.909 1.894-2.229v-.013c0-1.32-.718-2.236-1.894-2.236-1.182 0-1.852.916-1.852 2.236v.013Zm14.164 3.965c.328 0 .643-.027.889-.075v-1.313a4.866 4.866 0 0 1-.575.028c-.711 0-1.004-.315-1.004-1.06v-3.766h1.579v-1.32h-1.579v-1.832h-1.73v1.832h-1.162v1.32h1.162v4.17c0 1.442.704 2.016 2.42 2.016Zm8.982-2.016c-.239.963-1.237 2.132-3.267 2.132-2.222 0-3.569-1.49-3.569-3.869v-.007c0-2.351 1.361-3.889 3.487-3.889 2.126 0 3.438 1.49 3.438 3.746v.56h-5.222c.02 1.34.745 2.12 1.9 2.12.923 0 1.449-.465 1.613-.807l.021-.048h1.62l-.021.062Zm-1.572-2.468h-3.548c.13-1.19.841-1.832 1.791-1.832s1.641.608 1.757 1.832Zm7.588 3.425c-.41.724-1.203 1.148-2.187 1.148-1.422 0-2.455-.875-2.455-2.235v-.014c0-1.333 1.019-2.112 2.837-2.222l1.921-.116v-.642c0-.746-.485-1.156-1.401-1.156-.779 0-1.285.281-1.456.773l-.007.027h-1.606l.006-.061c.164-1.258 1.368-2.092 3.145-2.092 1.921 0 3.001.929 3.001 2.509V160h-1.682v-1.025h-.116Zm-1.668-.158c-.752 0-1.292-.376-1.292-1.011v-.014c0-.615.444-.964 1.395-1.025l1.681-.11v.602c0 .888-.759 1.558-1.784 1.558Zm7.205-3.363V160h-1.702v-7.472h1.702v1.162h.116c.322-.834 1.074-1.305 2.051-1.305 1.012 0 1.75.519 2.071 1.346h.117c.362-.813 1.223-1.346 2.262-1.346 1.504 0 2.407.923 2.407 2.474V160h-1.703v-4.724c0-.97-.444-1.463-1.353-1.463-.889 0-1.463.664-1.463 1.518V160h-1.702v-4.847c0-.827-.513-1.34-1.347-1.34-.841 0-1.456.711-1.456 1.641Z" fill="#333"/><rect x="25" y="140" width="28" height="28" rx="14" fill="#EDEFFE"/><path d="M43.342 160v-2.188h-5.748v-3.208h5.423v-2.04h-5.423v-3.058h5.748v-2.189H34.94V160h8.402Z" fill="#4660F9"/><g filter="url(#a)"><rect x="26.237" y="186" width="114.758" height="54" rx="4" fill="#fff"/><rect x="25.737" y="185.5" width="115.758" height="55" rx="4.5" stroke="#EAEAEB"/></g><path opacity=".6" fill-rule="evenodd" clip-rule="evenodd" d="M47.727 217v-7.164h.11L52.902 217h1.381v-9.864h-1.49v7.177h-.103l-5.072-7.177h-1.38V217h1.49Zm11.977.144c1.9 0 2.926-1.094 3.172-2.072l.014-.061-1.43.007-.026.054c-.178.383-.745.855-1.696.855-1.223 0-2.003-.827-2.03-2.249h5.264v-.52c0-2.228-1.272-3.725-3.343-3.725-2.071 0-3.411 1.551-3.411 3.869v.007c0 2.351 1.312 3.835 3.486 3.835Zm-1.976-4.526h3.774c-.116-1.326-.861-1.969-1.866-1.969-1.012 0-1.778.691-1.908 1.969ZM67.627 217l1.531-5.537h.116L70.812 217h1.525l2.044-7.424h-1.47l-1.326 5.729h-.116l-1.531-5.729h-1.409l-1.531 5.729h-.11l-1.332-5.729h-1.49l2.05 7.424h1.511Zm13.802-9.864V217h-1.532v-9.864h1.532Zm4.997 10.008c1.763 0 3.076-.937 3.076-2.311v-.014c0-1.073-.684-1.681-2.112-2.016l-1.176-.267c-.834-.198-1.176-.485-1.176-.95v-.014c0-.594.588-.998 1.401-.998.834 0 1.36.39 1.504.909v.014h1.415v-.007c-.13-1.21-1.216-2.057-2.912-2.057-1.681 0-2.885.929-2.885 2.221v.007c0 1.087.65 1.723 2.051 2.044l1.183.274c.861.198 1.21.512 1.21.977v.014c0 .608-.636 1.025-1.552 1.025-.882 0-1.422-.376-1.606-.936l-.007-.007h-1.484v.007c.144 1.244 1.279 2.085 3.07 2.085Zm10.486-2.311c0 1.374-1.312 2.311-3.076 2.311-1.791 0-2.926-.841-3.07-2.085v-.007h1.484l.007.007c.184.56.724.936 1.606.936.916 0 1.552-.417 1.552-1.025v-.014c0-.465-.349-.779-1.21-.977l-1.183-.274c-1.4-.321-2.05-.957-2.05-2.044v-.007c0-1.292 1.203-2.221 2.884-2.221 1.696 0 2.783.847 2.913 2.057v.007h-1.416v-.014c-.143-.519-.67-.909-1.503-.909-.814 0-1.402.404-1.402.998v.014c0 .465.342.752 1.176.95l1.176.267c1.428.335 2.112.943 2.112 2.016v.014Zm4.245 2.311c1.08 0 1.832-.465 2.188-1.265h.116V217h1.477v-7.424h-1.477v4.355c0 1.196-.636 1.941-1.825 1.941-1.087 0-1.538-.608-1.538-1.839v-4.457h-1.484v4.806c0 1.757.868 2.762 2.543 2.762Zm12.202-2.072c-.246.978-1.271 2.072-3.171 2.072-2.174 0-3.487-1.484-3.487-3.835v-.007c0-2.318 1.34-3.869 3.411-3.869 2.072 0 3.343 1.497 3.343 3.725v.52h-5.264c.028 1.422.807 2.249 2.031 2.249.95 0 1.517-.472 1.695-.855l.027-.054 1.429-.007-.014.061Zm-1.374-2.454h-3.773c.13-1.278.895-1.969 1.907-1.969 1.005 0 1.75.643 1.866 1.969Zm9.01 2.215c0 1.374-1.312 2.311-3.076 2.311-1.791 0-2.926-.841-3.069-2.085v-.007h1.483l.007.007c.184.56.724.936 1.606.936.916 0 1.552-.417 1.552-1.025v-.014c0-.465-.349-.779-1.21-.977l-1.183-.274c-1.401-.321-2.05-.957-2.05-2.044v-.007c0-1.292 1.203-2.221 2.884-2.221 1.696 0 2.783.847 2.913 2.057v.007h-1.415v-.014c-.144-.519-.67-.909-1.504-.909-.814 0-1.402.404-1.402.998v.014c0 .465.342.752 1.176.95l1.176.267c1.429.335 2.112.943 2.112 2.016v.014Z" fill="#333"/><g filter="url(#b)"><rect x="149.217" y="186" width="83.784" height="54" rx="4" fill="#fff"/><rect x="148.717" y="185.5" width="84.784" height="55" rx="4.5" stroke="#EAEAEB"/></g><path opacity=".6" fill-rule="evenodd" clip-rule="evenodd" d="M196.8 213.274c0 2.366-1.196 3.849-3.07 3.849-1.045 0-1.859-.478-2.269-1.292h-.116V217h-1.702v-10.363h1.702v4.081h.116c.39-.807 1.244-1.313 2.269-1.313 1.894 0 3.07 1.477 3.07 3.856v.013ZM170.98 217v-9.864h-1.763V217h1.763Zm5.462.15c1.894 0 2.995-1.018 3.241-2.549l.013-.055-1.606.007-.014.027c-.212.786-.752 1.19-1.634 1.19-1.155 0-1.845-.93-1.845-2.516v-.014c0-1.565.683-2.481 1.845-2.481.93 0 1.484.519 1.641 1.244l.007.02h1.606v-.027c-.191-1.545-1.34-2.611-3.26-2.611-2.249 0-3.569 1.442-3.569 3.855v.014c0 2.44 1.326 3.896 3.575 3.896Zm11.341-2.132c-.239.963-1.237 2.132-3.267 2.132-2.222 0-3.569-1.49-3.569-3.869v-.007c0-2.351 1.361-3.889 3.487-3.889 2.126 0 3.438 1.49 3.438 3.746v.56h-5.223c.021 1.34.746 2.12 1.901 2.12.923 0 1.449-.465 1.613-.807l.021-.048h1.62l-.021.062Zm-1.572-2.468h-3.548c.13-1.19.841-1.832 1.791-1.832s1.641.608 1.757 1.832Zm6.986 3.138c-1.155 0-1.873-.917-1.873-2.414v-.013c0-1.497.718-2.42 1.873-2.42 1.162 0 1.866.916 1.866 2.42v.013c0 1.504-.704 2.414-1.866 2.414Zm12.127-2.42c0 2.42-1.36 3.882-3.595 3.882-2.243 0-3.596-1.462-3.596-3.882v-.014c0-2.4 1.374-3.869 3.596-3.869 2.228 0 3.595 1.463 3.595 3.869v.014Zm-3.595 2.502c-1.183 0-1.86-.923-1.86-2.496v-.013c0-1.573.677-2.502 1.86-2.502 1.175 0 1.852.929 1.852 2.502v.013c0 1.573-.67 2.496-1.852 2.496Zm7.71-1.368L207.915 217h-1.832l2.42-3.705-2.441-3.767h1.969l1.484 2.591h.116l1.476-2.591h1.867l-2.413 3.692 2.44 3.78h-1.914l-1.531-2.598h-.117Z" fill="#333"/><g filter="url(#c)"><path d="M245.953 187.637h83.356c2.08 0 3.736 1.652 3.736 3.655v44.69c0 2.002-1.656 3.655-3.736 3.655h-83.356c-2.08 0-3.736-1.653-3.736-3.655v-44.69c0-2.003 1.656-3.655 3.736-3.655Z" fill="#EDEFFE" stroke="#4660F9" stroke-width="2"/><path fill-rule="evenodd" clip-rule="evenodd" d="M288.472 217v-2.625l.594-.608 2.4 3.233h2.051l-3.213-4.313 3.008-3.159h-1.969l-2.755 3.063h-.116v-5.954h-1.702V217h1.702Zm-19.647-2.796c0 1.73-1.285 2.796-3.39 2.796h-4.218v-9.864h4.122c1.873 0 3.001.943 3.001 2.454v.014c0 1.032-.766 1.948-1.757 2.105v.123c1.326.123 2.242 1.08 2.242 2.358v.014Zm-5.845-2.912h1.703c1.251 0 1.914-.485 1.914-1.381v-.014c0-.875-.622-1.387-1.689-1.387h-1.928v2.782Zm2.051 4.334h-2.051v-3.083h1.983c1.347 0 2.058.526 2.058 1.524v.014c0 1.005-.691 1.545-1.99 1.545Zm9.755.349c-.41.724-1.203 1.148-2.187 1.148-1.422 0-2.454-.875-2.454-2.235v-.014c0-1.333 1.018-2.112 2.836-2.222l1.921-.116v-.642c0-.746-.485-1.156-1.401-1.156-.779 0-1.285.281-1.456.773l-.007.027h-1.606l.006-.061c.165-1.258 1.368-2.092 3.145-2.092 1.921 0 3.001.929 3.001 2.509V217h-1.682v-1.025h-.116Zm-1.668-.158c-.752 0-1.292-.376-1.292-1.011v-.014c0-.615.445-.964 1.395-1.025l1.681-.11v.602c0 .888-.758 1.558-1.784 1.558Zm11.949-1.216c-.246 1.531-1.346 2.549-3.24 2.549-2.249 0-3.575-1.456-3.575-3.896v-.014c0-2.413 1.319-3.855 3.568-3.855 1.921 0 3.07 1.066 3.261 2.611v.027h-1.606l-.007-.02c-.157-.725-.711-1.244-1.641-1.244-1.162 0-1.846.916-1.846 2.481v.014c0 1.586.691 2.516 1.846 2.516.882 0 1.422-.404 1.634-1.19l.014-.027 1.606-.007-.014.055Zm11.526-7.964V217h-1.702v-10.363h1.702Zm5.373 10.513c2.235 0 3.596-1.462 3.596-3.882v-.014c0-2.406-1.368-3.869-3.596-3.869-2.222 0-3.596 1.469-3.596 3.869v.014c0 2.42 1.354 3.882 3.596 3.882Zm-1.86-3.876c0 1.573.677 2.496 1.86 2.496 1.182 0 1.852-.923 1.852-2.496v-.013c0-1.573-.676-2.502-1.852-2.502-1.183 0-1.86.929-1.86 2.502v.013Zm10.377 6.351c2.181 0 3.562-1.087 3.562-2.81v-7.287h-1.702v1.231h-.089c-.424-.848-1.231-1.354-2.263-1.354-1.928 0-3.103 1.491-3.103 3.651v.013c0 2.119 1.175 3.582 3.069 3.582 1.032 0 1.846-.437 2.276-1.237h.117v1.429c0 .957-.677 1.497-1.839 1.497-.95 0-1.518-.335-1.634-.814l-.007-.02h-1.702l-.007.02c.171 1.258 1.354 2.099 3.322 2.099Zm-1.852-6.556c0 1.32.67 2.229 1.852 2.229 1.183 0 1.894-.909 1.894-2.229v-.013c0-1.32-.718-2.236-1.894-2.236-1.182 0-1.852.916-1.852 2.236v.013Z" fill="#4660F9"/></g><g filter="url(#d)"><rect x="343.237" y="186" width="114.416" height="54" rx="4" fill="#fff"/><rect x="342.737" y="185.5" width="115.416" height="55" rx="4.5" stroke="#EAEAEB"/></g><path opacity=".6" fill-rule="evenodd" clip-rule="evenodd" d="M364.769 207.136V217h-1.532v-9.864h1.532Zm3.78 5.51V217h-1.484v-7.424h1.484v1.128h.109c.363-.793 1.073-1.271 2.154-1.271 1.661 0 2.577.991 2.577 2.761V217h-1.477v-4.457c0-1.231-.513-1.839-1.6-1.839-1.086 0-1.763.745-1.763 1.942ZM380.983 217v-3.37h2.311c1.935 0 3.274-1.319 3.274-3.247v-.014c0-1.934-1.339-3.233-3.274-3.233h-3.842V217h1.531Zm0-4.655h1.928c1.326 0 2.099-.718 2.099-1.955v-.014c0-1.23-.773-1.948-2.099-1.948h-1.928v3.917ZM389.85 217v-4.437c0-1.073.772-1.77 1.907-1.77.28 0 .533.034.8.089v-1.367a3.208 3.208 0 0 0-.65-.069c-.991 0-1.681.465-1.948 1.251h-.109v-1.121h-1.484V217h1.484Zm10.582-3.705c0 2.393-1.333 3.849-3.507 3.849-2.181 0-3.514-1.456-3.514-3.849v-.014c0-2.385 1.34-3.848 3.514-3.848 2.167 0 3.507 1.456 3.507 3.848v.014Zm-3.507 2.611c-1.279 0-1.996-.964-1.996-2.611v-.014c0-1.647.717-2.611 1.996-2.611 1.271 0 1.996.964 1.996 2.611v.014c0 1.641-.725 2.611-1.996 2.611Zm11.846.944c0 1.688-1.333 2.768-3.438 2.768-1.887 0-3.049-.827-3.227-2.064l.014-.014h1.497l.007.014c.123.512.725.875 1.73.875 1.223 0 1.948-.575 1.948-1.586v-1.463h-.11c-.451.807-1.271 1.258-2.29 1.258-1.907 0-3.083-1.47-3.083-3.562v-.014c0-2.119 1.183-3.616 3.111-3.616 1.039 0 1.845.513 2.276 1.347h.089v-1.217h1.476v7.274Zm-3.459-1.436c-1.264 0-1.975-.964-1.975-2.345v-.013c0-1.381.711-2.352 1.975-2.352 1.251 0 2.017.971 2.017 2.352v.013c0 1.388-.759 2.345-2.017 2.345Zm7.076-2.851V217h-1.484v-7.424h1.484v1.121h.109c.267-.786.957-1.251 1.948-1.251.24 0 .499.034.65.069v1.367a3.86 3.86 0 0 0-.8-.089c-1.135 0-1.907.697-1.907 1.77Zm7.048 4.581c1.9 0 2.925-1.094 3.171-2.072l.014-.061-1.429.007-.027.054c-.178.383-.745.855-1.695.855-1.224 0-2.003-.827-2.031-2.249h5.264v-.52c0-2.228-1.271-3.725-3.343-3.725-2.071 0-3.411 1.551-3.411 3.869v.007c0 2.351 1.313 3.835 3.487 3.835Zm-1.976-4.526h3.773c-.116-1.326-.861-1.969-1.866-1.969-1.012 0-1.777.691-1.907 1.969Zm9.707 4.526c1.764 0 3.076-.937 3.076-2.311v-.014c0-1.073-.683-1.681-2.112-2.016l-1.176-.267c-.834-.198-1.176-.485-1.176-.95v-.014c0-.594.588-.998 1.402-.998.834 0 1.36.39 1.504.909v.014h1.415v-.007c-.13-1.21-1.217-2.057-2.912-2.057-1.682 0-2.885.929-2.885 2.221v.007c0 1.087.649 1.723 2.051 2.044l1.182.274c.861.198 1.21.512 1.21.977v.014c0 .608-.636 1.025-1.552 1.025-.882 0-1.422-.376-1.606-.936l-.007-.007h-1.483v.007c.143 1.244 1.278 2.085 3.069 2.085Zm10.486-2.311c0 1.374-1.312 2.311-3.076 2.311-1.791 0-2.926-.841-3.069-2.085v-.007h1.483l.007.007c.185.56.725.936 1.606.936.917 0 1.552-.417 1.552-1.025v-.014c0-.465-.348-.779-1.21-.977l-1.182-.274c-1.402-.321-2.051-.957-2.051-2.044v-.007c0-1.292 1.203-2.221 2.885-2.221 1.695 0 2.782.847 2.912 2.057v.007h-1.415v-.014c-.144-.519-.67-.909-1.504-.909-.814 0-1.402.404-1.402.998v.014c0 .465.342.752 1.176.95l1.176.267c1.429.335 2.112.943 2.112 2.016v.014Z" fill="#333"/><g filter="url(#e)"><rect x="465.834" y="186" width="125.928" height="54" rx="4" fill="#fff"/><rect x="465.334" y="185.5" width="126.928" height="55" rx="4.5" stroke="#EAEAEB"/></g><path opacity=".6" fill-rule="evenodd" clip-rule="evenodd" d="M552.006 207.327a.93.93 0 0 1-1.86 0 .93.93 0 0 1 .93-.93c.506 0 .93.417.93.93Zm-44.666 9.796c1.039 0 1.852-.478 2.283-1.292h.116V217h1.477v-10.336h-1.477v4.088h-.116c-.396-.8-1.265-1.306-2.283-1.306-1.887 0-3.076 1.484-3.076 3.835v.014c0 2.331 1.21 3.828 3.076 3.828Zm-17.056.116c2.201 0 3.808-1.258 4.095-3.151v-.041h-1.518l-.013.027c-.281 1.114-1.258 1.812-2.564 1.812-1.777 0-2.885-1.47-2.885-3.808v-.014c0-2.344 1.108-3.814 2.878-3.814 1.299 0 2.29.786 2.577 1.996v.021h1.518l.007-.035c-.26-1.961-1.928-3.336-4.102-3.336-2.741 0-4.443 1.983-4.443 5.168v.014c0 3.179 1.709 5.161 4.45 5.161Zm9.078-.095c2.174 0 3.507-1.456 3.507-3.849v-.014c0-2.392-1.34-3.848-3.507-3.848-2.174 0-3.513 1.463-3.513 3.848v.014c0 2.393 1.333 3.849 3.513 3.849Zm-1.996-3.849c0 1.647.718 2.611 1.996 2.611 1.272 0 1.996-.97 1.996-2.611v-.014c0-1.647-.724-2.611-1.996-2.611-1.278 0-1.996.964-1.996 2.611v.014Zm8.408 0c0 1.593.746 2.563 1.99 2.563 1.237 0 1.996-.977 1.996-2.563v-.014c0-1.586-.766-2.563-1.996-2.563-1.244 0-1.99.97-1.99 2.563v.014Zm10.76 3.849c1.901 0 2.926-1.094 3.172-2.072l.014-.061-1.429.007-.027.054c-.178.383-.745.855-1.696.855-1.223 0-2.003-.827-2.03-2.249h5.264v-.52c0-2.228-1.272-3.725-3.343-3.725-2.071 0-3.411 1.551-3.411 3.869v.007c0 2.351 1.312 3.835 3.486 3.835Zm-1.975-4.526h3.773c-.116-1.326-.861-1.969-1.866-1.969-1.012 0-1.778.691-1.907 1.969ZM527.096 217v-3.794h2.16l2.01 3.794h1.77l-2.215-4.033c1.203-.404 1.914-1.484 1.914-2.81v-.013c0-1.832-1.257-3.008-3.281-3.008h-3.89V217h1.532Zm0-5.038h2.208c1.175 0 1.859-.643 1.859-1.764v-.013c0-1.094-.725-1.764-1.907-1.764h-2.16v3.541Zm10.548 5.182c1.9 0 2.925-1.094 3.171-2.072l.014-.061-1.429.007-.027.054c-.178.383-.745.855-1.695.855-1.224 0-2.003-.827-2.031-2.249h5.264v-.52c0-2.228-1.271-3.725-3.343-3.725-2.071 0-3.411 1.551-3.411 3.869v.007c0 2.351 1.313 3.835 3.487 3.835Zm-1.976-4.526h3.773c-.116-1.326-.861-1.969-1.866-1.969-1.012 0-1.777.691-1.907 1.969ZM546.134 217l2.679-7.424h-1.558l-1.846 5.92h-.116l-1.853-5.92h-1.572l2.687 7.424h1.579Zm5.674 0v-7.424h-1.477V217h1.477Zm8.449-1.928c-.246.978-1.272 2.072-3.172 2.072-2.174 0-3.486-1.484-3.486-3.835v-.007c0-2.318 1.339-3.869 3.411-3.869 2.071 0 3.343 1.497 3.343 3.725v.52h-5.264c.027 1.422.807 2.249 2.03 2.249.95 0 1.518-.472 1.695-.855l.028-.054 1.429-.007-.014.061Zm-1.374-2.454h-3.774c.13-1.278.896-1.969 1.908-1.969 1.004 0 1.75.643 1.866 1.969Zm7.656-1.155L565.008 217h-1.511l-2.051-7.424h1.491l1.333 5.729h.109l1.531-5.729h1.408l1.532 5.729h.116l1.326-5.729h1.47L569.718 217h-1.525l-1.538-5.537h-.116Z" fill="#333"/><g filter="url(#f)"><rect x="600.237" y="186" width="73.291" height="54" rx="4" fill="#fff"/><rect x="599.737" y="185.5" width="74.291" height="55" rx="4.5" stroke="#EAEAEB"/></g><path opacity=".6" fill-rule="evenodd" clip-rule="evenodd" d="M623.799 217c2.939 0 4.641-1.818 4.641-4.949v-.014c0-3.097-1.715-4.901-4.641-4.901h-3.562V217h3.562Zm-.171-1.319h-1.859v-7.226h1.859c2.044 0 3.254 1.333 3.254 3.603v.013c0 2.29-1.19 3.61-3.254 3.61Zm13.364-2.386c0 2.393-1.333 3.849-3.507 3.849-2.18 0-3.513-1.456-3.513-3.849v-.014c0-2.385 1.34-3.848 3.513-3.848 2.167 0 3.507 1.456 3.507 3.848v.014Zm-3.507 2.611c-1.278 0-1.996-.964-1.996-2.611v-.014c0-1.647.718-2.611 1.996-2.611 1.272 0 1.996.964 1.996 2.611v.014c0 1.641-.724 2.611-1.996 2.611Zm6.754-3.26V217h-1.483v-7.424h1.483v1.128h.11c.362-.793 1.073-1.271 2.153-1.271 1.661 0 2.577.991 2.577 2.761V217h-1.476v-4.457c0-1.231-.513-1.839-1.6-1.839-1.087 0-1.764.745-1.764 1.942Zm10.022 4.498c1.9 0 2.926-1.094 3.172-2.072l.013-.061-1.428.007-.028.054c-.178.383-.745.855-1.695.855-1.224 0-2.003-.827-2.03-2.249h5.263v-.52c0-2.228-1.271-3.725-3.342-3.725-2.072 0-3.412 1.551-3.412 3.869v.007c0 2.351 1.313 3.835 3.487 3.835Zm-1.976-4.526h3.774c-.117-1.326-.862-1.969-1.867-1.969-1.011 0-1.777.691-1.907 1.969Z" fill="#333"/><g filter="url(#g)"><rect x="681.834" y="186" width="84.83" height="54" rx="4" fill="#fff"/><rect x="681.334" y="185.5" width="85.83" height="55" rx="4.5" stroke="#EAEAEB"/></g><path opacity=".6" fill-rule="evenodd" clip-rule="evenodd" d="M713.77 217v-10.336h-1.484V217h1.484Zm-7.486.239c2.201 0 3.808-1.258 4.095-3.151v-.041h-1.518l-.013.027c-.281 1.114-1.258 1.812-2.564 1.812-1.777 0-2.885-1.47-2.885-3.808v-.014c0-2.344 1.108-3.814 2.878-3.814 1.299 0 2.29.786 2.577 1.996v.021h1.518l.007-.035c-.26-1.961-1.928-3.336-4.102-3.336-2.741 0-4.443 1.983-4.443 5.168v.014c0 3.179 1.709 5.161 4.45 5.161Zm16.338-3.944c0 2.393-1.333 3.849-3.507 3.849-2.18 0-3.513-1.456-3.513-3.849v-.014c0-2.385 1.339-3.848 3.513-3.848 2.167 0 3.507 1.456 3.507 3.848v.014Zm-3.507 2.611c-1.278 0-1.996-.964-1.996-2.611v-.014c0-1.647.718-2.611 1.996-2.611 1.272 0 1.996.964 1.996 2.611v.014c0 1.641-.724 2.611-1.996 2.611Zm11.047-1.073c0 1.374-1.312 2.311-3.076 2.311-1.791 0-2.926-.841-3.069-2.085v-.007h1.483l.007.007c.184.56.724.936 1.606.936.916 0 1.552-.417 1.552-1.025v-.014c0-.465-.349-.779-1.21-.977l-1.183-.274c-1.401-.321-2.05-.957-2.05-2.044v-.007c0-1.292 1.203-2.221 2.884-2.221 1.696 0 2.783.847 2.913 2.057v.007h-1.415v-.014c-.144-.519-.67-.909-1.504-.909-.814 0-1.402.404-1.402.998v.014c0 .465.342.752 1.176.95l1.176.267c1.429.335 2.112.943 2.112 2.016v.014Zm4.888 2.311c1.9 0 2.926-1.094 3.172-2.072l.013-.061-1.428.007-.028.054c-.177.383-.745.855-1.695.855-1.224 0-2.003-.827-2.03-2.249h5.263v-.52c0-2.228-1.271-3.725-3.342-3.725-2.072 0-3.412 1.551-3.412 3.869v.007c0 2.351 1.313 3.835 3.487 3.835Zm-1.976-4.526h3.774c-.117-1.326-.862-1.969-1.867-1.969-1.011 0-1.777.691-1.907 1.969Zm9.714 4.505c1.039 0 1.853-.478 2.283-1.292h.117V217h1.476v-10.336h-1.476v4.088h-.117c-.396-.8-1.264-1.306-2.283-1.306-1.887 0-3.076 1.484-3.076 3.835v.014c0 2.331 1.21 3.828 3.076 3.828Zm-1.565-3.828c0 1.593.745 2.563 1.989 2.563 1.237 0 1.996-.977 1.996-2.563v-.014c0-1.586-.766-2.563-1.996-2.563-1.244 0-1.989.97-1.989 2.563v.014Z" fill="#333"/><path fill-rule="evenodd" clip-rule="evenodd" d="M92.401 18.831c-.41.814-1.216 1.292-2.27 1.292-1.872 0-3.062-1.483-3.062-3.849v-.013c0-2.38 1.17-3.856 3.063-3.856 1.025 0 1.88.506 2.27 1.313h.116V9.637h1.709V20h-1.71v-1.169h-.116Zm-26.42-2.092V20h-1.764v-9.864h3.937c2.003 0 3.357 1.32 3.357 3.295v.013c0 1.97-1.354 3.295-3.357 3.295h-2.173Zm0-1.422h1.743c1.264 0 2.003-.683 2.003-1.866v-.014c0-1.182-.739-1.859-2.003-1.859H65.98v3.74ZM74.977 20v-4.34c0-1.067.745-1.744 1.88-1.744.293 0 .574.041.847.096v-1.525a2.729 2.729 0 0 0-.69-.082c-.985 0-1.668.472-1.921 1.272h-.116v-1.149h-1.703V20h1.703Zm10.752-3.732c0 2.42-1.36 3.882-3.595 3.882-2.242 0-3.596-1.462-3.596-3.882v-.014c0-2.4 1.374-3.87 3.596-3.87 2.228 0 3.596 1.464 3.596 3.87v.014Zm-3.595 2.502c-1.183 0-1.86-.923-1.86-2.496v-.013c0-1.572.677-2.502 1.86-2.502 1.176 0 1.852.93 1.852 2.502v.013c0 1.573-.67 2.495-1.852 2.495Zm8.531-.082c-1.162 0-1.866-.91-1.866-2.414v-.013c0-1.504.71-2.42 1.866-2.42 1.155 0 1.88.923 1.88 2.42v.013c0 1.497-.718 2.413-1.88 2.413Zm10.363.177c-.348.8-1.107 1.285-2.187 1.285-1.682 0-2.543-1.011-2.543-2.789v-4.833H98v4.444c0 1.155.43 1.743 1.456 1.743 1.101 0 1.689-.711 1.689-1.832v-4.355h1.702V20h-1.702v-1.135h-.117Zm7.103 1.285c1.893 0 2.994-1.018 3.24-2.55l.014-.054-1.607.007-.013.027c-.212.786-.752 1.19-1.634 1.19-1.155 0-1.846-.93-1.846-2.516v-.014c0-1.565.684-2.481 1.846-2.481.93 0 1.483.52 1.64 1.244l.007.02h1.607v-.027c-.192-1.545-1.34-2.611-3.261-2.611-2.249 0-3.568 1.442-3.568 3.855v.014c0 2.44 1.326 3.896 3.575 3.896Zm8.798-.191a4.854 4.854 0 0 1-.889.075c-1.716 0-2.42-.574-2.42-2.016v-4.17h-1.162v-1.32h1.162v-1.832h1.73v1.832h1.579v1.32h-1.579v3.766c0 .745.294 1.06 1.004 1.06.24 0 .37-.007.575-.027v1.312Zm8.367.075c.328 0 .642-.027.889-.075v-1.313a4.877 4.877 0 0 1-.575.028c-.711 0-1.005-.315-1.005-1.06v-3.766h1.58v-1.32h-1.58v-1.832h-1.729v1.832h-1.162v1.32h1.162v4.17c0 1.442.704 2.016 2.42 2.016Zm8.982-2.016c-.239.963-1.237 2.132-3.267 2.132-2.222 0-3.569-1.49-3.569-3.869v-.007c0-2.351 1.361-3.89 3.487-3.89 2.126 0 3.438 1.491 3.438 3.747v.56h-5.222c.02 1.34.745 2.12 1.9 2.12.923 0 1.449-.465 1.613-.807l.021-.048h1.62l-.021.062Zm-1.572-2.468h-3.548c.13-1.19.841-1.832 1.791-1.832s1.641.608 1.757 1.832Zm7.588 3.425c-.41.724-1.203 1.148-2.188 1.148-1.421 0-2.454-.875-2.454-2.235v-.014c0-1.333 1.019-2.112 2.837-2.222l1.921-.116v-.642c0-.746-.485-1.156-1.401-1.156-.78 0-1.285.28-1.456.773l-.007.027h-1.607l.007-.061c.164-1.258 1.367-2.092 3.145-2.092 1.921 0 3.001.93 3.001 2.509V20h-1.682v-1.025h-.116Zm-1.668-.158c-.752 0-1.292-.376-1.292-1.011v-.014c0-.615.444-.964 1.395-1.025l1.681-.11v.602c0 .889-.759 1.558-1.784 1.558Zm7.205-3.363V20h-1.702v-7.472h1.702v1.162h.116c.322-.834 1.074-1.305 2.051-1.305 1.012 0 1.75.52 2.071 1.346h.117c.362-.813 1.223-1.346 2.262-1.346 1.504 0 2.406.923 2.406 2.474V20h-1.702v-4.724c0-.97-.444-1.463-1.353-1.463-.889 0-1.463.664-1.463 1.518V20h-1.702v-4.847c0-.827-.513-1.34-1.347-1.34-.841 0-1.456.711-1.456 1.641Z" fill="#333"/><rect x="25" width="28" height="28" rx="14" fill="#EDEFFE"/><path fill-rule="evenodd" clip-rule="evenodd" d="M37.628 17.001V21h-2.654V8.317h5.23c2.671 0 4.455 1.723 4.455 4.333v.018c0 2.61-1.784 4.333-4.456 4.333h-2.575Zm0-2.074h1.925c1.52 0 2.417-.809 2.417-2.25v-.018c0-1.441-.897-2.241-2.417-2.241h-1.925v4.509Z" fill="#4660F9"/><g filter="url(#h)"><rect x="26.237" y="47" width="114.758" height="54" rx="4" fill="#fff"/><rect x="25.737" y="46.5" width="115.758" height="55" rx="4.5" stroke="#EAEAEB"/></g><path opacity=".6" fill-rule="evenodd" clip-rule="evenodd" d="M47.727 77v-7.164h.11L52.902 77h1.381v-9.864h-1.49v7.178h-.103l-5.072-7.178h-1.38V77h1.49Zm11.977.144c1.9 0 2.926-1.094 3.172-2.072l.014-.061-1.43.007-.026.054c-.178.383-.745.855-1.696.855-1.223 0-2.003-.827-2.03-2.25h5.264v-.519c0-2.228-1.272-3.725-3.343-3.725-2.071 0-3.411 1.551-3.411 3.869v.007c0 2.351 1.312 3.835 3.486 3.835Zm-1.976-4.526h3.774c-.116-1.326-.861-1.969-1.866-1.969-1.012 0-1.778.69-1.908 1.97ZM67.627 77l1.531-5.537h.116L70.812 77h1.525l2.044-7.424h-1.47l-1.326 5.729h-.116l-1.531-5.729h-1.409l-1.531 5.729h-.11l-1.332-5.729h-1.49L66.115 77h1.511Zm13.802-9.864V77h-1.532v-9.864h1.532Zm4.997 10.008c1.763 0 3.076-.937 3.076-2.311v-.014c0-1.073-.684-1.681-2.112-2.016l-1.176-.267c-.834-.198-1.176-.485-1.176-.95v-.014c0-.594.588-.998 1.401-.998.834 0 1.36.39 1.504.91v.013h1.415v-.007c-.13-1.21-1.216-2.057-2.912-2.057-1.681 0-2.885.93-2.885 2.221v.007c0 1.087.65 1.723 2.051 2.044l1.183.273c.861.199 1.21.513 1.21.978v.014c0 .608-.636 1.025-1.552 1.025-.882 0-1.422-.376-1.606-.936l-.007-.007h-1.484v.007c.144 1.244 1.279 2.085 3.07 2.085Zm10.486-2.311c0 1.374-1.312 2.31-3.076 2.31-1.791 0-2.926-.84-3.07-2.084v-.007h1.484l.007.007c.184.56.724.936 1.606.936.916 0 1.552-.417 1.552-1.025v-.014c0-.465-.349-.78-1.21-.978l-1.183-.273c-1.4-.321-2.05-.957-2.05-2.044v-.007c0-1.292 1.203-2.221 2.884-2.221 1.696 0 2.783.847 2.913 2.057v.007h-1.416v-.014c-.143-.52-.67-.909-1.503-.909-.814 0-1.402.404-1.402.998v.014c0 .465.342.752 1.176.95l1.176.267c1.428.335 2.112.943 2.112 2.016v.014Zm4.245 2.31c1.08 0 1.832-.464 2.188-1.264h.116V77h1.477v-7.424h-1.477v4.355c0 1.196-.636 1.941-1.825 1.941-1.087 0-1.538-.608-1.538-1.839v-4.457h-1.484v4.806c0 1.757.868 2.762 2.543 2.762Zm12.202-2.07c-.246.977-1.271 2.07-3.171 2.07-2.174 0-3.487-1.483-3.487-3.834v-.007c0-2.318 1.34-3.87 3.411-3.87 2.072 0 3.343 1.498 3.343 3.726v.52h-5.264c.028 1.422.807 2.249 2.031 2.249.95 0 1.517-.472 1.695-.855l.027-.054 1.429-.007-.014.061Zm-1.374-2.455h-3.773c.13-1.278.895-1.969 1.907-1.969 1.005 0 1.75.643 1.866 1.97Zm9.01 2.215c0 1.374-1.312 2.31-3.076 2.31-1.791 0-2.926-.84-3.069-2.084v-.007h1.483l.007.007c.184.56.724.936 1.606.936.916 0 1.552-.417 1.552-1.025v-.014c0-.465-.349-.78-1.21-.978l-1.183-.273c-1.401-.321-2.05-.957-2.05-2.044v-.007c0-1.292 1.203-2.221 2.884-2.221 1.696 0 2.783.847 2.913 2.057v.007h-1.415v-.014c-.144-.52-.67-.909-1.504-.909-.814 0-1.402.404-1.402.998v.014c0 .465.342.752 1.176.95l1.176.267c1.429.335 2.112.943 2.112 2.016v.014Z" fill="#333"/><g filter="url(#i)"><rect x="149.237" y="47" width="91.748" height="54" rx="4" fill="#fff"/><rect x="148.737" y="46.5" width="92.748" height="55" rx="4.5" stroke="#EAEAEB"/></g><path opacity=".6" fill-rule="evenodd" clip-rule="evenodd" d="M195.897 77v-2.7l.636-.636L199.09 77h1.805l-3.302-4.293 3.096-3.13h-1.736l-2.946 3.13h-.11v-6.043h-1.483V77h1.483Zm-19.236-2.782c0 1.73-1.265 2.782-3.37 2.782h-4.054v-9.864h3.965c1.853 0 2.967.943 2.967 2.454v.013c0 1.026-.759 1.949-1.73 2.113v.116c1.333.144 2.222 1.087 2.222 2.372v.014Zm-5.892-2.885h1.818c1.353 0 2.058-.506 2.058-1.463v-.014c0-.93-.664-1.47-1.798-1.47h-2.078v2.947Zm2.214 4.416h-2.214v-3.247h2.126c1.442 0 2.201.547 2.201 1.606v.014c0 1.06-.732 1.627-2.113 1.627Zm9.707.198c-.437.752-1.216 1.176-2.201 1.176-1.415 0-2.461-.861-2.461-2.208v-.014c0-1.326.998-2.098 2.769-2.208l2.01-.116v-.656c0-.814-.513-1.265-1.518-1.265-.82 0-1.36.301-1.538.827l-.007.028h-1.429l.007-.048c.178-1.217 1.347-2.03 3.035-2.03 1.867 0 2.919.93 2.919 2.488V77h-1.469v-1.053h-.117Zm-1.804-.007c-.8 0-1.381-.403-1.381-1.087v-.013c0-.67.465-1.04 1.49-1.1l1.812-.117v.636c0 .957-.814 1.681-1.921 1.681Zm11.771-1.23c-.266 1.442-1.326 2.434-3.165 2.434-2.167 0-3.493-1.477-3.493-3.876v-.014c0-2.352 1.319-3.821 3.486-3.821 1.867 0 2.981 1.052 3.186 2.495v.034l-1.422.007-.007-.02c-.164-.732-.765-1.28-1.75-1.28-1.237 0-1.982.985-1.982 2.585v.014c0 1.64.759 2.638 1.982 2.638.93 0 1.504-.424 1.743-1.223l.014-.035h1.422l-.014.062Zm9.653-8.046h1.483V77h-1.483V66.664Zm6.829 10.48c2.173 0 3.507-1.457 3.507-3.85v-.013c0-2.392-1.34-3.848-3.507-3.848-2.174 0-3.514 1.462-3.514 3.848v.014c0 2.392 1.333 3.849 3.514 3.849Zm-1.996-3.85c0 1.648.717 2.612 1.996 2.612 1.271 0 1.996-.97 1.996-2.611v-.014c0-1.647-.725-2.611-1.996-2.611-1.279 0-1.996.964-1.996 2.611v.014Zm10.404 6.324c2.105 0 3.438-1.08 3.438-2.768v-7.274h-1.476v1.217h-.089c-.431-.834-1.237-1.347-2.276-1.347-1.928 0-3.111 1.497-3.111 3.617v.013c0 2.092 1.176 3.562 3.083 3.562 1.019 0 1.839-.452 2.29-1.258h.11v1.463c0 1.011-.725 1.586-1.949 1.586-1.005 0-1.606-.363-1.729-.875l-.007-.014h-1.497l-.014.014c.178 1.237 1.34 2.064 3.227 2.064Zm-1.996-6.549c0 1.381.711 2.345 1.975 2.345 1.258 0 2.017-.957 2.017-2.345v-.013c0-1.381-.766-2.352-2.017-2.352-1.264 0-1.975.97-1.975 2.352v.013Z" fill="#333"/><g filter="url(#j)"><rect x="250.237" y="47" width="114.416" height="54" rx="4" fill="#fff"/><rect x="249.737" y="46.5" width="115.416" height="55" rx="4.5" stroke="#EAEAEB"/></g><path opacity=".6" fill-rule="evenodd" clip-rule="evenodd" d="M271.769 67.136V77h-1.532v-9.864h1.532Zm3.78 5.51V77h-1.484v-7.424h1.484v1.128h.109c.363-.793 1.073-1.271 2.154-1.271 1.661 0 2.577.99 2.577 2.761V77h-1.477v-4.457c0-1.23-.513-1.839-1.6-1.839-1.086 0-1.763.745-1.763 1.942ZM287.983 77v-3.37h2.311c1.935 0 3.274-1.32 3.274-3.247v-.014c0-1.934-1.339-3.233-3.274-3.233h-3.842V77h1.531Zm0-4.655h1.928c1.326 0 2.099-.718 2.099-1.955v-.014c0-1.23-.773-1.948-2.099-1.948h-1.928v3.917ZM296.85 77v-4.436c0-1.074.772-1.771 1.907-1.771.28 0 .533.034.8.089v-1.367a3.28 3.28 0 0 0-.65-.069c-.991 0-1.681.465-1.948 1.251h-.109v-1.12h-1.484V77h1.484Zm10.582-3.705c0 2.392-1.333 3.849-3.507 3.849-2.181 0-3.514-1.457-3.514-3.85v-.013c0-2.386 1.34-3.848 3.514-3.848 2.167 0 3.507 1.456 3.507 3.848v.014Zm-3.507 2.611c-1.279 0-1.996-.964-1.996-2.611v-.014c0-1.647.717-2.611 1.996-2.611 1.271 0 1.996.964 1.996 2.611v.014c0 1.64-.725 2.611-1.996 2.611Zm11.846.944c0 1.688-1.333 2.768-3.438 2.768-1.887 0-3.049-.827-3.227-2.064l.014-.014h1.497l.007.014c.123.512.725.875 1.73.875 1.223 0 1.948-.575 1.948-1.586V75.38h-.11c-.451.806-1.271 1.258-2.29 1.258-1.907 0-3.083-1.47-3.083-3.562v-.013c0-2.12 1.183-3.617 3.111-3.617 1.039 0 1.845.513 2.276 1.347h.089v-1.217h1.476v7.274Zm-3.459-1.436c-1.264 0-1.975-.964-1.975-2.345v-.013c0-1.381.711-2.352 1.975-2.352 1.251 0 2.017.97 2.017 2.352v.013c0 1.388-.759 2.345-2.017 2.345Zm7.076-2.85V77h-1.484v-7.424h1.484v1.121h.109c.267-.786.957-1.25 1.948-1.25.24 0 .499.034.65.068v1.367a3.88 3.88 0 0 0-.8-.089c-1.135 0-1.907.697-1.907 1.77Zm7.048 4.58c1.9 0 2.925-1.094 3.171-2.072l.014-.061-1.429.007-.027.054c-.178.383-.745.855-1.695.855-1.224 0-2.003-.827-2.031-2.25h5.264v-.519c0-2.228-1.271-3.725-3.343-3.725-2.071 0-3.411 1.551-3.411 3.869v.007c0 2.351 1.313 3.835 3.487 3.835Zm-1.976-4.526h3.773c-.116-1.326-.861-1.969-1.866-1.969-1.012 0-1.777.69-1.907 1.97Zm9.707 4.526c1.764 0 3.076-.937 3.076-2.311v-.014c0-1.073-.683-1.681-2.112-2.016l-1.176-.267c-.834-.198-1.176-.485-1.176-.95v-.014c0-.594.588-.998 1.402-.998.834 0 1.36.39 1.504.91v.013h1.415v-.007c-.13-1.21-1.217-2.057-2.912-2.057-1.682 0-2.885.93-2.885 2.221v.007c0 1.087.649 1.723 2.051 2.044l1.182.273c.861.199 1.21.513 1.21.978v.014c0 .608-.636 1.025-1.552 1.025-.882 0-1.422-.376-1.606-.936l-.007-.007h-1.483v.007c.143 1.244 1.278 2.085 3.069 2.085Zm10.486-2.311c0 1.374-1.312 2.31-3.076 2.31-1.791 0-2.926-.84-3.069-2.084v-.007h1.483l.007.007c.185.56.725.936 1.606.936.917 0 1.552-.417 1.552-1.025v-.014c0-.465-.348-.78-1.21-.978l-1.182-.273c-1.402-.321-2.051-.957-2.051-2.044v-.007c0-1.292 1.203-2.221 2.885-2.221 1.695 0 2.782.847 2.912 2.057v.007h-1.415v-.014c-.144-.52-.67-.909-1.504-.909-.814 0-1.402.404-1.402.998v.014c0 .465.342.752 1.176.95l1.176.267c1.429.335 2.112.943 2.112 2.016v.014Z" fill="#333"/><rect x="374" y="47" width="177" height="52" rx="3" fill="#EDEFFE" stroke="#4660F9" stroke-width="2"/><path d="M389 76.558h1.407v-3.486h1.984l1.846 3.486h1.627l-2.035-3.705c1.105-.37 1.758-1.363 1.758-2.581v-.013c0-1.683-1.155-2.763-3.014-2.763H389v9.062Zm1.407-4.629v-3.252h1.984c1.086 0 1.752.615 1.752 1.62v.012c0 1.03-.628 1.62-1.708 1.62h-2.028Zm9.689 4.761c1.746 0 2.688-1.005 2.914-1.903l.012-.057-1.312.006-.025.05c-.164.352-.685.786-1.558.786-1.124 0-1.84-.76-1.865-2.066h4.836v-.478c0-2.047-1.168-3.422-3.071-3.422-1.903 0-3.134 1.425-3.134 3.554v.007c0 2.16 1.206 3.522 3.203 3.522Zm-.063-5.966c.923 0 1.608.59 1.715 1.808h-3.467c.12-1.174.823-1.808 1.752-1.808Zm6.556 5.946c.904 0 1.62-.389 2.022-1.08h.107v.968h1.35v-4.666c0-1.432-.967-2.286-2.681-2.286-1.551 0-2.625.747-2.789 1.865l-.006.044h1.313l.006-.025c.163-.484.659-.76 1.413-.76.923 0 1.394.414 1.394 1.162v.603l-1.846.106c-1.627.1-2.544.81-2.544 2.029v.012c0 1.237.961 2.029 2.261 2.029Zm-.904-2.084v-.013c0-.615.427-.954 1.369-1.01l1.664-.108v.584c0 .88-.747 1.545-1.765 1.545-.734 0-1.268-.37-1.268-.998Zm8.791 2.084c.955 0 1.702-.439 2.098-1.186h.106v1.074h1.357v-9.495h-1.357v3.755h-.106c-.365-.735-1.162-1.2-2.098-1.2-1.733 0-2.826 1.363-2.826 3.523v.013c0 2.141 1.112 3.517 2.826 3.517Zm.39-1.161c-1.143 0-1.828-.892-1.828-2.355v-.013c0-1.463.685-2.354 1.828-2.354 1.13 0 1.833.898 1.833 2.354v.013c0 1.457-.697 2.355-1.833 2.355Zm5.865 3.447c1.381 0 2.072-.508 2.65-2.135l2.537-7.083h-1.432l-1.702 5.45h-.119l-1.708-5.45h-1.47l2.474 6.826-.1.351c-.201.691-.584.961-1.218.961-.157 0-.327-.006-.459-.025v1.074c.176.019.377.031.547.031Zm10.568-2.398h1.357v-5.746h1.5v-1.074h-1.513v-.653c0-.69.295-1.055 1.049-1.055.213 0 .395.012.521.031v-.998a4.969 4.969 0 0 0-.804-.063c-1.419 0-2.11.666-2.11 2.022v.716h-1.124v1.074h1.124v5.746Zm7.014.132c1.997 0 3.222-1.338 3.222-3.536v-.013c0-2.197-1.231-3.535-3.222-3.535-1.996 0-3.227 1.344-3.227 3.535v.013c0 2.198 1.224 3.535 3.227 3.535Zm0-1.137c-1.174 0-1.833-.886-1.833-2.399v-.013c0-1.513.659-2.398 1.833-2.398 1.168 0 1.834.885 1.834 2.398v.013c0 1.507-.666 2.399-1.834 2.399Zm4.848 1.005h1.363v-4.076c0-.986.71-1.626 1.752-1.626.257 0 .49.031.735.081v-1.256a2.996 2.996 0 0 0-.597-.062c-.91 0-1.545.427-1.79 1.149h-.1v-1.03h-1.363v6.82Zm8.823 0h3.272c2.7 0 4.264-1.67 4.264-4.547V72c0-2.845-1.577-4.503-4.264-4.503h-3.272v9.062Zm1.407-1.213v-6.637h1.708c1.877 0 2.989 1.225 2.989 3.31v.012c0 2.104-1.093 3.316-2.989 3.316h-1.708Zm10.744 1.345c1.746 0 2.688-1.005 2.914-1.903l.012-.057-1.312.006-.025.05c-.163.352-.685.786-1.558.786-1.124 0-1.839-.76-1.865-2.066h4.836v-.478c0-2.047-1.168-3.422-3.071-3.422-1.903 0-3.134 1.425-3.134 3.554v.007c0 2.16 1.206 3.522 3.203 3.522Zm-.063-5.966c.923 0 1.608.59 1.715 1.808h-3.467c.12-1.174.823-1.808 1.752-1.808Zm6.412 5.834h1.45l2.462-6.82h-1.432l-1.695 5.438h-.107l-1.702-5.438h-1.444l2.468 6.82Zm7.881.132c1.745 0 2.687-1.005 2.913-1.903l.013-.057-1.313.006-.025.05c-.163.352-.684.786-1.557.786-1.124 0-1.84-.76-1.865-2.066h4.835v-.478c0-2.047-1.168-3.422-3.07-3.422-1.903 0-3.134 1.425-3.134 3.554v.007c0 2.16 1.206 3.522 3.203 3.522Zm-.063-5.966c.923 0 1.607.59 1.714 1.808h-3.466c.119-1.174.822-1.808 1.752-1.808Zm4.747 5.834h1.363v-9.495h-1.363v9.495Zm6.28.132c1.997 0 3.221-1.338 3.221-3.536v-.013c0-2.197-1.231-3.535-3.221-3.535-1.997 0-3.228 1.344-3.228 3.535v.013c0 2.198 1.225 3.535 3.228 3.535Zm0-1.137c-1.175 0-1.834-.886-1.834-2.399v-.013c0-1.513.659-2.398 1.834-2.398 1.168 0 1.833.885 1.833 2.398v.013c0 1.507-.665 2.399-1.833 2.399Zm4.848 3.277h1.362v-3.353h.101c.364.735 1.161 1.194 2.097 1.194 1.733 0 2.826-1.357 2.826-3.517v-.013c0-2.147-1.105-3.522-2.826-3.522-.954 0-1.702.445-2.097 1.193h-.101v-1.074h-1.362v9.093Zm3.177-3.321c-1.137 0-1.84-.898-1.84-2.355v-.013c0-1.456.703-2.354 1.84-2.354s1.821.885 1.821 2.354v.013c0 1.463-.684 2.355-1.821 2.355Zm4.848 1.049h1.362v-4.189c0-.892.61-1.595 1.432-1.595.804 0 1.313.49 1.313 1.269v4.514h1.356v-4.314c0-.822.571-1.469 1.438-1.469.892 0 1.319.465 1.319 1.407v4.377h1.356v-4.704c0-1.42-.804-2.248-2.179-2.248-.948 0-1.733.484-2.078 1.218h-.107c-.302-.734-.961-1.218-1.89-1.218-.892 0-1.558.433-1.859 1.18h-.101v-1.048h-1.362v6.82Zm14.342.132c1.746 0 2.688-1.005 2.914-1.903l.013-.057-1.313.006-.025.05c-.163.352-.684.786-1.557.786-1.124 0-1.84-.76-1.865-2.066h4.835v-.478c0-2.047-1.168-3.422-3.071-3.422-1.902 0-3.133 1.425-3.133 3.554v.007c0 2.16 1.205 3.522 3.202 3.522Zm-.062-5.966c.923 0 1.607.59 1.714 1.808h-3.466c.119-1.174.822-1.808 1.752-1.808Zm4.684 5.834h1.363v-4c0-1.1.621-1.784 1.62-1.784.998 0 1.469.559 1.469 1.69v4.094h1.357v-4.415c0-1.626-.842-2.537-2.368-2.537-.992 0-1.645.44-1.978 1.168h-.1v-1.036h-1.363v6.82Zm10.286.044c.264 0 .515-.032.735-.07v-1.086a4.487 4.487 0 0 1-.515.025c-.672 0-.948-.301-.948-1.036v-3.623h1.463v-1.074h-1.463v-1.72h-1.388v1.72h-1.068v1.074h1.068v3.95c0 1.312.615 1.84 2.116 1.84Z" fill="#4660F9"/><g filter="url(#k)"><rect x="560.834" y="47" width="84.83" height="54" rx="4" fill="#fff"/><rect x="560.334" y="46.5" width="85.83" height="55" rx="4.5" stroke="#EAEAEB"/></g><path opacity=".6" fill-rule="evenodd" clip-rule="evenodd" d="M592.77 77V66.664h-1.484V77h1.484Zm-7.486.24c2.201 0 3.808-1.259 4.095-3.152v-.041h-1.518l-.013.027c-.281 1.115-1.258 1.812-2.564 1.812-1.777 0-2.885-1.47-2.885-3.808v-.014c0-2.344 1.108-3.814 2.878-3.814 1.299 0 2.29.786 2.577 1.996v.02h1.518l.007-.034c-.26-1.962-1.928-3.335-4.102-3.335-2.741 0-4.443 1.982-4.443 5.167v.014c0 3.179 1.709 5.161 4.45 5.161Zm16.338-3.945c0 2.392-1.333 3.849-3.507 3.849-2.18 0-3.513-1.457-3.513-3.85v-.013c0-2.386 1.339-3.848 3.513-3.848 2.167 0 3.507 1.456 3.507 3.848v.014Zm-3.507 2.611c-1.278 0-1.996-.964-1.996-2.611v-.014c0-1.647.718-2.611 1.996-2.611 1.272 0 1.996.964 1.996 2.611v.014c0 1.64-.724 2.611-1.996 2.611Zm11.047-1.073c0 1.374-1.312 2.31-3.076 2.31-1.791 0-2.926-.84-3.069-2.084v-.007h1.483l.007.007c.184.56.724.936 1.606.936.916 0 1.552-.417 1.552-1.025v-.014c0-.465-.349-.78-1.21-.978l-1.183-.273c-1.401-.321-2.05-.957-2.05-2.044v-.007c0-1.292 1.203-2.221 2.884-2.221 1.696 0 2.783.847 2.913 2.057v.007h-1.415v-.014c-.144-.52-.67-.909-1.504-.909-.814 0-1.402.404-1.402.998v.014c0 .465.342.752 1.176.95l1.176.267c1.429.335 2.112.943 2.112 2.016v.014Zm4.888 2.31c1.9 0 2.926-1.093 3.172-2.07l.013-.062-1.428.007-.028.054c-.177.383-.745.855-1.695.855-1.224 0-2.003-.827-2.03-2.25h5.263v-.519c0-2.228-1.271-3.725-3.342-3.725-2.072 0-3.412 1.551-3.412 3.869v.007c0 2.351 1.313 3.835 3.487 3.835Zm-1.976-4.525h3.774c-.117-1.326-.862-1.969-1.867-1.969-1.011 0-1.777.69-1.907 1.97Zm9.714 4.505c1.039 0 1.853-.479 2.283-1.292h.117V77h1.476V66.664h-1.476v4.088h-.117c-.396-.8-1.264-1.306-2.283-1.306-1.887 0-3.076 1.484-3.076 3.835v.014c0 2.331 1.21 3.828 3.076 3.828Zm-1.565-3.828c0 1.593.745 2.563 1.989 2.563 1.237 0 1.996-.977 1.996-2.563v-.014c0-1.586-.766-2.563-1.996-2.563-1.244 0-1.989.97-1.989 2.563v.014Z" fill="#333"/><path fill-rule="evenodd" clip-rule="evenodd" d="M461 110v2a1 1 0 0 0 2 0v-2a1 1 0 0 0-2 0Zm0 7v2a1 1 0 0 0 2 0v-2a1 1 0 0 0-2 0Zm0 9v-2a1 1 0 0 1 2 0v2a1 1 0 0 1-2 0Zm0 5v2a1 1 0 0 0 2 0v-2a1 1 0 0 0-2 0Zm-3.952 5.048h2a1 1 0 0 1 0 2h-2a1 1 0 0 1 0-2Zm-5 0h-2a1 1 0 0 0 0 2h2a1 1 0 0 0 0-2Zm-9 0h2a1 1 0 0 1 0 2h-2a1 1 0 0 1 0-2Zm-5 0h-2a1 1 0 0 0 0 2h2a1 1 0 0 0 0-2Zm-9 0h2a1 1 0 0 1 0 2h-2a1 1 0 0 1 0-2Zm-5 0h-2a1 1 0 0 0 0 2h2a1 1 0 0 0 0-2Zm-9 0h2a1 1 0 0 1 0 2h-2a1 1 0 0 1 0-2Zm-5 0h-2a1 1 0 0 0 0 2h2a1 1 0 0 0 0-2Zm-9 0h2a1 1 0 0 1 0 2h-2a1 1 0 0 1 0-2Zm-5 0h-2a1 1 0 0 0 0 2h2a1 1 0 0 0 0-2Zm-9 0h2a1 1 0 0 1 0 2h-2a1 1 0 0 1 0-2Zm-5 0h-2a1 1 0 0 0 0 2h2a1 1 0 0 0 0-2Zm-9 0h2a1 1 0 0 1 0 2h-2a1 1 0 0 1 0-2Zm-5 0h-2a1 1 0 0 0 0 2h2a1 1 0 0 0 0-2Zm-9 0h2a1 1 0 0 1 0 2h-2a1 1 0 0 1 0-2Zm-5 0h-2a1 1 0 0 0 0 2h2a1 1 0 0 0 0-2Zm-9 0h2a1 1 0 0 1 0 2h-2a1 1 0 0 1 0-2Zm-5 0h-2a1 1 0 0 0 0 2h2a1 1 0 0 0 0-2Zm-9 0h2a1 1 0 0 1 0 2h-2a1 1 0 0 1 0-2Zm-5 0h-2a1 1 0 0 0 0 2h2a1 1 0 0 0 0-2Zm-9 0h2a1 1 0 0 1 0 2h-2a1 1 0 0 1 0-2Zm-5 0h-2a1 1 0 0 0 0 2h2a1 1 0 0 0 0-2Zm-9 0h2a1 1 0 0 1 0 2h-2a1 1 0 0 1 0-2Zm-5 0h-2a1 1 0 0 0 0 2h2a1 1 0 0 0 0-2Zm-9 0h2a1 1 0 0 1 0 2h-2a1 1 0 0 1 0-2ZM287 142v2a1 1 0 0 0 2 0v-2a1 1 0 0 0-2 0Zm0 9v-2a1 1 0 0 1 2 0v2a1 1 0 0 1-2 0Zm0 5v2a1 1 0 0 0 2 0v-2a1 1 0 0 0-2 0Zm0 9v-2a1 1 0 0 1 2 0v2a1 1 0 0 1-2 0Zm0 5v2a1 1 0 0 0 2 0v-2a1 1 0 0 0-2 0Zm0 9v-2a1 1 0 0 1 2 0v2a1 1 0 0 1-2 0Z" fill="#4660F9"/><circle cx="462" cy="100" r="6" fill="#fff" stroke="#4660F9" stroke-width="2"/><path d="M288 190.764 294.382 178h-12.764L288 190.764Z" fill="#fff" stroke="#4660F9" stroke-width="2"/><path opacity=".8" d="M5.186 304h1.122l2.19-7.514h.08l2.19 7.514h1.121l2.593-9.52h-1.24l-1.894 7.739h-.08l-2.13-7.739h-1.2l-2.131 7.739h-.08l-1.893-7.739h-1.24L5.186 304Zm11.024 0h1.148v-4.209c0-1.247.72-2.012 1.854-2.012 1.134 0 1.662.613 1.662 1.893V304h1.148v-4.605c0-1.689-.89-2.632-2.487-2.632-1.049 0-1.715.442-2.071 1.194h-.106v-3.892H16.21V304Zm10.793.125c1.676 0 2.692-.95 2.936-1.913l.013-.053h-1.148l-.026.06c-.192.429-.785.884-1.749.884-1.266 0-2.078-.858-2.11-2.329h5.119v-.449c0-2.124-1.175-3.562-3.108-3.562s-3.186 1.504-3.186 3.701v.007c0 2.229 1.227 3.654 3.259 3.654Zm-.08-6.339c1.05 0 1.828.666 1.947 2.071h-3.932c.125-1.352.93-2.071 1.986-2.071ZM31.82 304h1.148v-4.209c0-1.247.719-2.012 1.854-2.012 1.134 0 1.662.613 1.662 1.893V304h1.148v-4.605c0-1.689-.89-2.632-2.487-2.632-1.05 0-1.715.442-2.072 1.194h-.105v-1.069H31.82V304Zm12.297-8.484a.794.794 0 0 0 .791-.792.794.794 0 0 0-.791-.791.794.794 0 0 0-.792.791c0 .436.356.792.792.792Zm-.58 8.484h1.147v-7.112h-1.148V304Zm5.752.125c1.616 0 2.85-.877 2.85-2.144v-.013c0-1.016-.647-1.596-1.986-1.92l-1.095-.264c-.838-.204-1.194-.508-1.194-.989v-.013c0-.627.62-1.062 1.465-1.062.857 0 1.411.389 1.563.95h1.128c-.158-1.162-1.194-1.907-2.685-1.907-1.51 0-2.645.891-2.645 2.071v.007c0 1.023.6 1.603 1.933 1.92l1.101.264c.878.211 1.24.547 1.24 1.029v.013c0 .647-.679 1.102-1.636 1.102-.91 0-1.477-.389-1.669-.983h-1.174c.132 1.174 1.22 1.939 2.804 1.939Zm6.94 0c1.616 0 2.85-.877 2.85-2.144v-.013c0-1.016-.647-1.596-1.986-1.92l-1.095-.264c-.838-.204-1.194-.508-1.194-.989v-.013c0-.627.62-1.062 1.465-1.062.857 0 1.411.389 1.563.95h1.128c-.158-1.162-1.194-1.907-2.685-1.907-1.51 0-2.645.891-2.645 2.071v.007c0 1.023.6 1.603 1.933 1.92l1.102.264c.877.211 1.24.547 1.24 1.029v.013c0 .647-.68 1.102-1.636 1.102-.91 0-1.478-.389-1.67-.983h-1.174c.132 1.174 1.22 1.939 2.804 1.939Zm7.013 0c1.042 0 1.761-.428 2.11-1.187h.106V304h1.148v-7.112h-1.148v4.209c0 1.247-.666 2.012-1.92 2.012-1.134 0-1.596-.613-1.596-1.893v-4.328h-1.148v4.605c0 1.682.831 2.632 2.448 2.632Zm8.411 0c1.676 0 2.692-.95 2.936-1.913l.013-.053h-1.148l-.026.06c-.192.429-.785.884-1.749.884-1.266 0-2.078-.858-2.11-2.329h5.119v-.449c0-2.124-1.174-3.562-3.108-3.562-1.932 0-3.186 1.504-3.186 3.701v.007c0 2.229 1.227 3.654 3.26 3.654Zm-.08-6.339c1.05 0 1.828.666 1.947 2.071h-3.932c.126-1.352.93-2.071 1.986-2.071Zm7.337 6.339c1.616 0 2.85-.877 2.85-2.144v-.013c0-1.016-.647-1.596-1.986-1.92l-1.095-.264c-.838-.204-1.194-.508-1.194-.989v-.013c0-.627.62-1.062 1.465-1.062.857 0 1.411.389 1.563.95h1.128c-.158-1.162-1.194-1.907-2.685-1.907-1.51 0-2.645.891-2.645 2.071v.007c0 1.023.6 1.603 1.933 1.92l1.101.264c.878.211 1.24.547 1.24 1.029v.013c0 .647-.679 1.102-1.636 1.102-.91 0-1.477-.389-1.669-.983h-1.174c.132 1.174 1.22 1.939 2.804 1.939Zm8.43-.125h1.148v-4.407c0-1.003.706-1.814 1.636-1.814.897 0 1.478.548 1.478 1.392V304h1.148v-4.572c0-.904.653-1.649 1.642-1.649 1.003 0 1.485.521 1.485 1.57V304h1.148v-4.915c0-1.491-.812-2.322-2.263-2.322-.983 0-1.795.495-2.177 1.247h-.106c-.33-.739-1.003-1.247-1.966-1.247-.93 0-1.603.442-1.92 1.207h-.105v-1.082H87.34V304Zm14.679.125c2.025 0 3.278-1.398 3.278-3.674v-.013c0-2.283-1.253-3.675-3.278-3.675-2.026 0-3.28 1.392-3.28 3.675v.013c0 2.276 1.254 3.674 3.28 3.674Zm0-1.016c-1.346 0-2.105-.983-2.105-2.658v-.013c0-1.683.759-2.659 2.105-2.659 1.345 0 2.104.976 2.104 2.659v.013c0 1.675-.759 2.658-2.104 2.658Zm6.808.891h1.161l2.632-7.112h-1.214l-1.946 5.859h-.106l-1.946-5.859h-1.214l2.633 7.112Zm7.949.125c1.676 0 2.692-.95 2.936-1.913l.013-.053h-1.148l-.026.06c-.192.429-.785.884-1.748.884-1.267 0-2.078-.858-2.111-2.329h5.119v-.449c0-2.124-1.174-3.562-3.107-3.562-1.933 0-3.187 1.504-3.187 3.701v.007c0 2.229 1.227 3.654 3.259 3.654Zm-.079-6.339c1.049 0 1.827.666 1.946 2.071h-3.932c.126-1.352.93-2.071 1.986-2.071Zm11.222 6.267c.224 0 .442-.027.666-.066v-.977a4.74 4.74 0 0 1-.528.027c-.739 0-1.029-.337-1.029-1.174v-4.025h1.557v-.95h-1.557v-1.84h-1.187v1.84h-1.122v.95h1.122v4.315c0 1.359.613 1.9 2.078 1.9Zm5.198.072c2.026 0 3.279-1.398 3.279-3.674v-.013c0-2.283-1.253-3.675-3.279-3.675-2.025 0-3.279 1.392-3.279 3.675v.013c0 2.276 1.254 3.674 3.279 3.674Zm0-1.016c-1.346 0-2.104-.983-2.104-2.658v-.013c0-1.683.758-2.659 2.104-2.659s2.105.976 2.105 2.659v.013c0 1.675-.759 2.658-2.105 2.658Z" fill="#53545C"/><path d="M148 300a8.465 8.465 0 0 1 8.465-8.465h129.511a8.465 8.465 0 0 1 0 16.93H156.465A8.465 8.465 0 0 1 148 300Z" fill="#4660F9"/><path d="M156.744 303.5h1.267v-3.138h1.786l1.663 3.138h1.464l-1.832-3.336c.996-.334 1.584-1.227 1.584-2.324v-.012c0-1.515-1.041-2.488-2.715-2.488h-3.217v8.16Zm1.267-4.167v-2.93h1.786c.979 0 1.578.555 1.578 1.459v.012c0 .927-.565 1.459-1.538 1.459h-1.826Zm8.725 4.286c1.572 0 2.42-.905 2.623-1.714l.012-.051-1.182.006-.023.045c-.147.317-.616.707-1.402.707-1.012 0-1.657-.684-1.679-1.86h4.354v-.43c0-1.843-1.052-3.082-2.765-3.082-1.714 0-2.822 1.284-2.822 3.201v.005c0 1.946 1.086 3.173 2.884 3.173Zm-.057-5.372c.831 0 1.448.531 1.544 1.628h-3.121c.107-1.057.74-1.628 1.577-1.628Zm5.904 5.355c.814 0 1.459-.351 1.82-.973h.097v.871h1.215v-4.201c0-1.29-.871-2.059-2.414-2.059-1.397 0-2.364.673-2.511 1.68l-.006.039h1.182l.006-.022c.147-.436.594-.685 1.272-.685.831 0 1.256.374 1.256 1.047v.542l-1.663.097c-1.464.09-2.29.729-2.29 1.826v.011c0 1.114.865 1.827 2.036 1.827Zm-.815-1.878v-.011c0-.554.385-.859 1.233-.91l1.499-.096v.525c0 .792-.673 1.392-1.589 1.392-.662 0-1.143-.334-1.143-.9Zm7.917 1.878c.859 0 1.532-.396 1.889-1.069h.096v.967h1.221v-8.55h-1.221v3.382h-.096c-.328-.662-1.047-1.08-1.889-1.08-1.561 0-2.545 1.227-2.545 3.172v.011c0 1.928 1.001 3.167 2.545 3.167Zm.35-1.046c-1.029 0-1.645-.803-1.645-2.121v-.011c0-1.318.616-2.121 1.645-2.121 1.018 0 1.652.809 1.652 2.121v.011c0 1.312-.628 2.121-1.652 2.121Zm5.282 3.104c1.244 0 1.866-.458 2.386-1.923l2.285-6.378h-1.29l-1.532 4.908h-.107l-1.539-4.908h-1.323l2.228 6.147-.09.316c-.181.622-.526.865-1.097.865-.142 0-.294-.005-.413-.022v.967c.158.017.339.028.492.028Zm9.517-2.16h1.221v-5.174h1.352v-.967h-1.363v-.588c0-.622.266-.95.944-.95.192 0 .356.011.469.028v-.899a4.464 4.464 0 0 0-.723-.056c-1.278 0-1.9.599-1.9 1.82v.645h-1.013v.967h1.013v5.174Zm6.316.119c1.798 0 2.901-1.205 2.901-3.184v-.011c0-1.979-1.109-3.184-2.901-3.184-1.798 0-2.907 1.21-2.907 3.184v.011c0 1.979 1.103 3.184 2.907 3.184Zm0-1.024c-1.058 0-1.651-.797-1.651-2.16v-.011c0-1.363.593-2.16 1.651-2.16 1.052 0 1.651.797 1.651 2.16v.011c0 1.357-.599 2.16-1.651 2.16Zm4.365.905h1.227v-3.67c0-.888.639-1.464 1.578-1.464.232 0 .441.028.662.073v-1.131a2.735 2.735 0 0 0-.538-.056c-.82 0-1.391.384-1.611 1.034h-.091v-.927h-1.227v6.141Zm7.945 0h2.946c2.432 0 3.84-1.504 3.84-4.094v-.011c0-2.562-1.42-4.055-3.84-4.055h-2.946v8.16Zm1.267-1.091v-5.977h1.538c1.691 0 2.691 1.102 2.691 2.98v.011c0 1.894-.984 2.986-2.691 2.986h-1.538Zm9.675 1.21c1.572 0 2.42-.905 2.624-1.714l.011-.051-1.182.006-.023.045c-.147.317-.616.707-1.402.707-1.012 0-1.657-.684-1.679-1.86h4.354v-.43c0-1.843-1.052-3.082-2.765-3.082-1.714 0-2.822 1.284-2.822 3.201v.005c0 1.946 1.086 3.173 2.884 3.173Zm-.057-5.372c.832 0 1.448.531 1.544 1.628h-3.121c.107-1.057.74-1.628 1.577-1.628Zm5.774 5.253h1.306l2.217-6.141h-1.29l-1.526 4.897h-.097l-1.532-4.897h-1.301l2.223 6.141Zm7.096.119c1.572 0 2.42-.905 2.624-1.714l.011-.051-1.181.006-.023.045c-.147.317-.616.707-1.402.707-1.013 0-1.657-.684-1.68-1.86h4.354v-.43c0-1.843-1.052-3.082-2.765-3.082s-2.822 1.284-2.822 3.201v.005c0 1.946 1.086 3.173 2.884 3.173Zm-.056-5.372c.831 0 1.447.531 1.543 1.628h-3.121c.108-1.057.741-1.628 1.578-1.628Zm6.819 5.372c1.798 0 2.901-1.205 2.901-3.184v-.011c0-1.979-1.108-3.184-2.901-3.184-1.798 0-2.906 1.21-2.906 3.184v.011c0 1.979 1.102 3.184 2.906 3.184Zm0-1.024c-1.057 0-1.651-.797-1.651-2.16v-.011c0-1.363.594-2.16 1.651-2.16 1.052 0 1.651.797 1.651 2.16v.011c0 1.357-.599 2.16-1.651 2.16Zm4.422.905h1.227v-8.55H248.4v8.55Zm3.054 2.047h1.227v-3.02h.09c.328.662 1.046 1.075 1.889 1.075 1.561 0 2.544-1.222 2.544-3.167v-.011c0-1.934-.995-3.172-2.544-3.172-.86 0-1.533.401-1.889 1.074h-.09v-.967h-1.227v8.188Zm2.861-2.991c-1.024 0-1.657-.809-1.657-2.121v-.011c0-1.312.633-2.121 1.657-2.121 1.023 0 1.64.798 1.64 2.121v.011c0 1.318-.617 2.121-1.64 2.121Zm4.365.944h1.227v-3.772c0-.803.549-1.436 1.29-1.436.723 0 1.181.441 1.181 1.142v4.066h1.222v-3.885c0-.741.514-1.323 1.295-1.323.803 0 1.187.419 1.187 1.267v3.941h1.222v-4.235c0-1.278-.724-2.025-1.963-2.025-.853 0-1.56.436-1.871 1.097h-.096c-.272-.661-.865-1.097-1.702-1.097-.803 0-1.403.39-1.674 1.063h-.091v-.944h-1.227v6.141Zm12.916.119c1.572 0 2.42-.905 2.623-1.714l.012-.051-1.182.006-.023.045c-.147.317-.616.707-1.402.707-1.012 0-1.657-.684-1.68-1.86h4.354v-.43c0-1.843-1.051-3.082-2.765-3.082-1.713 0-2.821 1.284-2.821 3.201v.005c0 1.946 1.085 3.173 2.884 3.173Zm-.057-5.372c.831 0 1.448.531 1.544 1.628h-3.122c.108-1.057.741-1.628 1.578-1.628Zm4.218 5.253h1.227v-3.602c0-.99.56-1.606 1.459-1.606s1.324.503 1.324 1.521v3.687h1.221v-3.975c0-1.465-.758-2.285-2.132-2.285-.893 0-1.481.396-1.781 1.052h-.091v-.933h-1.227v6.141Zm9.263.04c.237 0 .463-.029.661-.063v-.978a4.02 4.02 0 0 1-.463.023c-.605 0-.854-.272-.854-.933v-3.263h1.317v-.967h-1.317v-1.549h-1.25v1.549h-.961v.967h.961v3.557c0 1.182.554 1.657 1.906 1.657Z" fill="#fff"/><path opacity=".8" d="M306.117 295.866a.794.794 0 0 0 .791-.792.794.794 0 0 0-.791-.792.794.794 0 0 0-.792.792c0 .436.356.792.792.792Zm-.581 8.484h1.148v-7.112h-1.148v7.112Zm3.312 0h1.148v-4.209c0-1.247.719-2.012 1.853-2.012 1.135 0 1.663.613 1.663 1.893v4.328h1.148v-4.605c0-1.689-.891-2.632-2.487-2.632-1.049 0-1.716.442-2.072 1.194h-.105v-1.069h-1.148v7.112Zm11.835 0h1.187v-3.398h2.402c1.788 0 3.054-1.26 3.054-3.068v-.013c0-1.807-1.266-3.041-3.054-3.041h-3.589v9.52Zm3.285-8.464c1.359 0 2.144.745 2.144 1.998v.014c0 1.253-.785 1.999-2.144 1.999h-2.098v-4.011h2.098Zm5.159 8.464h1.148v-4.407c0-1.043.779-1.735 1.874-1.735.25 0 .468.026.706.066v-1.115a3.85 3.85 0 0 0-.574-.046c-.964 0-1.63.435-1.9 1.18h-.106v-1.055h-1.148v7.112Zm7.871.125c2.025 0 3.278-1.399 3.278-3.675v-.013c0-2.282-1.253-3.674-3.278-3.674-2.026 0-3.279 1.392-3.279 3.674v.013c0 2.276 1.253 3.675 3.279 3.675Zm0-1.016c-1.346 0-2.105-.983-2.105-2.659v-.013c0-1.682.759-2.658 2.105-2.658 1.345 0 2.104.976 2.104 2.658v.013c0 1.676-.759 2.659-2.104 2.659Zm7.685 1.016c.99 0 1.781-.468 2.217-1.26h.105v1.135h1.148v-9.936h-1.148v3.945h-.105c-.389-.758-1.24-1.246-2.217-1.246-1.807 0-2.982 1.444-2.982 3.674v.013c0 2.217 1.181 3.675 2.982 3.675Zm.264-1.016c-1.3 0-2.071-1.003-2.071-2.659v-.013c0-1.656.771-2.658 2.071-2.658 1.293 0 2.085 1.016 2.085 2.658v.013c0 1.643-.792 2.659-2.085 2.659Zm7.791 1.016c1.043 0 1.762-.429 2.111-1.188h.106v1.063h1.148v-7.112h-1.148v4.209c0 1.247-.666 2.012-1.92 2.012-1.135 0-1.596-.614-1.596-1.893v-4.328h-1.148v4.605c0 1.682.831 2.632 2.447 2.632Zm8.418 0c1.709 0 2.665-.917 2.956-2.203l.013-.073-1.135.007-.013.039c-.264.792-.871 1.214-1.827 1.214-1.267 0-2.085-1.049-2.085-2.685v-.013c0-1.603.805-2.632 2.085-2.632 1.022 0 1.655.567 1.834 1.266l.006.02h1.141l-.006-.04c-.211-1.266-1.247-2.262-2.975-2.262-1.993 0-3.259 1.438-3.259 3.648v.013c0 2.256 1.273 3.701 3.265 3.701Zm7.31-.073c.224 0 .442-.026.666-.066v-.976c-.211.02-.323.026-.528.026-.739 0-1.029-.336-1.029-1.174v-4.024h1.557v-.95h-1.557v-1.841h-1.187v1.841h-1.122v.95h1.122v4.314c0 1.359.613 1.9 2.078 1.9Zm8.708 0c.224 0 .442-.026.666-.066v-.976c-.211.02-.323.026-.528.026-.738 0-1.029-.336-1.029-1.174v-4.024h1.557v-.95h-1.557v-1.841h-1.187v1.841h-1.122v.95h1.122v4.314c0 1.359.613 1.9 2.078 1.9Zm5.179.073c1.675 0 2.691-.95 2.935-1.913l.013-.053h-1.147l-.027.059c-.191.429-.785.884-1.748.884-1.267 0-2.078-.857-2.111-2.328h5.119v-.449c0-2.124-1.174-3.562-3.107-3.562-1.933 0-3.186 1.504-3.186 3.701v.006c0 2.23 1.227 3.655 3.259 3.655Zm-.08-6.34c1.049 0 1.828.666 1.947 2.072h-3.932c.125-1.353.93-2.072 1.985-2.072Zm6.848 6.34c.957 0 1.702-.416 2.151-1.174h.105v1.049h1.148v-4.869c0-1.478-.969-2.368-2.705-2.368-1.517 0-2.599.752-2.783 1.867l-.007.039h1.148l.006-.02c.185-.554.746-.87 1.597-.87 1.062 0 1.596.475 1.596 1.352v.646l-2.038.126c-1.656.099-2.593.831-2.593 2.098v.013c0 1.293 1.023 2.111 2.375 2.111Zm-1.2-2.138v-.013c0-.706.475-1.088 1.556-1.154l1.9-.119v.647c0 1.016-.851 1.781-2.018 1.781-.825 0-1.438-.422-1.438-1.142Zm6.702 2.013h1.148v-4.407c0-1.003.706-1.814 1.636-1.814.897 0 1.478.547 1.478 1.392v4.829h1.148v-4.572c0-.904.653-1.649 1.642-1.649 1.003 0 1.485.521 1.485 1.57v4.651h1.148v-4.915c0-1.491-.812-2.322-2.263-2.322-.983 0-1.795.494-2.177 1.246h-.106c-.33-.738-1.002-1.246-1.966-1.246-.93 0-1.603.442-1.919 1.207h-.106v-1.082h-1.148v7.112Z" fill="#53545C"/><path fill-rule="evenodd" clip-rule="evenodd" d="M420.772 300.625h-3.125a.625.625 0 0 1 0-1.25h3.125V295l8.75 5-8.75 5v-4.375Zm1.25-3.471 4.981 2.846-4.981 2.846v-5.692Z" fill="#4660F9"/><path opacity=".8" d="M441.986 304.35h1.109v-7.27h.072l3.008 7.27h1.003l3.008-7.27h.073v7.27h1.108v-9.52h-1.379l-3.258 7.943h-.106l-3.259-7.943h-1.379v9.52Zm14.586.125c2.026 0 3.279-1.399 3.279-3.675v-.013c0-2.282-1.253-3.674-3.279-3.674-2.025 0-3.278 1.392-3.278 3.674v.013c0 2.276 1.253 3.675 3.278 3.675Zm0-1.016c-1.345 0-2.104-.983-2.104-2.659v-.013c0-1.682.759-2.658 2.104-2.658 1.346 0 2.105.976 2.105 2.658v.013c0 1.676-.759 2.659-2.105 2.659Zm6.809.891h1.161l2.632-7.112h-1.214l-1.946 5.858h-.106l-1.946-5.858h-1.214l2.633 7.112Zm7.949.125c1.676 0 2.692-.95 2.936-1.913l.013-.053h-1.148l-.026.059c-.192.429-.785.884-1.749.884-1.266 0-2.078-.857-2.111-2.328h5.12v-.449c0-2.124-1.175-3.562-3.108-3.562-1.932 0-3.186 1.504-3.186 3.701v.006c0 2.23 1.227 3.655 3.259 3.655Zm-.079-6.34c1.049 0 1.827.666 1.946 2.072h-3.932c.126-1.353.93-2.072 1.986-2.072Zm11.222 6.267c.224 0 .442-.026.666-.066v-.976c-.211.02-.323.026-.528.026-.739 0-1.029-.336-1.029-1.174v-4.024h1.557v-.95h-1.557v-1.841h-1.188v1.841h-1.121v.95h1.121v4.314c0 1.359.614 1.9 2.079 1.9Zm2.447-.052h1.148v-4.209c0-1.247.719-2.012 1.854-2.012 1.134 0 1.662.613 1.662 1.893v4.328h1.148v-4.605c0-1.689-.89-2.632-2.487-2.632-1.049 0-1.715.442-2.071 1.194h-.106v-3.893h-1.148v9.936Zm10.793.125c1.676 0 2.692-.95 2.936-1.913l.013-.053h-1.148l-.026.059c-.192.429-.786.884-1.749.884-1.266 0-2.078-.857-2.111-2.328h5.12v-.449c0-2.124-1.175-3.562-3.108-3.562s-3.186 1.504-3.186 3.701v.006c0 2.23 1.227 3.655 3.259 3.655Zm-.079-6.34c1.049 0 1.827.666 1.946 2.072h-3.932c.125-1.353.93-2.072 1.986-2.072Zm11.136 6.34c1.616 0 2.85-.877 2.85-2.144v-.013c0-1.016-.647-1.597-1.986-1.92l-1.095-.264c-.838-.204-1.194-.508-1.194-.989v-.014c0-.626.62-1.062 1.464-1.062.858 0 1.412.389 1.564.95h1.128c-.158-1.161-1.194-1.906-2.685-1.906-1.511 0-2.646.89-2.646 2.071v.007c0 1.022.601 1.603 1.933 1.919l1.102.264c.877.211 1.24.548 1.24 1.029v.014c0 .646-.679 1.101-1.636 1.101-.91 0-1.478-.389-1.669-.983h-1.174c.132 1.175 1.22 1.94 2.804 1.94Zm6.584 0c.956 0 1.702-.416 2.15-1.174h.106v1.049h1.148v-4.869c0-1.478-.97-2.368-2.705-2.368-1.518 0-2.599.752-2.784 1.867l-.007.039h1.148l.007-.02c.184-.554.745-.87 1.596-.87 1.062 0 1.597.475 1.597 1.352v.646l-2.039.126c-1.656.099-2.592.831-2.592 2.098v.013c0 1.293 1.022 2.111 2.375 2.111Zm-1.201-2.138v-.013c0-.706.475-1.088 1.557-1.154l1.9-.119v.647c0 1.016-.851 1.781-2.019 1.781-.825 0-1.438-.422-1.438-1.142Zm6.703 2.013h1.147v-4.407c0-1.003.706-1.814 1.636-1.814.898 0 1.478.547 1.478 1.392v4.829h1.148v-4.572c0-.904.653-1.649 1.643-1.649 1.003 0 1.484.521 1.484 1.57v4.651h1.148v-4.915c0-1.491-.811-2.322-2.263-2.322-.983 0-1.794.494-2.177 1.246h-.105c-.33-.738-1.003-1.246-1.966-1.246-.93 0-1.603.442-1.92 1.207h-.106v-1.082h-1.147v7.112Zm14.658.125c1.676 0 2.692-.95 2.936-1.913l.013-.053h-1.148l-.026.059c-.191.429-.785.884-1.748.884-1.267 0-2.078-.857-2.111-2.328h5.119v-.449c0-2.124-1.174-3.562-3.107-3.562-1.933 0-3.187 1.504-3.187 3.701v.006c0 2.23 1.227 3.655 3.259 3.655Zm-.079-6.34c1.049 0 1.827.666 1.946 2.072h-3.932c.126-1.353.931-2.072 1.986-2.072Zm9.302-2.269a.794.794 0 0 0 .792-.792.795.795 0 0 0-.792-.792.795.795 0 0 0-.792.792c0 .436.357.792.792.792Zm-.581 8.484h1.148v-7.112h-1.148v7.112Zm5.753.125c1.616 0 2.85-.877 2.85-2.144v-.013c0-1.016-.646-1.597-1.986-1.92l-1.095-.264c-.838-.204-1.194-.508-1.194-.989v-.014c0-.626.62-1.062 1.465-1.062.857 0 1.411.389 1.563.95h1.128c-.158-1.161-1.194-1.906-2.685-1.906-1.51 0-2.645.89-2.645 2.071v.007c0 1.022.6 1.603 1.933 1.919l1.102.264c.877.211 1.24.548 1.24 1.029v.014c0 .646-.68 1.101-1.636 1.101-.911 0-1.478-.389-1.669-.983h-1.175c.132 1.175 1.221 1.94 2.804 1.94Zm6.94 0c1.617 0 2.85-.877 2.85-2.144v-.013c0-1.016-.646-1.597-1.986-1.92l-1.095-.264c-.837-.204-1.194-.508-1.194-.989v-.014c0-.626.62-1.062 1.465-1.062.857 0 1.412.389 1.563.95h1.128c-.158-1.161-1.194-1.906-2.685-1.906-1.51 0-2.645.89-2.645 2.071v.007c0 1.022.6 1.603 1.933 1.919l1.102.264c.877.211 1.24.548 1.24 1.029v.014c0 .646-.68 1.101-1.636 1.101-.911 0-1.478-.389-1.669-.983h-1.175c.132 1.175 1.221 1.94 2.804 1.94Zm7.013 0c1.042 0 1.761-.429 2.111-1.188h.106v1.063h1.147v-7.112h-1.147v4.209c0 1.247-.667 2.012-1.92 2.012-1.135 0-1.597-.614-1.597-1.893v-4.328h-1.148v4.605c0 1.682.832 2.632 2.448 2.632Zm8.411 0c1.676 0 2.692-.95 2.936-1.913l.013-.053h-1.148l-.026.059c-.191.429-.785.884-1.748.884-1.267 0-2.078-.857-2.111-2.328h5.119v-.449c0-2.124-1.174-3.562-3.107-3.562-1.933 0-3.187 1.504-3.187 3.701v.006c0 2.23 1.227 3.655 3.259 3.655Zm-.079-6.34c1.049 0 1.827.666 1.946 2.072h-3.932c.126-1.353.931-2.072 1.986-2.072Zm7.336 6.34c1.616 0 2.85-.877 2.85-2.144v-.013c0-1.016-.647-1.597-1.986-1.92l-1.095-.264c-.838-.204-1.194-.508-1.194-.989v-.014c0-.626.62-1.062 1.465-1.062.857 0 1.411.389 1.563.95h1.128c-.158-1.161-1.194-1.906-2.685-1.906-1.511 0-2.645.89-2.645 2.071v.007c0 1.022.6 1.603 1.933 1.919l1.101.264c.878.211 1.241.548 1.241 1.029v.014c0 .646-.68 1.101-1.636 1.101-.911 0-1.478-.389-1.669-.983h-1.175c.132 1.175 1.221 1.94 2.804 1.94Zm10.958-.073c.224 0 .442-.026.666-.066v-.976c-.211.02-.323.026-.528.026-.739 0-1.029-.336-1.029-1.174v-4.024h1.557v-.95h-1.557v-1.841h-1.187v1.841h-1.122v.95h1.122v4.314c0 1.359.613 1.9 2.078 1.9Zm5.198.073c2.026 0 3.279-1.399 3.279-3.675v-.013c0-2.282-1.253-3.674-3.279-3.674-2.025 0-3.278 1.392-3.278 3.674v.013c0 2.276 1.253 3.675 3.278 3.675Zm0-1.016c-1.345 0-2.104-.983-2.104-2.659v-.013c0-1.682.759-2.658 2.104-2.658 1.346 0 2.105.976 2.105 2.658v.013c0 1.676-.759 2.659-2.105 2.659Z" fill="#53545C"/><path d="M608.077 300a8.465 8.465 0 0 1 8.465-8.465h43.511a8.465 8.465 0 0 1 0 16.93h-43.511a8.465 8.465 0 0 1-8.465-8.465Z" fill="#4660F9"/><path d="M616.821 303.5h3.353c1.742 0 2.788-.871 2.788-2.301v-.012c0-1.063-.735-1.843-1.838-1.962v-.096c.803-.136 1.431-.899 1.431-1.747v-.012c0-1.249-.922-2.03-2.454-2.03h-3.28v8.16Zm2.986-7.125c.938 0 1.487.447 1.487 1.216v.011c0 .792-.583 1.21-1.702 1.21h-1.504v-2.437h1.719Zm.039 3.404c1.193 0 1.821.453 1.821 1.329v.011c0 .877-.605 1.346-1.747 1.346h-1.832v-2.686h1.758Zm6.288 3.823c.815 0 1.459-.351 1.821-.973h.096v.871h1.216v-4.201c0-1.29-.871-2.059-2.415-2.059-1.396 0-2.363.673-2.51 1.68l-.006.039h1.182l.006-.022c.147-.436.593-.685 1.272-.685.831 0 1.255.374 1.255 1.047v.542l-1.662.097c-1.465.09-2.29.729-2.29 1.826v.011c0 1.114.865 1.827 2.035 1.827Zm-.814-1.878v-.011c0-.554.385-.859 1.233-.91l1.498-.096v.525c0 .792-.673 1.392-1.589 1.392-.661 0-1.142-.334-1.142-.9Zm8.261 1.895c1.522 0 2.398-.82 2.619-2.013l.011-.051h-1.176l-.012.028c-.197.662-.672 1.012-1.442 1.012-1.012 0-1.639-.825-1.639-2.182v-.012c0-1.323.616-2.137 1.639-2.137.815 0 1.312.452 1.448 1.057l.006.017 1.176-.005v-.029c-.17-1.193-1.091-2.064-2.635-2.064-1.793 0-2.884 1.216-2.884 3.161v.012c0 1.984 1.097 3.206 2.889 3.206Zm4.077-.119h1.228v-2.234l.525-.525 2.115 2.759h1.493l-2.731-3.551 2.561-2.59h-1.436l-2.437 2.59h-.09v-4.999h-1.228v8.55Zm6.537 0h1.227v-8.55h-1.227v8.55Zm5.655.119c1.798 0 2.901-1.205 2.901-3.184v-.011c0-1.979-1.109-3.184-2.901-3.184-1.798 0-2.907 1.21-2.907 3.184v.011c0 1.979 1.103 3.184 2.907 3.184Zm0-1.024c-1.058 0-1.651-.797-1.651-2.16v-.011c0-1.363.593-2.16 1.651-2.16 1.052 0 1.651.797 1.651 2.16v.011c0 1.357-.599 2.16-1.651 2.16Zm6.961 3.071c1.741 0 2.844-.894 2.844-2.29v-6.017h-1.221v1.007h-.074c-.356-.69-1.023-1.114-1.883-1.114-1.594 0-2.573 1.238-2.573 2.991v.011c0 1.731.973 2.946 2.551 2.946.842 0 1.521-.373 1.894-1.04h.09v1.21c0 .837-.599 1.312-1.611 1.312-.831 0-1.329-.3-1.431-.724l-.006-.011h-1.238l-.011.011c.147 1.024 1.108 1.708 2.669 1.708Zm-.017-3.478c-1.046 0-1.634-.797-1.634-1.939v-.012c0-1.142.588-1.945 1.634-1.945 1.035 0 1.668.803 1.668 1.945v.012c0 1.147-.628 1.939-1.668 1.939Z" fill="#fff"/><path opacity=".8" d="M680.194 295.866a.794.794 0 0 0 .791-.792.794.794 0 0 0-.791-.792.794.794 0 0 0-.792.792c0 .436.356.792.792.792Zm-.581 8.484h1.148v-7.112h-1.148v7.112Zm3.312 0h1.148v-4.209c0-1.247.719-2.012 1.854-2.012 1.134 0 1.662.613 1.662 1.893v4.328h1.148v-4.605c0-1.689-.891-2.632-2.487-2.632-1.049 0-1.715.442-2.072 1.194h-.105v-1.069h-1.148v7.112Zm11.835 0h5.898v-1.069h-4.71v-3.272h4.466v-1.056h-4.466v-3.054h4.71v-1.069h-5.898v9.52Zm10.833 2.507c1.939 0 3.166-1.016 3.166-2.606v-7.013h-1.148v1.174h-.079c-.435-.805-1.214-1.299-2.216-1.299-1.861 0-3.009 1.444-3.009 3.437v.013c0 1.992 1.142 3.417 2.982 3.417.976 0 1.781-.442 2.23-1.227h.105v1.438c0 1.049-.758 1.65-2.031 1.65-1.023 0-1.656-.383-1.782-.924l-.006-.007h-1.188l-.013.007c.178 1.168 1.273 1.94 2.989 1.94Zm-.053-3.893c-1.32 0-2.058-.989-2.058-2.401v-.013c0-1.412.738-2.421 2.058-2.421 1.313 0 2.111 1.009 2.111 2.421v.013c0 1.412-.792 2.401-2.111 2.401Zm5.964-7.098a.794.794 0 0 0 .791-.792.794.794 0 0 0-.791-.792.794.794 0 0 0-.792.792c0 .436.356.792.792.792Zm-.581 8.484h1.148v-7.112h-1.148v7.112Zm3.312 0h1.148v-4.209c0-1.247.719-2.012 1.853-2.012 1.135 0 1.663.613 1.663 1.893v4.328h1.148v-4.605c0-1.689-.891-2.632-2.487-2.632-1.049 0-1.716.442-2.072 1.194h-.105v-1.069h-1.148v7.112Zm10.793.125c1.675 0 2.691-.95 2.935-1.913l.014-.053h-1.148l-.027.059c-.191.429-.785.884-1.748.884-1.267 0-2.078-.857-2.111-2.328h5.119v-.449c0-2.124-1.174-3.562-3.107-3.562-1.933 0-3.186 1.504-3.186 3.701v.006c0 2.23 1.227 3.655 3.259 3.655Zm-.08-6.34c1.049 0 1.828.666 1.947 2.072h-3.932c.125-1.353.93-2.072 1.985-2.072Zm7.798 6.34c1.676 0 2.692-.95 2.936-1.913l.013-.053h-1.148l-.026.059c-.191.429-.785.884-1.748.884-1.267 0-2.078-.857-2.111-2.328h5.119v-.449c0-2.124-1.174-3.562-3.107-3.562-1.933 0-3.187 1.504-3.187 3.701v.006c0 2.23 1.227 3.655 3.259 3.655Zm-.079-6.34c1.049 0 1.827.666 1.946 2.072h-3.932c.126-1.353.931-2.072 1.986-2.072Zm4.895 6.215h1.148v-4.407c0-1.043.778-1.735 1.874-1.735.25 0 .468.026.705.066v-1.115a3.822 3.822 0 0 0-.573-.046c-.964 0-1.63.435-1.9 1.18h-.106v-1.055h-1.148v7.112Zm5.753-8.484a.794.794 0 0 0 .791-.792.794.794 0 0 0-.791-.792.794.794 0 0 0-.792.792c0 .436.356.792.792.792Zm-.581 8.484h1.148v-7.112h-1.148v7.112Zm3.312 0h1.148v-4.209c0-1.247.719-2.012 1.854-2.012 1.134 0 1.662.613 1.662 1.893v4.328h1.148v-4.605c0-1.689-.891-2.632-2.487-2.632-1.049 0-1.715.442-2.072 1.194h-.105v-1.069h-1.148v7.112Zm10.819 2.507c1.94 0 3.167-1.016 3.167-2.606v-7.013h-1.148v1.174h-.079c-.436-.805-1.214-1.299-2.217-1.299-1.86 0-3.008 1.444-3.008 3.437v.013c0 1.992 1.141 3.417 2.982 3.417.976 0 1.781-.442 2.23-1.227h.105v1.438c0 1.049-.759 1.65-2.032 1.65-1.022 0-1.656-.383-1.781-.924l-.007-.007h-1.187l-.013.007c.178 1.168 1.273 1.94 2.988 1.94Zm-.053-3.893c-1.319 0-2.058-.989-2.058-2.401v-.013c0-1.412.739-2.421 2.058-2.421 1.313 0 2.111 1.009 2.111 2.421v.013c0 1.412-.791 2.401-2.111 2.401Zm11.684 1.438c.224 0 .442-.026.666-.066v-.976c-.211.02-.323.026-.528.026-.738 0-1.029-.336-1.029-1.174v-4.024h1.557v-.95h-1.557v-1.841h-1.187v1.841h-1.122v.95h1.122v4.314c0 1.359.613 1.9 2.078 1.9Zm5.179.073c1.675 0 2.691-.95 2.935-1.913l.013-.053h-1.147l-.027.059c-.191.429-.785.884-1.748.884-1.267 0-2.078-.857-2.111-2.328h5.119v-.449c0-2.124-1.174-3.562-3.107-3.562-1.933 0-3.186 1.504-3.186 3.701v.006c0 2.23 1.227 3.655 3.259 3.655Zm-.08-6.34c1.049 0 1.828.666 1.947 2.072h-3.932c.125-1.353.93-2.072 1.985-2.072Zm6.848 6.34c.957 0 1.702-.416 2.151-1.174h.105v1.049h1.148v-4.869c0-1.478-.969-2.368-2.705-2.368-1.517 0-2.599.752-2.783 1.867l-.007.039h1.148l.006-.02c.185-.554.746-.87 1.597-.87 1.062 0 1.596.475 1.596 1.352v.646l-2.038.126c-1.656.099-2.593.831-2.593 2.098v.013c0 1.293 1.023 2.111 2.375 2.111Zm-1.2-2.138v-.013c0-.706.475-1.088 1.556-1.154l1.9-.119v.647c0 1.016-.851 1.781-2.018 1.781-.825 0-1.438-.422-1.438-1.142Zm6.702 2.013h1.148v-4.407c0-1.003.706-1.814 1.636-1.814.897 0 1.478.547 1.478 1.392v4.829h1.148v-4.572c0-.904.653-1.649 1.642-1.649 1.003 0 1.485.521 1.485 1.57v4.651h1.148v-4.915c0-1.491-.812-2.322-2.263-2.322-.983 0-1.795.494-2.177 1.246h-.106c-.33-.738-1.002-1.246-1.966-1.246-.93 0-1.603.442-1.919 1.207h-.106v-1.082h-1.148v7.112Z" fill="#53545C"/><defs><filter id="a" x="23.237" y="185" width="120.758" height="60" filterUnits="userSpaceOnUse" color-interpolation-filters="sRGB"><feFlood flood-opacity="0" result="BackgroundImageFix"/><feColorMatrix in="SourceAlpha" values="0 0 0 0 0 0 0 0 0 0 0 0 0 0 0 0 0 0 127 0" result="hardAlpha"/><feOffset dy="2"/><feGaussianBlur stdDeviation="1"/><feComposite in2="hardAlpha" operator="out"/><feColorMatrix values="0 0 0 0 0 0 0 0 0 0 0 0 0 0 0 0 0 0 0.05 0"/><feBlend in2="BackgroundImageFix" result="effect1_dropShadow_650_103595"/><feBlend in="SourceGraphic" in2="effect1_dropShadow_650_103595" result="shape"/></filter><filter id="b" x="146.217" y="185" width="89.784" height="60" filterUnits="userSpaceOnUse" color-interpolation-filters="sRGB"><feFlood flood-opacity="0" result="BackgroundImageFix"/><feColorMatrix in="SourceAlpha" values="0 0 0 0 0 0 0 0 0 0 0 0 0 0 0 0 0 0 127 0" result="hardAlpha"/><feOffset dy="2"/><feGaussianBlur stdDeviation="1"/><feComposite in2="hardAlpha" operator="out"/><feColorMatrix values="0 0 0 0 0 0 0 0 0 0 0 0 0 0 0 0 0 0 0.05 0"/><feBlend in2="BackgroundImageFix" result="effect1_dropShadow_650_103595"/><feBlend in="SourceGraphic" in2="effect1_dropShadow_650_103595" result="shape"/></filter><filter id="c" x="237.217" y="184.637" width="100.828" height="62" filterUnits="userSpaceOnUse" color-interpolation-filters="sRGB"><feFlood flood-opacity="0" result="BackgroundImageFix"/><feColorMatrix in="SourceAlpha" values="0 0 0 0 0 0 0 0 0 0 0 0 0 0 0 0 0 0 127 0" result="hardAlpha"/><feOffset dy="2"/><feGaussianBlur stdDeviation="2"/><feColorMatrix values="0 0 0 0 0 0 0 0 0 0 0 0 0 0 0 0 0 0 0.1 0"/><feBlend in2="BackgroundImageFix" result="effect1_dropShadow_650_103595"/><feBlend in="SourceGraphic" in2="effect1_dropShadow_650_103595" result="shape"/></filter><filter id="d" x="340.237" y="185" width="120.416" height="60" filterUnits="userSpaceOnUse" color-interpolation-filters="sRGB"><feFlood flood-opacity="0" result="BackgroundImageFix"/><feColorMatrix in="SourceAlpha" values="0 0 0 0 0 0 0 0 0 0 0 0 0 0 0 0 0 0 127 0" result="hardAlpha"/><feOffset dy="2"/><feGaussianBlur stdDeviation="1"/><feComposite in2="hardAlpha" operator="out"/><feColorMatrix values="0 0 0 0 0 0 0 0 0 0 0 0 0 0 0 0 0 0 0.05 0"/><feBlend in2="BackgroundImageFix" result="effect1_dropShadow_650_103595"/><feBlend in="SourceGraphic" in2="effect1_dropShadow_650_103595" result="shape"/></filter><filter id="e" x="462.834" y="185" width="131.928" height="60" filterUnits="userSpaceOnUse" color-interpolation-filters="sRGB"><feFlood flood-opacity="0" result="BackgroundImageFix"/><feColorMatrix in="SourceAlpha" values="0 0 0 0 0 0 0 0 0 0 0 0 0 0 0 0 0 0 127 0" result="hardAlpha"/><feOffset dy="2"/><feGaussianBlur stdDeviation="1"/><feComposite in2="hardAlpha" operator="out"/><feColorMatrix values="0 0 0 0 0 0 0 0 0 0 0 0 0 0 0 0 0 0 0.05 0"/><feBlend in2="BackgroundImageFix" result="effect1_dropShadow_650_103595"/><feBlend in="SourceGraphic" in2="effect1_dropShadow_650_103595" result="shape"/></filter><filter id="f" x="597.237" y="185" width="79.291" height="60" filterUnits="userSpaceOnUse" color-interpolation-filters="sRGB"><feFlood flood-opacity="0" result="BackgroundImageFix"/><feColorMatrix in="SourceAlpha" values="0 0 0 0 0 0 0 0 0 0 0 0 0 0 0 0 0 0 127 0" result="hardAlpha"/><feOffset dy="2"/><feGaussianBlur stdDeviation="1"/><feComposite in2="hardAlpha" operator="out"/><feColorMatrix values="0 0 0 0 0 0 0 0 0 0 0 0 0 0 0 0 0 0 0.05 0"/><feBlend in2="BackgroundImageFix" result="effect1_dropShadow_650_103595"/><feBlend in="SourceGraphic" in2="effect1_dropShadow_650_103595" result="shape"/></filter><filter id="g" x="678.834" y="185" width="90.83" height="60" filterUnits="userSpaceOnUse" color-interpolation-filters="sRGB"><feFlood flood-opacity="0" result="BackgroundImageFix"/><feColorMatrix in="SourceAlpha" values="0 0 0 0 0 0 0 0 0 0 0 0 0 0 0 0 0 0 127 0" result="hardAlpha"/><feOffset dy="2"/><feGaussianBlur stdDeviation="1"/><feComposite in2="hardAlpha" operator="out"/><feColorMatrix values="0 0 0 0 0 0 0 0 0 0 0 0 0 0 0 0 0 0 0.05 0"/><feBlend in2="BackgroundImageFix" result="effect1_dropShadow_650_103595"/><feBlend in="SourceGraphic" in2="effect1_dropShadow_650_103595" result="shape"/></filter><filter id="h" x="23.237" y="46" width="120.758" height="60" filterUnits="userSpaceOnUse" color-interpolation-filters="sRGB"><feFlood flood-opacity="0" result="BackgroundImageFix"/><feColorMatrix in="SourceAlpha" values="0 0 0 0 0 0 0 0 0 0 0 0 0 0 0 0 0 0 127 0" result="hardAlpha"/><feOffset dy="2"/><feGaussianBlur stdDeviation="1"/><feComposite in2="hardAlpha" operator="out"/><feColorMatrix values="0 0 0 0 0 0 0 0 0 0 0 0 0 0 0 0 0 0 0.05 0"/><feBlend in2="BackgroundImageFix" result="effect1_dropShadow_650_103595"/><feBlend in="SourceGraphic" in2="effect1_dropShadow_650_103595" result="shape"/></filter><filter id="i" x="146.237" y="46" width="97.748" height="60" filterUnits="userSpaceOnUse" color-interpolation-filters="sRGB"><feFlood flood-opacity="0" result="BackgroundImageFix"/><feColorMatrix in="SourceAlpha" values="0 0 0 0 0 0 0 0 0 0 0 0 0 0 0 0 0 0 127 0" result="hardAlpha"/><feOffset dy="2"/><feGaussianBlur stdDeviation="1"/><feComposite in2="hardAlpha" operator="out"/><feColorMatrix values="0 0 0 0 0 0 0 0 0 0 0 0 0 0 0 0 0 0 0.05 0"/><feBlend in2="BackgroundImageFix" result="effect1_dropShadow_650_103595"/><feBlend in="SourceGraphic" in2="effect1_dropShadow_650_103595" result="shape"/></filter><filter id="j" x="247.237" y="46" width="120.416" height="60" filterUnits="userSpaceOnUse" color-interpolation-filters="sRGB"><feFlood flood-opacity="0" result="BackgroundImageFix"/><feColorMatrix in="SourceAlpha" values="0 0 0 0 0 0 0 0 0 0 0 0 0 0 0 0 0 0 127 0" result="hardAlpha"/><feOffset dy="2"/><feGaussianBlur stdDeviation="1"/><feComposite in2="hardAlpha" operator="out"/><feColorMatrix values="0 0 0 0 0 0 0 0 0 0 0 0 0 0 0 0 0 0 0.05 0"/><feBlend in2="BackgroundImageFix" result="effect1_dropShadow_650_103595"/><feBlend in="SourceGraphic" in2="effect1_dropShadow_650_103595" result="shape"/></filter><filter id="k" x="557.834" y="46" width="90.83" height="60" filterUnits="userSpaceOnUse" color-interpolation-filters="sRGB"><feFlood flood-opacity="0" result="BackgroundImageFix"/><feColorMatrix in="SourceAlpha" values="0 0 0 0 0 0 0 0 0 0 0 0 0 0 0 0 0 0 127 0" result="hardAlpha"/><feOffset dy="2"/><feGaussianBlur stdDeviation="1"/><feComposite in2="hardAlpha" operator="out"/><feColorMatrix values="0 0 0 0 0 0 0 0 0 0 0 0 0 0 0 0 0 0 0.05 0"/><feBlend in2="BackgroundImageFix" result="effect1_dropShadow_650_103595"/><feBlend in="SourceGraphic" in2="effect1_dropShadow_650_103595" result="shape"/></filter></defs></svg>