<svg width="98" height="82" fill="none" xmlns="http://www.w3.org/2000/svg"><path opacity=".1" d="M46.523 35.75c3.547-.003 6.99 1.2 9.763 3.41l9.699-23.877-.286-.283H51.054L47 24.982 42.942 15H28.29l-.29.283 9.485 23.343a15.64 15.64 0 0 1 9.038-2.876Z" fill="#4660F9"/><path fill-rule="evenodd" clip-rule="evenodd" d="m41.733 36.42 8.89-21.785.605.249-8.89 21.785-.605-.248v-.001Z" fill="#31BEFB"/><path fill-rule="evenodd" clip-rule="evenodd" d="m43.822 31.059-6.803-16.172.601-.255 6.803 16.171-.601.256Z" fill="#4660F9"/><path d="M46 36a16 16 0 1 0 0 32 16 16 0 0 0 0-32Zm26.501 18.783.214 1.305a.215.215 0 0 0 .176.172l1.3.215a.213.213 0 0 1 .174.211.217.217 0 0 1-.174.212l-1.3.214a.21.21 0 0 0-.176.173l-.214 1.305a.21.21 0 0 1-.346.13.21.21 0 0 1-.07-.13l-.214-1.305a.207.207 0 0 0-.176-.173l-1.296-.215a.214.214 0 0 1-.125-.347.215.215 0 0 1 .125-.075l1.296-.215a.21.21 0 0 0 .176-.172l.214-1.305a.212.212 0 0 1 .208-.183.21.21 0 0 1 .208.183Z" fill="#4660F9"/><path fill-rule="evenodd" clip-rule="evenodd" d="m49.805 54.54.002 4.332H54V46.516h-4.194v4.054h-1.79v-4.054h-4.177v1.25h2.927v4.054h4.29v-4.054h1.694v9.856h-1.694l-.002-4.332h-4.288v2.863h.022v1.469h-2.95v1.25h4.178V54.54h1.789Zm-4.716 1.613v-4.769l-1.25 1.699v3.07h1.25Zm-1.25-6.029.655-.889h-.655v.89Z" fill="#fff"/><path fill-rule="evenodd" clip-rule="evenodd" d="M38.143 58.872V55.74l3.876-5.255h-3.876v-3.969h9.786v3.118l-3.878 5.269h3.986v3.969h-9.894Zm3.436-2.72 5.1-6.929v-1.457h-7.286v1.47h5.101l-5.1 6.915v1.471h7.394v-1.47h-5.209Z" fill="#fff"/><path fill-rule="evenodd" clip-rule="evenodd" d="M72.295 45.798c-.558 0-1.01.454-1.01 1.015 0 .56.452 1.015 1.01 1.015.559 0 1.011-.454 1.011-1.015 0-.56-.452-1.015-1.01-1.015h-.001Zm-1.664 1.015c0-.923.745-1.671 1.664-1.671.92 0 1.665.748 1.665 1.671s-.746 1.671-1.665 1.671a1.667 1.667 0 0 1-1.664-1.671Zm-7.933-7.624 5.592-8.366.542.366-5.591 8.365-.543-.365Zm2.373.301 3.658-2.656.383.532-3.658 2.656-.383-.532Z" fill="#31BEFB"/><path d="M77.368 50.626a.452.452 0 1 0-.002-.904.452.452 0 0 0 .002.904Z" fill="#31BEFB"/><path d="m22.84 43.019 1.3-.215a.214.214 0 0 0 .176-.177l.214-1.3a.211.211 0 0 1 .347-.131.21.21 0 0 1 .07.131l.214 1.3a.212.212 0 0 0 .175.177l1.296.215a.214.214 0 0 1 .125.347.215.215 0 0 1-.125.075l-1.296.211a.214.214 0 0 0-.175.176l-.214 1.305a.211.211 0 0 1-.348.13.21.21 0 0 1-.069-.13l-.214-1.305a.223.223 0 0 0-.176-.176l-1.3-.211a.214.214 0 0 1-.124-.348.216.216 0 0 1 .125-.074h-.001Z" fill="#4660F9"/><path fill-rule="evenodd" clip-rule="evenodd" d="M17.551 33.8c-.875 0-1.584.712-1.584 1.59 0 .88.71 1.591 1.584 1.591.875 0 1.584-.712 1.584-1.59 0-.879-.709-1.591-1.584-1.591Zm-2.237 1.59a2.242 2.242 0 0 1 2.237-2.246 2.244 2.244 0 0 1 2.069 3.105 2.24 2.24 0 0 1-2.069 1.388 2.241 2.241 0 0 1-2.237-2.246v-.001Z" fill="#31BEFB"/><path d="M23.758 31.627a.647.647 0 0 0 .597-.898.648.648 0 0 0-1.055-.21.648.648 0 0 0-.188.459c0 .358.289.649.646.649Z" fill="#31BEFB"/></svg>