<svg width="98" height="82" fill="none" xmlns="http://www.w3.org/2000/svg"><path opacity=".2" d="M61.575 27.494H19.538v11.402h42.037V27.494z" fill="#4660F9"/><path fill-rule="evenodd" clip-rule="evenodd" d="M28.965 42.781H78.72v12.058H28.965V42.781zm.653.656v10.746h48.449V43.437h-48.45z" fill="#31C1FE"/><path d="M43.756 58.727H19.538V70.13h24.218V58.727z" fill="#4660F9"/><path fill-rule="evenodd" clip-rule="evenodd" d="M48.692 70.126v-47.42h.654v47.42h-.654z" fill="#4660F9"/><path d="m49.384 12.505.368 2.264a.37.37 0 0 0 .302.303l2.254.37a.368.368 0 0 1 .369.37.37.37 0 0 1-.369.37l-2.254.37a.368.368 0 0 0-.302.303l-.368 2.263a.37.37 0 0 1-.368.37.368.368 0 0 1-.369-.37l-.368-2.263a.37.37 0 0 0-.302-.304l-2.254-.37a.368.368 0 0 1-.369-.37.371.371 0 0 1 .369-.37l2.254-.369a.368.368 0 0 0 .302-.303l.368-2.264a.37.37 0 0 1 .369-.37.368.368 0 0 1 .368.37z" fill="#4660F9"/></svg>