<svg width="359" height="247" fill="none" xmlns="http://www.w3.org/2000/svg"><path d="m255.66 71.56-3.909-10.4a1.09 1.09 0 0 0-.94-.7l-11.111-.722c-1.166-.075-1.404-1.68-.313-2.089l10.431-3.897c.4-.151.67-.517.702-.937l.756-10.81c.086-1.153 1.674-1.39 2.095-.313l3.866 10.132c.151.399.518.668.939.69l11.123.72c1.166.076 1.403 1.68.313 2.09L259.18 59.22a1.09 1.09 0 0 0-.702.937l-.723 11.08c-.076 1.173-1.685 1.41-2.095.323z" fill="#31C1FE"/><path d="m94.645 205.093 2.57-6.622a.68.68 0 0 0-.15-.732l-5-5.06c-.519-.528.043-1.4.745-1.131l6.64 2.563a.69.69 0 0 0 .735-.151l4.978-4.845c.529-.517 1.393.054 1.134.743l-2.484 6.482a.705.705 0 0 0 .152.732l4.999 5.06c.519.528-.043 1.4-.745 1.131l-6.641-2.563a.684.684 0 0 0-.734.151l-5.076 4.985c-.518.517-1.393-.043-1.123-.743z" fill="#AF8AFC"/><path fill-rule="evenodd" clip-rule="evenodd" d="M85.81 106.337c-2.66 0-4.81 2.149-4.81 4.793s2.15 4.793 4.81 4.793c2.659 0 4.81-2.149 4.81-4.793s-2.151-4.793-4.81-4.793zM79 111.13c0-3.754 3.052-6.793 6.81-6.793 3.758 0 6.81 3.039 6.81 6.793s-3.052 6.793-6.81 6.793c-3.758 0-6.81-3.039-6.81-6.793z" fill="#4660F9"/><path d="M275.141 106.161a4.852 4.852 0 0 0 4.859-4.845 4.853 4.853 0 0 0-4.859-4.845 4.853 4.853 0 0 0-4.86 4.845 4.852 4.852 0 0 0 4.86 4.845z" fill="#AF8AFC"/><path d="M94.016 173.79c1.7 0 3.077-1.373 3.077-3.068a3.073 3.073 0 0 0-3.077-3.069 3.073 3.073 0 0 0-3.078 3.069 3.072 3.072 0 0 0 3.078 3.068z" fill="#4660F9"/><path d="M183.688 198.381c36.928 0 66.864-29.849 66.864-66.671 0-36.821-29.936-66.67-66.864-66.67-36.929 0-66.865 29.849-66.865 66.67 0 36.822 29.936 66.671 66.865 66.671z" fill="#4660F9" opacity=".2"/><path fill-rule="evenodd" clip-rule="evenodd" d="m212.341 115.204-35.134 36.054a3 3 0 0 1-4.208.087l-16.636-15.716 4.12-4.362 14.489 13.688 33.072-33.938 4.297 4.187z" fill="#4660F9"/></svg>