<svg width="98" height="82" fill="none" xmlns="http://www.w3.org/2000/svg"><path fill-rule="evenodd" clip-rule="evenodd" d="M46.593 18.148a22.97 22.97 0 0 0-13.916 1.603 23.089 23.089 0 0 0-10.424 9.395l-.563-.332a23.743 23.743 0 0 1 10.719-9.661 23.62 23.62 0 0 1 14.31-1.648 23.682 23.682 0 0 1 12.62 6.973 23.845 23.845 0 0 1 6.27 13.02 23.89 23.89 0 0 1-2.393 14.262A23.757 23.757 0 0 1 53.044 62a23.625 23.625 0 0 1-14.198 2.436 23.668 23.668 0 0 1-12.983-6.264l.448-.477a23.017 23.017 0 0 0 12.625 6.092 22.977 22.977 0 0 0 13.807-2.37 23.103 23.103 0 0 0 9.892-9.957 23.233 23.233 0 0 0 2.327-13.87 23.188 23.188 0 0 0-6.098-12.66 23.03 23.03 0 0 0-12.271-6.782z" fill="#4660F9"/><path fill-rule="evenodd" clip-rule="evenodd" d="m61.355 60.787 9.286 3.238-.215.62-8.418-2.936v2.811h-.654v-3.733z" fill="#31C1FE"/><path d="m42.457 36.756.416 2.544a.415.415 0 0 0 .34.341l2.534.418a.413.413 0 0 1 .356.41.416.416 0 0 1-.356.411l-2.534.418a.417.417 0 0 0-.34.341l-.416 2.545a.415.415 0 0 1-.409.358.412.412 0 0 1-.409-.358l-.416-2.548a.416.416 0 0 0-.34-.341l-2.534-.419a.413.413 0 0 1-.356-.41.415.415 0 0 1 .356-.41l2.534-.419a.408.408 0 0 0 .34-.34l.42-2.541a.415.415 0 0 1 .407-.346.412.412 0 0 1 .407.346z" fill="#31C1FE"/><path fill-rule="evenodd" clip-rule="evenodd" d="M70.522 64.605h-52.94v-.656h52.94v.656z" fill="#31C1FE"/><path d="M27.229 32.024H10.431v9.109H27.23v-9.11z" fill="#4660F9"/><path opacity=".2" d="M84.778 45.486v-6.99h-3.43v-7.247H70.137v22.28H87.54v-8.043h-2.761zm-57.549-.701H10.431v9.109H27.23v-9.11z" fill="#4660F9"/></svg>