<svg width="98" height="82" fill="none" xmlns="http://www.w3.org/2000/svg"><path d="M58.64 13.448H9.8V38.35h48.84V13.448z" fill="#4660F9"/><path fill-rule="evenodd" clip-rule="evenodd" d="M19.852 25.19a3.174 3.174 0 0 0 3.168-3.18 3.174 3.174 0 0 0-3.168-3.181 3.174 3.174 0 0 0-3.168 3.18 3.174 3.174 0 0 0 3.168 3.181zm3.821-3.18a3.829 3.829 0 0 1-3.82 3.836 3.829 3.829 0 0 1-3.822-3.837 3.829 3.829 0 0 1 3.821-3.836 3.829 3.829 0 0 1 3.821 3.836z" fill="#fff"/><path fill-rule="evenodd" clip-rule="evenodd" d="M18.244 30.883c-.994 0-1.8.81-1.8 1.808s.806 1.807 1.8 1.807h14.027c.994 0 1.8-.809 1.8-1.807 0-.999-.806-1.808-1.8-1.808H18.244zm-2.453 1.808a2.459 2.459 0 0 1 2.453-2.464h14.027a2.459 2.459 0 0 1 2.453 2.464 2.459 2.459 0 0 1-2.453 2.463H18.244a2.459 2.459 0 0 1-2.453-2.463z" fill="#31C1FE"/><path opacity=".3" fill-rule="evenodd" clip-rule="evenodd" d="M39.127 42.998h49.492v25.558H39.127V42.998zm.653.656V67.9h48.186V43.654H39.78z" fill="#4660F9"/><path opacity=".3" fill-rule="evenodd" clip-rule="evenodd" d="M49.51 55.066a3.174 3.174 0 0 0 3.167-3.18 3.174 3.174 0 0 0-3.168-3.182 3.174 3.174 0 0 0-3.167 3.181 3.174 3.174 0 0 0 3.167 3.18zm3.82-3.18a3.829 3.829 0 0 1-3.82 3.836 3.829 3.829 0 0 1-3.822-3.837 3.829 3.829 0 0 1 3.821-3.837 3.829 3.829 0 0 1 3.822 3.837z" fill="#4660F9"/><path fill-rule="evenodd" clip-rule="evenodd" d="M47.882 59.722c-.995 0-1.8.81-1.8 1.808s.805 1.808 1.8 1.808h14.026c.994 0 1.8-.81 1.8-1.808s-.806-1.808-1.8-1.808H47.882zm-2.454 1.808a2.459 2.459 0 0 1 2.454-2.464h14.026a2.459 2.459 0 0 1 2.454 2.464 2.459 2.459 0 0 1-2.454 2.464H47.882a2.459 2.459 0 0 1-2.454-2.464z" fill="#31C1FE"/><path opacity=".3" fill-rule="evenodd" clip-rule="evenodd" d="M68.748 59.722c-.995 0-1.8.81-1.8 1.808s.806 1.808 1.8 1.808h6.8c.994 0 1.8-.81 1.8-1.808s-.806-1.808-1.8-1.808h-6.8zm-2.454 1.808a2.459 2.459 0 0 1 2.454-2.464h6.8A2.459 2.459 0 0 1 78 61.53a2.459 2.459 0 0 1-2.453 2.464h-6.8a2.459 2.459 0 0 1-2.454-2.464z" fill="#4660F9"/><path opacity=".1" d="M21.756 61.497c2.958 0 5.355-2.408 5.355-5.378s-2.397-5.377-5.355-5.377c-2.958 0-5.356 2.407-5.356 5.377 0 2.97 2.398 5.378 5.356 5.378z" fill="#4660F9"/><path d="m22.056 53.389.306 1.868a.314.314 0 0 0 .25.254l1.864.307a.302.302 0 0 1 .258.301.305.305 0 0 1-.259.3l-1.864.308a.312.312 0 0 0-.25.254l-.305 1.868a.304.304 0 0 1-.3.26.302.302 0 0 1-.3-.26l-.306-1.868a.315.315 0 0 0-.253-.254l-1.86-.307a.302.302 0 0 1-.258-.301.305.305 0 0 1 .258-.3l1.86-.308a.312.312 0 0 0 .253-.254l.306-1.868a.304.304 0 0 1 .3-.26.303.303 0 0 1 .3.26z" fill="#4660F9"/><path fill-rule="evenodd" clip-rule="evenodd" d="M39.038 56.367H27.112v-.656h11.926v.657zm-17.635-5.626V38.6h.653v12.142h-.653z" fill="#4660F9"/><path fill-rule="evenodd" clip-rule="evenodd" d="M46.354 21.049H28.11v-.657h18.244v.657zm-9.942 3.785H28.11v-.656h8.302v.656z" fill="#fff"/><path opacity=".2" fill-rule="evenodd" clip-rule="evenodd" d="M75.435 50.322H57.19v-.657h18.244v.657zm-9.942 3.787H57.19v-.657h8.302v.657zm6.157 0H67.5v-.657h4.15v.657z" fill="#4660F9"/></svg>