<svg width="98" height="82" fill="none" xmlns="http://www.w3.org/2000/svg"><path opacity=".2" d="M89.646 21.677H60.234v24.701h29.412V21.677z" fill="#4660F9"/><path opacity=".3" fill-rule="evenodd" clip-rule="evenodd" d="M52.993 22.232H9.073v13.825h43.92V22.232zm.653-.656v15.137H8.42V21.576h45.227zm35.347 29.996H60.888v13.77h28.105v-13.77zm.653-.657v15.083H60.234V50.915h29.412z" fill="#4660F9"/><path d="M53.98 42.938H8.355V66.2H53.98V42.938z" fill="#4660F9"/><path fill-rule="evenodd" clip-rule="evenodd" d="M15.637 58.28c-.592 0-1.072.481-1.072 1.075v1.184c0 .594.48 1.075 1.072 1.075h14.28c.592 0 1.072-.481 1.072-1.075v-1.184c0-.594-.48-1.075-1.071-1.075H15.637zm-1.725 1.075c0-.956.772-1.731 1.725-1.731h14.28c.953 0 1.725.775 1.725 1.731v1.184c0 .956-.772 1.731-1.724 1.731H15.637a1.728 1.728 0 0 1-1.725-1.731v-1.184zM35.13 58.28c-.591 0-1.07.481-1.07 1.075v1.184c0 .594.479 1.075 1.07 1.075h7.534c.591 0 1.071-.481 1.071-1.075v-1.184c0-.594-.48-1.075-1.071-1.075H35.13zm-1.724 1.075c0-.956.772-1.731 1.724-1.731h7.534c.952 0 1.724.775 1.724 1.731v1.184c0 .956-.772 1.731-1.724 1.731H35.13a1.728 1.728 0 0 1-1.724-1.731v-1.184z" fill="#31C1FE"/><path fill-rule="evenodd" clip-rule="evenodd" d="M32.677 53.037h-7.752v-.656h7.752v.656zm5.756 0h-3.878v-.656h3.878v.656zm3.537-3.541H24.925v-.657H41.97v.657zm-24.149 4.521a3.174 3.174 0 0 0 3.168-3.18 3.174 3.174 0 0 0-3.168-3.181 3.174 3.174 0 0 0-3.168 3.18 3.174 3.174 0 0 0 3.168 3.181zm3.821-3.18a3.829 3.829 0 0 1-3.82 3.836A3.829 3.829 0 0 1 14 50.837 3.829 3.829 0 0 1 17.821 47a3.829 3.829 0 0 1 3.821 3.837z" fill="#fff"/><path d="m75.3 30.231.458 2.752a.459.459 0 0 0 .37.372l2.74.459a.457.457 0 0 1 .347.445.46.46 0 0 1-.346.445l-2.741.458a.457.457 0 0 0-.37.372l-.457 2.752a.46.46 0 0 1-.446.357.456.456 0 0 1-.445-.357l-.457-2.752a.46.46 0 0 0-.374-.372l-2.741-.458a.456.456 0 0 1-.346-.445.46.46 0 0 1 .346-.445l2.74-.459a.457.457 0 0 0 .375-.371l.457-2.753a.46.46 0 0 1 .445-.357.456.456 0 0 1 .446.357z" fill="#4660F9"/><path fill-rule="evenodd" clip-rule="evenodd" d="M17.697 16.4H8.42v-.656h9.278v.656zm54.301 0H60.234v-.656h11.764v.656z" fill="#31C1FE"/></svg>