<svg width="248" height="42" xmlns="http://www.w3.org/2000/svg" xmlns:xlink="http://www.w3.org/1999/xlink"><defs><filter x="-.8%" y="-.8%" width="101.6%" height="103.3%" filterUnits="objectBoundingBox" id="a"><feOffset dy="1" in="SourceAlpha" result="shadowOffsetOuter1"/><feGaussianBlur stdDeviation=".5" in="shadowOffsetOuter1" result="shadowBlurOuter1"/><feComposite in="shadowBlurOuter1" in2="SourceAlpha" operator="out" result="shadowBlurOuter1"/><feColorMatrix values="0 0 0 0 0 0 0 0 0 0 0 0 0 0 0 0 0 0 0.06 0" in="shadowBlurOuter1"/></filter><filter x="-34.6%" y="-26.9%" width="169.2%" height="169.2%" filterUnits="objectBoundingBox" id="d"><feOffset dy="1" in="SourceAlpha" result="shadowOffsetOuter1"/><feGaussianBlur stdDeviation=".5" in="shadowOffsetOuter1" result="shadowBlurOuter1"/><feColorMatrix values="0 0 0 0 0 0 0 0 0 0 0 0 0 0 0 0 0 0 0.1 0" in="shadowBlurOuter1" result="shadowMatrixOuter1"/><feMerge><feMergeNode in="shadowMatrixOuter1"/><feMergeNode in="SourceGraphic"/></feMerge></filter><filter x="-30.8%" y="-23.1%" width="161.5%" height="161.5%" filterUnits="objectBoundingBox" id="e"><feMorphology radius="1" operator="dilate" in="SourceAlpha" result="shadowSpreadOuter1"/><feOffset dy="2" in="shadowSpreadOuter1" result="shadowOffsetOuter1"/><feGaussianBlur stdDeviation="2" in="shadowOffsetOuter1" result="shadowBlurOuter1"/><feComposite in="shadowBlurOuter1" in2="SourceAlpha" operator="out" result="shadowBlurOuter1"/><feColorMatrix values="0 0 0 0 0 0 0 0 0 0 0 0 0 0 0 0 0 0 0.12 0" in="shadowBlurOuter1"/></filter><rect id="b" x="0" y="0" width="248" height="121" rx="2"/><rect id="c" x="0" y="0" width="25" height="25" rx="2"/><rect id="f" x="0" y="0" width="26" height="26" rx="2"/><path d="M8 9.333a1.333 1.333 0 1 1 0-2.666 1.333 1.333 0 0 1 0 2.666Zm0-4.666A1.333 1.333 0 1 1 8 2a1.333 1.333 0 0 1 0 2.667ZM8 14a1.333 1.333 0 1 1 0-2.667A1.333 1.333 0 0 1 8 14Z" id="g"/></defs><g fill="none" fill-rule="evenodd"><g transform="translate(0 5)"><use fill="#000" filter="url(#a)" xlink:href="#b"/><rect stroke="#E9E9E9" stroke-linejoin="square" fill="#FFF" x=".5" y=".5" width="247" height="120" rx="2"/><rect fill="#E9E9E9" x="41" y="8" width="89" height="12" rx="2"/><rect fill="#E9E9E9" x="41" y="26" width="173" height="17" rx="2"/><g transform="translate(8 8)"><use fill="#D0D0D0" xlink:href="#c"/><circle fill="#FFF" fill-rule="nonzero" cx="12.5" cy="9.5" r="5.5"/><path d="M23 25c0-5.799-4.701-10.5-10.5-10.5S2 19.201 2 25h21Z" fill="#FFF" fill-rule="nonzero"/></g></g><g filter="url(#d)" transform="translate(218 1)"><g stroke-linecap="round"><use fill="#000" filter="url(#e)" xlink:href="#f"/><rect stroke="#AEAFDC" fill="#FFF" x="-.5" y="-.5" width="27" height="27" rx="2"/></g><g transform="translate(5 5)"><mask id="h" fill="#fff"><use xlink:href="#g"/></mask><use fill="#000" xlink:href="#g"/><g mask="url(#h)" fill="#333"><path d="M0 0h16v16H0z"/></g></g></g></g></svg>