<svg width="390" height="174" fill="none" xmlns="http://www.w3.org/2000/svg"><g clip-path="url(#a)"><mask id="b" mask-type="alpha" maskUnits="userSpaceOnUse" x="0" y="12" width="390" height="151"><path d="m0 62.804 40.647-2.635 39.31-2.424 40.19-10.061 38.074-7.486 39.405-19.028 40.854-3.97 37.695 20.744 41.218-15.56 37.878-.355L389.097 12v150.592l-33.825-22.427-37.878-2.103-78.913-14.76-40.855 5.773-39.405 15.285-38.074-13.788-40.19-10.886-39.31-1.56L0 111.2V62.804z" fill="#fff"/></mask><g mask="url(#b)" fill-rule="evenodd" clip-rule="evenodd"><path d="M-1.179 78.4H393v2H-1.179v-2z" fill="#2196F3"/><path d="M152.158 63.402 71.738 86.11H-3.999v2h76.012l79.976-22.582 64.754 29.925 50.753-23.13 41.297 17.382h39.094l41.108 3.452.167-1.993-41.191-3.46h-38.774L267.465 70.14 216.75 93.253l-64.592-29.85z" fill="#00D090"/></g><path fill-rule="evenodd" clip-rule="evenodd" d="M9.098 71v-1.104c3.108-2.352 4.32-3.396 4.32-4.548 0-.84-.72-1.224-1.452-1.224-.936 0-1.656.384-2.16.96l-.816-.924c.708-.852 1.836-1.284 2.952-1.284 1.548 0 2.904.876 2.904 2.472 0 1.476-1.356 2.796-3.504 4.416h3.552V71H9.098zm7.212-1.092.804-.96c.54.612 1.26.948 2.16.948 1.008 0 1.644-.624 1.644-1.404 0-.864-.624-1.428-1.608-1.428-.684 0-1.248.216-1.752.696l-.996-.288v-4.476h5.244v1.236h-3.84v2.316c.384-.384 1.044-.696 1.812-.696 1.344 0 2.556.948 2.556 2.58 0 1.668-1.26 2.712-3.048 2.712-1.38 0-2.328-.468-2.976-1.236zM30.818 71v-.792a2.346 2.346 0 0 1-1.86.936c-1.488 0-2.58-1.128-2.58-3.036 0-1.872 1.08-3.048 2.58-3.048.72 0 1.392.336 1.86.948v-3.012h1.26V71h-1.26zm0-1.74v-2.304c-.288-.432-.9-.78-1.5-.78-.996 0-1.632.804-1.632 1.932 0 1.116.636 1.92 1.632 1.92.6 0 1.212-.336 1.5-.768zM37.25 71v-.624c-.432.492-1.104.768-1.872.768-.948 0-2.016-.636-2.016-1.92 0-1.332 1.068-1.884 2.016-1.884.78 0 1.452.252 1.872.744v-.864c0-.672-.552-1.08-1.356-1.08-.648 0-1.212.24-1.716.732l-.516-.876c.672-.636 1.512-.936 2.436-.936 1.284 0 2.412.54 2.412 2.1V71h-1.26zm0-1.32v-.876c-.288-.396-.828-.6-1.38-.6-.708 0-1.236.408-1.236 1.044 0 .624.528 1.032 1.236 1.032.552 0 1.092-.204 1.38-.6zm2.832 2.46c.132.06.336.096.48.096.396 0 .66-.12.828-.504l.288-.66-2.376-5.868h1.344l1.692 4.344 1.692-4.344h1.356l-2.796 6.84c-.396.984-1.092 1.296-1.992 1.308-.18 0-.528-.036-.708-.084l.192-1.128zm5.592-1.896.576-.912c.408.42 1.212.816 1.968.816s1.14-.276 1.14-.708c0-.504-.612-.684-1.32-.84-.996-.216-2.184-.48-2.184-1.776 0-.948.816-1.764 2.28-1.764.984 0 1.728.348 2.256.816l-.528.888c-.348-.396-.996-.696-1.716-.696-.66 0-1.08.24-1.08.648 0 .444.576.6 1.26.756 1.008.216 2.244.504 2.244 1.872 0 1.02-.852 1.8-2.412 1.8-.984 0-1.884-.312-2.484-.9zM58.466 71v-.624c-.432.492-1.104.768-1.872.768-.948 0-2.016-.636-2.016-1.92 0-1.332 1.068-1.884 2.016-1.884.78 0 1.452.252 1.872.744v-.864c0-.672-.552-1.08-1.356-1.08-.648 0-1.212.24-1.716.732l-.516-.876c.672-.636 1.512-.936 2.436-.936 1.284 0 2.412.54 2.412 2.1V71h-1.26zm0-1.32v-.876c-.288-.396-.828-.6-1.38-.6-.708 0-1.236.408-1.236 1.044 0 .624.528 1.032 1.236 1.032.552 0 1.092-.204 1.38-.6zM62.882 71l-2.364-5.796h1.344l1.692 4.344 1.692-4.344h1.356L64.238 71h-1.356zm4.152-2.904c0-1.68 1.224-3.036 2.94-3.036 1.74 0 2.856 1.332 2.856 3.156v.3h-4.476c.096.876.756 1.596 1.848 1.596.564 0 1.236-.228 1.644-.636l.576.828c-.576.552-1.428.84-2.352.84-1.74 0-3.036-1.212-3.036-3.048zm2.94-2.004c-1.08 0-1.572.828-1.632 1.536h3.264c-.024-.684-.492-1.536-1.632-1.536zM74.078 71v-5.796h1.26v.852c.432-.552 1.128-.984 1.884-.984v1.248a1.853 1.853 0 0 0-.396-.036c-.528 0-1.236.36-1.488.768V71h-1.26zm7.704 0v-.624c-.432.492-1.104.768-1.872.768-.948 0-2.016-.636-2.016-1.92 0-1.332 1.068-1.884 2.016-1.884.78 0 1.452.252 1.872.744v-.864c0-.672-.552-1.08-1.356-1.08-.648 0-1.212.24-1.716.732l-.516-.876c.672-.636 1.512-.936 2.436-.936 1.284 0 2.412.54 2.412 2.1V71h-1.26zm0-1.32v-.876c-.288-.396-.828-.6-1.38-.6-.708 0-1.236.408-1.236 1.044 0 .624.528 1.032 1.236 1.032.552 0 1.092-.204 1.38-.6zm2.82 2.808.588-.912c.468.54 1.068.744 1.836.744.828 0 1.716-.384 1.716-1.572v-.696c-.444.576-1.104.96-1.86.96-1.476 0-2.568-1.068-2.568-2.976 0-1.872 1.08-2.976 2.568-2.976.732 0 1.392.336 1.86.948v-.804h1.26V70.7c0 2.088-1.548 2.652-2.976 2.652-.984 0-1.716-.216-2.424-.864zm4.14-3.372v-2.16c-.276-.432-.9-.78-1.488-.78-.996 0-1.632.744-1.632 1.86s.636 1.86 1.632 1.86c.588 0 1.212-.348 1.488-.78zm2.532-1.02c0-1.68 1.224-3.036 2.94-3.036 1.74 0 2.856 1.332 2.856 3.156v.3h-4.476c.096.876.756 1.596 1.848 1.596.564 0 1.236-.228 1.644-.636l.576.828c-.576.552-1.428.84-2.352.84-1.74 0-3.036-1.212-3.036-3.048zm2.94-2.004c-1.08 0-1.572.828-1.632 1.536h3.264c-.024-.684-.492-1.536-1.632-1.536z" fill="#2196F3"/><path opacity=".1" fill-rule="evenodd" clip-rule="evenodd" d="m304.522 56.589-35.572-8.905-38.074-7.486-39.405-19.028-40.854-3.97-37.695 20.744-41.218-15.56-37.878-.355L0 12v150.592l33.825-22.427 37.878-2.103 78.913-14.76 40.855 5.773 39.405 15.285 38.074-13.788 40.19-10.886 39.31-1.56 40.647-6.926V62.804l-35.832-2.323a5.292 5.292 0 1 1-9.68-.612l-30.506-1.881a5.292 5.292 0 0 1-8.557-1.399zm41.394 3.424a3.292 3.292 0 1 0 5.019.317l-2.485-.161-2.534-.156zM270.291 117a3.292 3.292 0 1 1 0 6.584 3.292 3.292 0 0 1 0-6.584zm5.292 3.292a5.292 5.292 0 1 0-10.583 0 5.292 5.292 0 0 0 10.583 0zM230.291 115a3.292 3.292 0 1 1 0 6.584 3.292 3.292 0 0 1 0-6.584zm5.292 3.292a5.292 5.292 0 1 0-10.583 0 5.292 5.292 0 0 0 10.583 0zM151.291 91a3.292 3.292 0 1 1 0 6.584 3.292 3.292 0 0 1 0-6.584zm5.292 3.292a5.292 5.292 0 1 0-10.584 0 5.292 5.292 0 0 0 10.584 0zm-2-23a3.292 3.292 0 1 0-6.584 0 3.292 3.292 0 0 0 6.584 0zM151.291 66a5.292 5.292 0 1 1 0 10.584 5.292 5.292 0 0 1 0-10.584zM75.583 33.292a3.292 3.292 0 1 0-6.584 0 3.292 3.292 0 0 0 6.584 0zM72.291 28a5.292 5.292 0 1 1 0 10.584 5.292 5.292 0 0 1 0-10.584zm-39 71a3.292 3.292 0 1 1 0 6.584 3.292 3.292 0 0 1 0-6.584zm5.292 3.292a5.292 5.292 0 1 0-10.584 0 5.292 5.292 0 0 0 10.584 0zm-2 28a3.292 3.292 0 1 0-6.584 0 3.292 3.292 0 0 0 6.584 0zM33.291 125a5.292 5.292 0 1 1 0 10.584 5.292 5.292 0 0 1 0-10.584zm82.292-9.708a3.292 3.292 0 1 0-6.584 0 3.292 3.292 0 0 0 6.584 0zM112.291 110a5.292 5.292 0 1 1 0 10.583 5.292 5.292 0 0 1 0-10.583zm0-60a3.292 3.292 0 1 1 0 6.584 3.292 3.292 0 0 1 0-6.584zm5.292 3.292a5.292 5.292 0 1 0-10.584 0 5.292 5.292 0 0 0 10.584 0zm-42 61a3.292 3.292 0 1 0-6.584 0 3.292 3.292 0 0 0 6.584 0zM72.291 109a5.292 5.292 0 1 1 0 10.584 5.292 5.292 0 0 1 0-10.584zm122.292-74.708a3.292 3.292 0 1 0-6.584 0 3.292 3.292 0 0 0 6.584 0zM191.291 29a5.292 5.292 0 1 1 0 10.584 5.292 5.292 0 0 1 0-10.584zm0 57a3.292 3.292 0 1 1 0 6.584 3.292 3.292 0 0 1 0-6.584zm5.292 3.292a5.292 5.292 0 1 0-10.584 0 5.292 5.292 0 0 0 10.584 0z" fill="#4660F9"/><path fill-rule="evenodd" clip-rule="evenodd" d="m274.364 28.848.756-.924c.516.6 1.368.972 2.22.972 1.056 0 1.668-.48 1.668-1.224 0-.792-.636-1.128-1.776-1.128-.336 0-.804 0-.924.012v-1.26c.144.012.612.012.924.012.936 0 1.644-.324 1.644-1.056 0-.744-.72-1.128-1.62-1.128-.816 0-1.488.312-2.064.888l-.72-.876c.612-.72 1.584-1.26 2.916-1.26 1.728 0 2.892.816 2.892 2.16 0 1.068-.912 1.692-1.74 1.836.78.072 1.86.708 1.86 1.944 0 1.356-1.164 2.328-3.012 2.328-1.428 0-2.484-.576-3.024-1.296zM285.116 30v-1.812H281.3V27.06l3.288-5.064h1.932v4.956h1.068v1.236h-1.068V30h-1.404zm0-6.744-2.436 3.696h2.436v-3.696zm-128.23 113.76c0-2.316 1.212-4.14 3.528-4.14.996 0 1.764.36 2.304.888l-.66 1.068c-.42-.444-.876-.708-1.644-.708-1.332 0-2.112 1.236-2.112 2.64 0 .084 0 .156.012.228.36-.54 1.2-1.116 2.148-1.116 1.44 0 2.676.876 2.676 2.58 0 1.488-1.164 2.688-2.952 2.688-2.352 0-3.3-1.908-3.3-4.128zm4.836 1.488c0-.984-.768-1.428-1.644-1.428-.684 0-1.344.372-1.752.948.084.864.552 1.872 1.788 1.872 1.056 0 1.608-.744 1.608-1.392zM40.328 125v-6.18l-1.308 1.356-.816-.852 2.304-2.328h1.224V125h-1.404zm2.748-3.996c0-2.016.96-4.128 3.204-4.128s3.204 2.112 3.204 4.128-.96 4.14-3.204 4.14-3.204-2.124-3.204-4.14zm4.98 0c0-1.524-.468-2.88-1.776-2.88s-1.776 1.356-1.776 2.88c0 1.524.468 2.892 1.776 2.892s1.776-1.368 1.776-2.892zm70.092-74.156.756-.924c.516.6 1.368.972 2.22.972 1.056 0 1.668-.48 1.668-1.224 0-.792-.636-1.128-1.776-1.128-.336 0-.804 0-.924.012v-1.26c.144.012.612.012.924.012.936 0 1.644-.324 1.644-1.056 0-.744-.72-1.128-1.62-1.128-.816 0-1.488.312-2.064.888l-.72-.876c.612-.72 1.584-1.26 2.916-1.26 1.728 0 2.892.816 2.892 2.16 0 1.068-.912 1.692-1.74 1.836.78.072 1.86.708 1.86 1.944 0 1.356-1.164 2.328-3.012 2.328-1.428 0-2.484-.576-3.024-1.296zm7.092-2.844c0-2.016.96-4.128 3.204-4.128s3.204 2.112 3.204 4.128-.96 4.14-3.204 4.14-3.204-2.124-3.204-4.14zm4.98 0c0-1.524-.468-2.88-1.776-2.88s-1.776 1.356-1.776 2.88c0 1.524.468 2.892 1.776 2.892s1.776-1.368 1.776-2.892zM278.03 165v-1.104c3.108-2.352 4.32-3.396 4.32-4.548 0-.84-.72-1.224-1.452-1.224-.936 0-1.656.384-2.16.96l-.816-.924c.708-.852 1.836-1.284 2.952-1.284 1.548 0 2.904.876 2.904 2.472 0 1.476-1.356 2.796-3.504 4.416h3.552V165h-5.796zM187.8 5.3a3.5 3.5 0 1 0 7 0 3.5 3.5 0 0 0-7 0zm-119 9a3.5 3.5 0 1 0 7 0 3.5 3.5 0 0 0-7 0zm201.5 25.5a3.5 3.5 0 1 1 0-7 3.5 3.5 0 0 1 0 7zm35.5 14.5a3.5 3.5 0 1 0 7 0 3.5 3.5 0 0 0-7 0zm39 8a3.5 3.5 0 1 0 7 0 3.5 3.5 0 0 0-7 0zm-78 58a3.5 3.5 0 1 0 7 0 3.5 3.5 0 0 0-7 0zm3.5 51.5a3.5 3.5 0 1 1 0-7 3.5 3.5 0 0 1 0 7zm-43.5-53.5a3.5 3.5 0 1 0 7 0 3.5 3.5 0 0 0-7 0zm-75.5 31.5a3.5 3.5 0 1 1 0-7 3.5 3.5 0 0 1 0 7zm-3.5-55.5a3.5 3.5 0 1 0 7 0 3.5 3.5 0 0 0-7 0zm3.5-19.5a3.5 3.5 0 1 1 0-7 3.5 3.5 0 0 1 0 7zm-79-38a3.5 3.5 0 1 1 0-7 3.5 3.5 0 0 1 0 7zm-42.5 65.5a3.5 3.5 0 1 0 7 0 3.5 3.5 0 0 0-7 0zm3.5 31.5a3.5 3.5 0 1 1 0-7 3.5 3.5 0 0 1 0 7zm311.5-5.5a3.5 3.5 0 1 0 7 0 3.5 3.5 0 0 0-7 0zm3.5 21.5a3.5 3.5 0 1 1 0-7 3.5 3.5 0 0 1 0 7zm-42.5-15.5a3.5 3.5 0 1 0 7 0 3.5 3.5 0 0 0-7 0zm-193.5-15.5a3.5 3.5 0 1 1 0-7 3.5 3.5 0 0 1 0 7zm-3.5-65.5a3.5 3.5 0 1 0 7 0 3.5 3.5 0 0 0-7 0zm-36.5 64.5a3.5 3.5 0 1 1 0-7 3.5 3.5 0 0 1 0 7zm119-80a3.5 3.5 0 1 1 0-7 3.5 3.5 0 0 1 0 7zm-4.083 52.5a3.5 3.5 0 1 0 7 0 3.5 3.5 0 0 0-7 0z" fill="#4660F9"/><path fill-rule="evenodd" clip-rule="evenodd" d="M256.84 106v-1.104c3.108-2.352 4.32-3.396 4.32-4.548 0-.84-.72-1.224-1.452-1.224-.936 0-1.656.384-2.16.96l-.816-.924c.708-.852 1.836-1.284 2.952-1.284 1.548 0 2.904.876 2.904 2.472 0 1.476-1.356 2.796-3.504 4.416h3.552V106h-5.796zm7.032-3.996c0-2.016.96-4.128 3.204-4.128s3.204 2.112 3.204 4.128-.96 4.14-3.204 4.14-3.204-2.124-3.204-4.14zm4.98 0c0-1.524-.468-2.88-1.776-2.88s-1.776 1.356-1.776 2.88c0 1.524.468 2.892 1.776 2.892s1.776-1.368 1.776-2.892zm9.9 3.996v-.792a2.348 2.348 0 0 1-1.86.936c-1.488 0-2.58-1.128-2.58-3.036 0-1.872 1.08-3.048 2.58-3.048.72 0 1.392.336 1.86.948v-3.012h1.26V106h-1.26zm0-1.74v-2.304c-.288-.432-.9-.78-1.5-.78-.996 0-1.632.804-1.632 1.932 0 1.116.636 1.92 1.632 1.92.6 0 1.212-.336 1.5-.768zm6.432 1.74v-.624c-.432.492-1.104.768-1.872.768-.948 0-2.016-.636-2.016-1.92 0-1.332 1.068-1.884 2.016-1.884.78 0 1.452.252 1.872.744v-.864c0-.672-.552-1.08-1.356-1.08-.648 0-1.212.24-1.716.732l-.516-.876c.672-.636 1.512-.936 2.436-.936 1.284 0 2.412.54 2.412 2.1V106h-1.26zm0-1.32v-.876c-.288-.396-.828-.6-1.38-.6-.708 0-1.236.408-1.236 1.044 0 .624.528 1.032 1.236 1.032.552 0 1.092-.204 1.38-.6zm2.832 2.46c.132.06.336.096.48.096.396 0 .66-.12.828-.504l.288-.66-2.376-5.868h1.344l1.692 4.344 1.692-4.344h1.356l-2.796 6.84c-.396.984-1.092 1.296-1.992 1.308-.18 0-.528-.036-.708-.084l.192-1.128zm5.592-1.896.576-.912c.408.42 1.212.816 1.968.816s1.14-.276 1.14-.708c0-.504-.612-.684-1.32-.84-.996-.216-2.184-.48-2.184-1.776 0-.948.816-1.764 2.28-1.764.984 0 1.728.348 2.256.816l-.528.888c-.348-.396-.996-.696-1.716-.696-.66 0-1.08.24-1.08.648 0 .444.576.6 1.26.756 1.008.216 2.244.504 2.244 1.872 0 1.02-.852 1.8-2.412 1.8-.984 0-1.884-.312-2.484-.9zm9.252.756v-5.796h1.26v.852c.432-.552 1.128-.984 1.884-.984v1.248a1.877 1.877 0 0 0-.396-.036c-.528 0-1.236.36-1.488.768V106h-1.26zm6.78.144c-1.836 0-2.976-1.38-2.976-3.048 0-1.656 1.14-3.036 2.976-3.036 1.86 0 2.988 1.38 2.988 3.036 0 1.668-1.128 3.048-2.988 3.048zm0-1.116c1.08 0 1.68-.9 1.68-1.932 0-1.02-.6-1.92-1.68-1.92-1.068 0-1.668.9-1.668 1.92 0 1.032.6 1.932 1.668 1.932zm4.26.972v-8.004h1.26V106h-1.26zm2.892 0v-8.004h1.26V106h-1.26zm3.516-6.684a.787.787 0 0 1-.78-.78c0-.432.36-.78.78-.78.432 0 .78.348.78.78 0 .432-.348.78-.78.78zm-.624 6.684v-5.796h1.26V106h-1.26zm6.804 0v-3.624c0-.9-.456-1.2-1.164-1.2-.648 0-1.2.384-1.488.78V106h-1.26v-5.796h1.26v.792a2.737 2.737 0 0 1 2.04-.936c1.248 0 1.872.672 1.872 1.86V106h-1.26zm2.82 1.488.588-.912c.468.54 1.068.744 1.836.744.828 0 1.716-.384 1.716-1.572v-.696c-.444.576-1.104.96-1.86.96-1.476 0-2.568-1.068-2.568-2.976 0-1.872 1.08-2.976 2.568-2.976.732 0 1.392.336 1.86.948v-.804h1.26v5.496c0 2.088-1.548 2.652-2.976 2.652-.984 0-1.716-.216-2.424-.864zm4.14-3.372v-2.16c-.276-.432-.9-.78-1.488-.78-.996 0-1.632.744-1.632 1.86s.636 1.86 1.632 1.86c.588 0 1.212-.348 1.488-.78zm9.516 1.884v-.624c-.432.492-1.104.768-1.872.768-.948 0-2.016-.636-2.016-1.92 0-1.332 1.068-1.884 2.016-1.884.78 0 1.452.252 1.872.744v-.864c0-.672-.552-1.08-1.356-1.08-.648 0-1.212.24-1.716.732l-.516-.876c.672-.636 1.512-.936 2.436-.936 1.284 0 2.412.54 2.412 2.1V106h-1.26zm0-1.32v-.876c-.288-.396-.828-.6-1.38-.6-.708 0-1.236.408-1.236 1.044 0 .624.528 1.032 1.236 1.032.552 0 1.092-.204 1.38-.6zm4.416 1.32-2.364-5.796h1.344l1.692 4.344 1.692-4.344h1.356L348.736 106h-1.356zm4.152-2.904c0-1.68 1.224-3.036 2.94-3.036 1.74 0 2.856 1.332 2.856 3.156v.3h-4.476c.096.876.756 1.596 1.848 1.596.564 0 1.236-.228 1.644-.636l.576.828c-.576.552-1.428.84-2.352.84-1.74 0-3.036-1.212-3.036-3.048zm2.94-2.004c-1.08 0-1.572.828-1.632 1.536h3.264c-.024-.684-.492-1.536-1.632-1.536zm4.104 4.908v-5.796h1.26v.852c.432-.552 1.128-.984 1.884-.984v1.248a1.877 1.877 0 0 0-.396-.036c-.528 0-1.236.36-1.488.768V106h-1.26zm7.704 0v-.624c-.432.492-1.104.768-1.872.768-.948 0-2.016-.636-2.016-1.92 0-1.332 1.068-1.884 2.016-1.884.78 0 1.452.252 1.872.744v-.864c0-.672-.552-1.08-1.356-1.08-.648 0-1.212.24-1.716.732l-.516-.876c.672-.636 1.512-.936 2.436-.936 1.284 0 2.412.54 2.412 2.1V106h-1.26zm0-1.32v-.876c-.288-.396-.828-.6-1.38-.6-.708 0-1.236.408-1.236 1.044 0 .624.528 1.032 1.236 1.032.552 0 1.092-.204 1.38-.6zm2.82 2.808.588-.912c.468.54 1.068.744 1.836.744.828 0 1.716-.384 1.716-1.572v-.696c-.444.576-1.104.96-1.86.96-1.476 0-2.568-1.068-2.568-2.976 0-1.872 1.08-2.976 2.568-2.976.732 0 1.392.336 1.86.948v-.804h1.26v5.496c0 2.088-1.548 2.652-2.976 2.652-.984 0-1.716-.216-2.424-.864zm4.14-3.372v-2.16c-.276-.432-.9-.78-1.488-.78-.996 0-1.632.744-1.632 1.86s.636 1.86 1.632 1.86c.588 0 1.212-.348 1.488-.78zm2.532-1.02c0-1.68 1.224-3.036 2.94-3.036 1.74 0 2.856 1.332 2.856 3.156v.3h-4.476c.096.876.756 1.596 1.848 1.596.564 0 1.236-.228 1.644-.636l.576.828c-.576.552-1.428.84-2.352.84-1.74 0-3.036-1.212-3.036-3.048zm2.94-2.004c-1.08 0-1.572.828-1.632 1.536h3.264c-.024-.684-.492-1.536-1.632-1.536z" fill="#00D090"/></g><defs><clipPath id="a"><path fill="#fff" d="M0 0h390v174H0z"/></clipPath></defs></svg>