<svg width="399" height="170" fill="none" xmlns="http://www.w3.org/2000/svg"><path opacity=".2" d="M41.38 65.943H15.287a2 2 0 0 0-2 2v99.343a2 2 0 0 0 2 2H41.38a2 2 0 0 0 2-2V67.943a2 2 0 0 0-2-2zM79 0H52.905a2 2 0 0 0-2 2v165.286a2 2 0 0 0 2 2H79a2 2 0 0 0 2-2V2a2 2 0 0 0-2-2zm76.179 50.195h-26.095a2 2 0 0 0-2 2v115.091a2 2 0 0 0 2 2h26.095a2 2 0 0 0 2-2V52.196a2 2 0 0 0-2-2zm37.619 42.322h-26.095a2 2 0 0 0-2 2v72.769a2 2 0 0 0 2 2h26.095a2 2 0 0 0 2-2V94.517a2 2 0 0 0-2-2zm38.559 0h-26.095a2 2 0 0 0-2 2v72.769a2 2 0 0 0 2 2h26.095a2 2 0 0 0 2-2V94.517a2 2 0 0 0-2-2zm37.619 0h-26.095a2 2 0 0 0-2 2v72.769a2 2 0 0 0 2 2h26.095a2 2 0 0 0 2-2V94.517a2 2 0 0 0-2-2z" fill="#4660F9"/><path opacity=".3" d="M306.595 52.164H280.5a2 2 0 0 0-2 2v113.122a2 2 0 0 0 2 2h26.095a2 2 0 0 0 2-2V54.164a2 2 0 0 0-2-2z" fill="#00D090"/><path d="M345.155 92.517H319.06a2 2 0 0 0-2 2v72.769a2 2 0 0 0 2 2h26.095a2 2 0 0 0 2-2V94.517a2 2 0 0 0-2-2z" fill="#00D090"/><path opacity=".2" d="M118.5 14.763H92.405a2 2 0 0 0-2 2v150.522a2 2 0 0 0 2 2H118.5a2 2 0 0 0 2-2V16.763a2 2 0 0 0-2-2z" fill="#4660F9"/><path opacity=".3" d="M382.774 52.164h-26.095a2 2 0 0 0-2 2v113.122a2 2 0 0 0 2 2h26.095a2 2 0 0 0 2-2V54.164a2 2 0 0 0-2-2z" fill="#00D090"/><path fill-rule="evenodd" clip-rule="evenodd" d="M10.5 66.4h378v2h-378v-2z" fill="#2196F3"/><path d="M393.716 70.7a3.5 3.5 0 1 0 0-7 3.5 3.5 0 0 0 0 7zM5.3 70.7a3.5 3.5 0 1 0 0-7 3.5 3.5 0 0 0 0 7z" fill="#2196F3"/><path fill-rule="evenodd" clip-rule="evenodd" d="M326.291 76.194c0-2.179 1.14-3.894 3.318-3.894.937 0 1.66.339 2.167.835l-.62 1.005c-.396-.418-.824-.666-1.547-.666-1.252 0-1.986 1.162-1.986 2.483 0 .079 0 .146.011.214.339-.508 1.129-1.05 2.02-1.05 1.355 0 2.517.824 2.517 2.427 0 1.4-1.095 2.528-2.776 2.528-2.212 0-3.104-1.795-3.104-3.882zm4.548 1.399c0-.925-.722-1.343-1.546-1.343-.643 0-1.264.35-1.647.892.079.812.519 1.76 1.681 1.76.993 0 1.512-.7 1.512-1.309zm2.246.418c0-.96.779-1.648 1.693-1.953-.846-.27-1.569-.824-1.569-1.783 0-1.388 1.422-1.975 2.765-1.975 1.32 0 2.765.587 2.765 1.975 0 .96-.733 1.512-1.58 1.783.915.305 1.693.993 1.693 1.953 0 1.343-1.343 2.065-2.878 2.065-1.546 0-2.889-.711-2.889-2.065zm4.311-3.533c0-.632-.62-1.004-1.422-1.004-.823 0-1.433.372-1.433 1.004 0 .711.97.982 1.433 1.061.463-.079 1.422-.35 1.422-1.06v-.001zm.125 3.363c0-.778-1.084-1.128-1.547-1.185-.474.057-1.557.407-1.557 1.185 0 .655.7 1.061 1.557 1.061.836 0 1.547-.406 1.547-1.06v-.001z" fill="#00D090"/><path opacity=".4" fill-rule="evenodd" clip-rule="evenodd" d="M363.485 37.57c0-.96.779-1.648 1.693-1.952-.846-.27-1.569-.824-1.569-1.783 0-1.389 1.422-1.975 2.765-1.975 1.32 0 2.765.586 2.765 1.975 0 .96-.733 1.512-1.58 1.783.914.304 1.693.993 1.693 1.952 0 1.343-1.343 2.065-2.878 2.065-1.546 0-2.889-.71-2.889-2.065zm4.311-3.532c0-.632-.62-1.005-1.422-1.005-.824 0-1.433.373-1.433 1.005 0 .71.97.982 1.433 1.06.463-.078 1.422-.35 1.422-1.06zm.124 3.363c0-.779-1.083-1.129-1.546-1.185-.474.056-1.557.406-1.557 1.185 0 .654.7 1.06 1.557 1.06.835 0 1.546-.406 1.546-1.06zm2.37 2.1v-1.039c2.923-2.212 4.063-3.194 4.063-4.278 0-.79-.677-1.15-1.365-1.15-.88 0-1.558.36-2.032.902l-.767-.869c.666-.8 1.727-1.207 2.776-1.207 1.456 0 2.731.823 2.731 2.324 0 1.39-1.275 2.63-3.295 4.154h3.34V39.5h-5.451z" fill="#00D090"/><path fill-rule="evenodd" clip-rule="evenodd" d="m173.093 59.25 2.844-6.365h-3.905v-1.163h5.429v.915l-2.923 6.613h-1.445zm5.27-1.027.757-.903c.508.576 1.185.892 2.031.892.948 0 1.546-.587 1.546-1.32 0-.813-.586-1.344-1.512-1.344-.643 0-1.174.203-1.648.655l-.936-.271v-4.21h4.932v1.163h-3.612v2.178c.361-.361.982-.655 1.704-.655 1.264 0 2.404.892 2.404 2.427 0 1.569-1.185 2.55-2.866 2.55-1.298 0-2.19-.44-2.8-1.162zM191.5 59.25v-.587c-.406.463-1.038.722-1.76.722-.892 0-1.896-.598-1.896-1.805 0-1.253 1.004-1.772 1.896-1.772.733 0 1.365.237 1.76.7v-.813c0-.632-.519-1.016-1.275-1.016-.61 0-1.14.226-1.614.689l-.485-.824c.632-.598 1.422-.88 2.29-.88 1.208 0 2.27.507 2.27 1.975v3.61H191.5zm0-1.241v-.824c-.27-.373-.778-.565-1.298-.565-.665 0-1.162.384-1.162.982 0 .587.497.97 1.162.97.52 0 1.027-.191 1.298-.563zm4.153 1.24-2.223-5.45h1.264l1.591 4.085 1.592-4.085h1.275l-2.223 5.45h-1.276zm3.905-2.73c0-1.58 1.151-2.855 2.765-2.855 1.637 0 2.686 1.252 2.686 2.968v.282h-4.21c.091.824.712 1.5 1.739 1.5.53 0 1.162-.214 1.546-.597l.542.778c-.542.52-1.343.79-2.212.79-1.637 0-2.856-1.14-2.856-2.866zm2.765-1.885c-1.015 0-1.478.779-1.535 1.445h3.07c-.022-.644-.463-1.445-1.535-1.445zm3.86 4.616v-5.451h1.185v.8c.406-.518 1.06-.924 1.772-.924v1.174a1.758 1.758 0 0 0-.373-.034c-.496 0-1.162.338-1.399.722v3.713h-1.185zm7.245 0v-.587c-.406.463-1.038.722-1.76.722-.892 0-1.896-.598-1.896-1.805 0-1.253 1.004-1.772 1.896-1.772.733 0 1.365.237 1.76.7v-.813c0-.632-.519-1.016-1.275-1.016-.61 0-1.14.226-1.614.689l-.485-.824c.632-.598 1.422-.88 2.291-.88 1.208 0 2.268.507 2.268 1.975v3.61h-1.185zm0-1.241v-.824c-.27-.373-.778-.565-1.297-.565-.666 0-1.163.384-1.163.982 0 .587.497.97 1.163.97.519 0 1.027-.191 1.297-.563zm2.653 2.64.553-.857c.44.508 1.004.7 1.726.7.779 0 1.614-.362 1.614-1.48v-.654c-.417.542-1.038.903-1.75.903-1.387 0-2.414-1.004-2.414-2.8 0-1.76 1.015-2.797 2.415-2.797.688 0 1.309.316 1.75.89V53.8h1.184v5.169c0 1.964-1.456 2.494-2.799 2.494-.925 0-1.614-.203-2.28-.813l.001-.001zm3.893-3.17v-2.032c-.26-.407-.846-.734-1.4-.734-.936 0-1.534.7-1.534 1.75 0 1.049.598 1.749 1.535 1.749.553 0 1.14-.328 1.4-.734h-.001zm2.381-.96c0-1.58 1.152-2.855 2.765-2.855 1.637 0 2.686 1.252 2.686 2.968v.282h-4.21c.091.824.712 1.5 1.739 1.5.53 0 1.162-.214 1.546-.597l.542.778c-.542.52-1.343.79-2.212.79-1.637 0-2.856-1.14-2.856-2.866zm2.765-1.885c-1.015 0-1.478.779-1.534 1.445h3.07c-.023-.644-.463-1.445-1.536-1.445z" fill="#2196F3"/></svg>