<svg width="396" height="171" fill="none" xmlns="http://www.w3.org/2000/svg"><path fill-rule="evenodd" clip-rule="evenodd" d="M289.909 5.058a3.27 3.27 0 0 1-.512 2h-1.96v1.41a3.29 3.29 0 0 1-2-.124V5.058h4.472zm-4.472 5.374V20.5h-63.001a5.327 5.327 0 0 1-.101 2h65.102V10.507a5.33 5.33 0 0 1-2-.075zm6.175-3.374h103.45v-2h-103.15a5.29 5.29 0 0 1-.3 2zM220.234 22.5h-2.312v1.94a3.292 3.292 0 0 1-2-.18V20.5h4.482a3.295 3.295 0 0 1-.17 2zm-4.312 3.863a5.295 5.295 0 0 0 2 .107v10.51H.256v-2h215.666v-8.617z" fill="#00D090"/><path opacity=".1" fill-rule="evenodd" clip-rule="evenodd" d="M289.601 6.69h-3.483v1.838a3.284 3.284 0 0 0 3.483-1.837zm2.127 0a5.287 5.287 0 0 1-5.61 3.853v11.589h-63.707a5.285 5.285 0 0 1-5.808 4.352v10.128H.938V170.51H395V6.69H291.728zm-75.125 17.773a3.286 3.286 0 0 0 3.76-2.331h-3.76v2.331zM339.644 40a3.284 3.284 0 1 0-6.568 0 3.284 3.284 0 0 0 6.568 0zm-3.284-5.284a5.284 5.284 0 1 1 0 10.568 5.284 5.284 0 0 1 0-10.568zm-46.443 19.357a3.284 3.284 0 1 0-6.568 0 3.284 3.284 0 0 0 6.568 0zm-3.284-5.284a5.284 5.284 0 1 1 0 10.568 5.284 5.284 0 0 1 0-10.568zm-69.43 17.951a3.284 3.284 0 1 1 0 6.568 3.284 3.284 0 0 1 0-6.568zm5.284 3.284a5.284 5.284 0 1 0-10.568 0 5.284 5.284 0 0 0 10.568 0zm-93.01 52.541a3.284 3.284 0 1 0-6.567 0 3.284 3.284 0 0 0 6.567 0zm-3.284-5.284a5.284 5.284 0 1 1 0 10.569 5.284 5.284 0 0 1 0-10.569z" fill="url(#a)"/><path opacity=".6" fill-rule="evenodd" clip-rule="evenodd" d="M339.611 40.468h-3.195v2.815a3.285 3.285 0 0 0 3.195-2.815zm2.013 0a5.285 5.285 0 0 1-5.208 4.815v10.502h-44.783a5.285 5.285 0 0 1-5.515 3.546v11.894H222.35a5.286 5.286 0 0 1-5.747 4.048v47.962h-85.168a5.284 5.284 0 0 1-4.968 4.606v42.974H395V40.468h-53.376zm-215.157 85.369a3.288 3.288 0 0 0 2.942-2.602h-2.942v2.602zm90.136-52.585a3.284 3.284 0 0 0 3.657-2.027h-3.657v2.027zm69.515-15.936a3.284 3.284 0 0 0 3.318-1.53h-3.318v1.53z" fill="url(#b)"/><path d="M336.467 43.615a3.5 3.5 0 1 1 0-7 3.5 3.5 0 0 1 0 7z" fill="#4660F9"/><path d="M286.74 8.9a3.5 3.5 0 1 1 0-7 3.5 3.5 0 0 1 0 7zm-69.43 15.95a3.5 3.5 0 1 1 0-7 3.5 3.5 0 0 1 0 7z" fill="#00D090"/><path d="M286.74 57.688a3.5 3.5 0 1 1 0-7 3.5 3.5 0 0 1 0 7zm-69.43 15.951a3.5 3.5 0 1 1 0-7 3.5 3.5 0 0 1 0 7zM126.3 126.18a3.5 3.5 0 1 1 0-7 3.5 3.5 0 0 1 0 7z" fill="#4660F9"/><path fill-rule="evenodd" clip-rule="evenodd" d="M339.327 38.59a3.273 3.273 0 0 1 .284 1.878h-2.257v2.662a3.28 3.28 0 0 1-1.876.033V38.59h3.849zm-3.849 6.62v8.697h-43.563l.002.165c0 .6-.1 1.176-.284 1.713h45.721V45.19a5.318 5.318 0 0 1-1.876.02zm6.146-4.742h53.057V38.59h-53.227a5.282 5.282 0 0 1 .17 1.878zm-52.188 15.317h-2.379v1.544a3.312 3.312 0 0 1-1.877-.311v-3.11h4.733a3.273 3.273 0 0 1-.477 1.878zm-4.256 3.369a5.29 5.29 0 0 0 1.877.185v11.888h-64.708a5.252 5.252 0 0 0 .096-1.877h62.735V59.154zm-69.515 13.771V69.35h4.753a3.314 3.314 0 0 1-.159 1.877h-2.717v2.063a3.288 3.288 0 0 1-1.877-.365zm0 2.155v46.28h-84.326a5.254 5.254 0 0 1 .096 1.877h86.107v-47.94a5.357 5.357 0 0 1-1.877-.217zm-86.257 48.157h-2.003v2.38a3.275 3.275 0 0 1-1.875.164v-4.421h3.719a3.276 3.276 0 0 1 .159 1.877zm-3.878 4.57a5.377 5.377 0 0 0 1.875-.099v43.107H0v-1.876h125.53v-41.132z" fill="#4660F9"/><path fill-rule="evenodd" clip-rule="evenodd" d="m9.123 50.669.732-1.014a3.242 3.242 0 0 0 2.376 1.036c1.08 0 1.509-.53 1.509-1.025 0-.675-.8-.878-1.712-1.114-1.227-.304-2.668-.664-2.668-2.252 0-1.238 1.092-2.195 2.736-2.195 1.17 0 2.116.37 2.815 1.047l-.755.98c-.585-.586-1.385-.857-2.173-.857-.777 0-1.272.372-1.272.935 0 .585.766.777 1.655 1.002 1.239.315 2.713.698 2.713 2.33 0 1.25-.878 2.32-2.904 2.32-1.385 0-2.387-.484-3.052-1.193zm6.8-1.667c0-1.644 1.16-2.848 2.816-2.848 1.058 0 1.7.45 2.082.968l-.776.72a1.452 1.452 0 0 0-1.25-.641c-.99 0-1.644.743-1.644 1.8 0 1.06.653 1.814 1.644 1.814.529 0 .946-.225 1.25-.642l.776.72c-.382.519-1.024.969-2.082.969-1.655 0-2.815-1.205-2.815-2.86h-.001zm8.389 2.86c-1.723 0-2.792-1.295-2.792-2.86 0-1.554 1.07-2.848 2.792-2.848 1.745 0 2.803 1.294 2.803 2.848 0 1.565-1.058 2.86-2.803 2.86zm0-1.047c1.013 0 1.576-.845 1.576-1.813 0-.957-.563-1.801-1.576-1.801-1.002 0-1.565.844-1.565 1.8 0 .969.563 1.814 1.565 1.814zm5.179 2.983h-1.182v-7.51h1.182v.744a2.17 2.17 0 0 1 1.745-.878c1.407 0 2.41 1.058 2.41 2.848 0 1.79-1.003 2.86-2.41 2.86-.687 0-1.306-.304-1.745-.89v2.826zm2.927-4.796c0-1.047-.597-1.801-1.531-1.801-.552 0-1.137.326-1.396.732v2.15c.259.394.844.732 1.396.732.934 0 1.531-.754 1.531-1.813zm2.083 0c0-1.576 1.148-2.848 2.758-2.848 1.633 0 2.68 1.25 2.68 2.96v.282h-4.2c.09.822.71 1.498 1.734 1.498.53 0 1.16-.214 1.543-.597l.54.777c-.54.518-1.34.788-2.206.788-1.633 0-2.849-1.137-2.849-2.86zm2.758-1.88c-1.013 0-1.474.777-1.53 1.44h3.062c-.023-.641-.462-1.44-1.532-1.44zm155.452-20.386v2.33h-.833v-2.33h-2.083v-.766h2.083v-2.252h.833v2.252h2.083v.766h-2.083zm7.465 3.41V24.35l-1.227 1.272-.766-.8 2.162-2.183h1.148v7.51h-1.317v-.002zm2.578-3.748c0-1.891.9-3.873 3.006-3.873s3.006 1.982 3.006 3.873c0 1.892-.9 3.884-3.006 3.884-2.105 0-3.006-1.992-3.006-3.884zm4.673 0c0-1.43-.44-2.702-1.667-2.702s-1.666 1.272-1.666 2.702.44 2.713 1.666 2.713c1.228 0 1.667-1.283 1.667-2.713z" fill="#00D090"/><path fill-rule="evenodd" clip-rule="evenodd" d="M108.46 135.23v-1.035c2.917-2.207 4.054-3.187 4.054-4.268 0-.788-.676-1.148-1.362-1.148-.879 0-1.554.36-2.027.9l-.766-.866c.665-.8 1.723-1.205 2.77-1.205 1.453 0 2.725.822 2.725 2.32 0 1.384-1.272 2.623-3.288 4.143h3.333v1.16h-5.438l-.001-.001zm10.032 0v-1.7h-3.58v-1.058l3.085-4.751h1.813v4.65h1.002v1.16h-1.002v1.7h-1.318v-.001zm0-6.327-2.285 3.468h2.285v-3.468zm80.686-47.295.709-.867c.484.563 1.283.912 2.083.912.99 0 1.565-.45 1.565-1.148 0-.743-.597-1.059-1.667-1.059-.315 0-.754 0-.866.012v-1.183c.135.012.574.012.866.012.879 0 1.543-.304 1.543-.991 0-.698-.676-1.059-1.52-1.059-.766 0-1.396.293-1.937.834l-.675-.822c.574-.676 1.486-1.182 2.736-1.182 1.621 0 2.713.765 2.713 2.026 0 1.002-.855 1.588-1.632 1.723.732.067 1.745.664 1.745 1.824 0 1.272-1.092 2.184-2.826 2.184-1.34 0-2.33-.54-2.837-1.216zm6.755 1.08v-1.035c2.916-2.207 4.053-3.186 4.053-4.267 0-.788-.675-1.149-1.362-1.149-.878 0-1.554.36-2.027.901l-.765-.867c.664-.8 1.722-1.204 2.77-1.204 1.452 0 2.724.821 2.724 2.319 0 1.385-1.272 2.623-3.288 4.143h3.333v1.16h-5.438v-.001zM270.499 65.8v-5.798l-1.227 1.272-.766-.799 2.162-2.184h1.148v7.51H270.5l-.001-.001zm2.68 0v-1.035c2.916-2.207 4.053-3.187 4.053-4.267 0-.789-.676-1.149-1.362-1.149-.879 0-1.554.36-2.027.9l-.766-.866c.665-.8 1.723-1.205 2.77-1.205 1.452 0 2.725.822 2.725 2.32 0 1.384-1.273 2.623-3.288 4.143h3.333v1.16h-5.438V65.8zm50.049-17.875c0-.957.777-1.644 1.69-1.948-.845-.27-1.566-.822-1.566-1.779 0-1.384 1.419-1.97 2.758-1.97 1.318 0 2.759.586 2.759 1.97 0 .957-.732 1.51-1.576 1.78.912.303 1.689.99 1.689 1.947 0 1.34-1.34 2.06-2.872 2.06-1.542 0-2.882-.709-2.882-2.06zm4.301-3.524c0-.63-.62-1.002-1.419-1.002-.821 0-1.43.372-1.43 1.002 0 .71.969.98 1.43 1.058.462-.078 1.42-.349 1.42-1.058h-.001zm.124 3.355c0-.777-1.08-1.126-1.543-1.182-.472.056-1.553.405-1.553 1.182 0 .653.698 1.059 1.553 1.059.834 0 1.543-.406 1.543-1.059z" fill="#4660F9"/><path fill-rule="evenodd" clip-rule="evenodd" d="M261.608 10.786v2.33h-.833v-2.33h-2.083v-.766h2.083V7.768h.833v2.252h2.083v.766h-2.083zm7.465 3.411V8.4l-1.227 1.272-.766-.8 2.162-2.184h1.148v7.51h-1.317v-.001zm6.012 0v-1.7h-3.58V11.44l3.085-4.752h1.812v4.65h1.002v1.16h-1.002v1.7h-1.317v-.001zm0-6.327-2.285 3.467h2.285V7.87z" fill="#00D090"/><path fill-rule="evenodd" clip-rule="evenodd" d="M336.412 160.698c-2.161 0-3.884-1.576-3.884-3.884s1.723-3.885 3.884-3.885c1.577 0 2.511.789 3.074 1.69l-1.126.573a2.25 2.25 0 0 0-1.948-1.092c-1.43 0-2.533 1.137-2.533 2.714 0 1.576 1.104 2.713 2.533 2.713.867 0 1.588-.461 1.948-1.092l1.126.574c-.574.9-1.497 1.69-3.074 1.69v-.001zm6.553 0c-1.723 0-2.792-1.295-2.792-2.86 0-1.553 1.07-2.848 2.792-2.848 1.745 0 2.804 1.295 2.804 2.848 0 1.565-1.059 2.86-2.804 2.86zm0-1.047c1.013 0 1.576-.844 1.576-1.813 0-.957-.563-1.801-1.576-1.801-1.002 0-1.565.844-1.565 1.801 0 .969.563 1.813 1.565 1.813zm10.662.912v-3.547c0-.585-.259-.98-.89-.98-.528 0-1.024.372-1.26.721v3.806h-1.182v-3.547c0-.585-.26-.98-.901-.98-.518 0-1.002.372-1.25.733v3.794h-1.182v-5.438h1.182v.743c.225-.338.946-.878 1.768-.878.81 0 1.306.405 1.486 1.002.315-.496 1.036-1.002 1.846-1.002 1.003 0 1.565.54 1.565 1.644v3.929h-1.182zm3.896 2.072h-1.182v-7.51h1.182v.743a2.173 2.173 0 0 1 1.745-.878c1.407 0 2.41 1.058 2.41 2.848 0 1.79-1.003 2.86-2.41 2.86-.687 0-1.306-.304-1.745-.89v2.827zm2.927-4.797c0-1.047-.597-1.801-1.531-1.801-.552 0-1.137.326-1.396.732v2.15c.259.394.844.732 1.396.732.934 0 1.531-.754 1.531-1.813zm2.42 2.725v-7.51h1.183v7.51h-1.183zm2.376-2.725c0-1.576 1.149-2.848 2.759-2.848 1.632 0 2.68 1.25 2.68 2.96v.282h-4.2c.09.822.71 1.498 1.734 1.498.529 0 1.16-.214 1.542-.597l.54.777c-.54.518-1.34.788-2.206.788-1.633 0-2.849-1.137-2.849-2.86zm2.759-1.88c-1.013 0-1.475.777-1.531 1.441h3.062c-.022-.642-.462-1.44-1.531-1.44v-.001zm5.483 4.74c-.912 0-1.396-.495-1.396-1.396v-3.141h-.9v-1.036h.9v-1.486h1.182v1.486h1.103v1.036h-1.103v2.848c0 .372.18.642.518.642.225 0 .44-.09.53-.191l.28.889c-.213.203-.562.35-1.114.35v-.001zm1.621-2.86c0-1.576 1.149-2.848 2.759-2.848 1.632 0 2.68 1.25 2.68 2.96v.282h-4.2c.09.822.71 1.498 1.734 1.498.529 0 1.16-.214 1.542-.597l.54.777c-.54.518-1.34.788-2.206.788-1.633 0-2.849-1.137-2.849-2.86zm2.759-1.88c-1.014 0-1.475.777-1.532 1.441h3.063c-.023-.642-.462-1.44-1.531-1.44v-.001zm7.678 4.605v-.743a2.196 2.196 0 0 1-1.745.878c-1.396 0-2.42-1.058-2.42-2.848 0-1.757 1.013-2.86 2.42-2.86.676 0 1.306.315 1.745.89v-2.827h1.182v7.51h-1.182zm0-1.633v-2.161c-.27-.406-.844-.732-1.407-.732-.935 0-1.531.754-1.531 1.813 0 1.047.596 1.801 1.53 1.801.564 0 1.138-.315 1.408-.72v-.001z" fill="#4660F9"/><defs><linearGradient id="a" x1="163.757" y1="7.936" x2="163.757" y2="170.51" gradientUnits="userSpaceOnUse"><stop stop-color="#00D090" stop-opacity=".5"/><stop offset="1" stop-color="#00D090" stop-opacity=".1"/></linearGradient><linearGradient id="b" x1="232.181" y1="44.361" x2="232.181" y2="169.824" gradientUnits="userSpaceOnUse"><stop stop-color="#4660F9" stop-opacity=".3"/><stop offset="1" stop-color="#4660F9" stop-opacity=".1"/></linearGradient></defs></svg>