<svg width="398" height="173" fill="none" xmlns="http://www.w3.org/2000/svg"><path fill-rule="evenodd" clip-rule="evenodd" d="M57.583 0H.94v2h54.643v28.052a5.29 5.29 0 0 1 2 .218V0zm0 32.43v1.733h1.515a3.285 3.285 0 0 1 .105 2h-3.62v-4.1a3.278 3.278 0 0 1 2 .367zm3.661 3.733a5.334 5.334 0 0 0-.062-2H108V49.64h88.49v42.73h118.565v16.88h78.804v61.026h-2V111.25h-78.804V94.37H194.49V51.64H106V36.163H61.244z" fill="#4660F9"/><path opacity=".6" fill-rule="evenodd" clip-rule="evenodd" d="M56.583 1H1v165.454h386.066a5.294 5.294 0 0 1 5.793-4.424v-51.78h-73.275v.042a5.292 5.292 0 1 1-5.529-5.287V93.37H200.583a5.292 5.292 0 1 1-5.093-5.366V50.64h-82.917A5.292 5.292 0 1 1 107 45.008v-9.845H61.308l.002.164a5.292 5.292 0 1 1-4.727-5.262V1zm336.276 163.049a3.292 3.292 0 0 0-3.751 2.405h3.751v-2.405zm-78.804-53.799v-3.242a3.292 3.292 0 1 0 3.529 3.284v-.042h-3.529zM195.49 90.006a3.292 3.292 0 1 0 3.093 3.364h-3.093v-3.364zM107 50.64v-3.627a3.293 3.293 0 1 0 3.566 3.627H107zM56.583 32.083a3.292 3.292 0 1 0 2.723 3.08h-2.723v-3.08z" fill="url(#a)"/><path d="M56 38.6a3.3 3.3 0 1 0 0-6.6 3.3 3.3 0 0 0 0 6.6zm51.3 15a3.3 3.3 0 1 0 0-6.6 3.3 3.3 0 0 0 0 6.6zm88 43a3.3 3.3 0 1 0 0-6.6 3.3 3.3 0 0 0 0 6.6zm119 17a3.3 3.3 0 1 0 .001-6.599 3.3 3.3 0 0 0-.001 6.599zm78 57a3.3 3.3 0 1 0 .001-6.599 3.3 3.3 0 0 0-.001 6.599z" fill="#4660F9"/><path fill-rule="evenodd" clip-rule="evenodd" d="M64.35 26.05v-1.015h2.71v1.016h-2.71zm6.58 1.197.756-.903c.508.576 1.185.892 2.032.892.948 0 1.546-.587 1.546-1.32 0-.813-.587-1.344-1.513-1.344-.643 0-1.173.203-1.647.655l-.937-.27v-4.21H76.1v1.162h-3.612v2.178c.362-.36.982-.655 1.705-.655 1.264 0 2.403.892 2.403 2.427 0 1.568-1.185 2.55-2.866 2.55-1.298 0-2.19-.44-2.799-1.162zm6.602-2.73c0-1.897.903-3.884 3.013-3.884s3.014 1.987 3.014 3.883-.903 3.893-3.014 3.893c-2.11 0-3.013-1.997-3.013-3.893zm4.684 0c0-1.435-.44-2.71-1.67-2.71s-1.67 1.275-1.67 2.71c0 1.432.44 2.72 1.67 2.72s1.67-1.288 1.67-2.72zm31.98 17.522v-1.016h2.708v1.016h-2.708zm6.512 2.223v-1.038c2.923-2.212 4.062-3.194 4.062-4.278 0-.79-.677-1.15-1.365-1.15-.88 0-1.558.36-2.032.902l-.767-.869c.666-.8 1.727-1.208 2.776-1.208 1.456 0 2.731.824 2.731 2.325 0 1.388-1.275 2.63-3.295 4.153h3.34v1.163h-5.45zm6.613-3.758c0-1.896.903-3.883 3.013-3.883s3.014 1.987 3.014 3.883-.903 3.893-3.014 3.893c-2.11 0-3.013-1.997-3.013-3.893zm4.684 0c0-1.434-.44-2.709-1.67-2.709s-1.671 1.275-1.671 2.71c0 1.432.44 2.72 1.67 2.72s1.67-1.288 1.67-2.72h.001zM202.6 84.36v-1.016h2.709v1.016H202.6zm7.314 2.223 2.844-6.365h-3.905v-1.162h5.428v.914l-2.923 6.613h-1.444zm5.1-3.758c0-1.896.904-3.882 3.014-3.882s3.013 1.986 3.013 3.882c0 1.896-.903 3.894-3.013 3.894s-3.014-1.998-3.014-3.894zm4.684 0c0-1.433-.44-2.708-1.67-2.708s-1.67 1.275-1.67 2.708c0 1.433.44 2.72 1.67 2.72s1.67-1.287 1.67-2.72zM321.1 101.29v-1.016h2.709v1.016H321.1zm6.512 2.223v-1.038c2.923-2.212 4.063-3.194 4.063-4.278 0-.79-.677-1.15-1.365-1.15-.88 0-1.558.36-2.032.902l-.767-.869c.666-.8 1.726-1.208 2.776-1.208 1.456 0 2.731.824 2.731 2.325 0 1.388-1.275 2.63-3.295 4.153h3.34v1.163h-5.451zm6.614-3.758c0-1.896.903-3.883 3.013-3.883s3.013 1.987 3.013 3.883-.903 3.893-3.013 3.893-3.013-1.997-3.013-3.893zm4.683 0c0-1.434-.44-2.709-1.67-2.709s-1.67 1.275-1.67 2.71c0 1.432.44 2.719 1.67 2.719s1.67-1.287 1.67-2.72z" fill="#4660F9"/><defs><linearGradient id="a" x1="250.073" y1="-24.422" x2="224.195" y2="180.292" gradientUnits="userSpaceOnUse"><stop stop-color="#6061BE" stop-opacity=".3"/><stop offset="1" stop-color="#6061BE" stop-opacity=".1"/></linearGradient></defs></svg>