<svg width="300" height="250" fill="none" xmlns="http://www.w3.org/2000/svg"><path fill-rule="evenodd" clip-rule="evenodd" d="M276.795 67.376 260.743 97.83h-38.301l-71.702 78.843-1.48-1.346 72.298-79.497h37.979l15.488-29.386 1.77.932z" fill="#4660F9"/><path fill-rule="evenodd" clip-rule="evenodd" d="M98.061 133H80v-2h18.799l51.114 43.612 9.849-10.786 1.476 1.348-11.151 12.214L98.061 133zM72 133.08H45.81v-2H72v2zm-33.9 0H24v-2h14.1v2z" fill="#4660F9"/><path fill-rule="evenodd" clip-rule="evenodd" d="M41.73 129a3.08 3.08 0 1 0 0 6.16 3.08 3.08 0 0 0 0-6.16zm-5.08 3.08a5.08 5.08 0 1 1 10.16 0 5.08 5.08 0 0 1-10.16 0z" fill="#4660F9"/><path d="M68.41 85.7a3 3 0 1 1 6.001 0 3 3 0 0 1-6 0z" fill="#4660F9"/><path fill-rule="evenodd" clip-rule="evenodd" d="M205.656 91.018a3.08 3.08 0 1 0-1.192 6.043 3.08 3.08 0 0 0 1.192-6.043zm-2.549-1.668a5.08 5.08 0 1 1 3.905 9.38 5.08 5.08 0 0 1-3.905-9.38z" fill="#4660F9"/><path d="M222.73 67.45a2.62 2.62 0 1 0 0-5.24 2.62 2.62 0 0 0 0 5.24z" fill="#4660F9"/><path fill-rule="evenodd" clip-rule="evenodd" d="M150.13 185a3.13 3.13 0 1 0 0 6.26 3.13 3.13 0 0 0 0-6.26zm-5.13 3.13a5.13 5.13 0 1 1 10.26 0 5.13 5.13 0 0 1-10.26 0zm-68.32-59.071A3.08 3.08 0 0 0 73 132.08h-1l1 .002a3.065 3.065 0 0 0 1.899 2.846 3.07 3.07 0 0 0 1.179.232h.002a3.083 3.083 0 0 0 2.846-1.901 3.08 3.08 0 0 0-2.245-4.2zm-5.68 3.02a5.079 5.079 0 1 1 5.081 5.081A5.073 5.073 0 0 1 71 132.079zm5.081 5.081h-.001v-1l.002 1z" fill="#4660F9"/><path d="m150.569 102.894 1.077 6.578a1.08 1.08 0 0 0 .887.888l6.574 1.078A1.075 1.075 0 0 1 160 112.5a1.08 1.08 0 0 1-.893 1.062l-6.574 1.078a1.08 1.08 0 0 0-.887.888l-1.077 6.578a1.075 1.075 0 0 1-2.122 0l-1.093-6.578a1.062 1.062 0 0 0-.887-.888l-6.574-1.078A1.075 1.075 0 0 1 139 112.5a1.08 1.08 0 0 1 .893-1.062l6.574-1.078a1.062 1.062 0 0 0 .887-.888l1.093-6.578a1.08 1.08 0 0 1 1.061-.894 1.077 1.077 0 0 1 1.061.894z" fill="#4660F9"/><g opacity=".3" fill="#4660F9"><path d="m200.21 192.08.43 2.63a.452.452 0 0 0 .36.36l2.63.43a.428.428 0 0 1 .261.705.434.434 0 0 1-.261.145l-2.63.43a.438.438 0 0 0-.36.35l-.43 2.63a.434.434 0 0 1-.425.365.43.43 0 0 1-.425-.365l-.43-2.63a.419.419 0 0 0-.36-.35l-2.63-.43a.43.43 0 0 1 0-.85l2.63-.43a.432.432 0 0 0 .237-.123.432.432 0 0 0 .123-.237l.43-2.63a.43.43 0 0 1 .85 0z"/><path fill-rule="evenodd" clip-rule="evenodd" d="M118 45a3.13 3.13 0 1 0 0 6.26 3.13 3.13 0 0 0 0-6.26zm-5.13 3.13a5.13 5.13 0 1 1 10.26 0 5.13 5.13 0 0 1-10.26 0z"/><path d="m141.22 61.17.43 2.63a.417.417 0 0 0 .36.35l2.63.44a.421.421 0 0 1 .297.717.421.421 0 0 1-.297.123l-2.63.44a.42.42 0 0 0-.36.35l-.43 2.63a.432.432 0 0 1-.705.261.427.427 0 0 1-.145-.261l-.43-2.63a.441.441 0 0 0-.36-.35l-2.63-.44a.42.42 0 1 1 0-.84l2.63-.44a.444.444 0 0 0 .36-.35l.43-2.63a.426.426 0 0 1 .425-.365.431.431 0 0 1 .425.365z"/><path fill-rule="evenodd" clip-rule="evenodd" d="M275.22 113.83H183v-2h92.22v2z"/><path fill-rule="evenodd" clip-rule="evenodd" d="m115.557 112.972 34.414-34.415 34.414 34.415-34.414 34.414-34.414-34.414zm2.829 0 31.585 31.585 31.586-31.585-31.586-31.586-31.585 31.586z"/><path fill-rule="evenodd" clip-rule="evenodd" d="M117.5 113.83H24.09v-2h93.41v2z"/></g><g opacity=".2" fill="#4660F9"><path d="M118 102.4a3.45 3.45 0 1 0-.001-6.901A3.45 3.45 0 0 0 118 102.4zm123.83 40.87a2.62 2.62 0 1 0 0-5.24 2.62 2.62 0 0 0 0 5.24z"/><path fill-rule="evenodd" clip-rule="evenodd" d="M222.57 199.88a2.62 2.62 0 1 0 0 5.24 2.62 2.62 0 0 0 0-5.24zm-4.62 2.62a4.62 4.62 0 1 1 9.239-.001 4.62 4.62 0 0 1-9.239.001z"/></g><path opacity=".1" d="M182.7 90.57c63.31 27.13-145.39 9-145.39 9s125.91 17.07 36.84 45.26c-89.07 28.19 116.17 29.22 64 4.87-52.17-24.35 136.74-15 136.74-15s-102.65-49-34.48-64.35C308.58 55 119.4 63.44 182.7 90.57z" fill="#4660F9"/></svg>