<svg width="300" height="250" fill="none" xmlns="http://www.w3.org/2000/svg"><path fill-rule="evenodd" clip-rule="evenodd" d="M261.25 51h-54.97v25.52h54.97V51zm2-2v29.52h-58.97V49h58.97zM39 198.98h54.97v-25.52H39v25.52zm-2 2v-29.52h58.97v29.52H37z" fill="#4660F9"/><path d="m144.95 135.26 1.08-6.6a1.067 1.067 0 0 1 .89-.88l6.59-1.09a1.07 1.07 0 0 0 0-2.12l-6.59-1.09a1.08 1.08 0 0 1-.89-.89l-1.08-6.59a1.077 1.077 0 0 0-1.065-.901 1.08 1.08 0 0 0-1.065.901l-1.09 6.59a1.072 1.072 0 0 1-.88.89l-6.6 1.09a1.07 1.07 0 0 0 0 2.12l6.6 1.09a1.059 1.059 0 0 1 .88.88l1.09 6.6a1.077 1.077 0 0 0 1.065.901 1.08 1.08 0 0 0 1.065-.901z" fill="#4660F9"/><path fill-rule="evenodd" clip-rule="evenodd" d="M143.88 89.4c-20.01 0-36.23 16.221-36.23 36.23 0 20.009 16.22 36.23 36.23 36.23 20.009 0 36.23-16.221 36.23-36.23 0-20.009-16.221-36.23-36.23-36.23zm-38.23 36.23c0-21.114 17.116-38.23 38.23-38.23 21.113 0 38.23 17.116 38.23 38.23 0 21.114-17.117 38.23-38.23 38.23-21.114 0-38.23-17.116-38.23-38.23z" fill="#4660F9"/><path d="M232.77 124.01V78.52h2v47.49h-52.61v-2h50.61zm-165.14 0h37.87v2H69.63v45.49h-2v-47.49z" opacity=".3" fill-rule="evenodd" clip-rule="evenodd" fill="#4660F9"/><g opacity=".2" fill="#4660F9"><path d="m235.07 140.12-.42 2.53a.413.413 0 0 1-.34.34l-2.52.42a.404.404 0 0 0-.248.139.406.406 0 0 0 0 .532.404.404 0 0 0 .248.139l2.52.42a.394.394 0 0 1 .34.34l.42 2.52a.41.41 0 0 0 .81 0l.42-2.52a.388.388 0 0 1 .34-.34l2.52-.42a.404.404 0 0 0 .247-.139.406.406 0 0 0 0-.532.404.404 0 0 0-.247-.139l-2.52-.42a.405.405 0 0 1-.34-.34l-.42-2.53a.412.412 0 0 0-.672-.248.413.413 0 0 0-.138.248zm-151.41 7.65-.41 2.53a.432.432 0 0 1-.34.34l-2.53.41a.424.424 0 0 0-.33.41.42.42 0 0 0 .33.41l2.53.41a.431.431 0 0 1 .34.34l.41 2.53a.422.422 0 0 0 .41.329.423.423 0 0 0 .41-.329l.41-2.53a.431.431 0 0 1 .34-.34l2.53-.41a.424.424 0 0 0 .329-.41.42.42 0 0 0-.33-.41l-2.53-.41a.425.425 0 0 1-.34-.34l-.41-2.53a.418.418 0 0 0-.41-.329.42.42 0 0 0-.41.329z"/><path fill-rule="evenodd" clip-rule="evenodd" d="M225.949 149.27a3.99 3.99 0 1 0 0 7.98 3.99 3.99 0 0 0 0-7.98zm-5.99 3.99a5.99 5.99 0 1 1 11.98 0 5.99 5.99 0 0 1-11.98 0z"/><path d="M222.25 117.31a2.21 2.21 0 1 0-.001-4.421 2.21 2.21 0 0 0 .001 4.421z"/><path fill-rule="evenodd" clip-rule="evenodd" d="M81.6 99.15a1.98 1.98 0 1 0 0 3.96 1.98 1.98 0 0 0 0-3.96zm-3.98 1.98a3.98 3.98 0 1 1 7.96 0 3.98 3.98 0 0 1-7.96 0z"/><path d="M96.02 139.88a2.4 2.4 0 1 0 0-4.8 2.4 2.4 0 0 0 0 4.8zM94.82 72a1.2 1.2 0 1 0 0-2.4 1.2 1.2 0 0 0 0 2.4zM68.63 99.34a1.2 1.2 0 1 0 0-2.4 1.2 1.2 0 0 0 0 2.4zm149.619 39.34a1.2 1.2 0 1 0 0-2.4 1.2 1.2 0 0 0 0 2.4zM55.06 89.59a.6.6 0 1 0 0-1.2.6.6 0 0 0 0 1.2z"/></g><path d="M195.24 51.7h-87.9v23.95h87.9V51.7zm-90.58 146.66h70.39v-23.95h-70.39v23.95zm77.39 0H206v-23.95h-23.95v23.95zm-38.17-51.2c11.891 0 21.53-9.639 21.53-21.53 0-11.891-9.639-21.53-21.53-21.53-11.891 0-21.53 9.639-21.53 21.53 0 11.891 9.639 21.53 21.53 21.53z" opacity=".1" fill="#4660F9"/></svg>